<?xml version="1.0" encoding="UTF-8" standalone="no"?>
<svg
   xmlns:dc="http://purl.org/dc/elements/1.1/"
   xmlns:cc="http://creativecommons.org/ns#"
   xmlns:rdf="http://www.w3.org/1999/02/22-rdf-syntax-ns#"
   xmlns:svg="http://www.w3.org/2000/svg"
   xmlns="http://www.w3.org/2000/svg"
   xmlns:sodipodi="http://sodipodi.sourceforge.net/DTD/sodipodi-0.dtd"
   xmlns:inkscape="http://www.inkscape.org/namespaces/inkscape"
   width="210mm"
   height="297mm"
   viewBox="0 0 210 297"
   version="1.1"
   id="svg8"
   inkscape:version="1.0.2-2 (e86c870879, 2021-01-15)"
   sodipodi:docname="Afganistan 2021-.svg">
  <defs
     id="defs2" />
  <sodipodi:namedview
     id="base"
     pagecolor="#ffffff"
     bordercolor="#666666"
     borderopacity="1.0"
     inkscape:pageopacity="0.0"
     inkscape:pageshadow="2"
     inkscape:zoom="0.49497475"
     inkscape:cx="290.26776"
     inkscape:cy="246.43925"
     inkscape:document-units="mm"
     inkscape:current-layer="layer1"
     inkscape:document-rotation="0"
     showgrid="false"
     inkscape:window-width="1366"
     inkscape:window-height="705"
     inkscape:window-x="-8"
     inkscape:window-y="-8"
     inkscape:window-maximized="1" />
  <metadata
     id="metadata5">
    <rdf:RDF>
      <cc:Work
         rdf:about="">
        <dc:format>image/svg+xml</dc:format>
        <dc:type
           rdf:resource="http://purl.org/dc/dcmitype/StillImage" />
        <dc:title></dc:title>
      </cc:Work>
    </rdf:RDF>
  </metadata>
  <g
     inkscape:label="Warstwa 1"
     inkscape:groupmode="layer"
     id="layer1">
    <rect
       style="fill:#ffffff;fill-opacity:1;stroke-width:0.264999;stroke-linejoin:round;stroke-opacity:0.449799"
       id="rect26-6"
       width="100.00002"
       height="100.13197"
       x="100"
       y="0" />
    <rect
       style="fill:#ffffff;fill-opacity:1;stroke-width:0.264999;stroke-linejoin:round;stroke-opacity:0.449799"
       id="rect26"
       width="100.00002"
       height="100.13197"
       x="0"
       y="0" />
    <path
       style="fill:#000000;stroke-width:0.999999"
       d="m 128.17127,74.569647 c -1.98233,-1.00392 -2.92886,-2.87242 -3.11349,-6.14616 -0.0657,-1.16511 -0.22274,-2.11072 -0.38103,-2.29469 -0.45775,-0.53195 -0.5417,-1.31124 -0.30411,-2.82304 0.30258,-1.92532 1.14684,-3.68494 2.5792,-5.37562 0.64526,-0.76162 1.17318,-1.42436 1.17318,-1.47276 0,-0.0484 -1.56149,-1.52425 -3.46999,-3.279674 l -3.47,-3.19166 0.13805,2.17819 c 0.0759,1.19801 0.19575,4.337294 0.26628,6.976184 0.13668,5.1144 0.0333,6.20941 -0.78711,8.34434 l -0.48103,1.25165 -0.14346,-2.19039 c -0.0789,-1.20471 -0.40328,-5.92046 -0.72085,-10.47942 l -0.5774,-8.289034 -2.23863,-2.38597 c -1.23123,-1.31229 -2.91402,-3.30852 -3.73952,-4.43607 -0.82549,-1.12757 -2.05038,-2.67577 -2.72196,-3.44045 l -1.22105,-1.39036 v -1.58231 c 0,-0.87028 0.0835,-1.58232 0.18554,-1.58232 0.10203,0 1.05192,0.56965 2.11084,1.26589 2.23532,1.46973 4.16196,3.21536 4.16196,3.77097 0,0.466 0.0265,0.46392 -0.91207,0.0713 -0.41503,-0.17363 -0.7546,-0.22413 -0.7546,-0.11227 0,0.20533 2.33758,3.0736 3.91899,4.8087 0.80385,0.88198 0.85591,0.90721 0.86086,0.41722 0.003,-0.28682 -0.22426,-3.6605 -0.5048,-7.49707 l -0.51008,-6.97553 0.6656,-1.21235 c 0.36609,-0.66676 0.72533,-1.2123 0.79832,-1.2123 0.1984,0 1.5624,3.68816 1.85498,5.01575 0.14019,0.63608 0.22,1.33783 0.17738,1.55947 -0.0654,0.34024 -0.15278,0.29011 -0.56119,-0.32209 l -0.4837,-0.72502 0.11234,1.56456 c 0.0618,0.86051 0.26286,3.95835 0.44683,6.88407 0.18396,2.92573 0.37598,5.52613 0.42672,5.77867 0.10153,0.50542 8.73405,8.686284 9.05126,8.577704 0.43777,-0.14988 6.24649,-5.666804 6.24649,-5.932734 0,-0.45828 -1.85546,-18.25048 -1.99193,-19.10076 -0.0996,-0.62087 0.01,-1.01054 0.56973,-2.03146 0.38116,-0.69477 0.75515,-1.26433 0.83104,-1.26571 0.36354,-0.006 2.04949,5.11832 2.04949,6.22987 v 0.7328 l -0.53402,-0.71852 -0.53404,-0.71849 0.13106,1.25164 c 0.0721,0.68841 0.39371,4.09455 0.71475,7.5692 0.32106,3.47465 0.62238,6.35622 0.66961,6.40354 0.0743,0.0744 5.21,-4.45574 6.6144,-5.83462 l 0.49924,-0.49017 -0.93648,-1.11207 c -0.51507,-0.61163 -1.61928,-2.00386 -2.45378,-3.09383 -0.8345,-1.08999 -1.82631,-2.31035 -2.20401,-2.71192 -0.63695,-0.67717 -0.6916,-0.84739 -0.75382,-2.34732 -0.0369,-0.88947 -0.0445,-1.61699 -0.0167,-1.61672 0.10559,10e-4 4.99565,3.65184 5.93919,4.4341 1.17545,0.97454 1.12989,1.16583 0.67917,-2.85139 l -0.3023,-2.69425 0.64788,-1.21715 c 0.35634,-0.66944 0.71533,-1.21715 0.79776,-1.21715 0.40171,0 2.35548,5.72616 2.16237,6.33753 -0.11212,0.35485 -0.17084,0.33496 -0.61647,-0.20861 l -0.49255,-0.60081 0.11174,0.93873 c 0.0614,0.51631 0.22299,1.89204 0.35896,3.05717 l 0.2472,2.11843 2.83697,-2.43133 c 1.56032,-1.33725 3.18561,-2.71297 3.61173,-3.05717 l 0.77476,-0.62583 -0.20193,-1.46026 c -0.19994,-1.44587 -0.19465,-1.47338 0.5368,-2.79273 0.66725,-1.20356 0.76501,-1.29648 1.01043,-0.96041 0.14944,0.20465 0.47282,0.97727 0.71866,1.71695 l 0.44696,1.34489 0.86198,-0.79898 c 0.47408,-0.43945 1.53892,-1.45225 2.3663,-2.25068 0.82737,-0.79842 1.56044,-1.3955 1.62902,-1.32682 0.23297,0.23327 -0.35892,1.74657 -1.06319,2.7183 -0.38582,0.53236 -1.26569,1.41959 -1.95528,1.97161 -1.23378,0.9877 -1.25199,1.01753 -1.14307,1.87179 0.13783,1.08102 -0.15128,1.29244 -0.73995,0.54108 -0.41682,-0.53203 -0.4428,-0.5397 -0.34961,-0.10321 0.0554,0.25932 0.35939,4.4367 0.67559,9.28306 l 0.57489,8.81156 2.41627,2.50331 c 3.39183,3.513994 4.86509,5.827344 5.42208,8.513954 0.23674,1.14182 0.11703,3.0638 -0.19093,3.0638 -0.0835,0 -0.271,-0.39896 -0.4168,-0.88658 -0.40286,-1.3472 -1.52243,-3.45533 -2.5758,-4.85014 -1.15489,-1.52925 -4.22855,-4.83752 -4.3608,-4.69369 -0.0528,0.0574 -0.0125,1.3716 0.0906,2.92051 0.29017,4.38037 0.0624,8.08915 -0.62144,10.11751 l -0.56262,1.66887 -0.14662,-1.25165 c -0.0806,-0.68841 -0.35452,-4.52372 -0.6086,-8.52292 l -0.46199,-7.271284 -2.20388,-1.99289 c -2.36823,-2.14149 -5.53461,-4.84691 -5.67275,-4.84691 -0.0466,0 0.17986,2.83968 0.50311,6.31041 0.59834,6.424264 0.8516,14.441834 0.50755,16.067294 -0.32844,1.55167 -2.13446,3.05164 -4.36247,3.62319 -2.20624,0.56596 -4.24372,0.0347 -5.47713,-1.42813 -0.68661,-0.8143 -1.55148,-2.59634 -1.55435,-3.20269 -0.006,-1.44202 -1.28754,-1.41658 -2.9256,0.058 -1.22785,1.1054 -2.00093,2.52801 -2.79314,5.13991 -1.00644,3.31826 -2.55275,4.32033 -4.86204,3.1508 z m 2.01649,-2.06764 c 0.81406,-0.42152 1.09665,-0.93261 1.9684,-3.56015 0.44053,-1.3278 1.1203,-2.84637 1.61027,-3.59723 1.71109,-2.62221 4.45959,-4.12684 5.4787,-2.99925 0.19325,0.21382 0.67585,1.17087 1.07246,2.12677 1.27859,3.08168 2.70678,3.91267 5.57229,3.24228 2.00848,-0.46989 3.06847,-1.0503 3.06847,-1.68017 0,-0.2768 -0.51562,-5.56815 -1.14583,-11.75855 -0.63021,-6.190394 -1.14727,-11.383224 -1.14903,-11.539614 -0.001,-0.15638 -0.0888,-0.41972 -0.19329,-0.58519 -0.14842,-0.2349 -0.86058,0.33675 -3.24851,2.60761 -1.68213,1.59965 -3.47753,3.28395 -3.98978,3.74289 l -0.93138,0.83442 0.26423,2.6409 c 0.21039,2.102834 0.212,2.931614 0.008,4.067864 -0.27172,1.51263 -1.06434,3.3867 -1.63108,3.85655 -0.31265,0.2592 -0.33072,0.10322 -0.22057,-1.90401 0.13788,-2.51243 -0.0377,-6.679524 -0.28149,-6.679524 -0.0906,0 -0.85408,0.63366 -1.6966,1.40811 -0.84251,0.77446 -1.97624,1.811934 -2.51939,2.305474 l -0.98755,0.89735 0.72488,0.848 c 0.87649,1.02531 1.3725,2.39318 1.3725,3.78495 0,1.66693 -0.39989,2.64347 -1.5619,3.81421 -1.2706,1.28015 -2.91739,1.98665 -4.94852,2.12299 -1.6074,0.10788 -1.59039,0.0761 -1.08741,2.03743 0.89967,3.50822 2.53055,4.96095 4.45224,3.96589 z m 8.04143,-12.05912 c 0.45833,-0.27404 1.49082,-0.88141 2.29441,-1.3497 0.80359,-0.46828 1.88171,-1.22772 2.39583,-1.68766 l 0.93475,-0.83621 -0.59602,-0.23049 c -0.53502,-0.20689 -0.58173,-0.29954 -0.45643,-0.90483 0.0768,-0.37089 0.13257,-1.01576 0.12392,-1.43304 -0.0268,-1.303174 1.08995,-1.225984 2.53003,0.17488 0.99426,0.96719 1.29653,1.68721 1.01718,2.42294 -0.23214,0.61135 -0.55003,0.68682 -1.35198,0.32094 -0.48495,-0.22124 -0.59501,-0.15946 -1.48828,0.83538 -0.72008,0.80195 -1.448,1.30933 -2.87154,2.00148 -1.04881,0.50995 -2.23506,0.9851 -2.63611,1.05587 l -0.72916,0.1287 z m 7.76639,-4.57011 c -0.0445,-0.13355 -0.3804,-0.47414 -0.74653,-0.75686 l -0.66569,-0.51405 v 0.6178 c 0,0.33979 0.0626,0.68038 0.13889,0.75686 0.24579,0.24614 1.35959,0.1554 1.27333,-0.10372 z m -1.6897,-0.29487 c 0.0694,-0.181 -0.0273,-0.48275 -0.21487,-0.67053 -0.31576,-0.31617 -0.36796,-0.31404 -0.70558,0.0289 -0.34733,0.35285 -0.34545,0.38456 0.0398,0.67052 0.51934,0.38548 0.7244,0.37874 0.88063,-0.0289 z m -14.88319,7.19539 c 2.41537,-0.951 2.87485,-1.54714 2.08637,-2.70682 -0.76798,-1.12953 -1.79788,-2.28201 -2.0393,-2.28201 -0.27383,0 -2.12712,2.05091 -3.18575,3.52549 -0.68319,0.95158 -0.8495,1.77803 -0.39857,1.98047 0.46712,0.20971 2.41416,-0.0749 3.53725,-0.51713 z m 26.80633,-21.881244 c -0.35236,-5.17871 -0.55102,-7.09511 -0.73108,-7.05218 -0.13599,0.0325 -1.62695,1.2793 -3.31321,2.77085 -1.68629,1.49156 -3.19581,2.81614 -3.3545,2.94351 -0.61417,0.49299 -0.26296,1.07778 1.95104,3.24852 3.27905,3.21498 5.70671,5.42561 5.82652,5.30564 0.0578,-0.0579 -0.11261,-3.3052 -0.37877,-7.21634 z m -10.18733,-4.144 c 0,-1.00162 -0.008,-1.01216 -0.85363,-1.26611 -0.46948,-0.14085 -0.90131,-0.20834 -0.95958,-0.14997 -0.0903,0.0903 1.60263,2.4261 1.75838,2.4261 0.0301,0 0.0549,-0.45452 0.0549,-1.01002 z M 61.875004,71.693987 c 5.631205,-2.82772 9.821033,-5.11271 10.339863,-5.63902 0.12964,-0.13148 0.43807,-0.86102 0.68543,-1.62117 0.44788,-1.37642 1.62329,-3.55055 2.24149,-4.14603 0.40499,-0.39012 0.37083,-0.29953 -0.70795,1.87748 -0.48327,0.97524 -0.94104,2.136 -1.01727,2.57947 l -0.1386,0.8063 1.95477,-1.31016 c 3.6812,-2.46725 6.85061,-5.13788 6.85061,-5.7725 0,-0.16261 -0.79688,-2.03829 -1.77084,-4.16819 -0.97396,-2.129894 -1.77084,-3.967274 -1.77084,-4.083034 0,-0.11579 0.1921,-0.85636 0.42688,-1.64574 0.50125,-1.68533 0.56677,-1.68067 1.98013,0.14122 1.0211,1.31624 1.39807,1.95714 1.65498,2.8136 l 0.15644,0.52152 -0.54671,-0.50573 c -0.65143,-0.60261 -0.68312,-0.47551 -0.14486,0.58095 1.26307,2.479124 1.73194,5.903144 1.0726,7.832894 -0.40971,1.19909 -3.20706,3.9999 -6.44635,6.45433 l -2.78441,2.10975 0.59691,0.25528 c 1.52028,0.65021 4.41502,0.0223 6.94549,-1.50663 1.97188,-1.1914 5.39336,-3.85881 7.40145,-5.77022 l 1.38142,-1.31489 -1.16913,-3.44204 c -0.64301,-1.89312 -1.72728,-4.545844 -2.40948,-5.894924 -0.6822,-1.34909 -1.23464,-2.66332 -1.22763,-2.92052 0.007,-0.25719 0.17367,-0.98154 0.37038,-1.60966 l 0.35765,-1.14204 0.58758,0.77135 c 0.8273,1.08608 2.72051,4.5618 3.48584,6.39963 0.93772,2.251794 1.61984,5.169294 1.85313,7.926114 0.11369,1.34338 0.40835,3.06349 0.66393,3.87564 0.393198,1.24948 0.661178,1.66708 1.856628,2.89307 0.76841,0.78804 1.48924,1.37578 1.60184,1.3061 0.1126,-0.0697 0.26754,-0.46189 0.34429,-0.87158 0.3301,-1.76195 2.42084,-3.14171 6.782685,-4.47617 1.20313,-0.36808 2.42188,-0.75351 2.70833,-0.85648 0.3178,-0.11428 -2.18876,-0.15295 -6.430115,-0.0994 l -6.950948,0.088 0.12771,-0.79973 c 0.297448,-1.86256 0.595488,-2.35695 2.104688,-3.49115 1.46609,-1.10181 5.652795,-3.34802 7.867415,-4.220974 1.21773,-0.47998 1.44204,-0.79559 0.89093,-1.25357 -1.3385,-1.11232 0.41074,-4.59396 2.30809,-4.59396 0.79591,0 2.69435,0.88966 4.46563,2.0927 1.68867,1.14694 1.69051,1.15112 1.14939,2.60098 l -0.46716,1.25165 -1.33489,0.267494 c -0.7342,0.14711 -1.67271,0.35825 -2.0856,0.46917 l -0.75068,0.20167 0.0975,1.01614 c 0.11778,1.22727 -0.23558,1.57955 -0.56916,0.56745 -0.39809,-1.20783 -0.58225,-1.24451 -2.63587,-0.52503 -2.2133,0.77544 -5.357395,2.29747 -6.224435,3.01322 l -0.625,0.51594 10.989595,0.001 c 6.04426,6.3e-4 10.98958,0.038 10.98958,0.0831 0,0.0451 -0.30752,0.63185 -0.68337,1.30381 l -0.68337,1.22174 -1.55622,0.36682 c -8.35198,1.96864 -10.9467,2.63851 -13.63955,3.52124 -3.305825,1.08369 -4.749245,1.7621 -4.848645,2.27888 -0.0762,0.39608 1.3412,1.10329 3.116685,1.55506 0.72341,0.18407 1.66687,0.42648 2.09655,0.53871 l 0.78125,0.20402 v 1.55651 1.55652 l -0.78125,-0.001 c -1.75807,-0.004 -4.653265,-0.5934 -5.994045,-1.22164 -1.68409,-0.78912 -3.48985,-2.55304 -4.414628,-4.31233 -0.73361,-1.3956 -1.43901,-3.75536 -1.6868,-5.64277 l -0.162,-1.23398 -0.47389,1.46026 c -0.4143,1.27668 -0.64889,1.62633 -1.86605,2.78139 -4.52774,4.29669 -9.64554,7.07222 -12.68332,6.87853 -1.47469,-0.094 -2.15998,-0.55828 -2.75536,-1.86669 l -0.34571,-0.75971 -1.34556,0.82306 c -2.255563,1.3797 -3.157806,1.78524 -5.20899,2.34134 -1.990109,0.53957 -8.9967,2.00399 -9.574076,2.00104 -0.171875,-8.4e-4 2.359376,-1.34328 5.625,-2.98312 z M 107.461,51.986783 c 1.24741,-0.35304 1.29551,-0.39002 0.93375,-0.71783 -0.57118,-0.5176 -2.16971,-1.19321 -2.83551,-1.19841 -0.32264,-0.002 -0.77863,0.0984 -1.01331,0.22407 -0.40818,0.21874 -0.38762,0.26853 0.47375,1.14736 0.49523,0.50527 0.95121,0.91831 1.01329,0.91787 0.0621,-4.3e-4 0.7047,-0.16833 1.42803,-0.37306 z m 38.17667,21.394514 c 0.19117,-0.42013 1.14516,-0.89105 5.13788,-2.53616 2.69672,-1.11113 4.94442,-1.97889 4.99491,-1.92835 0.0505,0.0505 -0.028,0.28399 -0.17446,0.51877 -0.21363,0.34254 -5.99427,2.88648 -9.82162,4.32232 -0.32864,0.12334 -0.34441,0.0798 -0.13671,-0.37658 z m 8.01962,0.30361 c -0.0554,-0.0554 0.95863,-0.58894 2.25334,-1.18552 4.59528,-2.11737 8.67995,-4.76936 10.19221,-6.61733 0.41849,-0.51135 1.02059,-1.48643 1.33804,-2.16682 0.84795,-1.8175 0.84345,-3.68236 -0.0356,-14.703254 -0.41585,-5.2144 -0.92842,-11.64842 -1.13904,-14.29779 -0.21064,-2.6494 -0.49539,-5.02741 -0.63282,-5.28451 -0.21263,-0.39783 -0.14869,-0.6979 0.42931,-2.01487 0.37353,-0.85108 0.73712,-1.54741 0.80798,-1.54741 0.24475,0 2.29586,6.65761 2.2945,7.44759 l -0.001,0.79243 -0.42929,-0.62582 -0.42931,-0.62583 0.13439,2.19039 c 0.074,1.20471 0.363,5.10047 0.6424,8.65725 1.0096,12.852724 1.01989,13.067034 0.75535,15.716264 -0.65962,6.60621 -3.16476,10.30761 -8.394,12.4024 -2.30205,0.92218 -7.48679,2.16262 -7.78619,1.86283 z M 44.545875,73.414797 c -1.953096,-0.26416 -3.634393,-0.94704 -4.6582,-1.89199 l -0.875324,-0.80791 -3.724923,0.11529 -3.724927,0.11528 3.204409,-1.10455 3.204408,-1.10455 -0.03596,-2.19039 c -0.02828,-1.72207 0.07212,-2.61408 0.469515,-4.17216 0.497866,-1.95197 1.773149,-5.5237 1.919797,-5.37686 0.04134,0.0414 -0.105893,0.65773 -0.327176,1.36967 -0.941376,3.02862 -0.941777,6.40332 -0.001,8.53289 l 0.389612,0.88194 1.629869,-0.6576 c 2.694234,-1.08708 8.15513,-3.9387 10.457559,-5.46082 2.272097,-1.50209 4.975895,-3.71249 5.17423,-4.23002 0.136152,-0.35521 -0.344042,-1.94328 -0.587571,-1.94328 -0.09065,0 -0.704718,0.14081 -1.364592,0.31292 -1.495737,0.3901 -3.826541,0.40435 -4.712669,0.0288 -1.379344,-0.5846 -1.877992,-1.73124 -1.550176,-3.564664 0.227496,-1.27236 0.759581,-2.33682 1.537789,-3.07638 0.631627,-0.60028 1.901005,-1.21132 2.512387,-1.20941 1.412442,0.005 3.371454,1.35328 4.257118,2.93119 0.253943,0.45243 0.516442,0.8226 0.583326,0.8226 0.210709,0 1.754217,-1.07576 2.405832,-1.67675 0.956774,-0.88247 2.200158,-1.66098 2.652789,-1.66098 0.367196,0 0.393486,0.0995 0.267951,1.01339 -0.120357,0.87622 -0.07365,1.08921 0.345034,1.57356 0.3753,0.43414 0.695116,0.56986 1.421726,0.60332 0.922066,0.0425 0.936694,0.0328 0.888494,-0.58267 -0.02696,-0.34419 -0.613312,-5.54026 -1.303017,-11.5468 l -1.254012,-10.92099 0.66518,-1.24965 0.665179,-1.24965 0.562087,1.1144 c 0.772837,1.53222 1.861027,4.67901 1.851932,5.35533 l -0.0075,0.55705 -0.534005,-0.62582 -0.534006,-0.62582 0.119202,1.25164 c 0.06557,0.6884 0.355516,3.223 0.644344,5.63242 0.288826,2.40943 0.693732,6.0705 0.899792,8.13573 0.291846,2.92499 0.439926,3.75494 0.669956,3.75494 0.16241,0 0.720973,-0.69492 1.241253,-1.54426 1.01702,-1.66029 1.52068,-2.13586 1.88045,-1.77561 0.15018,0.15038 0.14727,0.41683 -0.01,0.86711 -0.47133,1.35384 0.34517,1.86035 2.825,1.7525 1.31378,-0.0572 1.49267,-0.25512 1.11057,-1.22913 -0.31185,-0.79496 -0.3035,-0.84662 0.34481,-2.1326 0.7604,-1.50834 0.85058,-1.43277 1.06069,0.88889 0.1845,2.03872 -0.26176,3.62403 -1.34857,4.79068 -0.69929,0.75067 -0.91739,0.85658 -1.93856,0.94137 -1.38719,0.11516 -2.50108,-0.33678 -3.02698,-1.22824 -0.33795,-0.57287 -0.68112,-0.79106 -0.68112,-0.43306 0,0.0921 -0.30469,0.58268 -0.67709,1.0901 l -0.677083,0.92259 -0.002,2.612694 c -0.001,2.40226 -0.0501,2.73031 -0.603219,4.07296 -1.41148,3.42596 -6.26477,7.95892 -11.169202,10.43201 -2.829715,1.42691 -7.038253,2.64427 -9.99681,2.89169 -0.630208,0.0526 -1.772066,0.0113 -2.537463,-0.0924 z m 6.750113,-3.80875 c 5.166726,-1.35116 9.775183,-3.97479 13.775705,-7.8426 2.227864,-2.15397 2.245462,-2.19663 1.966325,-4.76836 l -0.228974,-2.10953 -1.212052,0.0337 c -1.514791,0.042 -2.157848,-0.37724 -2.902326,-1.892414 l -0.534509,-1.08782 -0.507158,0.54273 c -0.27894,0.29848 -0.938699,0.86058 -1.466133,1.24913 -0.942235,0.694114 -0.961116,0.731094 -1.081899,2.119274 -0.152167,1.74886 -0.767996,3.56596 -1.539886,4.54365 -1.742371,2.20695 -5.908842,5.09993 -10.95821,7.60884 -3.53726,1.75758 -3.67925,1.85149 -3.125,2.0669 1.03431,0.40198 5.522754,0.13578 7.814117,-0.46345 z m 3.440275,-17.349154 c -1.14023,-1.00476 -3.213135,-1.11843 -3.566804,-0.19557 -0.188152,0.49096 0.529667,0.70386 2.372211,0.7036 l 1.770834,-2e-4 -0.576241,-0.50779 z m 33.452004,19.817244 c -0.75548,-2.46563 -0.76532,-2.97975 -0.0703,-3.67574 0.32998,-0.33039 0.8134,-0.60073 1.07431,-0.60073 0.34305,0 0.41134,-0.0632 0.24672,-0.22794 -0.16462,-0.16484 -0.34778,-0.16355 -0.66168,0.005 -0.39569,0.21204 -0.41866,0.19072 -0.25998,-0.24144 0.31226,-0.85043 1.73565,-1.03948 2.03066,-0.26969 0.16648,0.43443 -0.0863,1.36021 -0.39799,1.4572 -0.13981,0.0435 -0.59672,0.13592 -1.01535,0.20535 -0.41862,0.0694 -0.81741,0.27307 -0.88618,0.45254 -0.0688,0.17947 0.021,0.89068 0.19951,1.58047 0.1785,0.68979 0.29376,1.59649 0.25611,2.01486 -0.065,0.72245 -0.0909,0.68728 -0.51588,-0.69955 z m 49.951403,0.56697 c -0.0228,-1.06933 -0.51904,-2.01483 -1.4508,-2.7646 -0.56081,-0.45126 -0.85552,-0.85604 -0.85552,-1.17501 0,-0.7041 0.30958,-0.60483 1.34404,0.43099 1.17762,1.17918 1.6326,2.66543 1.15596,3.77608 -0.14957,0.34854 -0.18145,0.30452 -0.19368,-0.26746 z m -29.53005,-1.3797 c -0.5094,-0.43874 -0.55516,-0.57252 -0.37459,-1.09519 0.12656,-0.3663 0.63325,-0.87631 1.31693,-1.32551 l 1.11121,-0.73012 -0.76278,-0.0656 c -0.41953,-0.0361 -0.89687,0.0457 -1.06074,0.18199 -0.24221,0.20128 -0.29797,0.16613 -0.29797,-0.18781 0,-0.58701 0.59604,-0.86731 1.84427,-0.86731 2.17992,0 2.21047,0.40121 0.1303,1.71122 -0.85684,0.5396 -1.5579,1.12452 -1.5579,1.29982 0,0.73886 2.45318,0.67462 3.99617,-0.10459 l 0.89966,-0.45437 -0.50411,0.54614 c -0.71023,0.76943 -2.45548,1.59121 -3.37934,1.59121 -0.52346,0 -0.97207,-0.16473 -1.36111,-0.49982 z m 7.8904,-1.00217 c -0.13751,-0.13767 -0.24794,-0.48971 -0.24543,-0.78227 0.005,-0.54548 0.71316,-2.30512 0.9281,-2.30512 0.0658,0 -0.0233,0.27696 -0.19816,0.61546 -0.17482,0.3385 -0.31784,0.79638 -0.31784,1.01749 0,0.4783 0.51665,0.96202 0.8242,0.77169 0.30102,-0.18629 0.27424,0.37556 -0.0325,0.68275 -0.1375,0.1377 -0.35313,0.25033 -0.47917,0.25033 -0.12604,0 -0.34166,-0.11263 -0.47916,-0.25033 z m -84.578663,-5.91544 c -0.699714,-0.49075 -0.610112,-1.62371 0.264942,-3.35003 1.041238,-2.05416 1.758196,-2.89229 0.927681,-1.08447 -0.836508,1.82088 -0.806308,2.95208 0.08153,3.05386 0.349793,0.0401 0.754014,-0.0796 0.989584,-0.29309 0.76838,-0.69629 0.346113,0.60174 -0.49744,1.5291 -0.499408,0.54904 -1.117525,0.59964 -1.766295,0.14463 z m 14.876623,-1.39628 c -0.06909,-0.25815 -0.126903,-1.03214 -0.128467,-1.71998 -0.0029,-1.25179 -0.942612,-13.611274 -1.161952,-15.281594 -0.09812,-0.7472 -0.190462,-0.88659 -0.587377,-0.88659 -0.982613,0 -2.409769,-0.66801 -3.12813,-1.4642 -1.442122,-1.59836 -1.746994,-4.32654 -0.863113,-7.72371 0.63007,-2.42164 0.447009,-2.80319 -0.718806,-1.49819 -0.916243,1.02562 -1.669061,2.95283 -2.284189,5.84753 -0.677734,3.1893 -1.881024,4.83857 -3.530142,4.83857 -2.78014,0 -3.992237,-2.82397 -3.293249,-7.67271 0.186017,-1.29034 0.442365,-2.5091 0.569663,-2.70835 0.194425,-0.3043 0.210313,-0.27883 0.09931,0.15926 -0.286421,1.13041 -0.360632,5.32401 -0.110526,6.24565 0.673351,2.48128 3.587002,3.33243 4.779365,1.39616 0.221312,-0.35939 0.645851,-1.61643 0.943418,-2.79342 0.704265,-2.78563 1.317384,-4.45213 2.256834,-6.13425 0.782521,-1.40113 2.524871,-3.51214 2.898792,-3.51214 0.335352,0 0.08462,1.75884 -0.653021,4.58095 -1.047273,4.00668 -0.811353,5.58666 1.02063,6.83529 0.646499,0.44064 2.008162,0.83752 2.203239,0.64218 0.106194,-0.10636 -0.903725,-12.62546 -1.059077,-13.12845 -0.05775,-0.18696 0.242995,-0.92484 0.668305,-1.63976 0.708035,-1.19014 0.796743,-1.26772 1.051241,-0.91921 0.487336,0.66736 1.964049,5.51164 1.819327,5.96822 -0.128937,0.40678 -0.159571,0.39856 -0.647367,-0.17384 l -0.512025,-0.6008 0.101487,0.52151 c 0.05582,0.28684 0.265514,2.65715 0.465994,5.26737 0.405133,5.27477 0.313283,5.05936 1.857808,4.35679 1.008658,-0.45883 2.093479,-1.65083 2.673926,-2.93808 0.670691,-1.48742 0.731855,-4.66286 0.133222,-6.91643 -0.255881,-0.96329 -0.511223,-2.0615 -0.567421,-2.44047 -0.100218,-0.67576 0.418687,-2.42551 0.786869,-2.65336 0.334029,-0.20671 1.244682,3.29466 1.740695,6.69281 0.269722,1.84786 0.672974,3.76677 0.89918,4.27882 0.834384,1.88875 2.62772,3.10131 4.598851,3.10952 1.241627,0.005 2.254516,-0.35379 2.832967,-1.00399 0.385832,-0.43369 0.380239,-0.46714 -0.370788,-2.21767 -0.419388,-0.97752 -1.378309,-3.44427 -2.130927,-5.48164 l -1.3684,-3.70431 0.370483,-1.10611 c 0.203765,-0.60837 0.454278,-1.15798 0.556693,-1.22135 0.278641,-0.17245 1.090491,0.67437 2.028276,2.11565 0.808015,1.24182 1.145867,2.17066 0.585422,1.60949 -0.334286,-0.33474 -1.075672,-0.32649 -0.938113,0.01 1.051337,2.57498 2.077637,5.35873 2.322085,6.29846 0.267181,1.02713 0.270922,1.41246 0.02727,2.80998 -0.341347,1.95786 -0.669638,2.6339 -1.756531,3.61713 -1.422708,1.28703 -3.677185,1.28422 -5.532109,-0.007 -0.980952,-0.68279 -2.071628,-2.21864 -2.566662,-3.61429 -0.199511,-0.56247 -0.448857,-0.99393 -0.554105,-0.95881 -0.105253,0.0351 -0.302121,0.43948 -0.437492,0.89856 -0.660751,2.24079 -2.627337,4.91032 -4.052896,5.50158 -0.616112,0.25554 -0.638854,0.30828 -0.530738,1.23106 0.29983,2.55904 0.680455,10.805774 0.588495,12.750444 -0.07886,1.66764 -0.231633,2.52645 -0.640138,3.5985 -0.295108,0.77446 -0.557687,1.4081 -0.583512,1.4081 -0.02582,0 -0.103482,-0.21122 -0.172575,-0.46936 z m 26.743687,-4.12832 c 0,-0.78832 -0.61757,-1.79017 -1.29169,-2.09546 -0.78709,-0.35645 -1.17105,-1.18132 -0.64413,-1.38378 0.24866,-0.0956 0.63505,0.1867 1.3504,0.98645 0.75216,0.84088 1.00324,1.01934 1.00667,0.71551 0.002,-0.22264 0.18543,-0.80376 0.40648,-1.29139 0.28861,-0.63665 0.52609,-0.88657 0.84245,-0.88657 0.60705,0 1.24649,0.37199 1.24649,0.72515 0,0.46429 -0.38982,0.58318 -0.74523,0.2273 -0.51209,-0.51276 -1.0702,-0.0559 -1.43526,1.17508 -0.17573,0.59252 -0.31951,1.28941 -0.31951,1.54866 0,0.25924 -0.0937,0.52937 -0.20833,0.60027 -0.11458,0.0709 -0.20834,-0.0737 -0.20834,-0.32122 z m 39.504963,-2.26345 c 0.96166,-0.48104 1.97915,-1.17356 2.35642,-1.60381 0.60847,-0.69392 0.63679,-0.78731 0.3388,-1.11701 -0.5251,-0.581004 -0.4198,-1.442554 0.1952,-1.597104 0.85774,-0.21556 1.18605,0.0318 1.1164,0.84137 -0.0341,0.39562 0.006,0.786964 0.0881,0.869594 0.21871,0.219 0.18373,0.91517 -0.046,0.91517 -0.10783,0 -0.25509,-0.0957 -0.32724,-0.21257 -0.0733,-0.11881 -0.51661,0.18451 -1.00518,0.68787 -0.97954,1.00921 -2.41376,1.78439 -3.61074,1.95158 -0.69331,0.0969 -0.57569,1.5e-4 0.89414,-0.73509 z m 3.41172,-3.464964 c 0,-0.1721 -0.1521,-0.31292 -0.33801,-0.31292 -0.27683,0 -0.29107,0.0566 -0.0787,0.31292 0.14265,0.1721 0.29475,0.31291 0.33801,0.31291 0.0433,0 0.0787,-0.14081 0.0787,-0.31291 z m -83.813709,3.246174 c 0.0598,-0.22897 0.252157,-0.53549 0.427467,-0.68118 0.402622,-0.33459 8.677697,-4.735444 8.75861,-4.657994 0.03293,0.0316 -0.04209,0.28139 -0.166709,0.55528 -0.233227,0.51255 -0.717122,0.79954 -6.073133,3.601824 -2.476476,1.29571 -3.03437,1.51955 -2.946235,1.18207 z m 7.778409,0.30017 c 0,-0.11478 0.09088,-0.34942 0.201951,-0.52153 0.111079,-0.17209 0.201954,-0.21904 0.201954,-0.10434 0,0.11478 -0.09088,0.34941 -0.201954,0.52151 -0.111078,0.1721 -0.201951,0.21904 -0.201951,0.10435 z m -8.860549,-3.495524 c 0.458334,-0.27407 1.490817,-0.88142 2.294409,-1.3497 0.803592,-0.46829 1.881717,-1.22773 2.395833,-1.68766 l 0.934759,-0.83621 -0.572917,-0.2217 c -0.612395,-0.23697 -0.74156,-0.77835 -0.357254,-1.49738 0.148458,-0.27778 0.148588,-0.52901 4.16e-4,-0.80624 -0.16248,-0.30399 -0.135091,-0.48299 0.111719,-0.73012 0.395694,-0.39623 0.357593,-0.39491 1.201961,-0.0416 0.375667,0.15717 1.028907,0.69038 1.451641,1.18489 0.597442,0.6989 0.768605,1.07805 0.768605,1.70256 0,0.94492 -0.376353,1.18439 -1.307998,0.83227 -0.593028,-0.22413 -0.664242,-0.18737 -1.551922,0.80124 -0.682841,0.76049 -1.437723,1.28286 -2.83731,1.96336 -1.048815,0.50996 -2.235063,0.98511 -2.636105,1.05589 l -0.729166,0.12869 0.833333,-0.49825 z m 7.812502,-4.5217 c 0,-0.19149 -1.092574,-1.05724 -1.334244,-1.05724 -0.06825,0 -0.124086,0.28161 -0.124086,0.62582 0,0.57616 0.05787,0.62583 0.729166,0.62583 0.401042,0 0.729168,-0.0875 0.729168,-0.19441 z m -1.728963,-0.34859 c 0.03735,-0.11215 -0.06825,-0.38796 -0.234663,-0.61279 -0.292056,-0.39456 -0.315691,-0.39564 -0.679892,-0.031 -0.364199,0.36468 -0.363125,0.38836 0.03092,0.68079 0.429614,0.31884 0.76991,0.30457 0.883629,-0.0371 z m 55.753005,2.62762 c -0.25032,-0.10095 -0.565658,-0.3904 -0.700728,-0.64314 -0.30059,-0.56239 -0.14395,-2.21114 0.24727,-2.60287 0.239228,-0.23955 0.283598,-0.12359 0.283598,0.74119 0,1.25803 0.29644,1.62246 1.09267,1.34329 0.51563,-0.18078 0.58479,-0.32224 0.6802,-1.39119 0.0657,-0.73581 0.24458,-1.32852 0.46875,-1.55298 0.3445,-0.34495 0.36254,-0.33345 0.36254,0.23115 0,1.06192 0.46771,2.23938 0.98289,2.47441 0.72929,0.33273 0.92275,-0.0373 0.48583,-0.9293 -0.38778,-0.79167 -0.35013,-1.84187 0.066,-1.84049 0.34355,0.001 0.9653,1.64802 0.9653,2.55686 0,0.86009 -0.57098,1.61452 -1.22191,1.61452 -0.21371,0 -0.62901,-0.18937 -0.92289,-0.42085 l -0.53432,-0.42085 -0.77285,0.52516 c -0.85216,0.57905 -0.83638,0.57569 -1.48233,0.31509 z m 32.225975,-0.91547 c 0,-0.69113 0.79913,-1.25229 4.72488,-3.31784 2.35512,-1.23916 4.33809,-2.19686 4.40661,-2.12823 0.22871,0.229 -0.31054,0.82524 -1.23627,1.36694 -1.6124,0.94347 -7.89522,4.18955 -7.89522,4.07913 z m -16.50413,-3.24195 c 0.69784,-0.45163 1.42996,-1.06744 1.62694,-1.36847 0.33614,-0.51366 0.33653,-0.56897 0.006,-0.89956 -0.33017,-0.33061 -0.38977,-0.33045 -0.96965,0.002 -0.83339,0.47892 -0.78141,0.14426 0.0976,-0.62855 0.88026,-0.7739 1.50028,-0.98862 1.89869,-0.65754 0.81447,0.67685 -0.30315,2.55641 -2.19681,3.69448 -1.60182,0.96269 -1.9876,0.84343 -0.46315,-0.14317 z m 53.81044,-2.15822 c -0.0252,-1.72277 -1.07615,-3.45903 -2.56673,-4.24078 -0.58143,-0.30493 -0.70593,-0.81573 -0.39286,-1.61191 0.13272,-0.33754 0.28439,-0.26313 1.26712,0.62159 1.40773,1.26735 2.09512,2.67231 2.07782,4.2469 -0.0165,1.51294 -0.36455,2.40154 -0.38535,0.9842 z m -84.597993,0.45089 c -0.8712,-0.34684 -1.63741,-1.23923 -1.99841,-2.32752 -0.39368,-1.18682 -0.32867,-5.05353 0.11762,-6.99692 0.36996,-1.61099 0.50089,-1.17106 0.20257,0.68065 -0.34212,2.1236 -0.16161,4.59076 0.41931,5.73096 0.3444,0.67598 0.68276,0.9893 1.4219,1.31669 0.88417,0.39163 1.04394,0.40391 1.80653,0.13889 1.08616,-0.37749 1.55763,-1.25241 2.29254,-4.2543 0.72534,-2.9628 2.38497,-6.43571 3.8636,-8.08487 1.73144,-1.93109 1.77171,-1.63386 0.48369,3.5703 -1.10464,4.46317 -0.7947,5.90537 1.51191,7.03539 1.49003,0.72995 3.85639,0.79959 5.295408,0.15582 1.72487,-0.77166 2.92616,-2.50505 3.36566,-4.85643 0.2696,-1.44237 -0.0616,-4.44776 -0.70173,-6.36744 l -0.46095,-1.38236 0.40893,-1.15971 c 0.22491,-0.63784 0.49937,-1.15633 0.60991,-1.15222 0.47834,0.0178 1.19198,2.80565 1.76986,6.91404 0.43813,3.11482 0.81533,4.25485 1.789775,5.40944 0.80089,0.94895 2.42789,1.6866 3.7257,1.68917 1.18839,0.002 2.74418,-0.66225 2.93117,-1.25215 0.0747,-0.23558 -0.41591,-1.74852 -1.22995,-3.79317 -1.88556,-4.73607 -2.7857,-7.31058 -2.6844,-7.67774 0.32702,-1.18523 0.76204,-2.08608 1.00735,-2.08608 0.47873,0 2.8306,3.37864 2.54849,3.66113 -0.0701,0.0702 -0.32298,0.0229 -0.56196,-0.10523 -0.65657,-0.35186 -0.57702,0.0144 0.71896,3.31068 1.43295,3.64458 1.6051,4.93129 0.94906,7.09399 -1.5315,5.0488 -7.20146,4.61968 -9.524995,-0.72087 -0.32281,-0.74197 -0.64269,-1.34903 -0.71085,-1.34903 -0.0682,0 -0.27987,0.49535 -0.47048,1.1008 -0.38907,1.23592 -1.57323,3.31154 -2.36286,4.14166 -0.2871,0.30184 -1.00737,0.81813 -1.6006,1.14735 -0.940488,0.52193 -1.294648,0.59821 -2.766148,0.59574 -1.51137,-0.002 -1.7938,-0.0687 -2.70514,-0.63278 -1.38429,-0.85697 -2.15212,-2.34784 -2.31173,-4.48858 -0.095,-1.27518 -0.0149,-1.93266 0.45038,-3.69398 0.68058,-2.57633 0.60061,-3.10761 -0.33403,-2.21904 -1.11213,1.05726 -1.90552,2.97984 -2.59082,6.27816 -0.79446,3.82363 -2.48778,5.5004 -4.67527,4.62956 z m -10.203699,-0.78077 c 0.01604,-0.45992 1.080276,-1.22145 3.641199,-2.60552 2.67163,-1.4439 3.67067,-1.72426 2.68085,-0.7523 -0.44282,0.43481 -6.329144,3.56121 -6.322049,3.35782 z m 57.659812,-1.85382 c -0.67519,-0.77803 -0.58623,-2.57104 0.15826,-3.18974 0.27526,-0.22874 0.28878,-0.19166 0.10585,0.29024 -0.26762,0.70483 -0.06,1.76383 0.39347,2.00684 0.22238,0.11918 0.5356,0.0956 0.85789,-0.0648 0.43454,-0.21607 0.51657,-0.42193 0.56962,-1.42942 0.0778,-1.47778 0.55906,-2.02651 0.7205,-0.82147 0.17626,1.31588 0.59703,1.9994 1.27898,2.07755 0.43082,0.0494 0.57088,-0.01 0.49665,-0.20859 -0.60035,-1.61079 -0.64361,-1.83931 -0.43518,-2.29891 0.20688,-0.4562 0.24914,-0.41964 0.79552,0.68827 0.54995,1.11517 0.56343,1.21301 0.28761,2.08608 -0.25826,0.81747 -0.36469,0.92326 -0.98926,0.98311 -0.49397,0.0472 -0.83947,-0.0643 -1.17432,-0.37922 l -0.47442,-0.4463 -0.53497,0.53568 c -0.62787,0.6287 -1.58938,0.70848 -2.05615,0.1706 z m -67.858915,-3.80708 c -0.01826,-1.1127 -0.523968,-2.02661 -1.558627,-2.81682 -0.717153,-0.54772 -0.96346,-1.19672 -0.551044,-1.45194 0.3164,-0.1958 1.712054,1.16874 2.123936,2.07658 0.401739,0.88548 0.477187,2.02166 0.180204,2.71369 -0.136666,0.31846 -0.182699,0.19502 -0.194469,-0.52151 z m 30.727122,-2.1325 c -0.46778,-0.66875 -0.42166,-2.2928 0.0824,-2.90314 l 0.40676,-0.49249 -0.11968,0.77095 c -0.24354,1.56886 0.35722,2.36045 1.31469,1.73228 0.40309,-0.26447 0.49147,-0.502 0.49147,-1.32082 0,-0.54909 0.12728,-1.17266 0.28285,-1.38568 0.25994,-0.35597 0.29523,-0.32119 0.43576,0.42948 0.28195,1.50608 0.66549,2.17279 1.24993,2.17279 0.617618,0 0.654948,-0.19884 0.20201,-1.07587 -0.35366,-0.6848 -0.25053,-1.63656 0.177168,-1.63527 0.14105,4.3e-4 0.43194,0.42805 0.64643,0.95027 0.4087,0.99507 0.36885,2.16111 -0.0929,2.71822 -0.36152,0.4362 -1.521548,0.36634 -1.959288,-0.11805 -0.37,-0.40939 -0.37697,-0.40865 -0.98577,0.10435 -0.7759,0.65373 -1.69564,0.67659 -2.13186,0.0529 z m -10.12114,-0.6973 c -0.26457,-0.69679 -0.29441,-0.54277 0.42182,-2.17681 0.60495,-1.38014 0.76115,-2.32251 0.49855,-3.00776 -0.19274,-0.50294 -0.45275,-0.39793 -0.83173,0.33591 -0.65231,1.26309 -2.41555,2.91487 -3.77683,3.53809 -1.61895,0.74118 -1.85014,0.75312 -0.7821,0.0404 1.53422,-1.0238 3.07743,-2.44766 3.67443,-3.39025 0.72814,-1.14967 0.73868,-1.42229 0.0669,-1.7288 -1.11431,-0.50838 -0.72001,-2.04585 0.52468,-2.04585 0.58767,0 1.04281,0.64531 1.04281,1.47852 0,0.22872 0.20626,0.69519 0.45834,1.0366 0.63239,0.85648 0.57421,1.71593 -0.2351,3.47223 -0.43612,0.94642 -0.63829,1.64109 -0.54643,1.87748 0.13487,0.34705 0.17452,0.33999 0.52831,-0.0942 0.21038,-0.25816 0.43779,-0.46937 0.50536,-0.46937 0.24214,0 0.1167,0.75039 -0.20146,1.20524 -0.44085,0.63023 -1.09423,0.59557 -1.3475,-0.0715 z m -0.16573,-7.64657 c -0.11977,-0.11994 -0.38813,-0.15186 -0.59636,-0.0709 -0.34094,0.13247 -0.3268,0.17521 0.14225,0.42995 0.54508,0.29601 0.85978,0.0472 0.45411,-0.35898 z m 44.789623,7.37355 c -0.15738,-0.1 -0.24738,-0.43647 -0.20833,-0.77907 0.0581,-0.50969 0.2787,-0.70857 1.42294,-1.28293 1.6615,-0.83401 7.29167,-2.82253 7.29167,-2.57536 0,0.35225 -0.56526,0.6314 -3.23271,1.59644 -1.48764,0.53822 -3.31417,1.25553 -4.05896,1.59404 l -1.35417,0.61546 0.57292,0.30492 c 0.3151,0.16769 0.57291,0.39578 0.57291,0.50686 0,0.24745 -0.62806,0.25972 -1.00627,0.0196 z m -51.687423,-2.34186 c -0.0166,-1.08751 -0.79915,-2.37639 -1.75029,-2.88275 -0.40193,-0.21397 -0.556023,-0.4597 -0.556023,-0.8866 0,-0.74415 0.141203,-0.73958 1.079663,0.035 1.30951,1.08085 1.9562,3.02806 1.42033,4.27673 -0.13581,0.31648 -0.18258,0.18552 -0.19368,-0.54238 z m -39.968296,-0.30388 c -0.689019,-0.48325 -0.605137,-1.58869 0.252818,-3.33179 0.393714,-0.79991 0.914428,-1.68906 1.157144,-1.9759 0.403376,-0.4767 0.397594,-0.43188 -0.06726,0.52152 -1.080332,2.21571 -1.082443,3.44204 -0.0059,3.44204 0.309774,0 0.734669,-0.15536 0.944214,-0.34525 0.755272,-0.6844 0.31729,0.63009 -0.514696,1.54476 -0.499409,0.54901 -1.117526,0.59963 -1.766294,0.14462 z m 23.026563,-0.5264 c -0.404743,-0.23606 -0.502647,-1.53267 -0.15625,-2.06939 0.150056,-0.23249 0.202773,-0.11025 0.205143,0.47592 0.0021,0.50945 0.114808,0.83172 0.318342,0.90994 0.491946,0.18902 0.934849,-0.32557 0.934849,-1.08618 0,-0.38074 0.09375,-0.75028 0.208332,-0.82119 0.114582,-0.0709 0.208334,0.06 0.208334,0.29079 0,0.69346 0.458543,1.48238 0.861617,1.48238 0.31975,0 0.346729,-0.0826 0.174894,-0.53511 -0.249459,-0.65699 -0.263852,-1.34236 -0.02819,-1.34236 0.239479,0 0.719605,1.51097 0.628198,1.97694 -0.121488,0.61935 -0.697754,0.86197 -1.291526,0.54377 -0.44027,-0.23594 -0.585773,-0.22693 -0.997418,0.0619 -0.558728,0.39186 -0.583224,0.39445 -1.066326,0.11265 z m 54.894156,-0.40765 c -0.84212,-0.33884 -1.00109,-1.07471 -0.53039,-2.45507 0.37649,-1.10406 1.72082,-3.45756 1.8825,-3.29565 0.0363,0.0365 -0.21737,0.66624 -0.56386,1.39962 -0.66953,1.41712 -0.78769,2.23973 -0.38031,2.64765 0.37909,0.37958 1.09881,0.30007 1.52199,-0.16817 0.56883,-0.62938 0.6209,-0.3398 0.12378,0.68845 -0.24397,0.50464 -0.68099,1.02584 -0.97115,1.15822 -0.29016,0.13239 -0.54658,0.23475 -0.56984,0.22747 -0.0232,-0.007 -0.25398,-0.0985 -0.51272,-0.20252 z m -18.172203,-0.80267 c -0.004,-1.11424 -0.58866,-2.1319 -1.5762,-2.74304 -0.70762,-0.43791 -0.8774,-0.88022 -0.54143,-1.41051 0.22846,-0.36058 1.83054,1.18499 2.23632,2.15743 0.33837,0.81091 0.38256,2.13852 0.0864,2.59731 -0.14738,0.22836 -0.20282,0.0659 -0.20515,-0.60119 z m 35.095603,-0.12893 c -0.24944,-0.99258 -0.708,-1.77317 -1.04164,-1.77317 -0.44406,0 -1.14049,-0.76431 -1.14049,-1.25165 0,-0.66655 0.42183,-0.49144 1.4905,0.61877 l 0.99725,1.03598 0.2093,-0.77523 c 0.41833,-1.5495 1.12594,-2.05981 1.98448,-1.43122 0.54362,0.39804 0.28704,1.08308 -0.27419,0.7321 -0.2166,-0.13543 -0.55108,-0.18581 -0.74331,-0.11201 -0.41579,0.15976 -0.94979,1.35249 -0.97033,2.16739 -0.008,0.3192 -0.091,0.76811 -0.18447,0.99759 -0.15287,0.37555 -0.18552,0.35472 -0.3271,-0.20861 z"
       id="path106" />
  </g>
</svg>
