<?xml version="1.0" encoding="UTF-8" standalone="no"?>
<svg
   xmlns:dc="http://purl.org/dc/elements/1.1/"
   xmlns:cc="http://creativecommons.org/ns#"
   xmlns:rdf="http://www.w3.org/1999/02/22-rdf-syntax-ns#"
   xmlns:svg="http://www.w3.org/2000/svg"
   xmlns="http://www.w3.org/2000/svg"
   xmlns:sodipodi="http://sodipodi.sourceforge.net/DTD/sodipodi-0.dtd"
   xmlns:inkscape="http://www.inkscape.org/namespaces/inkscape"
   width="210mm"
   height="297mm"
   viewBox="0 0 210 297"
   version="1.1"
   id="svg8"
   inkscape:version="1.0.2-2 (e86c870879, 2021-01-15)"
   sodipodi:docname="Afganistan 2021- v4.svg">
  <defs
     id="defs2" />
  <sodipodi:namedview
     id="base"
     pagecolor="#ffffff"
     bordercolor="#666666"
     borderopacity="1.0"
     inkscape:pageopacity="0.0"
     inkscape:pageshadow="2"
     inkscape:zoom="0.7"
     inkscape:cx="433.79496"
     inkscape:cy="212.91789"
     inkscape:document-units="mm"
     inkscape:current-layer="layer1"
     inkscape:document-rotation="0"
     showgrid="false"
     inkscape:window-width="1366"
     inkscape:window-height="705"
     inkscape:window-x="-8"
     inkscape:window-y="-8"
     inkscape:window-maximized="1" />
  <metadata
     id="metadata5">
    <rdf:RDF>
      <cc:Work
         rdf:about="">
        <dc:format>image/svg+xml</dc:format>
        <dc:type
           rdf:resource="http://purl.org/dc/dcmitype/StillImage" />
        <dc:title></dc:title>
      </cc:Work>
    </rdf:RDF>
  </metadata>
  <g
     inkscape:label="Warstwa 1"
     inkscape:groupmode="layer"
     id="layer1">
    <path
       id="rect28"
       style="fill:#fffffe;fill-opacity:1;stroke-width:0.2;stroke-linejoin:round"
       d="M 0,0 V 100 H 99.999953 199.99994 V 0 H 99.999953 Z" />
    <path
       style="fill:#0d0d0d;stroke:none;stroke-width:1"
       d="m 151.77521,14.362038 -1.25002,-2.916626 -1.40334,2.500023 -0.061,2.699924 -2.07752,1.843216 -4.37504,3.581933 -0.4167,-5.208447 h 0.2083 l 0.62501,0.833007 c 0.2227,-2.044018 -0.93121,-4.47784 -1.87502,-6.250056 h -0.2083 l -1.16793,2.291621 0.3346,5.62505 c -1.74001,-1.505713 -4.05712,-3.647633 -6.25006,-4.375039 l 0.12501,2.857226 1.87001,2.351221 3.83838,4.791643 -6.66673,5.625051 -1.04168,-13.541722 h 0.2083 l 0.62501,0.625005 c -0.043,-2.066218 -0.85981,-4.257738 -1.87502,-6.041754 h -0.41661 l -0.9604,2.083319 0.3175,4.375039 0.88581,8.958481 0.3821,3.541632 -0.024,1.631314 -1.22584,1.285412 -2.91649,2.672724 -1.66667,0.949008 -2.08337,-1.626714 -4.1667,-3.867135 -1.77981,-1.886017 -0.33901,-3.533632 -0.5896,-9.166682 h 0.2083 l 0.625,0.833007 c -2.1e-4,-2.050018 -0.4981,-5.009445 -2.08335,-6.458358 l -1.1598,2.291621 0.3183,4.791743 0.6331,8.750079 -4.37504,-5.000045 1.45835,0.417003 c -0.2004,-1.944817 -1.82168,-2.730924 -3.33336,-3.683633 -0.87121,-0.549005 -1.68731,-1.11951 -2.70836,-1.316412 l 0.1256,2.916627 1.99773,2.500022 3.9265,4.999245 2.97356,3.125828 0.35481,2.916726 0.2133,3.33333 0.82521,12.916817 c 1.29668,-0.973009 1.45585,-3.501532 1.45835,-5.000045 0.006,-3.974836 -0.4058,-7.920272 -0.4167,-11.875107 l 6.45838,5.62505 v 0.208002 c -2.18001,1.604615 -3.96211,4.709643 -3.7244,7.500068 0.077,0.904008 0.72121,1.590514 0.79561,2.500022 0.211,2.580523 0.2175,5.55695 3.13712,6.66776 1.6621,0.633006 3.13211,-0.107001 3.85046,-1.667715 1.05688,-2.29622 1.40563,-5.936653 4.27379,-6.860861 1.47271,-0.475005 1.6923,1.815616 2.19502,2.694224 0.94101,1.643915 2.59251,2.553923 4.47253,2.491022 2.11857,-0.07 4.71962,-1.17371 5.44714,-3.32443 0.424,-1.253311 0.1779,-2.859125 0.1779,-4.166637 0,-5.51635 -1.03792,-10.965099 -1.04167,-16.458548 l 4.7917,4.046736 2.2544,2.21152 0.25371,2.283521 0.2083,3.125028 0.6169,10.208392 h 0.20831 l 1.1821,-3.33333 -0.1404,-10.208392 4.77295,5.416648 2.10211,4.166738 c 1.10833,-3.749834 -1.48919,-7.438167 -3.9665,-9.99929 -0.91231,-0.943009 -2.29461,-1.729616 -2.90356,-2.917526 -0.69311,-1.351813 -0.31871,-3.130829 -0.45711,-4.583342 -0.3794,-3.986035 -0.79791,-8.077572 -0.79791,-12.083408 h 0.20831 l 0.625,0.833007 c 4.2e-4,-0.602005 -0.083,-1.306512 0.2142,-1.856217 0.39671,-0.735006 1.25626,-1.14471 1.83294,-1.721615 1.04542,-1.045909 1.71355,-2.25402 1.91126,-3.713934 l -4.58337,3.750034 m 7.91674,-3.33333 c -0.35651,0.856008 -1.04043,1.774416 -1.13022,2.708325 -0.08,0.831007 0.3802,1.676015 0.469,2.500022 0.1867,1.729516 0.2525,3.476031 0.41751,5.208447 0.4621,4.851444 0.6488,9.731488 1.11251,14.583431 0.3096,3.240429 1.20272,7.451067 -0.55101,10.416794 -2.61794,4.42684 -8.13278,6.057755 -12.40116,8.333375 v 0.208002 c 1.82189,-0.0047 3.67295,-0.403004 5.41672,-0.925008 1.65793,-0.496005 3.37545,-1.208811 4.79171,-2.20942 6.51172,-4.601742 5.06859,-14.023327 4.41046,-20.824588 -0.2346,-2.422922 -0.2552,-4.879844 -0.57211,-7.291765 -0.2452,-1.867117 -0.2967,-3.743334 -0.2967,-5.625051 l 0.62501,0.417004 c 0.3271,-1.699816 -0.64791,-3.610633 -1.18063,-5.208347 -0.28101,-0.844008 -0.48601,-1.645515 -1.11105,-2.291721 m -112.917696,0.208002 -1.15959,2.291721 0.290802,3.750033 0.660406,8.958381 c -0.792307,-0.315003 -1.615224,-0.567005 -2.28252,-1.12291 -2.922947,-2.434822 0.069,-7.100664 0.199201,-10.127191 -1.410222,0.285002 -2.187729,1.507513 -2.851685,2.708424 -0.842308,1.523914 -1.519184,3.107028 -1.964188,4.791643 -0.337503,1.277712 -0.521305,2.868226 -1.361052,3.935736 -1.04814,1.332212 -2.798985,0.838007 -3.687323,-0.398004 -0.696007,-0.968009 -0.771907,-2.180019 -0.760007,-3.32933 0.012,-1.19111 0.266902,-2.363521 0.415803,-3.541732 -0.780807,0.631006 -0.761006,1.971218 -0.849007,2.916727 -0.218302,2.346621 -0.421204,6.579859 2.932316,6.66216 0.411704,0.01 0.858308,0.0023 1.246891,-0.150002 1.283132,-0.503004 1.880017,-2.161719 2.19523,-3.38713 0.618306,-2.404422 0.765807,-5.53855 3.224609,-6.875062 -0.240002,2.748425 -1.897307,5.918753 -0.072,8.541477 0.486904,0.700006 1.14876,1.276111 1.947517,1.582914 0.752907,0.289003 1.717926,0.220002 1.992928,1.13801 0.575205,1.920018 0.385403,4.44314 0.525805,6.446058 0.228902,3.26903 0.606205,6.507959 0.606205,9.791788 h 0.208302 c 2.089189,-3.592932 1.295842,-8.521376 1.022929,-12.500112 -0.093,-1.358612 -0.383603,-2.792525 -0.158801,-4.157738 0.176401,-1.071309 1.493553,-1.561714 2.163969,-2.31942 1.155221,-1.305212 1.791896,-2.886126 2.18023,-4.564642 h 0.208302 c 0.411504,1.732116 1.393962,3.399631 2.916686,4.38154 2.25481,1.453913 5.173797,0.887008 6.275057,-1.673215 1.590014,-3.697333 -0.742907,-6.947963 -1.691676,-10.416694 l 1.04167,0.417004 C 61.90519,13.506931 60.8141,11.941216 59.482838,11.23561 c -1.534393,2.927326 0.556505,6.391458 1.666685,9.166783 0.328903,0.822007 1.281472,2.22522 1.08001,3.121028 -0.551105,2.450722 -4.47338,1.224611 -5.625051,0.144001 -3.002317,-2.817525 -1.751685,-8.114473 -3.580032,-11.598204 h -0.416704 c -1.606884,4.172437 2.550023,8.95328 -1.461473,12.686514 -0.735406,0.684006 -1.602714,1.056509 -2.496892,1.480213 l -0.625006,-9.375084 h 0.208302 l 0.625006,0.625005 c -2.1e-4,-2.023418 -0.520205,-4.821243 -2.083349,-6.250056 m 60.833876,0 c -0.90481,1.263511 -2.51585,3.251529 -1.74939,4.952545 0.37601,0.834007 1.51148,0.713006 2.07877,0.165001 0.49021,-0.473004 0.61581,-1.14391 0.71231,-1.784616 h -0.2083 c -0.63581,0.624006 -1.74731,0.854008 -1.68565,-0.418004 0.051,-1.044109 1.0248,-1.880317 0.85231,-2.915626 m -42.708713,0.208002 -0.941708,2.291621 0.698806,6.66676 1.041669,8.95838 0.659606,5.416749 c -1.978348,-0.05 -2.521262,-1.09101 -2.500022,-2.916726 l -5.208377,2.916726 C 58.361418,34.016615 57.954115,33.309709 57.361179,32.737604 56.901975,32.2946 56.32158,31.964597 55.732825,31.725095 c -4.273369,-1.739116 -7.77736,6.141355 -3.125029,7.192364 0.620006,0.140002 1.242512,0.213002 1.875017,0.143002 1.151051,-0.128002 2.23273,-0.390004 3.33337,-0.742007 0.117901,0.451004 0.349803,0.977009 0.282703,1.450413 -0.155002,1.09521 -1.765636,2.030418 -2.574393,2.638124 -2.712945,2.038818 -5.686721,3.676933 -8.750079,5.123846 -1.08605,0.513004 -2.2019,1.045009 -3.33316,1.450413 -0.428304,0.153001 -0.920408,0.342003 -1.323342,0.03 -0.739607,-0.582005 -0.889208,-2.113119 -0.949808,-2.979827 -0.220202,-3.142928 1.230221,-5.644651 2.064598,-8.541677 H 43.0244 c -1.442303,2.471423 -2.591903,5.50415 -3.065657,8.333375 -0.161402,0.965009 -0.294403,1.936718 -0.259603,2.916727 0.018,0.501004 0.187902,1.12971 -0.152501,1.560414 -0.378103,0.479004 -1.182721,0.618005 -1.730636,0.801007 -1.244181,0.415004 -2.501072,0.781007 -3.750033,1.180611 v 0.208001 c 1.454803,0 2.921686,0.06 4.375039,-0.0082 0.671906,-0.03 1.426053,-0.294002 2.083349,-0.07 0.840607,0.285002 1.495633,1.073509 2.29169,1.481013 1.433343,0.734007 2.992937,0.942009 4.583372,1.020709 5.61567,0.278003 11.857816,-2.828425 16.041814,-6.329057 1.532724,-1.282311 3.140858,-2.880426 4.130457,-4.634641 0.684206,-1.213111 1.222501,-2.763125 1.259381,-4.166738 0.025,-0.968009 -0.352703,-1.948317 -0.115401,-2.916626 0.205802,-0.840008 0.904209,-1.466513 1.183971,-2.291721 h 0.416704 c 0.862708,1.833117 3.215229,2.414222 4.769833,0.994009 1.566264,-1.430613 2.107939,-4.861144 0.855207,-6.619259 -0.829807,1.421912 -1.12918,2.367121 -0.625005,3.958335 -1.04189,0.202002 -3.046278,0.817008 -3.677323,-0.464004 -0.253503,-0.515005 -0.083,-1.271711 -0.073,-1.827516 -1.540844,0.436003 -2.112309,2.207719 -3.125028,3.33333 l -2.083359,-17.083454 1.04168,0.833007 c -0.018,-2.162019 -1.02522,-4.390539 -2.083349,-6.250056 h -0.416704 m 36.458652,0 c -0.2712,0.661006 -0.6871,1.355812 -0.7265,2.083319 -0.043,0.787007 0.3677,1.574314 0.6381,2.29172 0.55121,1.461314 1.09168,2.924827 1.67169,4.37504 0.3687,0.922008 1.43001,2.524623 1.16896,3.532732 -0.62651,2.421121 -4.53086,1.086309 -5.64963,-0.01 -1.502303,-1.476213 -1.693345,-3.41973 -1.953147,-5.394848 -0.276903,-2.106119 -0.607906,-4.352339 -1.607925,-6.250056 -1.610434,1.803816 -0.569005,3.40593 -0.139401,5.416748 0.420004,1.965418 0.388803,3.980436 -0.465004,5.833353 -1.386463,3.009027 -7.399017,4.682742 -8.977161,0.832007 -1.200221,-2.928526 0.979609,-6.041954 1.039799,-8.95758 -2.959186,0.831007 -4.265458,5.498849 -4.922334,8.125073 -0.272503,1.08981 -0.458704,2.427922 -1.206671,3.31063 -0.999809,1.18001 -2.612943,0.953008 -3.529832,-0.208002 -0.734006,-0.929009 -0.945408,-2.361621 -0.888108,-3.519732 0.062,-1.253011 0.284803,-2.497922 0.338503,-3.750034 h -0.208302 c -0.644605,2.293521 -1.232931,5.651251 -0.214601,7.916672 0.746206,1.660215 3.070027,2.641323 4.52108,1.202511 2.732935,-2.710225 1.266882,-7.338367 4.651912,-9.744188 -0.124401,2.719524 -1.596474,5.172746 -0.343103,7.916671 1.380642,3.022727 5.722131,3.236729 8.032772,1.181511 1.574814,-1.400913 2.117109,-3.29363 2.935447,-5.139847 0.584605,1.506714 1.1921,2.998727 2.503152,4.024137 2.428764,1.900017 5.849414,1.302611 6.934424,-1.732416 1.18961,-3.32713 -0.5979,-6.992063 -1.93751,-10.00009 l 1.04168,0.417004 c -0.27171,-1.505314 -1.31211,-3.093428 -2.70837,-3.750034 m -13.958449,0.625006 1.520223,2.503122 0.563105,2.288621 c 1.18148,-1.729317 -0.232903,-4.27204 -2.083349,-4.791744 m 35.00031,2.500022 h -0.2083 c -0.4429,-0.947008 -1.09188,-1.537914 -2.08336,-1.875017 l 1.4596,2.113219 0.83211,1.636815 c 0.41981,-1.381112 0.344,-3.38173 2.29169,-2.916626 l 0.2083,-0.208002 c -0.829,-2.16692 -2.21418,0.02 -2.50002,1.250011 M 35.315591,12.493321 c -0.924208,1.08731 -2.364401,3.027628 -1.749186,4.571242 0.356003,0.893008 1.430843,0.995009 2.083769,0.363003 0.506304,-0.491005 0.638306,-1.14171 0.707106,-1.808816 h -0.208302 c -0.606205,0.660006 -1.560644,0.751006 -1.597304,-0.418004 -0.031,-0.988009 0.854208,-1.757916 0.764007,-2.707225 m 42.083709,2.083419 -2.294811,3.26553 -2.288561,1.942817 3.27378,-1.764116 2.351271,-2.819225 c 0.066,0.560005 0.169601,1.10791 0.036,1.666615 -0.250802,1.048309 -0.996509,1.977718 -0.835207,3.112828 0.103601,0.730006 0.776507,0.937008 1.269811,0.363003 0.292903,-0.341003 0.315803,-0.762007 0.362903,-1.183811 l -1.041669,0.625006 c 0.134201,-1.310112 1.13834,-2.421422 1.08688,-3.750034 -0.027,-0.711006 -0.490405,-1.234211 -0.731007,-1.875017 -0.245602,-0.655005 -0.266302,-1.604914 -1.19438,-1.604914 -1.513974,0 -0.839608,1.595414 0.0055,2.021618 m 0.208301,-0.833007 -0.833307,-0.625006 0.833307,0.625006 m -8.750078,0.208002 1.635844,2.508322 0.447504,2.283321 c 1.402513,-1.713716 -0.110001,-4.39324 -2.083348,-4.791643 m -12.083429,0.625005 -1.250011,1.875017 v -1.458413 c -2.351481,2.304821 3.213979,3.209829 2.873356,0.630006 -0.052,-0.396004 -0.202702,-0.692007 -0.373304,-1.04661 h -0.208302 l 0.208302,1.666615 -1.250011,-1.666615 m 63.333896,5.625051 -0.625,-0.625006 v -0.417004 l 5.00005,-2.011618 2.70836,-1.530113 c -2.28898,0.229002 -5.02547,1.437213 -7.08236,2.455222 -1.24168,0.614005 -1.70752,1.931717 -7.9e-4,2.128219 m -3.75003,-3.33343 -0.2083,0.208002 0.2083,-0.208002 M 87.608341,17.91027 c -0.841507,0.701006 -1.440222,2.881126 0.023,3.36753 0.736906,0.245003 1.342722,-0.395003 2.060648,-0.378003 0.631506,0.01 1.201261,0.486004 1.827517,0.127001 1.305221,-0.749007 0.634805,-3.141128 -0.577506,-3.532732 l 0.416704,2.500023 c -1.267721,-0.376003 -1.432933,-1.515514 -1.458343,-2.708324 -1.10627,0.610005 -0.425004,1.634514 -1.16731,2.421621 C 87.60117,20.907797 87.50325,18.489175 87.60867,17.91077 m 73.75066,0 -0.2083,0.208002 0.2083,-0.208002 m -11.87509,0.417004 0.8333,13.33342 -5.41672,-4.772943 -1.9944,-2.307321 1.37023,-2.054218 5.20755,-4.198938 m -93.125851,0.625006 1.530634,2.30002 0.552705,2.283321 C 59.69236,21.885306 58.191487,19.322883 56.35837,18.95278 m 84.16742,3.125028 -1.87501,-2.291721 c 1.47792,0.223002 1.86188,0.847008 1.87501,2.291721 m -18.54183,1.250011 c -0.94291,0.625006 -1.22876,2.435022 -0.1608,3.146228 0.8302,0.553005 1.36897,-0.204002 2.15586,-0.298002 0.6162,-0.07 1.09564,0.503004 1.74293,0.308002 1.75773,-0.530004 0.64711,-2.755024 0.2204,-3.781234 h -0.4167 l 0.2083,2.708325 c -1.09896,-0.603006 -1.36023,-1.508114 -1.45835,-2.708325 -1.09856,0.606006 -0.42421,1.624515 -1.16647,2.397522 -1.09272,1.13751 -1.21876,-1.203211 -1.12522,-1.772516 m 31.25029,-0.625006 c 0.02,1.690016 1.03564,1.902917 1.96711,3.128128 0.8004,1.05291 0.96541,2.274621 0.7413,3.538532 2.03418,-2.171019 -0.3833,-5.924153 -2.70836,-6.66666 m -85.209105,5.416649 c 1.05688,-0.305003 1.945428,-0.903008 2.916696,-1.404513 1.284592,-0.663006 2.822726,-1.086909 3.33336,-2.553823 -0.904408,0.266003 -1.666275,0.766007 -2.500022,1.196211 -1.388973,0.717007 -3.122328,1.215911 -3.750034,2.762125 m 72.917335,-2.083319 c 1.01501,5.46775 1.02001,11.152801 1.75501,16.66685 0.17561,1.316212 0.27541,2.641624 0.44831,3.958336 0.081,0.615005 0.2273,1.437513 -0.2456,1.937117 -0.41831,0.442004 -1.1896,0.593006 -1.7494,0.766007 -1.83815,0.569005 -3.98608,0.748007 -5.21547,-1.044809 -0.806,-1.175411 -1.16543,-4.125037 -3.11793,-3.855835 -2.61316,0.360003 -4.37942,3.758734 -5.13672,5.947554 -0.3321,0.960008 -0.46131,2.26922 -1.20063,3.014027 -1.12543,1.13371 -2.84088,0.861008 -3.78901,-0.310003 -0.9981,-1.231911 -1.31939,-3.039027 -1.3321,-4.579441 3.39025,-0.146001 7.733,-1.922917 7.2532,-6.041755 -0.095,-0.815007 -0.40771,-1.603514 -0.84581,-2.29162 -0.3025,-0.476004 -0.89121,-1.03771 -0.71331,-1.658615 0.1569,-0.547005 0.78331,-0.932008 1.18125,-1.293312 1.08481,-0.984009 2.13357,-2.039818 3.33317,-2.881526 l 0.41671,7.916772 c 1.28606,-1.806217 1.79917,-3.834235 1.64812,-6.041755 -0.068,-0.989009 -0.4498,-2.139819 -0.2964,-3.125028 0.1444,-0.929008 1.11063,-1.627315 1.77335,-2.20332 1.2146,-1.055409 2.33336,-2.20962 3.54171,-3.272729 0.7408,-0.652006 1.32543,-1.336112 2.29169,-1.607315 m -34.79199,2.500023 c 0.7758,-0.218002 1.86272,-0.228002 0.9985,0.825007 -0.5356,0.653006 -1.30876,1.07501 -2.04022,1.466513 1.45001,0.397004 4.03461,-1.704015 3.67461,-3.302529 -0.366,-1.625215 -2.32793,0.371003 -2.63293,1.010809 m 15.4168,4.791743 c 2.07022,-0.609006 4.10691,-1.994018 6.04172,-2.968427 1.0944,-0.551005 2.08002,-1.030609 2.50002,-2.24002 -2.21919,0.641006 -4.38608,2.139419 -6.45839,3.176529 -1.00668,0.504004 -1.89439,0.837007 -2.08335,2.031918 M 84.483723,29.160571 c -0.131901,0.897009 -0.521204,1.792117 -0.334603,2.708325 0.265203,1.300512 1.165231,2.564023 1.739186,3.750034 0.619806,1.281511 1.036059,2.625523 1.523144,3.958435 0.298502,0.817008 0.861007,1.808916 0.825007,2.700224 -0.05,1.248712 -2.2469,2.561624 -3.127738,3.28933 -2.357731,1.948218 -5.203587,4.46174 -8.333405,4.984245 -1.11356,0.186002 -2.2294,-8e-4 -3.33336,-0.140001 3.241269,-2.762725 9.055081,-5.414249 8.93153,-10.416794 -0.049,-1.979318 -0.900208,-3.640433 -1.639804,-5.416649 l 0.833307,0.417004 c -0.398803,-1.663315 -1.550234,-3.430231 -3.125028,-4.166638 l -0.743507,2.916627 2.321901,5.208447 0.667106,1.815616 -1.620424,2.134619 -6.250057,4.38314 2.083349,-4.791744 c -2.26273,1.219611 -1.796686,4.228839 -3.564412,5.706352 -1.471473,1.230211 -3.490861,2.014418 -5.185667,2.889226 -3.215869,1.660015 -6.445058,3.34643 -9.791758,4.737942 v 0.208002 c 5.422339,-0.233002 11.04051,-1.985218 15.625141,-4.791743 0.864808,2.911526 3.639203,2.715225 6.041724,1.927318 2.300021,-0.754007 4.354829,-2.268721 6.250056,-3.729634 1.970848,-1.519114 3.794405,-2.981227 4.37504,-5.489349 h 0.208302 c 0.186701,4.337739 2.406891,8.661478 6.66673,10.189591 1.750635,0.628006 3.583782,0.644006 5.416717,0.644006 0,-0.738007 0.2702,-2.152719 -0.2142,-2.762925 -0.37961,-0.478004 -1.320012,-0.508004 -1.869177,-0.659006 -1.320012,-0.363003 -2.664814,-0.677006 -3.541692,-1.786416 l 13.750119,-4.193838 4.95567,-1.330012 1.29439,-2.184619 -20.000179,-0.208002 v -0.208002 l 3.958365,-2.128819 3.750034,-1.412913 0.625,1.666715 c 0.78561,-0.510004 0.57101,-1.248611 0.41671,-2.083419 0.7885,-0.03 1.5223,-0.205001 2.29168,-0.373003 1.31668,-0.287002 3.2619,-1.791016 2.00898,-3.31463 -1.02939,-1.251611 -3.49442,-2.567323 -5.13401,-2.545023 -1.51855,0.02 -2.8142,1.603615 -2.65544,3.107528 0.072,0.681006 0.47,1.281912 0.7804,1.875017 -2.499387,0.430004 -5.149621,1.980918 -7.29172,3.29403 -0.931509,0.571005 -1.947948,1.187711 -2.556693,2.123519 -0.508105,0.781007 -0.602706,1.810716 -0.776707,2.707524 h 12.08345 v 0.208002 c -3.16691,0.259003 -8.003624,1.840417 -8.541749,5.416649 -3.592542,-1.403313 -3.595872,-5.59755 -4.047546,-8.750079 -0.411704,-2.872726 -1.393132,-5.793352 -2.798555,-8.333375 -0.711907,-1.286211 -1.442723,-3.30793 -2.945657,-3.750034 m -45.417078,3.33333 -6.250057,4.166738 v 0.208002 c 2.384812,-0.494005 5.625261,-1.549314 6.66673,-3.958336 l 1.875017,0.417004 c 0.629606,-1.316112 0.144202,-2.482722 -1.060429,-3.30573 -0.412304,-0.281002 -1.232091,-0.751007 -1.730016,-0.419004 -0.322103,0.215002 -0.295603,0.681007 -0.336903,1.01751 -0.116301,0.951008 -0.272702,1.681415 0.835608,1.873916 m 52.500482,-1.666615 c -1.611274,0.941009 -0.940008,4.067537 1.221251,3.128529 0.309603,-0.135002 0.447904,-0.381004 0.653806,-0.628006 h 0.208302 c 0.792307,0.897008 2.19585,1.048909 2.451692,-0.420004 0.165801,-0.953008 -0.324003,-1.819016 -0.576705,-2.705224 -1.150011,0.674006 -0.503605,1.672715 -0.208302,2.708324 -1.249601,-0.449004 -1.432313,-1.485013 -1.458353,-2.708324 -1.09897,0.606005 -0.419404,1.631615 -1.167301,2.397521 -1.13647,1.163711 -1.268141,-1.15981 -1.12438,-1.772516 m -52.083809,0.208002 v 0.833008 l -1.041679,-0.208002 1.041679,-0.625006 m 0.625006,0 1.041679,1.250012 h -1.250011 l 0.208302,-1.250012 m 65.625586,3.541732 c -0.91081,0.749007 -3.8544,1.412313 -3.88628,-0.594005 -0.017,-1.09541 1.93189,-0.479004 2.42752,-0.259002 0.5183,0.230002 0.98711,0.542004 1.45876,0.853007 M 43.233232,34.161216 c -1.893147,1.10501 -3.872325,2.092919 -5.833382,3.073528 -1.06606,0.533005 -2.14877,0.913008 -2.500023,2.134819 2.22918,-0.510004 4.673992,-2.086218 6.66672,-3.213329 0.792307,-0.448004 2.005438,-0.925008 1.666685,-1.995018 m 12.708444,1.666715 c -0.484804,0.09 -0.964208,0.183002 -1.458763,0.199002 -0.420603,0.01 -2.548563,-0.04 -2.046268,-0.938008 0.727506,-1.303312 2.934196,0.02 3.505031,0.738006 m 6.66673,-0.625005 c 0.871708,2.079619 1.998558,2.665224 4.166708,2.500022 0.111701,1.416213 0.781007,3.24643 0.113101,4.583342 -0.706006,1.413312 -2.24669,2.512922 -3.446481,3.487331 -3.704413,3.008327 -8.210084,5.124846 -12.916786,5.904453 -1.913768,0.317003 -4.272539,0.842008 -6.041725,-0.225002 4.43233,-2.522523 9.252794,-4.133837 12.897406,-7.924871 0.940809,-0.979009 1.660015,-2.20362 1.961058,-3.533632 0.182502,-0.806007 0.023,-1.732516 0.416204,-2.481222 0.513304,-0.977009 1.876067,-1.864217 2.850445,-2.310421 m 45.833754,4.583341 v 0.208002 c 1.72396,-0.04 3.6069,-0.888008 4.37504,-2.500023 l 0.8333,0.208002 -0.4215,-2.162719 -1.11564,0.170001 -0.38,2.13872 -3.29127,1.937517 m 4.58337,-3.33333 -0.62501,-0.625006 0.62501,0.625006 m 24.37523,2.708324 h 0.8333 c -1.74001,1.738816 -3.55669,3.010428 -5.83338,3.958336 v 0.208002 c 2.3871,-0.195002 5.63463,-1.535214 6.45839,-3.958436 1.14855,0.639006 2.57169,0.418004 1.9044,-1.249811 -0.30211,-0.755007 -2.26648,-2.822925 -3.14128,-1.717515 -0.2602,0.329003 -0.1513,0.912008 -0.1683,1.300511 -0.021,0.488005 -0.049,0.970009 -0.053,1.458513 m -63.958916,0.625006 -2.500023,-1.666715 1.520634,2.110919 0.979409,1.430813 c 0.128101,-1.610415 0.407304,-3.094228 2.291681,-2.916726 -0.258903,-0.820008 -1.215631,-1.416813 -1.904598,-0.559005 -0.358503,0.447004 -0.361903,1.059409 -0.387103,1.600214 m 65.208926,-1.041709 -0.83331,-0.208002 c 0.2981,-0.897008 0.97691,-0.722007 0.83331,0.208002 m 0.625,-1.04161 1.25001,1.250012 c -0.8675,-0.03 -1.63167,-0.245003 -1.25001,-1.250012 m -14.16762,2.959827 c 1.05522,0 2.56836,2.28022 1.93897,3.221629 -0.7277,1.08861 -3.1917,1.767716 -4.43713,1.714815 -0.8875,-0.04 -1.31751,-0.606005 -0.9196,-1.438113 0.4752,-0.994009 1.39042,-1.943117 2.17167,-2.704024 0.32791,-0.319003 0.74501,-0.794007 1.24607,-0.794007 M 36.774844,44.57591 c -0.168302,0.09 -0.455404,0.283003 -0.657506,0.345003 -0.760807,0.236002 -1.192101,-0.188001 -1.14251,-0.971008 0.064,-1.00941 0.702906,-1.855017 1.17501,-2.707325 -1.245011,0.636006 -3.256909,3.729234 -1.928767,5.082746 1.237711,1.261311 2.440022,-0.702006 2.553773,-1.749316 m 50.00045,5.000045 1.250011,-0.208002 v 0.208002 c -2.730864,0.434004 -2.005438,3.372131 -1.041679,5.208347 0.499204,-1.190211 -0.444204,-2.394221 -0.064,-3.514032 0.325403,-0.958008 1.878347,-0.655005 2.025849,-1.713115 0.222902,-1.598914 -1.734596,-0.758007 -2.17043,0.02 m 26.875235,-0.833007 c -0.5019,0.737006 -0.92561,1.566514 -0.7994,2.495922 0.1483,1.09271 0.9546,0.856008 1.21606,0.0039 -1.20148,-0.670006 -0.24441,-1.471713 -0.41671,-2.500022 m -8.12507,1.250011 1.87502,-0.208002 v 0.208002 c -1.13127,0.538005 -3.45066,2.558323 -1.03856,3.211029 1.45981,0.395003 3.1117,-0.660006 3.95525,-1.752716 -1.53272,0.418004 -2.81669,1.07271 -4.37504,0.417004 v -0.208002 c 1.03625,-0.639006 2.54252,-1.284212 2.91669,-2.500023 -1.27147,-0.236002 -2.64231,-0.484004 -3.33336,0.833008 m 25.41691,0 1.66479,2.708524 0.41861,2.083219 c 1.22772,-1.797116 -0.24921,-4.167737 -2.08335,-4.791743 m 8.95841,5.208347 c 2.34814,-0.556005 4.63545,-1.768116 6.87506,-2.666624 1.14334,-0.459004 2.29314,-0.795007 2.9167,-1.916717 l -0.2083,-0.208002 c -2.28794,0.939008 -4.57818,1.872717 -6.87507,2.791625 -1.15918,0.464004 -2.26544,0.736006 -2.70835,2.000018 M 30.315936,69.370033 V 68.95303 l -1.04168,-0.417004 1.04168,-0.833008 0.833307,0.833008 c -0.0031,-0.254002 0.028,-0.567005 -0.031,-0.820008 -0.488504,-2.106219 -2.487932,0.357004 -3.34086,0.443004 -0.674206,0.07 -1.516684,-0.790007 -2.115439,-0.121001 -0.367903,0.411004 -0.028,0.921009 0.310603,1.212511 0.686706,0.591006 1.619804,0.577005 2.468142,0.477005 0.637506,-0.08 1.263141,-0.171002 1.875017,-0.357004 m 7.349866,-2.29772 c -0.734807,0.218002 -0.151701,1.301511 0.501505,1.09961 0.712506,-0.220002 0.140401,-1.289812 -0.501505,-1.09961 m 108.067848,1.672715 h 0.83331 c -0.79811,1.007509 -3.03066,1.217511 -3.38503,2.513622 -0.275,1.004609 1.26272,0.690007 1.71834,0.501005 1.30252,-0.540005 3.74504,-1.679615 4.03692,-3.222929 0.2285,-1.207311 -1.14251,-1.916017 -2.15273,-1.511914 -0.76771,0.307003 -0.96751,0.974009 -1.05085,1.720216 m -26.25024,-1.530014 c -0.67001,0.192002 -1.24397,0.632006 -1.91044,0.850008 -1.22063,0.400003 -2.67419,0.363003 -3.92295,0.09 -0.7002,-0.151001 -2.15106,-1.12681 -2.77981,-0.499004 -0.67021,0.669006 0.4271,2.135019 1.15167,2.27022 0.4704,0.09 0.94981,-0.08 1.41981,-0.09 0.70121,-0.02 1.37709,0.178001 2.08335,0.118001 0.95171,-0.08 1.79086,-0.440004 2.70835,-0.648006 0.74581,-0.168002 1.59753,0.02 2.22544,-0.521005 0.99001,-0.846008 0.12621,-1.890817 -0.9754,-1.575214 m 9.37509,1.11341 1.25001,0.417004 v 0.208002 l -3.54169,1.666615 c 0.3648,1.15381 1.31188,1.006109 2.29168,0.611005 1.2973,-0.523005 3.22003,-1.436913 3.21712,-3.102128 -0.003,-1.833316 -2.78191,-1.011209 -3.21712,0.199002 m 12.75511,-1.08631 c -1.055,0.422004 -0.5235,2.079419 -0.7852,2.925926 -0.1671,0.541005 -0.51191,0.904009 -0.29651,1.496614 0.18481,0.509005 0.76791,1.481313 1.4321,1.298812 0.4802,-0.132002 0.6104,-0.659006 0.5938,-1.09441 -0.025,-0.655006 -0.4321,-1.227111 -0.4646,-1.873117 -0.024,-0.479004 1.59564,-3.583632 -0.47961,-2.753825 m 20.57853,2.336321 c -0.091,-0.584005 -0.64811,-2.980227 -1.66565,-1.953617 -1.0975,1.10751 0.074,2.716924 -2.08438,2.995227 0,0.696006 -1.27252,0.458004 -1.87502,0.625005 -1.8794,0.522005 -5.91547,1.497714 -4.79171,4.166738 2.21335,-0.651006 4.2542,-2.083319 6.45838,-2.871226 0.53081,-0.190002 1.78398,-0.837008 2.31398,-0.466004 0.70651,0.495004 0.55851,3.142728 0.59461,3.962135 0.054,1.239611 0.3408,3.192729 -0.1175,4.356339 -0.2069,0.525005 -0.69081,0.870008 -1.04729,1.287512 -0.81311,0.953009 -1.62501,1.857717 -2.47753,2.777925 -0.84401,0.911008 -1.49605,2.17502 -2.80711,2.496623 -1.56042,0.383003 -1.49271,-1.358913 -1.29084,-2.376622 0.4113,-2.073619 1.16959,-4.243238 3.58169,-4.375039 l -1.93688,2.716424 -0.56311,2.283621 c 1.45064,-0.715007 2.86774,-3.091728 3.46837,-4.583441 0.2627,-0.653006 0.52961,-1.787517 -0.2013,-2.251221 -0.4725,-0.300002 -1.08397,-0.130001 -1.5973,-0.07 -1.49502,0.175001 -2.61941,0.722006 -3.96963,1.332312 -0.72271,0.326003 -1.52917,0.390003 -2.28356,0.616005 -2.40918,0.723007 -4.32733,1.206711 -6.87506,1.206711 -1.7596,0 -4.10171,0.315003 -4.70214,-1.883117 -0.5108,-1.870017 1.25461,-2.379221 1.45607,-3.942135 0.1,-0.775007 -0.75421,-1.334612 -0.86981,-2.092319 -0.1652,-1.08291 0.5314,-2.021318 0.3658,-3.124228 -1.34917,0.383003 -1.70001,1.620014 -1.83876,2.916726 -0.1258,1.17351 0.026,2.365221 -0.055,3.541732 -0.1523,2.22352 -0.86351,4.736042 1.30418,6.153155 3.49795,2.287121 8.02236,0.762007 11.63114,-0.276002 0.93191,-0.268003 1.73773,-0.732007 2.70836,-0.877008 -0.32231,0.538005 -0.78791,1.062009 -0.95231,1.674815 -0.55961,2.087519 -0.1927,6.781261 3.03564,5.655451 2.94649,-1.027309 3.77462,-4.324839 6.45839,-5.663651 0.12231,0.968008 0.037,2.20942 0.41771,3.106328 0.7189,1.691415 2.82002,1.705415 4.1815,0.860007 0.8229,-0.511004 1.0823,-1.661114 1.90355,-2.073618 1.25084,-0.628006 2.44127,1.382512 3.7465,0.125001 0.2117,-0.204002 0.3325,-0.501005 0.4377,-0.768007 0.1017,-0.258002 0.1271,-0.558005 0.1335,-0.832007 0.008,-0.358004 -0.043,-0.702007 -0.1537,-1.04171 -0.1117,-0.344003 -0.2679,-0.701006 -0.4383,-1.019809 -0.57751,-1.08101 -1.62231,-1.170611 -2.51919,-0.408004 -1.19981,1.02071 -1.68647,2.646524 -2.92648,3.586333 -1.4319,1.085009 -2.89357,0.884008 -3.54315,-0.909009 -0.31481,-0.868007 0.1339,-2.150819 1.26042,-2.023518 0.7258,0.08 1.3269,0.663006 2.08335,0.773007 0.1104,-0.595005 0.289,-1.255211 0.1171,-1.855417 -0.47291,-1.651914 -2.67378,-1.256911 -3.86713,-0.853007 l -0.2487,-8.125073 1.29042,-1.458313 0.83331,0.208001 c 1.83252,-1.669615 6.97026,-0.293002 7.0834,-3.750033 l -9.16675,2.500022 m -62.08391,3.541732 c -0.724206,-0.503004 -1.698761,-0.563005 -1.188127,0.626006 0.368304,0.857007 0.991709,1.662515 1.813137,2.082318 0.97421,-2.024418 0,-4.50754 0,-6.66676 l 1.45835,0.417004 c -0.006,-0.552005 0.031,-1.16671 -0.334,-1.627514 -0.50561,-0.638006 -1.49856,-0.574006 -1.83211,0.199001 -0.294602,0.684006 -0.06,1.558914 0.023,2.261621 0.1054,0.895008 0.059,1.808616 0.059,2.708424 m 14.7918,5.000045 c -1.3225,1.224811 -2.75106,2.25232 -4.1667,3.35753 -0.86581,0.676006 -1.57835,1.12161 -1.66668,2.267521 l 3.29794,-1.681715 3.16087,-2.16312 1.45792,0.303003 c -0.5812,1.611714 -2.2321,4.179237 -1.33272,5.951253 0.60441,1.190911 2.24773,0.0085 3.09232,0.239002 0.6254,0.170002 0.83081,1.151011 1.4046,1.481214 1.65648,0.953008 4.01587,-0.868008 4.75254,-2.25432 h 0.20831 c 0.056,0.336003 0.078,0.720006 0.1954,1.042709 0.7998,2.19852 3.05712,0.284002 4.38796,0.165001 0.99871,-0.09 1.69584,0.858008 2.6271,-0.02 0.99441,-0.942008 2.09398,-3.33753 0.081,-3.683733 l -0.4167,1.875017 -2.08335,-1.666715 c -0.67751,0.816007 -2.25814,2.650624 -3.42732,1.565014 -0.41421,-0.385003 -0.57191,-1.047709 -0.73941,-1.565014 -1.75917,0.272002 -2.60814,2.514223 -4.58253,2.413122 -1.96773,-0.100001 -0.90521,-2.838726 -1.22127,-4.079837 -0.1527,-0.599005 -0.63371,-1.238711 -0.50211,-1.875017 0.22441,-1.08371 1.4921,-2.130219 2.19356,-2.935426 1.35752,-1.557914 2.76566,-3.32393 3.67275,-5.189647 0.4383,-0.901008 1.59793,-3.659833 0.1837,-4.246038 -1.2498,-0.518005 -2.53564,0.897008 -3.18691,1.746915 -1.41667,1.848317 -2.7498,3.670433 -4.26566,5.434649 -0.4371,0.508005 -1.0673,1.702716 -1.80521,1.790616 -0.77691,0.09 -1.64336,-1.085209 -2.15002,-1.541713 -1.28627,-1.158111 -2.9965,-2.496923 -3.85442,-4.017737 -0.6198,-1.098509 -0.374,-2.690824 -1.98627,-3.075627 -2.0148,-0.481005 -0.4006,2.728924 -0.057,3.283929 1.58835,2.566123 3.94587,5.748452 6.72797,7.083464 m -71.458966,-8.750079 -0.045,2.083319 -0.580406,2.708324 c 2.795645,-0.958008 5.835673,-1.619814 8.541737,-2.778525 1.327312,-0.568005 2.456902,-1.21001 2.916696,-2.638123 l -3.33336,0.806007 -6.66673,2.527123 c 0.262303,-1.10211 0.308703,-2.24152 -0.038,-3.33233 -0.143101,-0.451004 -0.300403,-1.05711 -0.833307,-1.172511 -1.360843,-0.295003 -0.589006,1.433613 0.038,1.796516 m 12.291771,1.250012 v -0.833008 h -0.833308 c -0.374003,1.891917 -2.174189,1.983618 -3.750034,2.484222 -1.077089,0.342004 -2.30898,1.11751 -2.897946,2.107319 -0.671906,1.128911 -0.096,3.828335 1.590645,2.545423 0.769806,-0.585005 0.870007,-1.667915 0.890608,-2.553523 l 3.33337,-1.345712 7.500067,-2.408921 4.375039,-1.252712 1.666675,0.424004 0.625006,-2.083319 -3.750034,0.590006 -3.958365,0.976008 -4.791713,1.350213 m 16.250146,-3.125029 c -0.742307,1.391013 -0.172702,2.528523 0.111701,3.958336 0.219202,1.10171 0.304603,2.21292 0.305003,3.33333 0.0016,3.219029 0.071,6.587159 0.381303,9.791788 0.128801,1.329012 0.176002,2.912726 1.705225,3.424231 1.145421,0.383003 2.512723,-0.09 3.538362,-0.599005 0.516705,-0.255003 1.1148,-0.759007 1.726266,-0.635006 0.811707,0.165001 1.477933,0.905008 2.24044,1.220211 1.655645,0.684006 3.596072,0.06 4.956495,-1.010609 2.472532,-1.952718 2.935656,-6.525259 -0.053,-8.322175 -2.18169,-1.311912 -3.415031,1.683315 -2.702734,3.39963 0.484404,1.166711 1.862726,0.635006 2.779405,1.03461 0.737906,0.322003 0.916508,0.875008 0.377903,1.463313 -0.166001,0.181002 -0.385203,0.329003 -0.576305,0.482004 -0.263502,0.210002 -0.538305,0.418004 -0.831708,0.585006 -0.461504,0.263002 -0.931508,0.377003 -1.458353,0.407003 -0.660606,0.04 -2.626483,0.215002 -2.863355,-0.676006 -0.309403,-1.16291 2.629403,-1.511013 1.811886,-3.029727 -1.10438,-2.051919 -4.741293,-1.305912 -6.448598,-0.779007 -0.835408,0.258002 -2.135439,0.586005 -1.977728,1.754616 0.098,0.728006 1.036679,0.648005 1.560014,0.865007 0.556005,0.230003 0.890408,0.581006 1.251061,1.04021 -0.972108,0.225002 -2.166899,0.899008 -3.102318,0.261002 -1.033769,-0.705006 -1.006679,-2.464322 -1.056259,-3.594532 -0.145801,-3.33233 -0.079,-6.67006 -0.224602,-10.00009 -0.071,-1.620015 0.054,-3.455531 -1.450223,-4.37504 m 2.29169,0 0.615806,3.125029 -0.407504,3.33333 c 1.410643,-0.01 2.456272,-0.642006 3.750034,-1.130011 1.866267,-0.704006 3.768374,-1.323112 5.624851,-2.043518 1.034589,-0.402004 1.543344,-0.929008 1.666885,-2.034818 -1.562304,0.03 -4.334839,0.442004 -5.208377,1.875017 l -4.583381,1.250011 c 0.463304,-1.567714 0.592705,-4.141137 -1.458344,-4.37504 m 60.417208,0 -0.2083,3.750034 0.044,4.37504 0.78151,3.958335 -0.01,5.000045 0.019,3.33333 h 0.4167 c 0.80541,-1.602314 0.62501,-3.246229 0.62501,-5.000045 0,-1.517913 0.092,-3.068927 -0.011,-4.583341 -0.049,-0.723007 -0.37041,-1.370412 -0.46401,-2.083319 -0.1454,-1.10941 0.016,-2.418422 0.067,-3.541732 0.08,-1.757916 0.61811,-4.155837 -1.25814,-5.208347 M 40.107284,67.91042 c 0,0.819008 -0.082,1.690015 0.054,2.500023 0.132302,0.785007 0.491705,1.486313 0.552105,2.29172 0.279003,3.724434 0.072,7.517568 0.235203,11.250102 0.074,1.677515 0.460204,4.066936 2.491892,4.327339 2.22898,0.286002 2.447732,-1.788617 3.750034,-2.869026 0.902908,2.780725 3.743163,3.666333 6.458398,2.931926 0.976909,-0.264002 1.909177,-1.10021 2.905236,-1.206011 0.781707,-0.08 1.007509,0.889008 1.700635,1.10041 1.777936,0.542005 3.175869,-0.652006 4.352539,-1.784616 0.114201,0.292003 0.191002,0.571005 0.394204,0.820007 0.140801,0.173002 0.283303,0.365004 0.478604,0.483005 1.411883,0.853007 1.861687,-0.841008 3.068148,-0.785007 0.481004,0.02 0.873508,0.498004 1.330012,0.633005 1.448563,0.428004 2.503992,-0.413003 2.898156,-1.776016 0.715606,-2.475022 -0.414604,-5.299647 -0.921908,-7.707369 -0.165002,-0.784007 -1.169391,-1.751016 -1.824397,-0.768007 -0.461004,0.692006 -0.013,1.714616 0.143502,2.433522 0.420603,1.930217 1.495223,3.864635 1.517103,5.833453 -0.471504,0.02 -0.979809,0.08 -1.396482,-0.197002 -0.467305,-0.309003 -0.645806,-1.152911 -1.323962,-1.06921 -0.888108,0.110001 -1.341062,1.251711 -2.276481,1.277312 -0.931708,0.03 -1.16376,-1.349812 -2.095439,-1.176011 -1.096049,0.204002 -1.747095,1.493714 -2.915856,1.542014 -1.12105,0.05 -1.319802,-1.394113 -2.295651,-1.300612 -0.653305,0.06 -1.261051,0.574005 -1.862926,0.810008 -1.253972,0.492004 -2.623984,0.707006 -3.958376,0.422003 -0.854408,-0.182001 -1.781886,-0.537004 -2.481272,-1.066409 -0.489805,-0.371004 -0.868708,-0.998009 -1.477094,-1.188011 -1.654184,-0.516005 -2.865025,3.592332 -4.656501,1.671115 -0.759207,-0.814007 -0.850608,-2.22272 -1.0198,-3.267129 -0.177101,-1.09271 -0.0046,-2.037319 0.043,-3.125028 0.093,-2.115819 0.134201,-4.34564 -0.011,-6.458359 -0.108101,-1.580714 -0.035,-4.044236 -1.856267,-4.583441 m 53.958826,0 v 1.875017 l -0.625006,-1.250011 c -1.549184,0.269002 -0.990409,2.431322 0.416504,2.394421 1.582924,-0.04 1.747925,-2.762525 0.208502,-3.019427 m 79.584041,0 -0.2083,5.208447 0.83331,14.583431 c 1.21147,-0.426004 1.21376,-2.832725 1.14293,-3.958335 -0.1833,-2.917527 -0.006,-5.859053 -0.3717,-8.750079 -0.15371,-1.218211 -0.88061,-2.583823 0.4788,-3.33343 -0.114,-1.394113 -0.56061,-3.067128 -1.87502,-3.750034 M 91.148793,87.076993 c 1.431473,-0.419004 0.833308,-3.779434 0.833308,-5.000045 0,-2.087919 0.0024,-4.38424 -0.237302,-6.458358 -0.091,-0.784007 -0.392904,-1.488614 -0.385804,-2.291721 0.0096,-1.07711 0.995409,-1.644815 0.825608,-2.708324 -0.118701,-0.744007 -0.532505,-1.480714 -1.03688,-2.037119 -0.290402,-0.321003 -0.712906,-0.492004 -0.941308,0 -0.234802,0.506005 -0.100001,1.285412 -0.099,1.828717 6.3e-4,1.503413 0.098,3.083827 0.221902,4.583441 0.140401,1.692315 0.403104,3.265029 0.403104,5.000045 0,2.370021 0.416703,4.694842 0.416703,7.083364 M 158.43745,68.495325 c -1.48189,-0.04 -2.69545,1.00671 -3.95442,1.591515 -2.07877,0.965008 -4.59566,1.291711 -6.42214,2.750025 -1.14897,0.917008 -1.76293,3.742533 0.36901,3.918735 1.49584,0.124001 -0.05,-2.120819 0.879,-2.746625 2.0721,-1.395612 4.72484,-2.299021 7.04924,-3.208629 0.7625,-0.298002 1.77501,-0.450004 2.46898,-0.854007 0.83811,-0.487005 0.5415,-1.426913 -0.3896,-1.451314 M 36.35703,69.784837 38.023715,71.659854 38.232017,68.95153 36.357,69.784537 m 81.25073,9.583486 c -0.2885,-0.479004 -0.74961,-1.069609 -0.65121,-1.666715 0.1408,-0.854007 1.13021,-1.661915 1.66502,-2.29172 1.21834,-1.435013 2.29002,-2.998327 3.57774,-4.37504 0.5389,-0.576005 1.66834,-2.24082 2.63398,-1.929817 0.58671,0.189002 0.37351,0.905008 0.19481,1.305012 -0.49271,1.10231 -1.10564,2.133419 -1.79023,3.124828 -0.62351,0.903008 -1.33396,1.669615 -2.04502,2.500022 -1.08001,1.261512 -1.93293,2.771725 -3.58503,3.33343 M 46.565492,69.367933 47.3988,70.200941 v -0.833008 h -0.833308 m 41.458703,0.208002 -0.208302,2.500023 c -1.218141,-0.692007 -0.528504,-1.565614 -0.833307,-2.708325 -1.678145,1.06311 -1.669595,5.052946 1.040639,4.207338 1.835637,-0.573005 2.039189,-3.674233 7.9e-4,-3.999036 m -32.29171,1.04171 -0.208302,0.208001 0.208302,-0.208001 m 10.833437,0.208001 c 0,1.004409 -0.239202,2.068719 0.833308,2.500023 0.395603,-0.967009 0.034,-1.915017 -0.833308,-2.500023 m 37.708668,0 v 0.833008 h 0.4167 v -0.833008 h -0.4167 m -72.709003,1.666715 h 1.458343 c -0.585205,1.976818 -3.423991,1.340612 -4.166707,3.33333 1.612514,-0.04 3.552952,-0.640005 4.787753,-1.713515 0.592305,-0.515005 1.279391,-1.355512 0.919008,-2.19732 -0.587305,-1.371912 -2.748355,-0.578005 -2.998357,0.577005 m 83.334073,-0.625005 c 0.023,0.283002 0.034,0.561005 0.092,0.839007 0.039,0.183002 0.062,0.401004 0.14671,0.571005 0.6446,1.287112 1.77209,-0.439003 0.7173,-1.19601 -0.285,-0.205002 -0.626,-0.189002 -0.95651,-0.214002 m 53.54217,2.083419 c -0.43851,-0.275003 -0.98021,-0.814008 -1.50565,-0.887008 -0.89831,-0.126002 -0.86581,1.16271 -0.5719,1.682115 0.4944,0.873008 1.51064,1.445613 2.07752,2.330021 h 0.4167 l 0.92021,-2.264821 0.95481,-2.110219 c -1.17646,0.0039 -1.7798,0.124001 -2.29168,1.250012 m -106.667641,1.041609 0.416704,-2.083319 -2.500023,0.617006 -1.421683,0.126001 0.600606,0.882008 2.904406,0.458004 m 34.166977,-1.875017 c -0.517704,0.984009 -1.243551,2.006918 -1.413972,3.125028 -0.149802,0.982009 0.203802,1.955018 0.088,2.916726 -0.102501,0.853008 -0.608506,1.642515 -0.765407,2.500023 -0.513905,2.808125 -0.034,7.047163 3.34108,7.639869 2.675024,0.470004 5.149623,-0.972009 7.283593,-2.367122 2.21586,-1.448713 3.96171,-3.463531 2.50815,-6.106055 l -2.08335,-0.417003 c 1.40398,-1.900417 4.52191,-1.411713 5.58755,-3.542532 0.93671,-1.872917 -2.32772,-4.090837 -3.90857,-2.998527 -1.29439,0.894008 -0.3256,2.059318 -0.90171,3.152728 -0.3819,0.725007 -1.52543,1.025609 -2.23564,1.305012 l 0.2083,0.417004 c -1.28126,0.346003 -3.02002,2.015918 -1.42751,3.207729 0.57601,0.431003 1.38313,0.321002 2.05252,0.476004 0.90041,0.208002 1.49459,0.623005 2.08335,1.316412 -0.76731,0.180001 -1.39668,0.562005 -2.08335,0.946008 -2.64128,1.476913 -7.542567,4.321039 -8.98966,-0.113001 -0.207702,-0.637006 -0.239803,-1.405712 -0.123102,-2.064618 0.310003,-1.751316 1.725856,-3.048828 1.821057,-4.810444 -2.559183,-0.777007 0.794007,-3.557732 -1.04167,-4.583441 m -26.041904,0.417004 0.208302,2.29172 c 1.263141,-0.623005 1.661065,-2.644623 -0.208302,-2.29172 m 61.875569,-0.208002 c -0.23401,0.886008 -0.072,1.391812 0.8333,1.666615 -0.026,-0.808007 -0.1046,-1.265011 -0.8333,-1.666615 m -46.628562,0.859008 c -1.448753,0.686006 -0.756907,3.226729 0.790807,2.647123 1.670845,-0.625005 0.791908,-3.39673 -0.790807,-2.647123 m 57.461982,0.391003 c 0.14,1.09931 0.33191,1.812916 0.1083,2.916426 -0.2346,1.158211 1.15876,2.926327 2.20231,1.600715 0.54461,-0.692006 0.014,-1.463613 0.046,-2.22552 0.053,-1.268312 0.61581,-3.367931 -1.51398,-2.716825 -0.3035,0.09 -0.5694,0.272003 -0.84271,0.425004 M 50.314686,74.158276 c -0.142101,1.04901 -0.308303,1.895617 -1.458353,2.083319 0.028,-1.13911 0.270202,-1.837716 1.458353,-2.083319 m 31.041939,0.208002 v 1.04171 h 1.04168 l -1.04168,-1.04171 M 158.649,74.991284 c -0.064,0.273002 -0.159,0.557005 -0.1621,0.842007 -0.008,0.720007 0.9415,1.740816 1.11022,0.586006 0.077,-0.529005 -0.27541,-1.005809 -0.53151,-1.427713 h -0.4167 m -93.103347,0.453004 c -1.301052,0.510005 -0.511505,2.426622 0.763307,1.916817 1.12834,-0.451004 0.320403,-2.341421 -0.763307,-1.916817 m 41.019537,1.421613 v -1.666615 c 1.73959,0.316003 1.90356,1.643915 0,1.666615 m 21.66686,-0.208002 -1.87501,-1.041709 -0.08,1.830716 1.25876,1.166811 0.90421,1.377512 h 0.4167 c 0.2163,-0.770007 0.2435,-1.779316 0.62901,-2.473122 0.2931,-0.528005 0.9763,-0.811008 0.976,-1.484214 -7.9e-4,-1.710615 -1.91459,0.03 -2.23002,0.624006 M 25.314021,76.033193 c -0.244402,0.942009 -0.707707,1.946718 -0.795607,2.908526 -0.09,0.983009 0.176201,1.932118 0.051,2.924827 -0.112901,0.891008 -0.155801,1.827516 0.054,2.708424 0.191001,0.803007 0.617705,1.433513 1.10772,2.083319 0.446004,0.592005 0.860607,1.274811 1.477513,1.704415 2.334811,1.626415 5.424419,0.410004 7.689019,-0.607005 1.878357,-0.843008 3.545662,-1.743316 4.546091,-3.597733 1.020419,-1.891217 0.482904,-3.478331 -0.099,-5.416748 -0.400604,-1.334112 -0.413804,-2.308121 -1.946897,-2.708325 0,0.884008 -0.114401,1.858117 0.167301,2.708325 0.390804,1.17961 1.539594,2.642123 1.11771,3.955235 -0.274002,0.853008 -1.236881,1.310912 -1.910017,1.807517 -1.952518,1.440912 -3.890655,1.968417 -6.250056,2.189419 -1.257922,0.118001 -2.380432,0.191002 -3.25357,-0.888008 -0.782907,-0.968008 -1.557304,-1.993818 -1.242511,-3.31383 0.221202,-0.928008 1.019799,-1.677515 0.914608,-2.688924 -0.068,-0.653006 -0.660405,-0.939008 -0.874207,-1.516113 -0.351704,-0.951009 0.313102,-1.659815 -0.752707,-2.253321 m 19.583516,5.833353 c 0.659806,-0.211002 1.708345,-0.602006 1.662925,-1.466613 -0.027,-0.521005 -0.485804,-0.908009 -0.434404,-1.450013 0.079,-0.827008 0.901708,-1.367113 0.370803,-2.244221 -0.522704,-0.864007 -1.943347,-0.739006 -2.29794,0.224002 -0.271203,0.737007 0.385003,1.448113 0.147301,2.22812 -0.387103,1.270412 -0.189402,1.605015 0.551305,2.708325 m 106.042623,-5.625051 -0.2083,1.458413 h -0.20831 l -0.4167,-0.833007 h -0.4167 c -0.082,0.288002 -0.1906,0.535005 -0.1662,0.842007 0.2575,3.24173 4.51671,-0.961008 1.41626,-1.466913 m -72.878794,0.426004 c -1.448343,0.779007 -0.483505,3.35543 0.999209,2.550223 1.601054,-0.870008 0.447904,-3.32813 -0.999209,-2.550223 m -24.41376,1.240211 c -0.343803,-0.167001 -0.688306,-0.395003 -1.04355,-0.535005 -0.915008,-0.359003 -1.384392,0.518005 -1.058759,1.329412 0.230402,0.574005 0.794607,0.811008 1.222511,1.207111 0.688106,0.636006 0.703306,1.371913 1.713135,1.539814 0,-1.667515 -0.125001,-2.774625 1.666685,-3.33343 -0.323503,-1.551014 -1.858766,-1.556014 -2.500022,-0.208002 m -20.208512,0.208002 -0.833308,1.875017 1.875017,1.041709 c 0.525005,-1.379212 0.765207,-2.548723 -1.041669,-2.916726 M 59.6898,79.365723 h 1.458343 c -1.231681,1.348612 -3.794414,1.177311 -3.958365,3.33343 1.486673,-0.185001 3.4094,-1.044209 4.579411,-1.985218 0.583105,-0.469004 1.17564,-1.14421 0.855408,-1.942317 -0.560805,-1.398013 -2.738985,-0.634006 -2.934817,0.594005 m 71.99232,-0.172001 c -0.51921,0.317003 -0.21961,1.540814 0.451,1.17661 0.6183,-0.336003 0.1752,-1.558514 -0.451,-1.17661 m -44.492072,2.25502 c -1.10126,0.316003 -1.889817,0.08 -2.291691,-1.041709 1.13751,-0.520005 1.884597,-0.127001 2.291691,1.041709 m 35.208642,-1.041709 -0.2083,0.833007 1.04167,0.208002 -0.83331,-1.041709 m -25.625226,3.750033 c 1.16459,-0.01 2.680224,-0.217002 3.178569,-1.467313 0.310207,-0.779007 -0.143302,-2.19232 -1.203131,-1.558114 -0.493305,0.295003 -0.491305,1.168111 -0.953109,1.596015 -0.517505,0.480004 -0.825207,0.744006 -1.022299,1.429412 M 29.897932,81.23954 v 1.458413 l -0.625006,-1.666715 c -1.603344,0.265003 -1.784806,3.220429 0.0083,3.28063 1.889187,0.06 2.914606,-2.890626 0.616705,-3.072328 m 86.459109,3.541732 c 0,-0.546005 -0.049,-1.12671 0.047,-1.666715 0.051,-0.288003 0.139,-0.580005 0.2969,-0.829007 0.2506,-0.396004 0.60351,-0.913009 1.1325,-0.913009 0.97421,0 1.77649,1.450713 1.36689,2.299021 -0.244,0.505005 -0.87461,0.819007 -1.38522,0.975009 -0.474,0.145001 -0.96921,0.131001 -1.45855,0.135001 M 50.105994,81.864846 v 1.875017 h 1.041669 L 50.73096,81.864846 h -0.625006 m 31.250281,1.250011 v 0.417004 c -1.15001,0.719006 -2.008148,0.801007 -2.500022,-0.625006 l 2.500022,0.208002 m 89.375815,1.041709 c -0.20351,-0.06 -0.45441,-0.102001 -0.64601,-0.212002 -1.48084,-0.848007 0.3944,-1.668315 0.75481,-0.419003 0.057,0.196001 -0.071,0.464004 -0.1088,0.631005 m -41.25037,0 -0.20831,0.208002 0.20831,-0.208002 m -18.12518,0.620006 c -0.80001,0.299003 -2.71315,1.13091 -3.11836,1.891917 -0.4317,0.810007 0.094,2.457322 1.23522,2.131019 0.6752,-0.193002 0.8033,-0.953008 1.34439,-1.304112 0.771,-0.501004 1.59417,-0.131001 2.17064,-1.059809 0.6971,-1.12361 -0.54041,-2.067319 -1.63189,-1.659015 m 37.6268,1.689215 c -0.76901,0.520005 0.1937,2.043319 0.99771,1.430613 0.71211,-0.543005 -0.2552,-1.932317 -0.99771,-1.430613 m 10.2903,0.607006 c -0.1327,0.694006 -0.061,1.008709 0.62501,1.250011 l -0.2083,-1.250011 H 159.2737 M 38.855953,87.9058 c 0.05,0.185002 0.084,0.457004 0.187301,0.635006 0.804608,1.393512 2.020019,-0.351003 0.467105,-0.744007 -0.217102,-0.05 -0.459405,0.07 -0.654406,0.109001 m 75.209017,-0.208002 0.2083,1.458313 h 0.4167 c 0.37691,-0.830007 0.33671,-1.297311 -0.625,-1.458313 m -8.33342,0.417004 0.2083,1.041709 h 0.20831 z"
       id="path24" />
  </g>
</svg>
