<?xml version="1.0" encoding="UTF-8" standalone="no"?>
<svg
   xmlns:dc="http://purl.org/dc/elements/1.1/"
   xmlns:cc="http://creativecommons.org/ns#"
   xmlns:rdf="http://www.w3.org/1999/02/22-rdf-syntax-ns#"
   xmlns:svg="http://www.w3.org/2000/svg"
   xmlns="http://www.w3.org/2000/svg"
   xmlns:sodipodi="http://sodipodi.sourceforge.net/DTD/sodipodi-0.dtd"
   xmlns:inkscape="http://www.inkscape.org/namespaces/inkscape"
   width="210mm"
   height="297mm"
   viewBox="0 0 210 297"
   version="1.1"
   id="svg8"
   inkscape:version="1.0.2-2 (e86c870879, 2021-01-15)"
   sodipodi:docname="Afganistan 2021- v3.svg">
  <defs
     id="defs2" />
  <sodipodi:namedview
     id="base"
     pagecolor="#ffffff"
     bordercolor="#666666"
     borderopacity="1.0"
     inkscape:pageopacity="0.0"
     inkscape:pageshadow="2"
     inkscape:zoom="0.35"
     inkscape:cx="1089.2797"
     inkscape:cy="519.86279"
     inkscape:document-units="mm"
     inkscape:current-layer="layer1"
     inkscape:document-rotation="0"
     showgrid="false"
     inkscape:window-width="1366"
     inkscape:window-height="705"
     inkscape:window-x="-8"
     inkscape:window-y="-8"
     inkscape:window-maximized="1" />
  <metadata
     id="metadata5">
    <rdf:RDF>
      <cc:Work
         rdf:about="">
        <dc:format>image/svg+xml</dc:format>
        <dc:type
           rdf:resource="http://purl.org/dc/dcmitype/StillImage" />
        <dc:title></dc:title>
      </cc:Work>
    </rdf:RDF>
  </metadata>
  <g
     inkscape:label="Warstwa 1"
     inkscape:groupmode="layer"
     id="layer1">
    <path
       id="rect147-9-8-3"
       style="fill:#ffffff;fill-opacity:1;stroke-width:1.00157;stroke-linejoin:round;stroke-opacity:0.449799"
       d="M 0,0 V 377.95312 H 755.90625 V 0 Z"
       transform="scale(0.26458333)"
       sodipodi:nodetypes="ccccc" />
    <path
       style="fill:#000000;stroke-width:1"
       d="m 61.788609,89.753957 c -1.05655,-0.33708 -2.00596,-1.13062 -2.45597,-2.05274 -0.38773,-0.79448 -0.4281,-1.16386 -0.34158,-3.125 0.0636,-1.441775 0.22368,-2.517125 0.45508,-3.057345 0.19633,-0.45834 0.43624,-1.74096 0.53315,-2.85026 0.14595,-1.67085 0.29182,-2.23387 0.85007,-3.28126 0.37063,-0.69538 0.74517,-1.26433 0.83231,-1.26433 0.0871,0 -0.0625,0.63525 -0.3325,1.41166 -0.27001,0.77642 -0.51843,1.83111 -0.55204,2.34376 -0.0599,0.91392 -0.0479,0.93336 0.61597,0.99737 0.78735,0.0759 0.76635,0.0165 0.36172,1.02425 -0.17581,0.43788 -0.58412,0.93876 -0.92269,1.13186 -0.73905,0.42153 -1.05083,1.40004 -1.05245,3.303165 -0.001,1.10235 0.0958,1.50056 0.514,2.11602 1.08733,1.60016 3.37308,1.80924 6.51395,0.59585 1.7815,-0.68823 4.8459,-2.40448 4.8459,-2.71399 0,-0.1081 -0.82032,-0.44039 -1.82292,-0.738435 -1.00261,-0.29804 -2.0573,-0.61296 -2.34375,-0.69982 -0.38962,-0.11814 -0.53724,-0.32393 -0.58596,-0.81683 -0.0826,-0.83609 0.39787,-1.29801 2.6452,-2.54285 1.59518,-0.8836 1.95742,-1.26427 1.48243,-1.55784 -0.11459,-0.0708 -0.20834,-0.52875 -0.20834,-1.01764 0,-2.14093 2.10585,-2.38693 4.11459,-0.48066 1.1913,1.13053 0.81863,2.2951 -0.91033,2.84475 -0.5951,0.18918 -1.09575,0.4988 -1.22343,0.7566 -0.17518,0.35368 -0.30129,0.39837 -0.66555,0.23583 -0.34487,-0.15388 -0.65462,-0.0858 -1.33148,0.2928 -0.48513,0.27133 -0.84769,0.58708 -0.80569,0.70166 0.042,0.11459 0.5401,0.39584 1.10688,0.625 0.56677,0.22917 1.20267,0.65104 1.4131,0.9375 0.33045,0.44986 0.3494,0.62802 0.13904,1.307285 -0.54122,1.74759 -2.65752,3.38075 -6.2668,4.83614 -1.91544,0.77236 -3.63092,1.04728 -4.60191,0.7375 z m 11.0933,-11.696275 c 0.36605,-0.12761 0.63258,-0.33094 0.59228,-0.45184 -0.0816,-0.24477 -1.62373,-0.83253 -1.77843,-0.67782 -0.0877,0.0877 0.35466,1.36168 0.47279,1.36168 0.0263,0 0.3473,-0.10441 0.71336,-0.23202 z m -2.18977,11.148525 c -0.0828,-0.3301 -0.008,-0.7982 0.19104,-1.19792 l 0.32703,-0.65609 0.0133,0.54688 c 0.007,0.30078 0.0719,0.83984 0.14353,1.19792 0.10259,0.51295 0.0593,0.65104 -0.20436,0.65104 -0.18659,0 -0.39473,-0.23966 -0.47057,-0.54183 z m 46.255951,0.0235 c -0.18198,-0.72507 0.0227,-1.90305 0.44177,-2.54265 0.47658,-0.72735 0.54847,-0.51473 0.18382,0.54366 -0.2817,0.81765 -0.27907,0.9397 0.0275,1.27845 0.41161,0.45482 0.32413,1.10472 -0.1613,1.19821 -0.23775,0.0458 -0.39994,-0.11174 -0.49178,-0.47767 z m -43.054981,-0.13118 c -0.87335,-0.44955 -0.93313,-0.68455 -0.43817,-1.7225 0.30445,-0.63844 0.39982,-0.69789 0.8469,-0.52791 0.84609,0.32169 1.07652,0.22429 1.51836,-0.64178 0.47536,-0.9318 0.55031,-0.95718 1.56919,-0.53147 0.79802,0.33344 0.86794,0.61338 0.42061,1.684 -0.34595,0.82797 -0.31662,0.81783 -1.24473,0.43004 l -0.69989,-0.29243 -0.36727,0.81446 c -0.52377,1.16152 -0.70541,1.25065 -1.605,0.78759 z m 5.26982,-0.13177 c 0.005,-0.31511 0.14262,-0.85417 0.30545,-1.19792 l 0.29604,-0.625 -0.11582,0.75739 c -0.0682,0.44596 -0.0225,0.81509 0.11122,0.89772 0.38175,0.23593 0.25253,0.74073 -0.18962,0.74073 -0.31793,0 -0.41444,-0.13576 -0.40727,-0.57292 z m 26.553131,0.18149 c -1.01633,-0.46622 -1.87354,-1.30624 -2.46785,-2.41835 -0.37166,-0.69547 -0.44924,-1.20389 -0.46136,-3.023555 -0.008,-1.20313 -0.0885,-2.44346 -0.17882,-2.75629 -0.1906,-0.66008 0.45199,-2.99407 1.26726,-4.60293 0.71422,-1.40945 0.82839,-1.08478 0.21876,0.62207 -0.94956,2.65855 -0.91776,3.29964 0.16368,3.29964 0.32397,0 0.40129,0.11586 0.34758,0.52084 -0.038,0.28646 -0.2255,0.74417 -0.41667,1.01714 -0.8028,1.1463 -0.88413,1.39004 -0.7706,2.309275 0.15253,1.23501 0.95228,2.39646 2.02806,2.94528 0.76852,0.39208 1.11824,0.43404 2.86435,0.3437 1.29851,-0.0672 2.37467,-0.25229 3.10011,-0.53325 1.37033,-0.53072 3.77324,-1.94359 4.72144,-2.77611 l 0.70772,-0.621385 -0.49814,-1.18608 c -1.19013,-2.83369 -1.53328,-3.9121 -1.42147,-4.46733 0.1551,-0.77024 0.4617,-0.72195 1.37868,0.21712 0.84756,0.86798 0.93654,1.08497 0.44491,1.08497 -0.37464,0 -0.28108,0.45301 0.35327,1.71045 0.24772,0.49106 0.38955,1.21286 0.38887,1.97917 -10e-4,1.577125 -0.58253,2.541005 -2.32176,3.850885 -3.26712,2.4606 -7.22919,3.50258 -9.44802,2.48474 z m -71.038895,-0.26855 c -1.24727,-0.98111 -1.43634,-2.49913 -0.60959,-4.89442 0.29649,-0.859025 0.50081,-1.600155 0.45402,-1.646935 -0.0468,-0.0468 -1.06281,0.24777 -2.25784,0.65457 -3.21293,1.093715 -4.652039,1.338525 -7.863479,1.337645 -3.18504,-8.3e-4 -3.66782,-0.1559 -4.70011,-1.509295 -0.77039,-1.01003 -0.84381,-1.66968 -0.55769,-5.01033 0.32061,-3.74318 0.50495,-4.58856 1.30636,-5.99089 0.8086,-1.4149 0.98583,-1.07299 0.27591,0.53227 -0.87164,1.97092 -0.68833,4.34608 0.26206,3.39569 0.19444,-0.19445 0.25,-0.0766 0.25,0.5303 0,0.75697 -0.19809,1.04905 -1.33433,1.9675 -0.42722,0.34532 -0.43613,1.73885 -0.0163,2.55069 0.35889,0.69403 1.19235,1.18263 2.70481,1.58566 2.81178,0.74926 5.78383,0.15485 14.166683,-2.83332 1.55248,-0.5534 1.97355,-0.63047 2.44792,-0.44809 0.63163,0.24286 0.76379,0.93292 0.33607,1.75471 -0.56503,1.08559 -3.622214,4.952085 -3.681994,4.656705 -0.0905,-0.44715 0.4039,-1.33565 1.642164,-2.951215 0.58485,-0.76305 1.00522,-1.44551 0.93415,-1.51657 -0.0711,-0.0711 -0.52463,-0.0234 -1.00793,0.10586 -1.923594,0.51457 -1.939844,0.52947 -2.539584,2.33034 -0.69964,2.100825 -0.77375,3.357405 -0.23322,3.954675 0.82173,0.90801 1.53469,0.47985 5.260414,-3.15901 l 2.81944,-2.753705 -0.13341,-3.43935 c -0.0734,-1.89164 -0.1858,-3.79953 -0.24984,-4.23975 -0.11472,-0.78855 -0.1273,-0.79835 -0.85076,-0.66263 -1.14351,0.21452 -4.60292,1.43337 -6.502064,2.29085 -1.90121,0.85842 -2.45418,0.79224 -1.79438,-0.21475 0.57132,-0.87193 3.844244,-2.22782 7.761974,-3.21559 l 0.87562,-0.22077 0.0619,-1.29669 c 0.0782,-1.63867 0.54084,-1.78305 0.98403,-0.30711 0.23012,0.76637 0.3946,0.98975 0.72917,0.99033 0.23761,4.1e-4 2.3344,-0.5269 4.65953,-1.1718 2.32514,-0.64489 4.28315,-1.11691 4.35114,-1.04891 0.068,0.068 -0.0168,0.33749 -0.18848,0.59888 -0.33432,0.50906 -0.34993,0.51447 -5.54989,1.9252 -1.87535,0.50878 -3.43926,0.95459 -3.47537,0.99069 -0.0361,0.0361 0.0397,1.96831 0.16848,4.2938 l 0.23413,4.22816 0.5329,-0.16252 c 0.2931,-0.0894 0.9419,-0.16255 1.44177,-0.16258 1.13024,-8e-5 1.69531,0.58959 1.69531,1.76913 0,1.0017 -0.26974,1.1767 -0.96761,0.62775 -0.6236,-0.49052 -1.68876,-0.56231 -2.25035,-0.15166 -0.31443,0.22992 -0.3639,0.48397 -0.28337,1.455105 0.12254,1.47767 0.56203,2.01635 1.64506,2.01635 1.55911,0 2.58605,-0.6825 3.32558,-2.21017 0.68547,-1.415985 1.93564,-2.581495 2.76901,-2.581495 1.15908,0 1.64774,0.86075 1.62386,2.860325 -0.016,1.33679 -0.44463,2.13968 -1.14236,2.13968 -0.65892,0 -2.42815,-0.62147 -2.42815,-0.85292 0,-0.44942 -0.62735,-0.12996 -1.03266,0.52585 -0.60521,0.97924 -1.72656,1.92605 -2.4761,2.09067 -0.34268,0.0753 -0.9994,0.0355 -1.45938,-0.0884 -1.12945,-0.30412 -1.71326,-1.261 -1.85626,-3.04243 -0.0639,-0.79595 -0.20351,-1.34115 -0.34346,-1.34115 -0.12969,0 -1.17154,0.94758 -2.31522,2.10573 -3.36583,3.4084 -4.309584,3.8887 -5.618254,2.8593 z m 17.601344,-4.40788 c 0,-0.1519 -0.22919,-0.49149 -0.5093,-0.75465 -0.37521,-0.352485 -0.64947,-0.443275 -1.04167,-0.344835 -0.2928,0.0735 -0.53237,0.2141 -0.53237,0.31247 0,0.272965 0.53245,0.655665 1.1846,0.851415 0.83144,0.24957 0.89874,0.24475 0.89874,-0.0644 z m 119.007511,4.44202 c -0.73845,-0.30728 -0.86451,-0.98777 -0.84122,-4.54094 0.0183,-2.787385 0.0824,-3.428365 0.40256,-4.022415 l 0.38083,-0.70665 -0.13088,1.21849 c -0.0878,0.81765 -0.0527,1.26678 0.10669,1.36531 0.17757,0.10974 0.17487,0.57701 -0.0107,1.850005 -0.32797,2.25019 -0.14002,2.83338 0.94207,2.92308 0.6041,0.0501 1.15923,-0.13507 2.39204,-0.79776 2.14599,-1.15357 5.66853,-3.505935 5.81276,-3.881785 0.14387,-0.37492 -0.16852,-0.60819 -2.64489,-1.97506 -2.94066,-1.62314 -4.92565,-3.78057 -4.4997,-4.89058 0.16264,-0.42384 0.88793,-0.26327 2.14899,0.47576 0.81767,0.47919 0.87109,0.55717 0.54503,0.79559 -0.32453,0.2373 -0.24535,0.3385 0.77417,0.98955 0.62462,0.39887 1.7197,1.01954 2.43352,1.37926 1.71633,0.86492 2.00328,1.32628 1.89384,3.04496 -0.10533,1.654085 -0.40648,2.017845 -3.40002,4.106885 -3.36974,2.35156 -5.20073,3.12585 -6.30512,2.6663 z M 40.750719,88.775817 c -0.2431,-0.2431 -0.14935,-1.64217 0.13621,-2.0327 0.23964,-0.32773 0.2732,-0.2277 0.26041,0.77625 -0.0146,1.14765 -0.13238,1.52069 -0.39662,1.25645 z m 59.461371,-1.45032 c -0.009,-0.93135 -0.15424,-3.60323 -0.322141,-5.937495 -0.81269,-11.29845 -0.79852,-10.98703 -0.52933,-11.63692 0.14188,-0.34252 0.33285,-0.57648 0.42439,-0.51991 0.21207,0.13107 1.451881,3.36415 1.451881,3.78611 0,0.20636 -0.11756,0.27188 -0.33684,0.18773 -0.30173,-0.11578 -0.32338,0.0937 -0.20771,2.00896 0.071,1.17603 0.17933,4.38823 0.24067,7.13823 0.10416,4.670005 0.0846,5.054995 -0.29627,5.833335 l -0.40779,0.83333 -0.0169,-1.69337 z m 20.02745,1.27533 c -1.26313,-0.5488 -1.57514,-2.14786 -1.91031,-9.790295 -0.11558,-2.63542 -0.31039,-5.33141 -0.43291,-5.99109 -0.27186,-1.46383 -0.18879,-3.32091 0.1536,-3.43369 0.65394,-0.21541 1.20136,3.76582 1.4248,10.36228 0.16456,4.858275 0.35885,6.237225 0.94665,6.718755 0.99912,0.81849 2.23908,0.29465 3.65347,-1.54346 0.95828,-1.245345 0.99587,-1.270195 1.18419,-0.78282 0.47183,1.22108 0.71691,1.52149 1.70243,2.08679 0.95482,0.54769 1.22311,0.60033 3.06862,0.60212 1.99256,0.002 2.04817,-0.0117 3.77858,-0.92434 0.96594,-0.50945 1.80915,-0.87338 1.8738,-0.80873 0.0647,0.0647 0.0616,0.39721 -0.007,0.73903 -0.15725,0.78627 0.14254,0.98862 1.47088,0.9928 0.94606,0.003 1.09923,-0.076 2.29167,-1.18195 l 1.27785,-1.18514 0.0676,0.81792 c 0.0372,0.44985 0.16585,0.93629 0.28593,1.08097 0.53677,0.64677 1.89718,0.0663 2.75889,-1.17713 0.63788,-0.92046 0.95008,-0.93608 0.95008,-0.0475 0,0.79853 0.35681,1.07104 1.40237,1.07104 1.19038,0 1.29283,-0.32977 0.61512,-1.98001 -0.60474,-1.472565 -1.39249,-4.386165 -1.39249,-5.150305 0,-0.27411 0.13164,-0.67841 0.29253,-0.89844 0.28453,-0.38912 0.30418,-0.38593 0.71843,0.11643 0.23425,0.28407 0.5948,0.82716 0.80122,1.20688 0.33942,0.62435 0.34368,0.70823 0.0446,0.87683 -0.29617,0.16695 -0.27779,0.34431 0.17577,1.69664 0.70777,2.110315 0.81888,3.488865 0.3749,4.651425 -0.42284,1.10717 -0.99009,1.56389 -1.94243,1.56389 -0.67531,0 -1.47544,-0.56455 -1.7884,-1.26184 -0.11637,-0.25929 -0.15397,-0.25793 -0.27317,0.01 -0.076,0.17077 -0.39693,0.56921 -0.71314,0.88542 -0.87232,0.87233 -2.04713,0.81291 -2.83539,-0.14339 l -0.5921,-0.71831 -0.69295,0.70871 c -0.81373,0.83224 -1.89044,1.24088 -2.7936,1.06025 -0.71752,-0.14351 -1.40127,-0.67122 -1.40127,-1.0815 0,-0.51946 -0.41094,-0.51054 -1.22249,0.0265 -1.72296,1.1402 -3.96241,1.43068 -6.02278,0.78121 -0.89236,-0.28129 -1.35069,-0.59894 -2.13673,-1.48085 l -1.00069,-1.12275 -0.35386,0.6996 c -0.45568,0.90089 -1.09766,1.60127 -1.8052,1.9694 -0.69828,0.36331 -1.12274,0.35882 -1.99731,-0.0212 z m 47.80844,-1.56113 c -0.0685,-1.08854 -0.22579,-4.135415 -0.34957,-6.770835 -0.12377,-2.63542 -0.32721,-5.94794 -0.45209,-7.36116 -0.22352,-2.52968 -0.10028,-3.57635 0.4211,-3.57635 0.22569,0 1.48894,3.06424 1.48733,3.6078 -8.3e-4,0.28959 -0.10392,0.34599 -0.43835,0.23985 -0.3558,-0.11293 -0.41646,-0.067 -0.32573,0.24637 0.0613,0.21184 0.26869,2.53098 0.46082,5.15365 0.41572,5.674995 0.34893,8.170625 -0.25432,9.502345 l -0.42468,0.9375 z m -16.52226,1.27838 c -0.62085,-0.28924 -0.92458,-0.59219 -1.10205,-1.09924 -0.26364,-0.75322 -0.51668,-3.782725 -0.84216,-10.082605 -0.11269,-2.18129 -0.30806,-4.44703 -0.43416,-5.03499 -0.30053,-1.40135 -0.19918,-2.66572 0.21369,-2.66572 0.75089,0 1.14573,2.7833 1.46293,10.31251 0.27653,6.563705 0.34089,6.772445 2.08674,6.767695 0.81527,-0.002 1.35887,-0.13353 1.85616,-0.44839 l 0.70324,-0.44526 -1.06258,-0.53845 c -0.78366,-0.39711 -1.23612,-0.50374 -1.72373,-0.40622 -0.62318,0.12464 -0.65207,0.10354 -0.50314,-0.36732 0.51851,-1.639285 1.28029,-1.957885 4.68129,-1.957885 2.10142,0 2.73489,0.0714 3.28126,0.36993 l 0.67708,0.36994 v -0.63705 c 0,-0.80383 0.45879,-1.91577 1.02341,-2.4804 0.95318,-0.95317 2.69267,-0.22818 3.60911,1.50423 0.66286,1.25306 0.66481,3.687745 0.004,4.750635 -0.64421,1.03589 -1.7847,1.77158 -3.37822,2.17919 -1.66487,0.42587 -3.01566,0.1875 -4.49673,-0.79353 l -0.98671,-0.65356 -0.64775,0.38813 c -2.25473,1.35103 -3.16988,1.55146 -4.42149,0.96836 z m 12.55355,-2.52751 c 0.7284,-0.35859 1.32436,-0.78432 1.32436,-0.94607 0,-0.48178 -1.04849,-0.86865 -2.65225,-0.97863 l -1.50643,-0.1033 -0.4001,0.67813 c -0.26433,0.448 -0.67219,0.76514 -1.20191,0.93456 -1.01726,0.32535 -1.26878,0.55165 -0.95824,0.86218 0.73324,0.73324 3.45549,0.50774 5.39457,-0.44687 z m -5.86863,-1.67641 c -0.14578,-0.23587 -2.18202,-0.27262 -2.18202,-0.0394 0,0.088 0.25443,0.31446 0.5654,0.50314 0.50301,0.30521 0.63018,0.30956 1.15264,0.0394 0.32299,-0.16702 0.53178,-0.39343 0.46398,-0.50314 z m 5.4749,-2.126535 c -0.0474,-0.14323 -0.33313,-0.39967 -0.635,-0.56987 -0.45075,-0.25414 -0.59671,-0.26094 -0.81663,-0.0381 -0.21852,0.22146 -0.19338,0.32631 0.13662,0.56987 0.50502,0.37273 1.43462,0.39964 1.31501,0.0381 z M 55.617789,88.289707 c -0.0153,-0.17188 -0.11039,-1.90626 -0.21135,-3.85418 -0.25605,-4.940225 -0.81107,-12.823405 -0.94228,-13.383665 -0.12907,-0.5511 0.42898,-2.01134 0.70375,-1.84152 0.23845,0.14736 1.17506,2.48315 1.38351,3.45026 0.142,0.65884 0.1248,0.69895 -0.18835,0.43907 -0.18954,-0.15731 -0.39572,-0.23493 -0.45817,-0.17248 -0.0624,0.0624 0.0336,1.80339 0.21337,3.86877 0.1798,2.06538 0.32445,5.19171 0.32145,6.947395 -0.005,2.69195 -0.0673,3.32276 -0.39981,4.02551 -0.21688,0.45834 -0.40684,0.69271 -0.42212,0.52084 z m 28.8383,-0.34293 c -0.28099,-0.30319 -0.51088,-0.72697 -0.51088,-0.94173 0,-0.37663 -0.0293,-0.37555 -0.82504,0.0304 -1.1829,0.60347 -2.04874,0.56084 -2.30512,-0.1135 -0.40974,-1.07767 -0.23573,-2.43028 0.51386,-3.994405 l 0.71705,-1.49622 -0.63252,-0.53223 -0.63251,-0.53223 -0.55328,0.42966 c -1.76629,1.37161 -2.40133,1.80643 -4.12639,2.82539 -1.81403,1.071525 -2.53815,1.367445 -2.26513,0.925695 0.0681,-0.11022 1.08147,-0.944475 2.25188,-1.853895 1.17041,-0.90942 2.50302,-1.98391 2.96136,-2.38775 l 0.83333,-0.73425 -2.52469,-2.40319 c -3.14462,-2.99329 -5.28782,-5.77839 -5.28782,-6.87155 0,-1.03449 0.42759,-0.9938 1.92709,0.18337 1.20119,0.94299 1.46859,1.351 0.88542,1.351 -0.17188,0 -0.3125,0.0856 -0.3125,0.1902 0,0.2187 6.24904,6.26814 6.47495,6.26814 0.18683,0 3.88392,-4.18363 5.45319,-6.17082 1.07666,-1.36339 2.67848,-2.75243 3.52037,-3.05275 0.18938,-0.0675 0.50864,-0.003 0.70945,0.14415 0.30025,0.21955 0.34397,0.47194 0.24606,1.42059 -0.0655,0.63448 -0.26581,1.43738 -0.44517,1.78423 -0.41388,0.80034 -3.70427,5.2176 -5.31988,7.14178 l -1.23061,1.46565 0.63698,1.36118 c 0.61559,1.31551 0.62796,1.398755 0.36845,2.480495 -0.33401,1.39232 -0.10964,1.75883 1.07675,1.75883 1.1096,0 1.9475,-0.3981 3.29997,-1.56786 l 1.14468,-0.99004 0.17489,0.70603 c 0.30054,1.21326 0.42678,1.32697 1.54686,1.39328 1.04272,0.0617 1.05985,0.0526 2.04953,-1.09375 0.54891,-0.6358 1.06088,-1.156 1.13772,-1.156 0.0768,0 0.0943,0.23766 0.0387,0.52813 -0.12351,0.64615 0.44952,1.34687 1.10144,1.34687 0.3931,0 0.47727,-0.14038 0.56828,-0.94779 0.0588,-0.52129 0.16243,-1.00339 0.23039,-1.07136 0.26731,-0.267305 0.75864,0.44095 0.75864,1.0936 0,2.19092 -1.77664,3.55275 -3.0609,2.34625 l -0.48358,-0.4543 -0.57151,0.53301 c -0.31434,0.29316 -0.77629,0.63822 -1.02657,0.76681 -1.10107,0.56568 -2.7062,4.1e-4 -2.91133,-1.02519 -0.0678,-0.33881 -0.18685,-0.61603 -0.26463,-0.61603 -0.0778,0 -0.4645,0.33931 -0.85937,0.75401 -0.89289,0.93773 -1.78044,1.32933 -3.01288,1.32933 -0.76419,0 -1.05585,-0.10975 -1.46503,-0.55126 z m -1.26003,-2.83759 c 1.27385,-0.72877 1.3497,-1.00652 0.55044,-2.015655 l -0.68769,-0.86828 -0.47499,0.44624 c -0.67855,0.63745 -1.43996,2.158655 -1.28397,2.565175 0.18261,0.47586 0.92936,0.42566 1.89621,-0.12748 z m 3.27144,-8.700765 c 1.64776,-2.06595 3.16432,-4.08449 3.37012,-4.48564 0.36459,-0.71066 0.33465,-1.13309 -0.0803,-1.13309 -0.36515,0 -2.28847,1.92401 -4.2693,4.27084 -1.06385,1.26041 -2.26455,2.66666 -2.66822,3.125 -0.40367,0.45833 -0.73747,0.9452 -0.74177,1.08194 -0.009,0.27818 0.78874,0.89723 1.15588,0.89723 0.13071,0 1.58582,-1.69033 3.23359,-3.75628 z M 30.417725,87.899647 c -0.23261,-0.43463 -0.0491,-1.27854 0.48548,-2.23293 l 0.33955,-0.60618 -0.13107,0.99147 c -0.0865,0.65449 -0.0442,1.09615 0.1245,1.29943 0.31033,0.37393 0.13109,0.93827 -0.298,0.93827 -0.17144,0 -0.40565,-0.17553 -0.52046,-0.39006 z m 76.073855,-2.85093 c -0.64393,-0.45102 -0.61482,-1.681625 0.0718,-3.036655 0.65929,-1.30104 0.87242,-1.20023 0.38197,0.18066 -0.42642,1.20061 -0.29403,1.780835 0.38434,1.684505 0.40617,-0.0577 0.46969,-0.190775 0.46969,-0.984305 0,-1.09382 0.37313,-1.32648 0.80085,-0.49935 0.26065,0.50402 0.26376,0.70721 0.0216,1.411555 -0.26819,0.78014 -0.9868,1.55318 -1.45319,1.56327 -0.11774,0.003 -0.42243,-0.14131 -0.67709,-0.31968 z m -44.838061,-0.16172 c 0,-0.063 0.57769,-0.42244 1.28375,-0.79877 1.11994,-0.596915 1.2216,-0.698895 0.7967,-0.799205 -0.61134,-0.14432 -0.73437,-0.48015 -0.3061,-0.83557 0.24127,-0.20024 0.53272,-0.22263 1.08487,-0.0833 0.92615,0.23361 1.05419,0.54279 0.45571,1.10036 -0.7172,0.668175 -3.31493,1.778245 -3.31493,1.416535 z m 66.168201,-0.67684 c -0.20367,-0.530735 -0.14792,-1.090805 0.18877,-1.896635 0.39134,-0.93659 0.62097,-0.78377 0.34176,0.22743 -0.18076,0.65467 -0.15234,0.78675 0.22632,1.05197 0.36142,0.253145 0.38888,0.356515 0.16602,0.625045 -0.34415,0.41468 -0.76211,0.41114 -0.92287,-0.008 z m 6.74855,-1.122215 c 0.17187,-0.12811 1.15625,-0.66158 2.1875,-1.18548 1.03125,-0.5239 1.91916,-0.99369 1.97313,-1.04398 0.24081,-0.22437 -0.57882,-0.48312 -1.19188,-0.37626 -0.82095,0.1431 -0.87584,-0.13771 -0.16572,-0.84783 0.55865,-0.55865 1.0564,-0.62329 2.24905,-0.29207 0.54295,0.15078 0.78126,0.33449 0.78126,0.60225 0,0.56905 -1.35424,1.65758 -3.01665,2.42477 -1.48725,0.68636 -3.44273,1.18524 -2.81669,0.7186 z m -46.983951,-0.43089 c -0.1855,-0.30013 0.0964,-1.83506 0.36787,-2.00282 0.14868,-0.0919 0.18104,0.0708 0.0973,0.48936 -0.0692,0.34617 -0.0247,0.72766 0.0993,0.85172 0.25036,0.25036 0.0871,0.87772 -0.22844,0.87772 -0.11142,0 -0.26265,-0.0972 -0.33606,-0.21598 z M 121.914,82.181632 c -0.59394,-0.87245 -0.58821,-0.96853 0.0901,-1.50935 l 0.5588,-0.44557 -0.57716,-0.98486 c -0.31745,-0.54168 -0.54547,-1.00787 -0.50672,-1.03598 0.81065,-0.58812 1.42918,-0.95784 1.60243,-0.95784 0.11971,0 0.47077,0.33185 0.78013,0.73745 l 0.56248,0.73744 -0.57469,0.59985 -0.57469,0.59985 0.48882,0.86974 0.48883,0.86975 -0.67764,0.60546 c -0.86249,0.77064 -1.08535,0.75911 -1.66064,-0.0859 z m 8.94549,-0.46471 c -0.24776,-0.50997 -0.57598,-0.92722 -0.72937,-0.92722 -0.7995,0 -1.46336,-1.52896 -0.98921,-2.27828 0.23653,-0.3738 0.63823,-0.0825 1.4758,1.07027 l 0.56031,0.77116 0.23649,-0.78933 c 0.43854,-1.46372 1.72828,-2.01819 1.86851,-0.80329 0.0569,0.49264 -0.008,0.57113 -0.47391,0.57113 -0.62275,0 -0.85306,0.44786 -1.06955,2.07986 -0.0769,0.57997 -0.20484,1.09464 -0.28424,1.14371 -0.0794,0.0491 -0.34706,-0.32803 -0.59483,-0.83801 z m -19.87809,-0.0405 c -0.78138,-0.48455 -0.84162,-0.7689 -0.34219,-1.61536 0.49742,-0.84307 0.66621,-0.87687 1.58403,-0.31726 0.71446,0.43563 0.71704,0.74228 0.0157,1.86538 -0.32326,0.51762 -0.51469,0.52786 -1.25749,0.0672 z m -14.499471,-0.30831 c -0.34772,-0.34772 -0.29566,-0.96967 0.16175,-1.93255 l 0.39587,-0.83333 -0.11715,0.98958 c -0.0791,0.66853 -0.0404,0.98958 0.1195,0.98958 0.32404,0 0.29857,0.5226 -0.0391,0.80287 -0.20139,0.16715 -0.34189,0.16279 -0.52083,-0.0162 z m -3.67148,-1.09922 c -0.24564,-0.6432 -0.47875,-0.9375 -0.74259,-0.9375 -0.59335,0 -1.03931,-0.58217 -1.03931,-1.35675 0,-1.11908 0.40118,-1.11555 1.39362,0.0123 0.6887,0.78266 0.89823,0.92476 0.89882,0.6096 0.001,-0.63891 0.78004,-1.76513 1.22066,-1.76513 0.5422,0 0.92406,0.51762 0.76096,1.03151 -0.1112,0.35034 -0.20839,0.38743 -0.54424,0.20769 -0.35479,-0.18988 -0.44937,-0.12186 -0.71517,0.5143 -0.16848,0.40321 -0.3076,0.94707 -0.30916,1.20856 -0.004,0.65856 -0.22275,1.41294 -0.40982,1.41294 -0.0857,0 -0.31685,-0.42187 -0.51377,-0.9375 z m -68.097163,-0.27181 c -0.67913,-0.70886 -0.68616,-0.81684 -0.0942,-1.44698 l 0.46564,-0.49564 -0.48715,-0.84644 -0.48714,-0.84643 0.64831,-0.64831 c 0.72394,-0.72394 1.00941,-0.66474 1.78009,0.36917 l 0.42712,0.573 -0.57292,0.41785 c -0.72376,0.52786 -0.71787,0.7373 0.0469,1.66507 l 0.61979,0.75191 -0.78724,0.54556 c -0.43298,0.30005 -0.83497,0.54555 -0.89331,0.54555 -0.0583,0 -0.35799,-0.26294 -0.66589,-0.58431 z m 130.330484,0.20767 c -0.81914,-0.42948 -0.83621,-0.64898 -0.13314,-1.71141 l 0.54869,-0.82911 0.84226,0.469 c 0.46325,0.25795 0.87473,0.56915 0.9144,0.69156 0.10325,0.31859 -0.83149,1.64167 -1.19469,1.69101 -0.16784,0.0228 -0.60773,-0.11717 -0.97752,-0.31105 z M 31.385265,79.618702 c -0.23083,-0.23083 -0.17484,-1.45982 0.0933,-2.04837 0.26775,-0.58763 0.72868,-0.74702 0.48022,-0.16605 -0.35406,0.82789 -0.3615,1.51042 -0.0165,1.51042 0.24528,0 0.33615,-0.19711 0.33615,-0.72917 0,-0.50509 0.0948,-0.72917 0.30853,-0.72917 0.46191,0 0.64137,1.02298 0.28985,1.65223 -0.29009,0.51929 -1.17857,0.82314 -1.49159,0.51011 z m 111.049595,-0.92707 c -0.42969,-0.22654 -0.78125,-0.47013 -0.78125,-0.54132 0,-0.22629 1.1397,-1.94319 1.29017,-1.94358 0.34019,-8.3e-4 1.6265,0.89692 1.6265,1.13523 0,0.33251 -0.87015,1.6259 -1.14584,1.70317 -0.11458,0.0321 -0.55989,-0.12695 -0.98958,-0.3535 z m -16.60113,-0.54094 c -0.53598,-0.37542 -0.5397,-0.7045 -0.0195,-1.72414 0.64271,-1.25981 1.68781,-1.96547 4.13481,-2.79186 2.45639,-0.82956 14.99482,-4.30334 15.53269,-4.30334 0.38626,0 0.45172,0.32215 0.10854,0.53424 -0.76564,0.4732 -1.4205,3.73274 -0.72113,3.58948 0.16436,-0.0337 0.30498,0.009 0.3125,0.095 0.0533,0.60939 -0.0271,0.96263 -0.29898,1.31435 -0.30681,0.39685 -0.32041,0.39522 -0.72917,-0.0874 -0.50172,-0.59243 -0.52374,-1.25901 -0.0899,-2.72008 0.17967,-0.60501 0.28213,-1.14457 0.22768,-1.19902 -0.30078,-0.30078 -15.10429,4.14388 -15.91895,4.77958 -0.14323,0.11176 -0.26042,0.46578 -0.26042,0.78671 0,0.65772 -0.82815,1.76104 -1.44239,1.92167 -0.22311,0.0583 -0.59922,-0.0295 -0.8358,-0.1952 z m 1.44486,-1.1735 c 0,-0.26354 0.11719,-0.6022 0.26042,-0.75258 0.21291,-0.22354 0.1654,-0.24564 -0.26042,-0.12119 -1.18619,0.34669 -1.55698,1.35294 -0.49854,1.35294 0.38133,0 0.49854,-0.11266 0.49854,-0.47917 z m -87.152871,1.17362 c -0.24591,-0.24591 -0.1481,-1.51913 0.17634,-2.29563 0.39977,-0.95678 0.61852,-0.7749 0.32903,0.27356 -0.17884,0.64768 -0.16237,0.82672 0.089,0.96739 0.40809,0.22838 0.39465,0.90756 -0.0211,1.06711 -0.40804,0.15658 -0.40415,0.15666 -0.57324,-0.0124 z m 9.25758,-0.79862 c -0.29059,-0.65692 -0.53845,-0.9375 -0.8282,-0.9375 -0.87752,0 -1.39665,-1.26458 -0.85524,-2.08333 0.17054,-0.25789 0.37221,-0.13958 1.1541,0.67708 0.5211,0.54427 0.98918,0.98959 1.04017,0.98959 0.051,0 0.0927,-0.22174 0.0927,-0.49274 0,-0.63908 0.75243,-1.5906 1.25779,-1.5906 0.42281,0 0.9067,0.69574 0.76874,1.1053 -0.0461,0.13688 -0.35687,0.24887 -0.69059,0.24887 -0.58661,0 -0.6168,0.0502 -0.90841,1.51042 -0.1659,0.83073 -0.37245,1.51042 -0.459,1.51042 -0.0865,0 -0.34398,-0.42188 -0.57207,-0.93751 z m 112.988521,0.60454 c -1.13065,-0.58143 -1.2435,-0.80431 -0.75477,-1.49067 0.79453,-1.11582 0.98192,-1.18655 1.80153,-0.68 0.82501,0.50988 0.85828,0.61935 0.43629,1.4354 -0.49143,0.95031 -0.78339,1.09506 -1.48305,0.73527 z m -133.218345,-0.7087 c -0.524359,-0.52437 -0.531029,-1.37239 -0.0174,-2.21468 0.27756,-0.45517 0.89091,-0.88673 2.03048,-1.42863 3.04188,-1.4465 8.528234,-3.44003 9.467254,-3.44003 0.54144,0 0.4969,0.5502 -0.074,0.91447 -0.25781,0.16449 -1.5,0.64605 -2.76042,1.07013 -2.812474,0.94628 -5.878264,2.22177 -7.367014,3.06495 l -1.11701,0.63264 0.64826,0.50734 c 0.80608,0.63085 0.87216,1.31047 0.12742,1.31047 -0.28646,0 -0.70833,-0.1875 -0.9375,-0.41666 z m 35.454304,-1.11773 c -1.06103,-1.35014 -1.36689,-2.21561 -0.78299,-2.21561 0.16294,0 0.63169,0.39188 1.04166,0.87084 0.40997,0.47895 0.74475,0.78364 0.74394,0.67708 -8.3e-4,-0.10656 -0.1883,-0.97313 -0.41666,-1.9257 -0.46866,-1.95489 -0.5367,-3.58407 -0.16521,-3.95556 0.74519,-0.74519 2.04167,0.0516 2.04167,1.25469 0,0.65163 -0.13424,0.70023 -0.7169,0.25952 -0.22242,-0.16823 -0.48024,-0.30587 -0.57292,-0.30587 -0.26352,0 -0.19853,1.47318 0.14395,3.26292 0.38392,2.00632 0.39108,2.5917 0.0376,3.07507 -0.25192,0.34452 -0.36516,0.26111 -1.35417,-0.99738 z m 42.045781,0.81438 c 0,-0.0523 0.9375,-0.57658 2.08334,-1.16516 1.14583,-0.58857 2.08333,-1.15813 2.08333,-1.26569 0,-0.34384 -0.66746,-0.46613 -1.28072,-0.23465 -0.8021,0.30276 -0.7944,-0.0948 0.0169,-0.87208 0.54585,-0.52296 0.70983,-0.57074 1.53437,-0.44709 0.50776,0.0761 1.09224,0.26205 1.29885,0.41313 0.35862,0.26223 0.35456,0.30432 -0.0897,0.92815 -0.55845,0.78427 -1.70889,1.48055 -3.63997,2.20301 -1.36003,0.50882 -2.00645,0.6507 -2.00645,0.44038 z m 52.01395,-0.0439 c -0.25881,-0.2588 -0.14068,-1.75334 0.18898,-2.39081 0.4137,-0.80002 0.62964,-0.62625 0.32122,0.25849 -0.31386,0.90034 -0.29242,1.22955 0.0801,1.22955 0.33624,0 0.38609,0.19081 0.18604,0.71212 -0.12995,0.33866 -0.53005,0.43692 -0.77632,0.19065 z m -22.478,-0.78381 c -0.0689,-0.44584 -0.18223,-0.47091 -0.89008,-0.19684 -0.39685,0.15366 -0.40096,0.13761 -0.0864,-0.33766 0.52054,-0.78643 1.00619,-1.0088 1.2537,-0.57405 0.27398,0.48127 0.44161,0.4619 1.35251,-0.15625 0.86309,-0.58571 1.37962,-0.65583 1.7291,-0.23474 0.56546,0.68134 -0.19292,1.29232 -2.08911,1.68308 -1.15076,0.23714 -1.20601,0.22916 -1.26974,-0.18354 z m 2.66386,-0.84151 c 0.3233,-0.24453 0.33927,-0.3072 0.0796,-0.3125 -0.17863,-0.004 -0.50675,0.13102 -0.72917,0.29925 -0.32331,0.24454 -0.33928,0.30721 -0.0796,0.3125 0.17862,0.004 0.50675,-0.13101 0.72917,-0.29925 z m 8.55248,1.02004 c -0.14933,-0.38915 0.25612,-2.12732 0.53667,-2.30071 0.11806,-0.073 0.1399,0.17789 0.0549,0.63083 -0.0904,0.48171 -0.0493,0.86249 0.11419,1.05952 0.30522,0.36777 0.13298,0.93787 -0.28337,0.93787 -0.16321,0 -0.3533,-0.14738 -0.42242,-0.32751 z m -50.879821,-0.42053 c -0.14456,-0.57598 0.21478,-2.06921 0.54742,-2.2748 0.12359,-0.0764 0.15039,0.23882 0.0701,0.82459 -0.10855,0.79198 -0.0738,0.94825 0.21085,0.94825 0.3985,0 0.41685,0.0936 0.12516,0.63869 -0.30499,0.56987 -0.79378,0.49977 -0.95353,-0.13673 z m 80.760271,-0.18024 c -0.30473,-0.36718 -0.14476,-1.53562 0.33807,-2.46931 0.42079,-0.81373 0.51371,-0.6298 0.23551,0.46622 -0.20495,0.80745 -0.18677,0.94156 0.16229,1.19679 0.30241,0.22113 0.34266,0.36741 0.17449,0.63403 -0.30652,0.48593 -0.60342,0.54212 -0.91036,0.17227 z m -56.88046,-0.27338 c 0.001,-0.19847 0.14187,-0.82106 0.3125,-1.38354 0.42581,-1.40364 0.38922,-2.31521 -0.13507,-3.365 -0.46543,-0.93193 -0.41245,-1.62605 0.10884,-1.42602 0.59201,0.22718 1.06564,1.58425 1.06564,3.0533 0,0.98041 0.0783,1.40625 0.25846,1.40625 0.14215,0 1.26715,-0.38654 2.5,-0.85897 2.10337,-0.80603 6.85674,-2.47437 7.04985,-2.47437 0.1878,0 0.0609,0.74643 -0.17951,1.0555 -0.23586,0.30327 -4.17369,1.89593 -8.95171,3.62052 -1.78198,0.64319 -2.03098,0.68889 -2.029,0.37233 z m 31.3286,-0.42358 c 0.64681,-2.90196 0.64386,-3.52029 -0.0228,-4.77731 -0.27362,-0.51591 -0.29986,-0.73063 -0.11224,-0.91825 0.65631,-0.65631 1.61734,1.47094 1.46956,3.2529 -0.0525,0.63318 -0.0193,1.15123 0.0737,1.15123 0.0931,0 1.08515,-0.36358 2.20464,-0.80794 2.89051,-1.14736 7.59779,-2.76167 7.71401,-2.64544 0.054,0.054 -0.0958,0.41193 -0.33285,0.79546 -0.3083,0.49884 -0.71535,0.79221 -1.43002,1.03064 -0.54946,0.18332 -1.60841,0.56723 -2.3532,0.85315 -3.70706,1.42311 -5.92713,2.23877 -6.59662,2.42363 -0.73015,0.2016 -0.73796,0.19705 -0.61423,-0.35807 z m -71.430331,-0.22818 c -0.0788,-0.35899 -0.006,-0.90753 0.18115,-1.35417 0.39372,-0.9423 0.48249,-0.94674 0.37415,-0.0187 -0.047,0.40262 0.0302,0.87137 0.17151,1.04167 0.20385,0.24562 0.20335,0.37423 -0.002,0.62213 -0.38308,0.46158 -0.57618,0.38404 -0.72443,-0.29092 z m 83.159181,-0.22176 c -0.46228,-0.54939 -0.49791,-0.71089 -0.32581,-1.47685 0.22187,-0.98745 0.89559,-2.39054 1.25432,-2.61225 0.26645,-0.16468 0.22665,0.0195 -0.33535,1.55161 -0.42665,1.16318 -0.26882,1.696 0.50238,1.696 0.8012,0 1.13848,-0.4329 0.74373,-0.9546 -0.38424,-0.5078 -0.39856,-1.2172 -0.0307,-1.52247 0.47551,-0.39463 0.86098,0.31663 0.86098,1.58867 0,1.01403 -0.0703,1.19374 -0.68037,1.73882 -0.86083,0.76915 -1.33622,0.76702 -1.98914,-0.009 z m 6.10701,-0.18607 c 0,-0.55928 0.83783,-1.37844 2.02528,-1.98017 1.29906,-0.65828 7.19982,-3.05026 7.52468,-3.05026 0.13294,0 0.24172,0.13872 0.24172,0.30827 0,0.35801 -0.70248,0.73334 -3.85417,2.05922 -1.26042,0.53025 -3.07075,1.43324 -4.02297,2.00664 -0.95221,0.5734 -1.77252,1.04255 -1.82292,1.04255 -0.0504,0 -0.0916,-0.17382 -0.0916,-0.38625 z M 22.528296,73.623072 c -0.92053,-0.99865 -1.02872,-1.25535 -0.63237,-1.5003 0.14074,-0.087 0.46129,0.10451 0.76407,0.45645 l 0.52161,0.6063 -0.17923,-0.9375 c -0.0986,-0.51562 -0.18459,-1.45312 -0.19115,-2.08333 -0.011,-1.06067 0.0259,-1.15118 0.49724,-1.21771 0.56203,-0.0793 1.05334,0.42044 1.05334,1.07148 0,0.2953 -0.0949,0.36222 -0.36458,0.25725 -0.88252,-0.34347 -0.91162,-0.21834 -0.49023,2.10735 0.12853,0.70939 0.15713,1.48348 0.0641,1.73497 -0.15953,0.43125 -0.21202,0.40633 -1.0428,-0.49496 z m 46.625223,-0.91856 c 0,-0.43644 0.13635,-0.9755 0.30299,-1.19792 0.27951,-0.37307 0.29387,-0.34592 0.18537,0.35036 -0.0705,0.45238 -0.0249,0.81204 0.11368,0.89772 0.3852,0.23806 0.2592,0.74335 -0.18537,0.74335 -0.34374,0 -0.41667,-0.13889 -0.41667,-0.79351 z m 22.08336,0.42434 c 0,-0.0885 1.00781,-0.66645 2.23958,-1.28442 1.96461,-0.98563 2.17564,-1.14138 1.71876,-1.26844 -0.28646,-0.0797 -0.77865,-0.0993 -1.09375,-0.0437 -0.72919,0.12874 -0.74295,-0.21652 -0.0367,-0.92271 0.48623,-0.48624 0.63661,-0.52296 1.61458,-0.39435 1.32026,0.17362 1.53742,0.35803 1.22616,1.04119 -0.34455,0.7562 -1.72986,1.68021 -3.60067,2.40167 -1.70584,0.65784 -2.06791,0.74026 -2.06791,0.47076 z m 23.559141,-0.55033 c -0.72125,-0.74414 -0.73235,-1.3381 -0.0179,-0.95571 0.35898,0.19212 0.3801,0.14527 0.25799,-0.57236 -0.25371,-1.49093 -0.19441,-1.81747 0.34385,-1.89357 0.49659,-0.0702 0.84768,0.24292 0.85371,0.76143 0.002,0.18136 -0.14026,0.22893 -0.41969,0.14024 -0.4086,-0.12968 -0.41814,-0.0774 -0.28255,1.54846 0.0772,0.92548 0.0984,1.68268 0.0471,1.68268 -0.0513,0 -0.40343,-0.32003 -0.78254,-0.71117 z m -90.118054,0.28858 c 0.0728,-0.11784 0.96181,-0.6308 1.97551,-1.13991 1.0137,-0.50911 1.90268,-1.02207 1.97551,-1.13991 0.0833,-0.13482 -0.21973,-0.21426 -0.81738,-0.21426 -0.52239,0 -0.94933,-0.0703 -0.94876,-0.15625 6.3e-4,-0.0859 0.21151,-0.41202 0.46875,-0.72463 0.44707,-0.54328 0.52059,-0.56092 1.665459,-0.39947 0.65876,0.0929 1.26564,0.23679 1.34862,0.31977 0.27818,0.27818 -0.46488,1.26691 -1.449419,1.92863 -0.94507,0.63518 -3.53746,1.74029 -4.08241,1.74029 -0.14756,0 -0.20871,-0.0964 -0.13588,-0.21426 z m 33.098023,-0.95045 c -0.16808,-0.66971 0.21929,-2.02283 0.68832,-2.40433 0.31131,-0.25322 0.33254,-0.23849 0.18965,0.13153 -0.0885,0.22917 -0.21341,0.72966 -0.27759,1.11221 -0.10757,0.64113 -0.0777,0.68963 0.38231,0.62005 0.31798,-0.0481 0.46929,-0.18705 0.41711,-0.38303 -0.18519,-0.69553 -0.11256,-1.14089 0.18606,-1.14089 0.21994,0 0.33178,0.26857 0.3776,0.90671 0.0781,1.08783 -0.36696,1.69746 -1.23926,1.69746 -0.45973,0 -0.61842,-0.11827 -0.7242,-0.53971 z m 18.90555,-0.0945 c -0.1216,-0.34882 -0.41664,-0.90884 -0.65565,-1.2445 -0.34504,-0.48456 -0.38832,-0.69671 -0.2101,-1.02972 0.22352,-0.41765 0.22767,-0.41771 0.98404,-0.0123 1.38047,0.73989 2.82813,0.94397 4.59275,0.64746 0.86675,-0.14564 2.13385,-0.44304 2.81579,-0.66089 0.68195,-0.21785 1.31949,-0.34691 1.41677,-0.28679 0.23679,0.14635 0.0322,0.68024 -0.57551,1.50222 -0.50969,0.68935 -1.19471,0.94644 -0.97143,0.36459 0.14283,-0.37221 -0.17242,-0.39654 -1.17604,-0.0908 -0.40028,0.12196 -1.80592,0.28603 -3.12363,0.36459 -2.27585,0.13568 -2.39916,0.16631 -2.4624,0.61159 -0.0932,0.65652 -0.37352,0.58344 -0.63459,-0.16547 z m 55.735951,0.49533 c -0.25299,-0.25299 -0.12931,-1.83155 0.18498,-2.36112 0.29645,-0.49951 0.30389,-0.48153 0.18174,0.43909 -0.1027,0.77406 -0.0614,0.98524 0.21333,1.09067 0.27129,0.1041 0.29493,0.21624 0.11605,0.55049 -0.23164,0.43282 -0.45431,0.52266 -0.6961,0.28087 z m -8.19206,-0.59938 c -0.18346,-0.47812 0.0786,-1.7931 0.42668,-2.14121 0.26665,-0.26665 0.28115,-0.20421 0.11759,0.50641 -0.15054,0.65403 -0.12149,0.8596 0.15041,1.06447 0.27649,0.20833 0.28945,0.31117 0.0722,0.57292 -0.33757,0.40674 -0.61017,0.40582 -0.7669,-0.003 z m -19.86673,-0.3332 c -0.002,-0.27007 -0.0911,-0.63001 -0.19847,-0.79988 -0.16307,-0.2579 -0.3,-0.20852 -0.83014,0.2994 -0.90513,0.86716 -0.83162,0.19554 0.0921,-0.84126 l 0.72695,-0.81596 0.43626,0.57291 c 0.23995,0.31511 0.51278,0.57292 0.60629,0.57292 0.0935,0 0.65761,-0.32812 1.25356,-0.72917 1.624,-1.09287 2.94743,-0.87683 2.62002,0.42769 -0.15963,0.63602 -0.97599,1.02734 -2.74767,1.3171 -0.67458,0.11034 -1.39058,0.26511 -1.5911,0.34395 -0.28426,0.11176 -0.36529,0.0352 -0.36778,-0.3477 z m 3.49278,-1.11354 c 0.25781,-0.0741 0.46875,-0.22217 0.46875,-0.32904 0,-0.26001 -0.76201,-0.24712 -1.2637,0.0214 -0.50257,0.26897 -0.53169,0.68165 -0.0384,0.54408 0.20052,-0.0559 0.57552,-0.16231 0.83333,-0.23641 z m 15.57294,-15.035151 c -1.90035,-0.99868 -2.83766,-2.76007 -2.97592,-5.59237 -0.0511,-1.04583 -0.20542,-2.01319 -0.34906,-2.1875 -0.46797,-0.56787 -0.52682,-1.04759 -0.31444,-2.5631 0.26071,-1.8603 0.89382,-3.18212 2.37951,-4.96797 l 1.15241,-1.38523 -1.92542,-1.72677 c -1.05898,-0.94973 -2.51842,-2.29512 -3.24319,-2.98978 l -1.31776,-1.263 0.17193,3.33334 c 0.0946,1.83333 0.17107,5.02084 0.17002,7.08334 -0.002,3.41123 -0.0462,3.87234 -0.49178,5.10417 -0.71662,1.98094 -0.85955,1.97923 -0.86762,-0.0104 -0.004,-0.96823 -0.26801,-5.29357 -0.58685,-9.61187 l -0.57972,-7.85146 -2.02069,-2.10528 c -1.11138,-1.1579 -2.80838,-3.156 -3.7711,-4.44022 -0.96271,-1.28422 -2.13307,-2.70553 -2.60079,-3.15847 -0.84203,-0.81544 -0.85039,-0.83847 -0.85039,-2.34376 0,-0.83612 0.0742,-1.52022 0.16496,-1.52022 0.0907,0 0.92463,0.46751 1.85312,1.03891 2.8715,1.76713 5.23628,4.36217 3.38796,3.71784 -0.3496,-0.12187 -0.69061,-0.16661 -0.7578,-0.0994 -0.12411,0.12411 1.38157,2.01382 3.26096,4.09269 1.24127,1.37302 1.17767,2.10383 0.5439,-6.25 l -0.48206,-6.35418 0.61311,-1.09375 c 0.33721,-0.60156 0.69111,-1.09375 0.78645,-1.09375 0.18687,0 1.31667,2.9854 1.68823,4.46097 0.12494,0.49621 0.19564,1.12517 0.15709,1.3977 -0.067,0.47381 -0.091,0.46358 -0.54775,-0.23366 l -0.47767,-0.72917 0.12331,1.14583 c 0.0678,0.63021 0.29351,3.63826 0.50152,6.68456 l 0.37819,5.53873 1.85117,1.76967 c 1.01814,0.97331 2.90394,2.73045 4.19065,3.90475 l 2.33949,2.13509 2.86885,-2.64348 c 1.57787,-1.45392 2.89342,-2.79723 2.92344,-2.98514 0.054,-0.33815 -1.72251,-17.41541 -1.85884,-17.86844 -0.0981,-0.32592 1.13539,-2.59026 1.36912,-2.51333 0.10442,0.0344 0.49838,0.85433 0.87545,1.82213 1.19543,3.06816 1.44523,4.98208 0.48757,3.73568 -0.21878,-0.28474 -0.39987,-0.44023 -0.40242,-0.34553 -0.0137,0.50876 1.28356,13.5813 1.3548,13.65254 0.0465,0.0465 1.17535,-0.88877 2.50851,-2.07841 1.33317,-1.18963 2.80745,-2.49883 3.27617,-2.90932 l 0.85223,-0.74635 -1.45394,-1.75365 c -0.79966,-0.96451 -1.84238,-2.26928 -2.31716,-2.89949 -0.47477,-0.63021 -1.15093,-1.42119 -1.50256,-1.75773 -0.59113,-0.56575 -0.63935,-0.71893 -0.63935,-2.03125 0,-0.78065 0.0602,-1.41936 0.13385,-1.41936 0.0736,0 1.52674,1.02881 3.22917,2.28625 1.70243,1.25744 3.09442,2.21838 3.09332,2.13542 -0.001,-0.083 -0.13941,-1.38065 -0.30735,-2.88377 l -0.30534,-2.73293 0.65188,-1.20358 0.65189,-1.20358 0.36155,0.70734 c 0.63169,1.23585 1.65775,4.36161 1.65668,5.04687 l -10e-4,0.66048 -0.52235,-0.625 c -0.51432,-0.61539 -0.52082,-0.61699 -0.42302,-0.10417 0.0546,0.28646 0.20822,1.5726 0.34132,2.8581 l 0.24201,2.33726 0.75497,-0.6373 c 0.41524,-0.35051 1.91027,-1.58978 3.3223,-2.75393 l 2.56733,-2.11663 -0.089,-1.45833 c -0.0802,-1.31376 -0.0286,-1.56677 0.52089,-2.55209 0.33546,-0.60156 0.68537,-1.09375 0.77758,-1.09375 0.0922,0 0.38114,0.58594 0.64208,1.30209 0.26094,0.71614 0.53177,1.36929 0.60184,1.45144 0.0701,0.0822 1.10487,-0.75415 2.29954,-1.85845 1.20921,-1.11774 2.20944,-1.8958913 2.25629,-1.75533 0.20433,0.61299 -1.06989,2.5653 -2.54814,3.90415 l -1.51865,1.37543 0.0954,0.96742 0.0954,0.96742 -0.55191,-0.625 -0.55192,-0.625 0.11238,0.9375 c 0.0618,0.51563 0.2996,3.84376 0.52842,7.39584 0.22881,3.55209 0.45937,6.96373 0.51235,7.58143 0.0955,1.11306 0.11761,1.14469 2.47927,3.54167 3.63557,3.68994 4.93279,5.99582 4.93279,8.76828 0,0.79102 -0.0798,1.48756 -0.1774,1.54786 -0.0976,0.0603 -0.29572,-0.28573 -0.44032,-0.76895 -0.6767,-2.26132 -2.30822,-4.67926 -4.85265,-7.19172 l -1.54082,-1.52145 0.01,5.27145 c 0.009,5.04632 -0.0112,5.32484 -0.47847,6.52146 -0.69755,1.78619 -0.85388,1.84176 -0.84987,0.30208 0.005,-1.94687 -0.83343,-13.78261 -1.00456,-14.17972 -0.20407,-0.47355 -7.10139,-6.52688 -7.25821,-6.37007 -0.0235,0.0236 0.18706,2.43266 0.46801,5.35359 0.61654,6.40998 0.87067,13.86185 0.51686,15.15602 -0.7438,2.72072 -5.31326,4.42811 -7.93395,2.96454 -1.11219,-0.62112 -2.15968,-2.08328 -2.61533,-3.65067 -0.17601,-0.60547 -0.46187,-1.1553 -0.63523,-1.22182 -0.47412,-0.18194 -1.78602,0.57211 -2.64005,1.51741 -0.97402,1.07812 -1.45952,2.04462 -2.05288,4.08675 -0.37652,1.29582 -0.66234,1.83979 -1.3362,2.54308 -0.72992,0.76178 -0.97856,0.89341 -1.67419,0.88631 -0.44933,-0.005 -1.09821,-0.15615 -1.44196,-0.3368 z m 2.15616,-2.26462 c 0.47976,-0.4037 0.80354,-1.06038 1.38874,-2.81661 0.89657,-2.69067 1.99408,-4.45394 3.42693,-5.50575 1.88685,-1.38507 3.05578,-1.40506 3.63907,-0.0622 1.3364,3.07669 1.58042,3.50276 2.23361,3.89999 1.38612,0.84295 3.1024,0.76461 5.459,-0.24917 l 1.01742,-0.43768 -0.14554,-1.36983 c -0.08,-0.7534 -0.59731,-5.75864 -1.14947,-11.12274 -0.55216,-5.3641 -1.0534,-9.80238 -1.11387,-9.86285 -0.19574,-0.19574 -0.6622,0.18987 -4.17608,3.45217 l -3.45907,3.21141 0.14485,0.85109 c 0.0797,0.4681 0.14862,1.92921 0.15323,3.24692 0.009,2.63696 -0.31689,3.98478 -1.23492,5.10417 l -0.51257,0.625 -0.008,-3.78505 c -0.004,-2.08177 -0.0636,-3.93127 -0.13218,-4.10998 -0.11382,-0.29661 -1.23797,0.6093 -4.64023,3.73936 -0.23927,0.22012 -0.1813,0.39312 0.35632,1.06344 1.72541,2.15131 1.71304,5.09518 -0.029,6.91258 -1.15152,1.20129 -3.41938,2.10936 -5.28133,2.11469 l -0.8648,0.002 0.31803,1.40626 c 0.39054,1.72683 1.11157,3.20113 1.84942,3.78153 0.78544,0.61783 1.96502,0.5797 2.75997,-0.0892 z m 8.00571,-11.28409 c 1.8916,-1.03656 4.10898,-2.63162 4.10898,-2.95578 0,-0.10182 -0.1875,-0.23416 -0.41667,-0.29409 -0.44573,-0.11656 -0.56138,-0.84664 -0.21968,-1.38674 0.11839,-0.18713 0.10719,-0.45714 -0.0296,-0.71267 -0.17176,-0.32095 -0.14354,-0.46744 0.12839,-0.66628 0.9557,-0.69883 3.24587,1.19493 3.24587,2.68405 0,0.73361 -0.56058,1.01936 -1.275,0.64992 -0.53314,-0.2757 -0.58458,-0.25497 -1.12474,0.45322 -0.94692,1.24148 -3.56411,2.70635 -5.51694,3.08789 -0.55024,0.10751 -0.28047,-0.10341 1.09936,-0.85952 z m 6.40065,-3.59198 c 0,-0.19125 -1.09258,-1.05586 -1.33425,-1.05586 -0.16997,0 -0.15746,0.93885 0.0148,1.11112 0.21186,0.21185 1.31945,0.16546 1.31945,-0.0553 z m -1.70426,-0.48294 c -0.0435,-0.30644 -0.20986,-0.46875 -0.48039,-0.46875 -0.53059,0 -0.67346,0.66139 -0.171,0.7916 0.67343,0.17452 0.71883,0.15202 0.65139,-0.32285 z m -13.13633,6.4066 c 0.83248,-0.3916 1.56996,-0.85888 1.63885,-1.03841 0.13306,-0.34673 -0.50107,-1.39987 -1.57021,-2.60777 l -0.6454,-0.72917 -1.36774,1.44497 c -0.75226,0.79473 -1.61223,1.86215 -1.91104,2.37203 -0.53113,0.90631 -0.53432,0.93379 -0.14235,1.22685 0.59434,0.44436 2.20443,0.17513 3.99789,-0.6685 z m 24.21996,-20.24759 c -0.24093,-3.29179 -0.46489,-6.01192 -0.4977,-6.04473 -0.19916,-0.19916 -6.59,5.56493 -6.59,5.94372 0,0.3579 2.32455,2.73298 5.625,5.74729 l 1.77084,1.6173 0.065,-0.63925 c 0.0357,-0.35159 -0.13217,-3.33253 -0.3731,-6.62433 z m -9.46618,-3.71611 c -0.0803,-0.31997 -0.37267,-0.5664 -0.86456,-0.72874 -0.40877,-0.13491 -0.78531,-0.2032 -0.83675,-0.15175 -0.0515,0.0514 0.3064,0.59674 0.79521,1.21176 0.79695,1.00274 0.8959,1.06834 0.95809,0.63521 0.0381,-0.26567 0.0147,-0.70058 -0.052,-0.96648 z m -79.307071,33.02195 c 2.56779,-1.25868 6.04708,-3.05172 7.73175,-3.98453 l 3.06303,-1.69601 0.36101,-1.16819 c 0.44134,-1.42813 1.58204,-3.53339 2.21624,-4.09025 0.48685,-0.42749 0.455,-0.33843 -0.33724,0.94289 -0.50603,0.81842 -1.34932,2.97566 -1.34932,3.45172 0,0.22389 0.33576,0.0982 1.19792,-0.44852 3.42045,-2.16891 6.92709,-5.04007 6.92709,-5.67177 0,-0.18806 -0.75615,-1.95915 -1.68034,-3.93574 l -1.68033,-3.5938 0.47957,-1.48901 0.47957,-1.48902 0.9028,1.01515 c 0.97615,1.09762 1.78229,2.37334 2.0238,3.20264 l 0.15168,0.52084 -0.57231,-0.52084 -0.57231,-0.52083 0.4188,0.83333 c 0.77853,1.54917 1.29907,3.62854 1.29907,5.18938 0,2.01007 -0.59872,3.19648 -2.53481,5.02288 -1.37994,1.30177 -5.37004,4.40385 -5.95153,4.62699 -0.49594,0.19031 -0.2639,0.45715 0.59978,0.68971 1.03411,0.27846 3.10613,-0.0202 4.54488,-0.65504 2.2578,-0.99628 9.59168,-6.63424 9.59168,-7.37366 0,-0.70779 -2.42901,-7.06038 -3.3987,-8.88859 l -1.06787,-2.01333 0.31273,-1.20065 c 0.172,-0.66036 0.40645,-1.2319 0.52101,-1.27008 0.42485,-0.14162 2.97765,4.27751 4.04716,7.00601 0.69883,1.78284 1.23518,4.28886 1.46132,6.8279 0.28007,3.14437 0.75399,4.35563 2.31494,5.91658 0.67435,0.67435 1.30871,1.22609 1.40969,1.22609 0.10098,0 0.28763,-0.41317 0.41479,-0.91815 0.4451,-1.76764 2.9166,-3.23229 7.557271,-4.47854 l 1.53184,-0.41138 -6.420291,-0.0126 c -6.0138,-0.0118 -6.41341,-0.0357 -6.31151,-0.37722 0.0598,-0.20053 0.21998,-0.81816 0.35589,-1.37253 0.20065,-0.81844 0.43441,-1.156 1.2433,-1.79538 1.43108,-1.13121 3.90957,-2.51467 6.54928,-3.65573 1.26041,-0.54484 2.320161,-1.0148 2.354981,-1.04437 0.0348,-0.0296 -0.1289,-0.36902 -0.36381,-0.75434 -0.529301,-0.8682 -0.534791,-1.23834 -0.0329,-2.22203 1.29002,-2.52865 2.57847,-2.50724 6.53877,0.10868 1.5483,1.02271 1.51927,0.92067 0.76389,2.685 -0.3235,0.75557 -0.46662,0.8716 -1.22466,0.99281 -0.47209,0.0755 -1.32937,0.23827 -1.90506,0.36174 l -1.04671,0.22448 0.13399,0.89349 c 0.15988,1.06616 -0.2104,1.47334 -0.54338,0.59753 -0.42865,-1.12743 -0.50071,-1.14077 -2.45145,-0.45366 -2.465421,0.86839 -4.194411,1.67025 -5.387671,2.49866 l -1.00261,0.69607 10.241481,0.10416 10.24148,0.10417 -0.65814,1.12042 -0.65814,1.12041 -3.95834,0.88442 c -8.91425,1.99174 -14.687511,3.86641 -14.687511,4.76928 0,0.37605 1.57775,1.03739 3.81134,1.5976 l 1.813671,0.45488 v 1.45739 1.4574 l -1.812051,-0.15095 c -3.19726,-0.26633 -4.83076,-0.85834 -6.54958,-2.37372 -1.80384,-1.59032 -2.86802,-3.71558 -3.49382,-6.97746 l -0.35467,-1.84867 -0.38921,1.28548 c -0.32874,1.08573 -0.58835,1.47176 -1.67083,2.48437 -3.46213,3.23864 -7.88955,5.86873 -10.6389,6.31996 -1.32597,0.21762 -1.55238,0.20191 -2.28892,-0.15881 -0.70976,-0.34761 -1.57514,-1.30291 -1.80504,-1.99261 -0.04,-0.11998 -0.86662,0.26116 -1.83695,0.84699 -0.97033,0.58582 -2.46736,1.28847 -3.32674,1.56145 -1.23922,0.39362 -6.57674,1.54171 -9.79167,2.10617 -0.28646,0.0503 1.58009,-0.93839 4.14788,-2.19707 z m 44.466651,-18.96562 c 0.24517,-0.21511 -1.5503,-1.23431 -2.42427,-1.37614 -0.39402,-0.0639 -0.91927,-0.008 -1.16721,0.12501 -0.44598,0.23868 -0.44243,0.2509 0.33065,1.1396 l 0.78145,0.89833 1.1512,-0.31576 c 0.63316,-0.17367 1.23084,-0.38563 1.32818,-0.47104 z m 34.30885,20.29391 c 0.0199,-0.53526 0.93291,-1.02371 4.97367,-2.6608 2.44744,-0.99156 4.48656,-1.76617 4.53138,-1.72136 0.28601,0.28602 -0.37613,0.82621 -1.66473,1.35812 -1.15788,0.47796 -5.19119,2.12437 -7.58653,3.09685 -0.14323,0.0581 -0.25743,0.0254 -0.25379,-0.0728 z m -93.652561,-0.30069 c -0.80208,-0.0898 -1.77092,-0.25879 -2.15297,-0.37561 -0.90545,-0.27685 -2.32667,-1.11475 -2.82523,-1.66565 -0.37804,-0.41772 -0.5376,-0.43131 -3.85392,-0.32812 l -3.459564,0.10765 2.39584,-0.81459 c 4.101644,-1.39456 3.711154,-1.13285 3.517554,-2.35752 -0.092,-0.58232 -0.0808,-1.74127 0.0249,-2.57545 0.1888,-1.48912 1.45097,-5.73349 1.88765,-6.34774 0.17838,-0.25092 0.19801,-0.22588 0.0996,0.12705 -0.76883,2.75678 -0.93657,5.58712 -0.43186,7.28668 0.5494,1.85002 0.58806,1.86619 2.50632,1.04855 6.04591,-2.57701 10.91622,-5.45284 13.70818,-8.09443 l 0.79149,-0.74887 -0.3294,-0.78837 c -0.18117,-0.43361 -0.35973,-0.8187 -0.3968,-0.85577 -0.0371,-0.0371 -0.66688,0.0739 -1.39959,0.24664 -2.42104,0.57069 -4.21883,0.39066 -5.19381,-0.5201 -0.54904,-0.51288 -0.61733,-0.71209 -0.61552,-1.79539 0.005,-3.02339 2.43218,-5.38692 4.80258,-4.67673 0.95498,0.28611 2.26201,1.37825 2.91616,2.4367 0.24102,0.38997 0.56401,0.70903 0.71776,0.70903 0.15376,0 0.73205,-0.34601 1.2851,-0.76892 0.55304,-0.42291 1.41116,-1.07916 1.90691,-1.45833 0.49576,-0.37918 1.09234,-0.68942 1.32574,-0.68942 0.3847,0 0.41127,0.0874 0.28421,0.93464 -0.12318,0.8214 -0.0767,0.99808 0.38354,1.45833 0.38677,0.38678 0.74406,0.5237 1.36651,0.5237 0.46354,0 0.8428,-0.0629 0.8428,-0.13974 0,-0.37905 -2.30896,-19.8339 -2.41252,-20.32743 -0.0869,-0.41424 0.0648,-0.89413 0.55183,-1.74536 0.66471,-1.16179 0.6746,-1.16887 0.94813,-0.67868 0.60707,1.0879 1.95377,4.77052 1.94674,5.32341 l -0.007,0.58862 -0.51231,-0.625 c -0.28177,-0.34375 -0.51277,-0.55343 -0.51334,-0.46596 -6.3e-4,0.0875 0.27409,2.43122 0.61036,5.20834 0.33627,2.77711 0.7722,6.61961 0.96874,8.53888 0.19654,1.91928 0.42991,3.48959 0.51859,3.48959 0.19667,0 0.82181,-0.79856 1.71248,-2.1875 0.88078,-1.37355 1.29297,-1.37647 1.29297,-0.009 0,0.88785 0.073,1.07174 0.52083,1.31239 0.56231,0.30214 2.84769,0.20324 3.18893,-0.13801 0.10957,-0.10957 0.0812,-0.47701 -0.0688,-0.8918 -0.23204,-0.64171 -0.19816,-0.81773 0.37496,-1.94778 l 0.63005,-1.24233 0.17004,0.83334 c 0.73764,3.615 -0.69537,6.5625 -3.19054,6.5625 -1.07505,0 -1.93668,-0.39689 -2.54754,-1.17347 -0.24089,-0.30625 -0.46108,-0.51906 -0.48931,-0.47292 -0.0282,0.0461 -0.35553,0.47745 -0.72735,0.95846 -0.66933,0.86591 -0.6759,0.89686 -0.66296,3.12501 0.0134,2.30179 -0.25808,3.53354 -1.1654,5.2881 -0.58963,1.14022 -4.82697,5.22738 -6.65797,6.422 -4.7114,3.07391 -10.55443,4.82743 -14.58335,4.37652 z m 4.89584,-3.24675 c 4.93484,-0.96866 9.69398,-3.45401 13.88842,-7.25289 2.08714,-1.89032 2.21942,-2.18336 1.9512,-4.32246 -0.11803,-0.94132 -0.21461,-1.811 -0.21461,-1.93261 0,-0.13189 -0.49865,-0.21815 -1.23583,-0.2138 -1.09041,0.006 -1.31159,-0.0652 -1.87965,-0.60904 -0.3541,-0.33899 -0.74991,-0.97044 -0.87957,-1.40322 l -0.23576,-0.78688 -0.87131,0.80315 c -0.47922,0.44174 -1.10835,0.95846 -1.39806,1.14829 -0.44268,0.29006 -0.54896,0.56204 -0.666,1.70442 -0.24633,2.4043 -0.80513,3.54319 -2.58044,5.25918 -2.36498,2.28595 -6.90329,5.12008 -10.93048,6.82597 -0.77344,0.32762 -1.40625,0.66431 -1.40625,0.74821 0,0.0839 0.35156,0.21133 0.78125,0.2832 0.42969,0.0719 0.875,0.16419 0.98958,0.20516 0.35597,0.12729 3.04924,-0.13511 4.68751,-0.45668 z m 4.5573,-15.70055 c 0.54368,-0.0111 -0.49996,-0.78001 -1.44175,-1.06218 -0.90054,-0.26981 -2.07388,0.0524 -2.07388,0.56958 0,0.38324 1.52655,0.72814 2.57812,0.58249 0.32943,-0.0456 0.75131,-0.0861 0.93751,-0.0899 z m 93.593251,18.28538 c 7.90933,-3.63713 11.25624,-6.60943 11.72956,-10.41671 0.0821,-0.66065 -0.19135,-5.11708 -0.69339,-11.29924 -0.45596,-5.61459 -0.94239,-11.75522 -1.08097,-13.64585 -0.13858,-1.89063 -0.37638,-3.74878 -0.52845,-4.12923 -0.25793,-0.64527 -0.22943,-0.78509 0.42426,-2.08175 l 0.70077,-1.39002 0.33914,0.81167 c 0.65831,1.57558 1.79192,5.40796 1.78735,6.04249 l -0.005,0.64267 -0.42347,-0.52083 -0.42346,-0.52083 0.10824,1.25 c 0.0595,0.6875 0.16334,2.09375 0.23068,3.125 0.11086,1.69785 0.95891,12.44804 1.26571,16.04467 0.16369,1.91902 -0.23175,5.77189 -0.77433,7.54443 -1.11535,3.64372 -2.86744,5.72441 -6.11995,7.26771 -2.04987,0.97266 -5.12266,1.85191 -7.20946,2.06293 l -1.33221,0.13471 z m -62.687281,-0.64413 c -0.79737,-2.45836 -0.57417,-3.40307 0.92063,-3.89657 0.57679,-0.19042 0.57345,-0.19329 -0.1071,-0.0923 -0.68766,0.10207 -0.6959,0.0944 -0.39302,-0.36435 0.18736,-0.28379 0.5665,-0.49431 0.96132,-0.53378 0.52967,-0.053 0.69749,0.0348 0.89483,0.46791 0.20292,0.44536 0.18071,0.60177 -0.13496,0.95059 -0.20782,0.22963 -0.62665,0.41751 -0.93074,0.41751 -0.30409,0 -0.71897,0.12144 -0.92196,0.26987 -0.34885,0.25509 -0.3504,0.3419 -0.0283,1.58497 0.18743,0.7233 0.30967,1.60967 0.27165,1.96971 -0.061,0.57744 -0.12373,0.48624 -0.53236,-0.77358 z m 46.426461,0.51529 c -0.0171,-1.06471 -0.55588,-2.03317 -1.46251,-2.62876 -0.39486,-0.25939 -0.63449,-0.5936 -0.63486,-0.88542 -8.4e-4,-0.59847 0.1147,-0.58916 0.99199,0.08 1.1894,0.9072 1.80189,2.76033 1.29907,3.93044 -0.13754,0.32008 -0.18244,0.20504 -0.19369,-0.49624 z m -26.83278,-0.88658 c -1.49907,-0.42166 -1.27897,-1.54803 0.52371,-2.68012 l 0.9819,-0.61664 -0.69078,-0.004 c -0.37993,-0.002 -0.8805,0.0976 -1.11236,0.22166 -0.35728,0.19121 -0.41041,0.16762 -0.34834,-0.15466 0.1217,-0.63194 1.14341,-0.98869 2.22339,-0.77636 0.5163,0.10151 0.9732,0.29051 1.01535,0.42 0.0422,0.12948 -0.41962,0.51646 -1.02615,0.85994 -1.25484,0.71062 -1.93637,1.37963 -1.7359,1.704 0.22263,0.36022 2.10625,0.2531 3.28713,-0.18694 l 1.09599,-0.40841 -0.625,0.53029 c -1.14407,0.9707 -2.52485,1.39052 -3.58894,1.0912 z m 6.75745,-1.14311 c -0.38448,-0.38449 0.12771,-2.78657 0.59417,-2.78657 0.0584,0 0.009,0.18134 -0.10951,0.40297 -0.11862,0.22163 -0.21567,0.63203 -0.21567,0.91199 0,0.54881 0.45827,1.0707 0.71885,0.81865 0.0878,-0.0849 0.12511,0.0331 0.0829,0.26222 -0.0763,0.41382 -0.78792,0.67352 -1.07071,0.39074 z m -78.778705,-5.61396 c -0.61439,-0.61438 -0.2832,-2.05575 0.92265,-4.01551 0.72878,-1.18442 1.11214,-1.37019 0.44289,-0.21461 -0.67672,1.16845 -0.96865,2.40424 -0.65674,2.78006 0.35356,0.42602 1.14032,0.40451 1.58824,-0.0434 0.34447,-0.34447 0.35482,-0.33151 0.20777,0.26042 -0.33244,1.33823 -1.71771,2.02016 -2.50481,1.23305 z m 13.982124,-0.84924 c -0.0786,-0.0786 -0.14974,-0.94752 -0.1582,-1.93103 -0.009,-0.9835 -0.26626,-4.69207 -0.57291,-8.24125 l -0.55755,-6.45307 -0.8695,-0.14794 c -3.21956,-0.54781 -4.56801,-3.72134 -3.40797,-8.02052 0.25175,-0.933 0.42654,-1.90257 0.38843,-2.15461 l -0.0693,-0.45825 -0.56376,0.44538 c -0.827,0.65335 -1.77365,2.758 -2.25473,5.01288 -0.52523,2.46184 -1.46444,4.47116 -2.28931,4.89772 -1.214994,0.62829 -2.871794,0.23635 -3.624044,-0.85732 -0.78766,-1.14517 -1.01647,-4.18622 -0.51436,-6.8363 0.31134,-1.64322 0.60077,-1.97261 0.34549,-0.39319 -0.10756,0.66546 -0.16106,2.05716 -0.1189,3.09267 0.11379,2.79497 0.99526,3.97094 2.93827,3.92 1.219884,-0.032 1.836194,-0.80089 2.412994,-3.01044 0.74084,-2.83791 1.05318,-3.75069 1.81907,-5.31611 0.82638,-1.68905 2.51882,-3.89729 3.06803,-4.00305 0.45153,-0.087 0.38549,0.40321 -0.51948,3.85597 -0.63255,2.41335 -0.78,4.16823 -0.42573,5.06672 0.32185,0.81627 1.35088,1.66338 2.40651,1.98108 l 0.96579,0.29066 v -0.68613 c 0,-0.89188 -0.79602,-10.46589 -0.93516,-11.24758 -0.0759,-0.4267 0.0779,-0.92205 0.53368,-1.71875 0.35222,-0.61561 0.71906,-1.11929 0.81522,-1.11929 0.38029,0 1.87412,4.4883 1.87216,5.625 l -0.001,0.72917 -0.43914,-0.68582 c -0.24153,-0.3772 -0.46159,-0.65845 -0.48902,-0.625 -0.0503,0.0613 0.66401,8.72055 0.77262,9.36643 0.0519,0.30893 0.14443,0.31746 0.83775,0.0773 0.42865,-0.14849 1.02047,-0.42796 1.31515,-0.62104 0.68168,-0.44666 1.70285,-2.04944 1.99651,-3.13364 0.36147,-1.33456 0.11376,-4.97243 -0.4462,-6.55289 -0.47163,-1.33117 -0.47236,-1.34983 -0.0954,-2.45883 0.20892,-0.61461 0.45183,-1.16197 0.5398,-1.21634 0.30845,-0.19063 1.19143,3.18244 1.6394,6.26266 0.60566,4.16463 1.16045,5.25128 3.21482,6.29684 0.84284,0.42895 1.24453,0.50681 2.24239,0.43463 1.32402,-0.0958 2.3121,-0.64511 2.41718,-1.34387 0.0337,-0.22429 -0.26034,-1.15932 -0.65348,-2.07784 -0.39315,-0.91852 -1.24112,-3.08909 -1.88439,-4.8235 l -1.16964,-3.15349 0.43795,-1.17052 0.43794,-1.17052 0.52936,0.48522 c 0.56269,0.51578 2.13672,2.82077 2.13672,3.12901 0,0.10085 -0.18134,0.0863 -0.40297,-0.0323 -0.88567,-0.47399 -0.8579,-0.22955 0.29511,2.59829 1.29753,3.18227 1.48988,4.14975 1.17123,5.89098 -0.51001,2.78693 -1.84152,4.12021 -4.08421,4.08963 -2.20713,-0.0301 -3.74224,-1.20151 -4.94623,-3.77439 -0.56929,-1.21653 -0.99128,-1.53516 -0.99128,-0.74848 0,0.18174 -0.32633,1.00892 -0.72519,1.83818 -0.72905,1.51575 -2.6865,3.64014 -3.3541,3.64014 -0.35966,0 -0.36337,-0.49145 0.0391,5.17883 0.42549,5.99433 0.31124,9.24186 -0.38415,10.91888 -0.2741,0.66102 -0.56263,1.13758 -0.64119,1.05903 z m 24.77214,-4.52395 c -0.13347,-0.71149 -0.55637,-1.2144 -1.21883,-1.44943 -0.40844,-0.14491 -0.92425,-1.10798 -0.7088,-1.32343 0.2355,-0.2355 1.14715,0.37958 1.64379,1.10906 0.26019,0.38216 0.53295,0.69549 0.60613,0.69627 0.0732,8.3e-4 0.19083,-0.3065 0.26144,-0.68284 0.16615,-0.88566 0.67802,-1.60741 1.13999,-1.60741 0.58393,0 1.15446,0.52022 1.00311,0.91464 -0.12231,0.31875 -0.17793,0.32128 -0.62497,0.0284 -0.45032,-0.29507 -0.51972,-0.28946 -0.84339,0.0682 -0.408,0.45083 -0.75674,1.54437 -0.75674,2.37285 0,0.804 -0.34342,0.71757 -0.50173,-0.12627 z m -30.95026,-1.07027 c 0,-0.11459 0.0909,-0.34896 0.20196,-0.52084 0.11107,-0.17187 0.20195,-0.21875 0.20195,-0.10416 0,0.11458 -0.0909,0.34895 -0.20195,0.52083 -0.11108,0.17187 -0.20196,0.21875 -0.20196,0.10417 z m 67.628131,-0.50184 c 0.70415,-0.33312 1.66766,-0.95565 2.14111,-1.38339 0.78442,-0.70868 0.8326,-0.80893 0.54265,-1.12932 -0.60664,-0.67033 -0.26902,-1.67296 0.56334,-1.67296 0.43494,0 0.49346,0.13198 0.6825,1.53927 0.11919,0.8872 0.0931,1.00165 -0.20252,0.88822 -0.22373,-0.0859 -0.59494,0.12538 -1.08956,0.62 -0.83537,0.83538 -2.59771,1.73911 -3.39696,1.74198 -0.37944,10e-4 -0.17328,-0.16255 0.75944,-0.6038 z m 3.40723,-3.24817 c 0,-0.17187 -0.1521,-0.3125 -0.33801,-0.3125 -0.27683,0 -0.29107,0.0566 -0.0787,0.3125 0.14265,0.17188 0.29475,0.3125 0.33801,0.3125 0.0433,0 0.0787,-0.14062 0.0787,-0.3125 z m -77.948325,2.78765 c 0.11092,-0.29983 1.46258,-1.12471 4.212044,-2.57048 2.22679,-1.17093 4.08071,-2.10431 4.11982,-2.07418 0.0391,0.0301 0.0108,0.24475 -0.0629,0.47695 -0.0912,0.28729 -1.42198,1.09102 -4.16542,2.5157 -2.217274,1.15144 -4.084404,2.09353 -4.149154,2.09353 -0.0648,0 -0.0442,-0.19868 0.0456,-0.44152 z m -0.10625,-3.28504 c 3.015214,-1.71675 4.690264,-3.14844 3.683614,-3.14844 -0.35808,0 -0.3967,-0.15034 -0.37259,-1.45046 0.0296,-1.5947 0.19859,-1.8071 1.15154,-1.44712 1.88127,0.71068 3.11277,3.52851 1.5381,3.51939 -0.30268,-0.002 -0.68372,-0.0876 -0.84676,-0.19081 -0.21773,-0.1378 -0.54069,0.0841 -1.21638,0.83558 -0.96878,1.07752 -3.609284,2.54142 -5.049694,2.79957 -0.57978,0.10391 -0.35192,-0.0841 1.11217,-0.91771 z m 6.179504,-3.54999 c 0,-0.10627 -0.25781,-0.39646 -0.57292,-0.64488 -0.50323,-0.39673 -0.58139,-0.40976 -0.64262,-0.10712 -0.11935,0.58996 0.1393,0.94521 0.68817,0.94521 0.29005,0 0.52737,-0.0869 0.52737,-0.19321 z m -1.59364,-0.32159 c 0.0647,-0.16856 -0.0324,-0.45651 -0.21581,-0.63988 -0.30566,-0.30566 -0.36128,-0.30511 -0.66823,0.007 -0.30776,0.31262 -0.30213,0.36435 0.0696,0.63989 0.51017,0.37817 0.66726,0.37687 0.81445,-0.007 z m 51.5044,2.06242 c -0.48018,-0.48018 -0.42739,-2.00873 0.0904,-2.61829 l 0.41781,-0.49183 -0.20135,0.56512 c -0.2896,0.81281 0.0988,1.83072 0.69862,1.83072 0.69481,0 0.95879,-0.40153 0.95879,-1.45834 0,-0.52708 0.11249,-1.07083 0.24999,-1.20832 0.19442,-0.19442 0.31133,-0.0103 0.52603,0.82867 0.3341,1.30551 0.57904,1.62965 1.23145,1.62965 0.49756,0 0.49774,-8.3e-4 0.15592,-0.78125 -0.67162,-1.53332 -0.18858,-2.50485 0.51883,-1.04353 0.98314,2.03089 0.0743,3.63603 -1.52465,2.69265 -0.64769,-0.38215 -0.67639,-0.38227 -1.14239,-0.005 -0.58402,0.47291 -1.53749,0.50166 -1.97947,0.0597 z m 30.509191,-0.74958 c 0.002,-0.15246 0.0721,-0.38237 0.15625,-0.51091 0.23076,-0.35235 8.38223,-4.52083 8.38223,-4.28648 0,0.52022 -1.01512,1.19001 -4.63542,3.05851 -2.36459,1.2204 -3.905,1.90667 -3.90306,1.73888 z m -15.26333,-2.86424 c 1.33146,-0.86056 1.75292,-1.53028 1.26813,-2.01507 -0.24086,-0.24086 -0.3808,-0.23519 -0.90683,0.0367 l -0.62202,0.32152 0.71645,-0.74111 c 0.83711,-0.86591 1.3723,-1.0855 1.79355,-0.7359 0.49202,0.40835 0.34851,1.17468 -0.37458,2.00015 -0.73718,0.84154 -2.34779,1.94989 -2.83351,1.94989 -0.16721,0 0.26426,-0.36729 0.95881,-0.8162 z m 49.85815,-1.95252 c -0.023,-1.56575 -1.01317,-3.07994 -2.6273,-4.0176 -0.32693,-0.18992 -0.35437,-0.33163 -0.18112,-0.93568 l 0.20415,-0.71186 1.117,1.03984 c 1.33917,1.24667 1.8837,2.33807 1.87007,3.74818 -0.0139,1.43739 -0.36285,2.23696 -0.3828,0.87712 z m -78.764631,0.45133 c -1.57667,-0.6287 -2.18394,-2.20432 -2.02837,-5.26275 0.10234,-2.01183 0.50515,-4.4291 0.70479,-4.22946 0.0518,0.0518 -0.0166,0.73005 -0.15192,1.50725 -0.2995,1.71986 -0.14557,4.38355 0.30351,5.25196 0.53079,1.02644 1.30235,1.50872 2.41367,1.50872 1.55538,0 1.93926,-0.55748 2.88877,-4.19522 0.72648,-2.78326 1.86602,-5.19972 3.25772,-6.90819 0.97021,-1.19103 1.5701,-1.50575 1.57003,-0.82368 -1e-5,0.20052 -0.33713,1.67708 -0.74915,3.28125 -1.12513,4.38063 -0.89749,5.80845 1.10446,6.92738 1.8275,1.02143 4.88404,0.74354 6.39285,-0.58121 2.0146,-1.76884 2.49794,-5.68631 1.17369,-9.51283 l -0.43584,-1.25938 0.44592,-1.19183 c 0.24526,-0.65551 0.51738,-1.11277 0.60471,-1.01615 0.4044,0.44742 1.08943,3.13819 1.47537,5.79526 0.23344,1.60715 0.53522,3.29709 0.67062,3.75543 0.35749,1.21015 2.0857,2.91638 3.2736,3.23196 1.580281,0.41982 3.780961,-0.15059 4.067801,-1.05437 0.0587,-0.18504 -0.16448,-0.93819 -0.49603,-1.67368 -1.05365,-2.33737 -3.15295,-8.07578 -3.15295,-8.61857 0,-0.59941 0.5961,-2.19785 0.81964,-2.19785 0.229,0 0.91893,0.81739 1.75612,2.08055 0.86719,1.30844 0.99363,1.8204 0.35039,1.41869 -0.22396,-0.13987 -0.46805,-0.19345 -0.54242,-0.11907 -0.0744,0.0744 0.36667,1.38332 0.98011,2.90878 1.06016,2.63635 1.11533,2.86632 1.11533,4.64856 0,2.20173 -0.50198,3.50078 -1.70836,4.42093 -0.86698,0.66128 -2.6928,0.87881 -3.935051,0.46883 -1.23899,-0.4089 -2.6343,-1.8644 -3.41869,-3.56615 l -0.68683,-1.49009 -0.4535,1.25244 c -0.941,2.5988 -2.20808,4.17127 -4.04096,5.01488 -2.03425,0.93631 -4.69818,0.36688 -5.8734,-1.25546 -1.14707,-1.58348 -1.29223,-4.05132 -0.41211,-7.00611 0.55528,-1.86421 0.35165,-2.31366 -0.59103,-1.30452 -0.9192,0.984 -1.43359,2.20504 -2.13216,5.06124 -0.34581,1.41387 -0.86077,2.96859 -1.14436,3.45494 -0.78578,1.34759 -2.05235,1.82127 -3.41597,1.27752 z m -9.14637,-1.03084 c 0.29664,-0.45627 5.79827,-3.61088 5.98015,-3.42901 0.30998,0.30999 -0.78682,1.10254 -3.33314,2.40856 -2.45745,1.26044 -2.91864,1.43823 -2.64701,1.02045 z m 53.186781,-1.552 c -0.39458,-0.60221 -0.29793,-2.0566 0.16761,-2.52214 0.23671,-0.2367 0.27034,-0.15726 0.21055,0.49742 -0.0954,1.04446 0.33197,1.61605 1.0698,1.43086 0.50381,-0.12644 0.55325,-0.22931 0.55325,-1.15104 0,-0.64199 0.11339,-1.1063 0.31003,-1.2695 0.34161,-0.2835 0.29191,-0.36641 0.7156,1.19385 0.18225,0.67115 0.36549,0.91492 0.76266,1.01461 0.72313,0.18149 0.78727,0.0403 0.40129,-0.88348 -0.31472,-0.75324 -0.28377,-1.75024 0.054,-1.73832 0.27301,0.01 0.88145,1.57248 0.88145,2.26408 0,1.02936 -0.33055,1.48055 -1.08468,1.48055 -0.35934,0 -0.82022,-0.15102 -1.02418,-0.3356 -0.34259,-0.31004 -0.41344,-0.3021 -0.92992,0.10416 -0.77572,0.61019 -1.65522,0.57418 -2.08743,-0.0855 z m -62.923891,-3.44403 c -0.0241,-0.91955 -0.83672,-2.16214 -1.65895,-2.53677 -0.50887,-0.23186 -0.72769,-1.20231 -0.27111,-1.20231 0.91007,0 2.27451,2.01309 2.26856,3.34702 -0.005,1.02007 -0.31268,1.37694 -0.3385,0.39206 z m 29.09172,-1.38574 c -0.87136,-0.30561 -1.15735,-2.11519 -0.46875,-2.96597 0.35716,-0.44128 0.36312,-0.42906 0.29247,0.60078 -0.0797,1.1618 0.16065,1.41552 1.11425,1.17618 0.46561,-0.11686 0.52036,-0.23712 0.52036,-1.14279 0,-0.61078 0.11504,-1.10766 0.29007,-1.25293 0.23764,-0.19722 0.33509,-0.0531 0.53914,0.79751 0.27848,1.16086 0.60737,1.54002 1.24857,1.43945 0.42688,-0.0669 0.42793,-0.0801 0.0635,-0.79724 -0.39762,-0.78256 -0.39304,-1.67007 0.009,-1.66129 0.29741,0.006 0.97509,1.41627 0.97509,2.02848 0,1.43524 -1.03574,2.10694 -2.06988,1.34236 -0.55921,-0.41344 -0.59091,-0.41502 -0.97284,-0.0486 -0.45885,0.44027 -1.09525,0.64021 -1.54061,0.48402 z m -9.87355,-0.80788 c -0.23711,-0.61789 -0.12692,-1.29477 0.39234,-2.4102 0.51402,-1.10418 0.6405,-1.91963 0.39641,-2.55573 -0.19166,-0.49945 -0.45223,-0.3984 -0.82337,0.31929 -0.50659,0.97964 -1.9529,2.46059 -2.84999,2.91826 -0.89689,0.45755 -1.82519,0.83048 -1.82519,0.73322 0,-0.0354 0.51175,-0.41683 1.13721,-0.84761 1.28015,-0.88167 2.62741,-2.26545 3.10517,-3.18934 0.31025,-0.59994 0.30181,-0.63061 -0.29483,-1.07173 -1.04424,-0.77203 -0.67186,-1.89996 0.62725,-1.89996 0.45197,0 0.84187,0.69058 0.84187,1.49112 0,0.23228 0.1875,0.66069 0.41667,0.95203 0.57579,0.732 0.52279,1.48138 -0.21937,3.10179 -0.69116,1.50904 -0.68657,2.44145 0.008,1.59048 0.21037,-0.25781 0.44795,-0.46875 0.52794,-0.46875 0.19195,0 -0.0814,1.07107 -0.35865,1.40508 -0.30353,0.36573 -0.92998,0.32636 -1.08129,-0.068 z m -0.12646,-7.0663 c 0,-0.17361 -0.18519,-0.3125 -0.41667,-0.3125 -0.4611,0 -0.5645,0.32229 -0.15625,0.48702 0.45335,0.18293 0.57292,0.14651 0.57292,-0.17452 z m 41.510461,6.63286 c -0.38156,-0.15396 -0.31756,-0.99666 0.10416,-1.37149 0.20052,-0.17822 0.93035,-0.56045 1.62183,-0.84939 1.56126,-0.65238 6.1803,-2.25224 6.2632,-2.16933 0.2393,0.2393 -0.59425,0.67005 -2.94015,1.51937 -4.62414,1.67416 -5.52974,2.16866 -4.47612,2.44418 0.22917,0.0599 0.41667,0.21149 0.41667,0.3368 0,0.23227 -0.5197,0.27946 -0.98959,0.0899 z m -48.021571,-1.8319 c 0.158,-0.82648 -0.34534,-1.9401 -1.21228,-2.68218 -0.73014,-0.62497 -1.12728,-1.59795 -0.65223,-1.59795 0.23344,0 1.61219,1.46974 1.89265,2.01756 0.27328,0.53381 0.31369,2.4913 0.0547,2.65135 -0.098,0.0606 -0.13532,-0.11437 -0.0829,-0.38878 z m -37.238934,-0.73846 c -0.22917,-0.22917 -0.41667,-0.68532 -0.41667,-1.01368 0,-0.66881 1.27991,-3.37056 1.80202,-3.80387 0.23381,-0.19405 0.17661,0.0397 -0.18549,0.75808 -0.74549,1.47898 -0.88222,2.26402 -0.46671,2.67953 0.46342,0.46342 0.91841,0.42423 1.5148,-0.13048 l 0.50398,-0.46875 -0.33857,0.83334 c -0.60194,1.4816 -1.60253,1.95667 -2.41336,1.14583 z m 21.369064,-0.53571 c -0.39464,-0.39464 -0.42385,-1.12772 -0.0645,-1.61914 0.23112,-0.31606 0.26257,-0.27684 0.26042,0.32477 -0.002,0.54983 0.0887,0.6972 0.46163,0.75021 0.39777,0.0565 0.48353,-0.0557 0.60028,-0.78587 0.18099,-1.13183 0.41647,-1.22868 0.57512,-0.23655 0.0748,0.46787 0.27332,0.86218 0.47251,0.93862 0.50579,0.19409 0.58038,0.005 0.28182,-0.71624 -0.17763,-0.42885 -0.19701,-0.71272 -0.0581,-0.85161 0.28452,-0.28452 0.73744,0.84268 0.64907,1.61537 -0.0755,0.66045 -0.79365,0.92639 -1.3206,0.48906 -0.22557,-0.1872 -0.39956,-0.16712 -0.76406,0.0882 -0.58616,0.41057 -0.68588,0.41086 -1.09354,0.003 z m 34.27063,-1.01301 c -0.0136,-0.95301 -0.0905,-1.10101 -1.05631,-2.03192 -0.57291,-0.55221 -1.04166,-1.19123 -1.04166,-1.42003 0,-0.5599 0.25652,-0.52386 1.05532,0.1483 1.15608,0.97277 1.72563,2.77625 1.23634,3.91487 -0.13346,0.31058 -0.18277,0.15496 -0.19369,-0.61122 z m 16.562761,0.59634 c -0.523,-0.523 -0.39842,-1.78607 0.3098,-3.14105 0.35046,-0.67049 0.81115,-1.39592 1.02377,-1.61206 0.27125,-0.27573 0.20545,-0.0339 -0.22051,0.81061 -0.33391,0.66198 -0.60711,1.45288 -0.60711,1.75757 0,1.0496 0.9074,1.39657 1.66667,0.63731 0.52844,-0.52844 0.53191,-0.2093 0.009,0.81594 -0.55713,1.09207 -1.50364,1.40953 -2.18149,0.73168 z m 16.05285,-0.75294 c -0.17367,-0.92573 -0.68112,-1.62802 -1.17636,-1.62802 -0.41324,0 -0.82885,-0.56768 -0.82885,-1.13213 0,-0.56236 0.45569,-0.36001 1.39355,0.61878 0.75463,0.78758 0.92389,0.88301 1.01614,0.57292 0.2588,-0.86995 0.84347,-1.83007 1.15018,-1.88878 0.51011,-0.0976 1.26935,0.62091 1.03815,0.98248 -0.1578,0.24678 -0.24825,0.25181 -0.51698,0.0288 -0.17915,-0.14868 -0.47178,-0.21428 -0.65029,-0.14578 -0.40057,0.15371 -0.92964,1.37449 -0.93394,2.15496 -0.005,0.95536 -0.33873,1.25166 -0.4916,0.43679 z"
       id="path1090" />
  </g>
</svg>
