<?xml version="1.0" encoding="UTF-8" standalone="no"?>
<svg
   xmlns:dc="http://purl.org/dc/elements/1.1/"
   xmlns:cc="http://creativecommons.org/ns#"
   xmlns:rdf="http://www.w3.org/1999/02/22-rdf-syntax-ns#"
   xmlns:svg="http://www.w3.org/2000/svg"
   xmlns="http://www.w3.org/2000/svg"
   xmlns:sodipodi="http://sodipodi.sourceforge.net/DTD/sodipodi-0.dtd"
   xmlns:inkscape="http://www.inkscape.org/namespaces/inkscape"
   width="210mm"
   height="297mm"
   viewBox="0 0 210 297"
   version="1.1"
   id="svg8"
   inkscape:version="1.0.2-2 (e86c870879, 2021-01-15)"
   sodipodi:docname="Angola 1975-.svg">
  <defs
     id="defs2">
    <inkscape:perspective
       sodipodi:type="inkscape:persp3d"
       inkscape:vp_x="0 : 148.5 : 1"
       inkscape:vp_y="0 : 1000 : 0"
       inkscape:vp_z="210 : 148.5 : 1"
       inkscape:persp3d-origin="105 : 99 : 1"
       id="perspective2230" />
  </defs>
  <sodipodi:namedview
     id="base"
     pagecolor="#ffffff"
     bordercolor="#666666"
     borderopacity="1.0"
     inkscape:pageopacity="0.0"
     inkscape:pageshadow="2"
     inkscape:zoom="0.5"
     inkscape:cx="910.28716"
     inkscape:cy="331.97529"
     inkscape:document-units="mm"
     inkscape:current-layer="layer1"
     inkscape:document-rotation="0"
     showgrid="false"
     inkscape:window-width="1366"
     inkscape:window-height="705"
     inkscape:window-x="-8"
     inkscape:window-y="-8"
     inkscape:window-maximized="1"
     showguides="true"
     inkscape:guide-bbox="true"
     guidetolerance="20"
     objecttolerance="10.9" />
  <metadata
     id="metadata5">
    <rdf:RDF>
      <cc:Work
         rdf:about="">
        <dc:format>image/svg+xml</dc:format>
        <dc:type
           rdf:resource="http://purl.org/dc/dcmitype/StillImage" />
        <dc:title />
      </cc:Work>
    </rdf:RDF>
  </metadata>
  <g
     inkscape:label="Warstwa 1"
     inkscape:groupmode="layer"
     id="layer1">
    <path
       id="rect1547"
       style="fill:#cc092f;fill-opacity:1;stroke:none;stroke-width:0.264999;stroke-linejoin:round;stroke-opacity:1"
       d="M 0,0 V 33.765911 67.53164 H 50.648873 101.29756 V 33.765911 0 H 50.648873 Z" />
    <path
       id="rect1547-8"
       style="fill:#cc092f;fill-opacity:1;stroke:none;stroke-width:0.264999;stroke-linejoin:round;stroke-opacity:1"
       d="M 101.29756,0 V 33.765911 67.53164 h 50.64887 50.6487 V 33.765911 0 h -50.6487 z" />
    <path
       id="rect1547-0"
       style="fill:#000600;fill-opacity:1;stroke:none;stroke-width:0.264999;stroke-linejoin:round;stroke-opacity:1"
       d="m 0,67.53164 v 33.76592 33.76574 H 50.648873 101.29756 V 101.29756 67.53164 H 50.648873 Z" />
    <path
       id="rect1547-8-3"
       style="fill:#000600;fill-opacity:1;stroke:none;stroke-width:0.264999;stroke-linejoin:round;stroke-opacity:1"
       d="m 101.29756,67.53164 v 33.76592 33.76574 h 50.64887 50.6487 V 101.29756 67.53164 h -50.6487 z" />
    <path
       sodipodi:type="star"
       style="fill:#ffcb00;fill-opacity:1;stroke:none;stroke-width:0.264999;stroke-linejoin:round;stroke-opacity:1"
       id="path2298-4"
       sodipodi:sides="5"
       sodipodi:cx="101.29757"
       sodipodi:cy="52.336993"
       sodipodi:r1="15.194628"
       sodipodi:r2="6.0778513"
       sodipodi:arg1="-1.5707965"
       sodipodi:arg2="-0.94247793"
       inkscape:flatsided="false"
       inkscape:rounded="0"
       inkscape:randomized="0"
       inkscape:transform-center-y="-1.4509593"
       d="m 101.29757,37.142366 3.57247,10.277543 10.87848,0.221684 -8.67057,6.57356 3.1508,10.414552 -8.93118,-6.21486 -8.931177,6.214863 3.150796,-10.414554 -8.67057,-6.573556 10.878478,-0.221688 z" />
    <path
       id="path2766"
       style="fill:#ffcb00;fill-opacity:1;stroke:none;stroke-width:0.264999;stroke-linejoin:round;stroke-opacity:1"
       d="m 118.5391,27.166526 -1.6259,2.976274 c -3.63669,-1.518894 -8.00499,-3.241827 -11.9247,-3.652353 l -2.52649,7.255716 c 16.88301,2.127058 32.60119,16.769022 32.60112,33.785477 0,10.6597 -5.03356,20.69345 -13.57829,27.06655 -5.83176,4.34963 -12.9124,6.69938 -20.18762,6.69937 -4.0198,-4e-5 -8.007303,-0.71787 -11.774758,-2.1197 l -0.06914,-0.0259 -0.0869,-0.0325 c -2.854884,-1.07835 -5.550403,-2.53875 -8.012926,-4.34131 l -3.902478,5.51214 c 1.81893,1.32412 3.74497,2.49447 5.758175,3.49886 l -1.189503,3.17556 3.952555,1.48054 3.952547,1.48055 1.189495,-3.17572 c 3.325435,0.86345 6.747182,1.30045 10.182893,1.30047 0.50318,2e-5 1.00633,-0.009 1.50916,-0.028 l 0.47863,3.35718 4.17852,-0.59553 4.1785,-0.5957 -0.47862,-3.35755 c 3.82253,-0.95961 7.48462,-2.47179 10.87056,-4.48875 l 2.02966,2.71699 3.38145,-2.52592 3.38144,-2.52609 -2.02984,-2.71717 c 2.89451,-2.6748 5.38329,-5.75757 7.38773,-9.15095 l 3.08394,1.41145 1.75641,-3.8379 1.75642,-3.83791 -3.08411,-1.41145 c 1.25786,-3.73503 1.96406,-7.6336 2.09631,-11.57253 l 3.38302,-0.23992 -0.29856,-4.210096 -0.29855,-4.210099 -3.38318,0.239926 c -0.68683,-3.880864 -1.93619,-7.640764 -3.70861,-11.160905 l 2.85396,-1.832495 -2.28041,-3.551573 -2.28041,-3.551569 -2.85396,1.832492 c -2.46336,-3.076488 -5.3624,-5.777129 -8.6055,-8.016592 l 1.62607,-2.976454 -3.70407,-2.023384 z"
       sodipodi:nodetypes="cccccscccccccccccsccccccccccccccccccccccccccccc" />
    <g
       id="path1551"
       inkscape:transform-center-x="80.984913"
       inkscape:transform-center-y="-64.013686"
       style="opacity:1;fill:#ffcb00;fill-opacity:1;stroke:none;stroke-width:5.03468;stroke-miterlimit:4;stroke-dasharray:none;stroke-opacity:1"
       transform="scale(0.33765881)">
      <path
         style="color:#000000;font-style:normal;font-variant:normal;font-weight:normal;font-stretch:normal;font-size:medium;line-height:normal;font-family:sans-serif;font-variant-ligatures:normal;font-variant-position:normal;font-variant-caps:normal;font-variant-numeric:normal;font-variant-alternates:normal;font-variant-east-asian:normal;font-feature-settings:normal;font-variation-settings:normal;text-indent:0;text-align:start;text-decoration:none;text-decoration-line:none;text-decoration-style:solid;text-decoration-color:#000000;letter-spacing:normal;word-spacing:normal;text-transform:none;writing-mode:lr-tb;direction:ltr;text-orientation:mixed;dominant-baseline:auto;baseline-shift:baseline;text-anchor:start;white-space:normal;shape-padding:0;shape-margin:0;inline-size:0;clip-rule:nonzero;display:inline;overflow:visible;visibility:visible;isolation:auto;mix-blend-mode:normal;color-interpolation:sRGB;color-interpolation-filters:linearRGB;solid-color:#000000;solid-opacity:1;vector-effect:none;fill:#ffcb00;fill-opacity:1;fill-rule:nonzero;stroke:none;stroke-width:5.03468;stroke-linecap:butt;stroke-linejoin:miter;stroke-miterlimit:4;stroke-dasharray:none;stroke-dashoffset:0;stroke-opacity:1;color-rendering:auto;image-rendering:auto;shape-rendering:auto;text-rendering:auto;enable-background:accumulate;stop-color:#000000;stop-opacity:1"
         d="m 391.83171,315.78764 c 0,0 9.58239,-8.92415 8.89228,-9.42528 L 276.83041,215.30652 c -6.67837,-6.21636 -18.37187,-25.18845 -18.37187,-25.18845 0,0 -10.13675,26.29709 0.64474,42.23044 1.42844,2.11101 4.32512,5.05293 8.45407,7.97811 l 124.27436,75.46102"
         id="path1633"
         sodipodi:nodetypes="ccccscc" />
    </g>
    <g
       id="path1405"
       inkscape:transform-center-x="42.367521"
       inkscape:transform-center-y="-33.606896"
       style="opacity:1;fill:#ffcb00;fill-opacity:1;stroke:#010000;stroke-width:5.03468;stroke-miterlimit:4;stroke-dasharray:none;stroke-opacity:1"
       transform="matrix(0.33765881,0,0,0.33765881,-7.8062711,-10.551378)">
      <path
         style="color:#000000;font-style:normal;font-variant:normal;font-weight:normal;font-stretch:normal;font-size:medium;line-height:normal;font-family:sans-serif;font-variant-ligatures:normal;font-variant-position:normal;font-variant-caps:normal;font-variant-numeric:normal;font-variant-alternates:normal;font-variant-east-asian:normal;font-feature-settings:normal;font-variation-settings:normal;text-indent:0;text-align:start;text-decoration:none;text-decoration-line:none;text-decoration-style:solid;text-decoration-color:#000000;letter-spacing:normal;word-spacing:normal;text-transform:none;writing-mode:lr-tb;direction:ltr;text-orientation:mixed;dominant-baseline:auto;baseline-shift:baseline;text-anchor:start;white-space:normal;shape-padding:0;shape-margin:0;inline-size:0;clip-rule:nonzero;display:inline;overflow:visible;visibility:visible;isolation:auto;mix-blend-mode:normal;color-interpolation:sRGB;color-interpolation-filters:linearRGB;solid-color:#000000;solid-opacity:1;vector-effect:none;fill:#ffcb00;fill-opacity:1;fill-rule:nonzero;stroke:#010000;stroke-width:5.03468;stroke-linecap:butt;stroke-linejoin:miter;stroke-miterlimit:4;stroke-dasharray:none;stroke-dashoffset:0;stroke-opacity:1;color-rendering:auto;image-rendering:auto;shape-rendering:auto;text-rendering:auto;enable-background:accumulate;stop-color:#000000;stop-opacity:1"
         d="m 424.74975,337.38276 -1.52734,1.01758 c -2.02582,1.35726 -3.58168,3.20514 -5.89063,5.46093 -0.87592,0.77826 -1.50319,1.19662 -1.75963,1.76856 -0.30298,0.74199 -0.10799,1.11813 0.19713,1.74121 0.12483,0.26398 0.26576,0.5149 0.43359,0.79492 0.67136,1.12007 1.79969,2.70316 3.30469,4.55469 3.01001,3.70305 7.41367,8.3644 12.26953,11.21875 5.98139,3.51595 7.37485,4.34726 8.26563,5.45898 0.89078,1.11173 1.87646,3.4706 6.15429,9.46875 3.09786,4.34365 6.51305,6.60113 9.85547,7.10742 3.34243,0.5063 6.34917,-0.80674 8.36524,-2.76171 0.9243,-0.8963 1.23257,-2.04925 1.30273,-2.99805 0.0702,-0.9488 -0.0625,-1.80197 -0.23242,-2.55859 -0.32921,-1.4658 -0.84531,-2.56959 -0.87891,-2.64258 -3.64961,-10.12306 -10.55257,-16.38814 -17.8164,-21.46094 -7.28803,-5.08971 -14.95286,-9.14004 -20.73828,-14.87695 z"
         id="path1559"
         sodipodi:nodetypes="cccccssssssssscscc" />
    </g>
    <circle
       style="fill:#000000;fill-opacity:1;fill-rule:nonzero;stroke:none;stroke-width:1.7;stroke-linejoin:round;stroke-miterlimit:4;stroke-dasharray:none;stroke-opacity:1"
       id="path1589"
       cx="138.49586"
       cy="107.78663"
       r="0.31157935" />
    <circle
       style="fill:#000000;fill-opacity:1;fill-rule:nonzero;stroke:none;stroke-width:1.7;stroke-linejoin:round;stroke-miterlimit:4;stroke-dasharray:none;stroke-opacity:1"
       id="path1589-9"
       cx="140.08344"
       cy="108.81039"
       r="0.31157935" />
    <circle
       style="fill:#000000;fill-opacity:1;fill-rule:nonzero;stroke:none;stroke-width:1.7;stroke-linejoin:round;stroke-miterlimit:4;stroke-dasharray:none;stroke-opacity:1"
       id="path1589-9-3"
       cx="141.44846"
       cy="109.81931"
       r="0.31157935" />
    <path
       style="fill:none;stroke:#000000;stroke-width:1.2;stroke-linecap:butt;stroke-linejoin:miter;stroke-miterlimit:4;stroke-dasharray:none;stroke-opacity:1"
       d="M 134.3657,104.5265 93.208499,75.25137"
       id="path1645"
       sodipodi:nodetypes="cc" />
    <path
       style="fill:none;stroke:#000000;stroke-width:1.7;stroke-linecap:butt;stroke-linejoin:miter;stroke-miterlimit:4;stroke-dasharray:none;stroke-opacity:1"
       d="m 116.32691,97.58199 10.49731,6.03037"
       id="path1687"
       sodipodi:nodetypes="cc" />
    <path
       style="fill:none;stroke:#000000;stroke-width:1.7;stroke-linecap:butt;stroke-linejoin:miter;stroke-miterlimit:4;stroke-dasharray:none;stroke-opacity:1"
       d="m 122.19327,93.44848 9.07994,6.69274"
       id="path1689"
       sodipodi:nodetypes="cc" />
  </g>
</svg>
