<?xml version="1.0" encoding="UTF-8" standalone="no"?>
<svg
   xmlns:dc="http://purl.org/dc/elements/1.1/"
   xmlns:cc="http://creativecommons.org/ns#"
   xmlns:rdf="http://www.w3.org/1999/02/22-rdf-syntax-ns#"
   xmlns:svg="http://www.w3.org/2000/svg"
   xmlns="http://www.w3.org/2000/svg"
   xmlns:sodipodi="http://sodipodi.sourceforge.net/DTD/sodipodi-0.dtd"
   xmlns:inkscape="http://www.inkscape.org/namespaces/inkscape"
   width="210mm"
   height="297mm"
   viewBox="0 0 210 297"
   version="1.1"
   id="svg8"
   inkscape:version="1.0.2-2 (e86c870879, 2021-01-15)"
   sodipodi:docname="Antigua i Barbuda.svg">
  <defs
     id="defs2" />
  <sodipodi:namedview
     id="base"
     pagecolor="#ffffff"
     bordercolor="#666666"
     borderopacity="1.0"
     inkscape:pageopacity="0.0"
     inkscape:pageshadow="2"
     inkscape:zoom="0.0875"
     inkscape:cx="1387.7724"
     inkscape:cy="1400.5219"
     inkscape:document-units="mm"
     inkscape:current-layer="layer1"
     inkscape:document-rotation="0"
     showgrid="false"
     inkscape:window-width="1366"
     inkscape:window-height="705"
     inkscape:window-x="-8"
     inkscape:window-y="-8"
     inkscape:window-maximized="1"
     showguides="false" />
  <metadata
     id="metadata5">
    <rdf:RDF>
      <cc:Work
         rdf:about="">
        <dc:format>image/svg+xml</dc:format>
        <dc:type
           rdf:resource="http://purl.org/dc/dcmitype/StillImage" />
        <dc:title></dc:title>
      </cc:Work>
    </rdf:RDF>
  </metadata>
  <g
     inkscape:label="Warstwa 1"
     inkscape:groupmode="layer"
     id="layer1">
    <path
       id="rect10-7"
       style="fill:#000000;fill-opacity:1;stroke:none;stroke-width:0.2;stroke-linejoin:round;stroke-miterlimit:4;stroke-dasharray:none;stroke-opacity:1"
       d="m 89.488225,0.13686428 v 2.59383662 2.5939701 2.5938369 2.5938361 2.593836 2.593837 2.593969 2.593838 2.593837 2.593834 2.593838 2.593835 2.593972 2.593837 2.593832 2.593838 2.593837 2.593835 h 2.593973 2.593834 2.593838 2.593837 2.593833 2.59397 2.59384 2.59384 2.59383 2.59384 2.59384 2.59397 2.59383 2.59384 2.59383 2.59384 2.59397 2.59384 2.59383 2.59384 2.59384 2.59383 2.59397 2.59384 2.59384 2.59383 2.59384 2.59397 2.59384 2.59383 2.59384 2.59384 2.59383 2.59398 1.29684 v -1.29685 -1.296985 -1.29685 -1.296987 -1.296985 -1.296853 -1.296985 -1.296847 -1.29699 -1.296847 -1.296988 -1.296982 -1.296852 -1.296985 -1.29685 -1.296988 -1.296984 -1.29685 -1.296987 -1.29685 -1.296985 -1.296985 -1.296852 -1.296985 -1.296851 -1.296986 -1.296851 c 0,-1.296985 0,0.695154 0,-1.296985 V 9.2153588 7.9185079 6.6215225 5.324671 4.0276862 2.7307009 1.4338496 0.13686428 h -1.29684 -2.59398 -2.59383 -2.59384 -2.59384 -2.59383 -2.59384 -2.59397 -2.59384 -2.59383 -2.59384 -2.59384 -2.59397 -2.59383 -2.59384 -2.59384 -2.59383 -2.59397 -2.59384 -2.59384 -2.59383 -2.59384 -2.59383 -2.59397 -2.59384 -2.59384 -2.59383 -2.59384 -2.59384 -2.59397 -2.593833 -2.593837 -2.593838 -2.593834 z"
       sodipodi:nodetypes="ccccccccccccccccccccccccccccccccccccccccccccccccccccccccccccccccccccccccccccccccccccccccccccccccccccccccccccccccccccccccccccc" />
    <path
       id="rect10"
       style="fill:#000000;fill-opacity:1;stroke:none;stroke-width:0.2;stroke-linejoin:round;stroke-miterlimit:4;stroke-dasharray:none;stroke-opacity:1"
       d="m 0,0.13686428 v 2.59383662 2.5939701 2.5938369 2.5938361 2.593836 2.593837 2.593969 2.593838 2.593837 2.593834 2.593838 2.593837 2.59397 2.593837 2.593835 2.593837 2.593838 2.593834 h 2.5939722 2.5938348 2.5938374 2.5938376 2.593834 2.59397 2.593837 2.593838 2.593835 2.593837 2.593837 2.59397 2.593837 2.593835 2.593837 2.593835 2.593972 2.593835 2.593838 2.593837 2.593835 2.593837 2.59397 2.593837 2.593837 2.593838 2.593834 2.593973 2.593834 2.593835 2.593835 2.593843 2.593834 2.593973 1.296844 v -1.296852 -1.296982 -1.296853 -1.296985 -1.296985 -1.296852 -1.296985 -1.29685 -1.296987 -1.29685 -1.296985 -1.296985 -1.296852 -1.296985 -1.29685 -1.296988 -1.296984 -1.29685 -1.296987 -1.29685 -1.296985 -1.296985 -1.296852 -1.296985 -1.296851 -1.296986 -1.296851 c 0,-1.296985 0,0.695154 0,-1.296985 V 9.2153588 7.9185079 6.6215225 5.324671 4.0276862 2.7307009 1.4338496 0.13686428 H 88.191381 85.597408 83.003574 80.409731 77.815896 75.222061 72.628227 70.034254 67.44042 64.846582 62.252745 59.658908 57.064938 54.471101 51.877266 49.283429 46.689591 44.095622 41.501784 38.907949 36.314112 33.720277 31.12644 28.53247 25.938633 23.344796 20.750961 18.157123 15.563286 12.969316 10.375482 7.7816444 5.187807 2.5939722 Z"
       sodipodi:nodetypes="ccccccccccccccccccccccccccccccccccccccccccccccccccccccccccccccccccccccccccccccccccccccccccccccccccccccccccccccccccccccccccccc" />
    <path
       style="fill:#ffd100;fill-opacity:1;stroke:#000000;stroke-width:0.264584px;stroke-linecap:butt;stroke-linejoin:miter;stroke-opacity:1"
       d="m 89.488228,7.9184249 3.795275,19.8277481 11.094137,-16.866059 -4.08138,19.770838 16.70401,-11.336665 -11.33668,16.703998 19.77085,-4.081367 -16.86607,11.094123 19.82776,3.795283 -19.82776,3.795272 16.86607,11.094139 -19.77085,-4.081382 11.33667,16.704014 -16.704,-11.336684 4.08137,19.770853 L 93.283503,65.906462 89.488223,85.734221 85.692948,65.906462 74.598816,82.772536 78.680191,63.001683 61.976185,74.338359 73.312861,57.634353 53.542013,61.715728 70.408082,50.621596 50.580328,46.826319 70.408079,43.031041 53.542016,31.936912 73.312858,36.018285 61.97619,19.314282 78.680191,30.650954 74.598822,10.880111 85.692948,27.746175 Z"
       id="path5790" />
    <path
       id="rect10-78"
       style="fill:#005eb8;fill-opacity:1;stroke:none;stroke-width:0.2;stroke-linejoin:round;stroke-miterlimit:4;stroke-dasharray:none;stroke-opacity:1"
       d="m 89.488228,46.826321 v 1.441082 1.441079 1.440947 1.441079 1.440946 1.441079 1.441079 1.441079 1.440947 1.441079 1.440946 1.441079 1.441082 1.441082 1.440938 1.441085 1.440946 1.441077 h 1.296985 1.296852 1.296985 1.29685 1.296987 1.296985 1.29685 1.296985 1.296853 1.29698 1.29685 1.29699 1.29699 1.29685 1.29698 1.29685 1.29699 1.29698 1.29686 1.29698 1.29685 1.29699 1.29698 1.29685 1.29699 1.29685 1.29699 1.29698 1.29685 1.29698 1.29686 1.29698 1.29685 1.29699 0.64849 1.29699 1.29685 1.29698 1.29686 1.29698 1.29698 1.29685 1.29699 1.29685 1.29699 1.29685 1.29698 1.29699 1.29685 1.29699 1.29685 1.29698 1.29699 1.29685 1.29698 1.29686 1.29698 1.29699 1.29685 1.29698 1.29685 1.29699 1.29698 1.29686 1.29698 1.29685 1.29699 1.29685 1.29698 0.6485 V 72.044481 71.323875 70.603399 69.882929 69.162323 68.441844 67.721376 67.000906 66.2803 65.559824 64.839216 64.118742 63.398269 62.677663 61.95719 61.236717 60.516111 59.795638 59.075164 58.354691 57.634086 56.91348 56.193139 55.472533 54.75206 54.031454 53.310981 52.590508 51.869899 51.149429 50.428955 49.708482 48.987874 48.267403 47.54693 46.826321 h -0.6485 -1.29698 -1.29685 -1.29699 -1.29685 -1.29698 -1.29686 -1.29698 -1.29699 -1.29685 -1.29698 -1.29685 -1.29699 -1.29698 -1.29686 -1.29698 -1.29685 -1.29699 -1.29698 -1.29685 -1.29699 -1.29685 -1.29699 -1.29698 -1.29685 -1.29699 -1.29685 -1.29699 -1.29685 -1.29698 -1.29698 -1.29686 -1.29698 -1.29685 -1.29699 -0.64849 -1.29699 -1.29685 -1.29698 -1.29685 -1.29699 -1.29685 -1.29698 -1.29699 -1.29685 -1.29699 -1.29685 -1.29698 -1.29699 -1.29685 -1.29698 -1.29686 -1.29698 -1.29699 -1.29685 -1.29698 -1.29685 -1.29699 -1.29699 -1.29685 -1.29698 -1.296853 -1.296985 -1.29685 -1.296985 -1.296987 -1.29685 -1.296985 -1.296852 z" />
    <path
       id="rect10-78-1"
       style="fill:#005eb8;fill-opacity:1;stroke:none;stroke-width:0.2;stroke-linejoin:round;stroke-miterlimit:4;stroke-dasharray:none;stroke-opacity:1"
       d="m 0,46.826321 v 1.441079 1.441079 1.440947 1.441079 1.440947 1.441079 1.441081 1.441079 1.440947 1.441079 1.440946 1.441079 1.441079 1.441085 1.440938 1.441085 1.440944 1.441079 h 1.2969848 1.2968526 1.2969848 1.2968499 1.2969848 1.2969875 1.2968499 1.2969847 1.296853 1.296984 1.29685 1.296985 1.296988 1.29685 1.296984 1.296853 1.296985 1.296985 1.29685 1.296984 1.296853 1.296985 1.296985 1.296852 1.296985 1.296852 1.296983 1.296987 1.29685 1.296985 1.296852 1.296985 1.29685 1.296988 0.648491 1.296984 1.296853 1.296985 1.29685 1.296985 1.296984 1.296853 1.296985 1.296852 1.296985 1.29685 1.296985 1.296987 1.29685 1.296985 1.296853 1.296984 1.296985 1.29685 1.296988 1.29685 1.296984 1.296985 1.296853 1.296985 1.296852 1.296985 1.296985 1.29685 1.296984 1.296853 1.296985 1.296852 1.296983 0.648496 V 72.044481 71.323873 70.603397 69.882929 69.16232 68.441844 67.721374 67.000906 66.280297 65.559821 64.839216 64.118742 63.398269 62.677663 61.95719 61.236717 60.516109 59.795638 59.075164 58.354691 57.634086 56.913477 56.193139 55.472531 54.75206 54.031452 53.310978 52.590505 51.869899 51.149426 50.428953 49.708479 48.987874 48.2674 47.546927 46.826321 h -0.648496 -1.296983 -1.296852 -1.296985 -1.296853 -1.296984 -1.29685 -1.296985 -1.296985 -1.296852 -1.296985 -1.296853 -1.296985 -1.296984 -1.29685 -1.296988 -1.29685 -1.296985 -1.296984 -1.296853 -1.296985 -1.29685 -1.296987 -1.296985 -1.29685 -1.296985 -1.296852 -1.296985 -1.296853 -1.296984 -1.296985 -1.29685 -1.296985 -1.296853 -1.296984 -0.648491 -1.296988 -1.29685 -1.296985 -1.296852 -1.296985 -1.29685 -1.296987 -1.296983 -1.296852 -1.296985 -1.296852 -1.296985 -1.296985 -1.296853 -1.296984 -1.29685 -1.296985 -1.296985 -1.296853 -1.296984 -1.29685 -1.296988 -1.296985 -1.29685 H 11.672332 10.375479 9.0784943 7.7816444 6.4846569 5.1876721 3.8908222 2.5938374 1.2969848 Z" />
    <path
       id="rect10-8"
       style="fill:#ffffff;fill-opacity:1;stroke:none;stroke-width:0.2;stroke-linejoin:round;stroke-miterlimit:4;stroke-dasharray:none;stroke-opacity:1"
       d="m 2.5938607e-6,72.764923 v 2.593835 2.593972 2.593835 2.593837 2.593838 2.593834 2.593973 2.593834 2.593838 2.593835 2.593836 2.59384 2.59397 2.59384 2.59383 2.59384 2.59383 2.59384 H 2.5939748 h 2.5938348 2.5938373 2.5938371 2.593835 2.59397 2.593837 2.593837 2.593835 2.593838 2.593837 2.59397 2.593837 2.593835 2.593837 2.593835 2.593972 2.593835 2.593837 2.593837 2.593835 2.593838 2.593969 2.593838 2.593837 2.593837 2.593835 2.593972 2.593835 2.593835 2.593835 2.593845 2.593832 2.593972 1.296845 v -1.29685 -1.29699 -1.29685 -1.29698 -1.29699 -1.29685 -1.29698 -1.29685 -1.29699 -1.29685 -1.29699 -1.29698 -1.29685 -1.29699 -1.29685 -1.296986 -1.296985 -1.29685 -1.296988 -1.29685 -1.296984 -1.296985 -1.296853 -1.296985 -1.29685 -1.296984 -1.296853 c 0,-1.296985 0,0.695155 0,-1.296985 V 81.843417 80.546565 79.24958 77.95273 76.655745 75.358758 74.061908 72.764923 H 88.191383 85.597411 83.003579 80.409734 77.815899 75.222064 72.628229 70.034257 67.440422 64.846585 62.252748 59.65891 57.064941 54.471103 51.877268 49.283431 46.689594 44.095624 41.501787 38.907952 36.314115 33.72028 31.126443 28.532473 25.938636 23.344798 20.750963 18.157126 15.563289 12.969319 10.375484 7.7816469 5.1878096 2.5939748 Z"
       sodipodi:nodetypes="ccccccccccccccccccccccccccccccccccccccccccccccccccccccccccccccccccccccccccccccccccccccccccccccccccccccccccccccccccccccccccccc" />
    <path
       id="rect10-7-6"
       style="fill:#ffffff;fill-opacity:1;stroke:none;stroke-width:0.2;stroke-linejoin:round;stroke-miterlimit:4;stroke-dasharray:none;stroke-opacity:1"
       d="m 89.488228,72.764923 v 2.593835 2.593972 2.593835 2.593837 2.593838 2.593834 2.593973 2.593834 2.593838 2.593835 2.593836 2.59384 2.59397 2.59384 2.59383 2.59383 2.59384 2.59384 h 2.593972 2.593835 2.593837 2.593838 2.59383 2.59397 2.59384 2.59384 2.59383 2.59384 2.59384 2.59397 2.59384 2.59383 2.59384 2.59383 2.59397 2.59384 2.59384 2.59383 2.59384 2.59384 2.59397 2.59383 2.59384 2.59384 2.59383 2.59397 2.59384 2.59383 2.59384 2.59384 2.59384 2.59397 1.29684 v -1.29685 -1.29699 -1.29685 -1.29699 -1.29698 -1.29685 -1.29699 -1.29684 -1.29699 -1.29685 -1.29699 -1.29698 -1.29685 -1.29699 -1.29685 -1.296986 -1.296985 -1.29685 -1.296988 -1.29685 -1.296984 -1.296985 -1.296853 -1.296985 -1.29685 -1.296984 -1.296853 c 0,-1.296985 0,0.695155 0,-1.296985 v -1.296985 -1.296852 -1.296985 -1.29685 -1.296985 -1.296987 -1.29685 -1.296985 h -1.29684 -2.59397 -2.59384 -2.59384 -2.59384 -2.59383 -2.59384 -2.59397 -2.59383 -2.59384 -2.59384 -2.59383 -2.59397 -2.59384 -2.59384 -2.59383 -2.59384 -2.59397 -2.59384 -2.59383 -2.59384 -2.59383 -2.59384 -2.59397 -2.59384 -2.59384 -2.59383 -2.59384 -2.59384 -2.59397 -2.59383 -2.593838 -2.593837 -2.593835 z"
       sodipodi:nodetypes="ccccccccccccccccccccccccccccccccccccccccccccccccccccccccccccccccccccccccccccccccccccccccccccccccccccccccccccccccccccccccccccc" />
    <path
       style="color:#000000;font-style:normal;font-variant:normal;font-weight:normal;font-stretch:normal;font-size:medium;line-height:normal;font-family:sans-serif;font-variant-ligatures:normal;font-variant-position:normal;font-variant-caps:normal;font-variant-numeric:normal;font-variant-alternates:normal;font-variant-east-asian:normal;font-feature-settings:normal;font-variation-settings:normal;text-indent:0;text-align:start;text-decoration:none;text-decoration-line:none;text-decoration-style:solid;text-decoration-color:#000000;letter-spacing:normal;word-spacing:normal;text-transform:none;writing-mode:lr-tb;direction:ltr;text-orientation:mixed;dominant-baseline:auto;baseline-shift:baseline;text-anchor:start;white-space:normal;shape-padding:0;shape-margin:0;inline-size:0;clip-rule:nonzero;display:inline;overflow:visible;visibility:visible;isolation:auto;mix-blend-mode:normal;color-interpolation:sRGB;color-interpolation-filters:linearRGB;solid-color:#000000;solid-opacity:1;vector-effect:none;fill:#ef3340;fill-opacity:1;fill-rule:nonzero;stroke:none;stroke-width:1;stroke-linecap:butt;stroke-linejoin:miter;stroke-miterlimit:4;stroke-dasharray:none;stroke-dashoffset:0;stroke-opacity:1;color-rendering:auto;image-rendering:auto;shape-rendering:auto;text-rendering:auto;enable-background:accumulate;stop-color:#000000"
       d="M 178.97645,0 89.45374,119.42027 c 29.86385,0 59.65887,0.0341 89.52271,0.0341 z"
       id="path4776"
       sodipodi:nodetypes="cccc" />
    <path
       style="color:#000000;font-style:normal;font-variant:normal;font-weight:normal;font-stretch:normal;font-size:medium;line-height:normal;font-family:sans-serif;font-variant-ligatures:normal;font-variant-position:normal;font-variant-caps:normal;font-variant-numeric:normal;font-variant-alternates:normal;font-variant-east-asian:normal;font-feature-settings:normal;font-variation-settings:normal;text-indent:0;text-align:start;text-decoration:none;text-decoration-line:none;text-decoration-style:solid;text-decoration-color:#000000;letter-spacing:normal;word-spacing:normal;text-transform:none;writing-mode:lr-tb;direction:ltr;text-orientation:mixed;dominant-baseline:auto;baseline-shift:baseline;text-anchor:start;white-space:normal;shape-padding:0;shape-margin:0;inline-size:0;clip-rule:nonzero;display:inline;overflow:visible;visibility:visible;isolation:auto;mix-blend-mode:normal;color-interpolation:sRGB;color-interpolation-filters:linearRGB;solid-color:#000000;solid-opacity:1;vector-effect:none;fill:#ef3340;fill-opacity:1;fill-rule:nonzero;stroke:none;stroke-width:1;stroke-linecap:butt;stroke-linejoin:miter;stroke-miterlimit:4;stroke-dasharray:none;stroke-dashoffset:0;stroke-opacity:1;color-rendering:auto;image-rendering:auto;shape-rendering:auto;text-rendering:auto;enable-background:accumulate;stop-color:#000000"
       d="M 0,0.13686428 89.522713,119.55713 c -29.863847,0 -59.658866,0.0341 -89.522713,0.0341 z"
       id="path4776-5"
       sodipodi:nodetypes="cccc" />
  </g>
</svg>
