<?xml version="1.0" encoding="UTF-8" standalone="no"?>
<svg
   xmlns:dc="http://purl.org/dc/elements/1.1/"
   xmlns:cc="http://creativecommons.org/ns#"
   xmlns:rdf="http://www.w3.org/1999/02/22-rdf-syntax-ns#"
   xmlns:svg="http://www.w3.org/2000/svg"
   xmlns="http://www.w3.org/2000/svg"
   xmlns:sodipodi="http://sodipodi.sourceforge.net/DTD/sodipodi-0.dtd"
   xmlns:inkscape="http://www.inkscape.org/namespaces/inkscape"
   width="210mm"
   height="297mm"
   viewBox="0 0 210 297"
   version="1.1"
   id="svg8"
   inkscape:version="1.0.2-2 (e86c870879, 2021-01-15)"
   sodipodi:docname="Afganistan 2021- v2.svg">
  <defs
     id="defs2" />
  <sodipodi:namedview
     id="base"
     pagecolor="#ffffff"
     bordercolor="#666666"
     borderopacity="1.0"
     inkscape:pageopacity="0.0"
     inkscape:pageshadow="2"
     inkscape:zoom="0.7"
     inkscape:cx="743.38882"
     inkscape:cy="424.78844"
     inkscape:document-units="mm"
     inkscape:current-layer="layer1"
     inkscape:document-rotation="0"
     showgrid="false"
     inkscape:window-width="1366"
     inkscape:window-height="705"
     inkscape:window-x="-8"
     inkscape:window-y="-8"
     inkscape:window-maximized="1" />
  <metadata
     id="metadata5">
    <rdf:RDF>
      <cc:Work
         rdf:about="">
        <dc:format>image/svg+xml</dc:format>
        <dc:type
           rdf:resource="http://purl.org/dc/dcmitype/StillImage" />
        <dc:title></dc:title>
      </cc:Work>
    </rdf:RDF>
  </metadata>
  <g
     inkscape:label="Warstwa 1"
     inkscape:groupmode="layer"
     id="layer1">
    <path
       id="rect147-9-8-3"
       style="fill:#ffffff;fill-opacity:1;stroke-width:1.00157;stroke-linejoin:round;stroke-opacity:0.449799"
       d="M 0,0 V 377.95312 H 755.90625 V 0 Z"
       transform="scale(0.26458333)"
       sodipodi:nodetypes="ccccc" />
    <path
       style="fill:#000000;stroke-width:1"
       d="m 124.16502,75.530308 c -0.63081,-0.32895 -1.18877,-0.8793 -1.78274,-1.75844 -0.73304,-1.08498 -1.03138,-1.76513 -1.63899,-3.73649 -0.0493,-0.15999 -0.56714,8.3e-4 -1.4973,0.46473 -0.78206,0.39012 -2.12368,0.88774 -2.98137,1.10582 -1.51992,0.38646 -4.78836,0.80833 -4.58028,0.59118 0.0573,-0.0598 1.36443,-0.82964 2.90476,-1.71078 1.54034,-0.88115 3.47132,-2.05467 4.29107,-2.60784 l 1.49047,-1.00575 0.12898,-1.52582 c 0.0709,-0.8392 0.26616,-1.9007 0.43383,-2.35889 l 0.30486,-0.83308 0.0147,1.97264 0.0147,1.97265 1.23996,-1.22703 c 1.25781,-1.24468 2.35146,-3.01269 2.60428,-4.21011 0.16689,-0.7904 -0.0136,-2.19454 -1.34821,-10.48732 -0.56243,-3.494791 -1.30735,-8.276051 -1.65537,-10.625001 -0.34803,-2.34896 -0.92324,-5.84437 -1.27824,-7.76758 -0.64525,-3.49558 -0.64535,-3.49723 -0.28983,-4.94792 0.19559,-0.79814 0.42407,-1.45117 0.50773,-1.45117 0.25379,0 3.14489,6.31703 3.14047,6.86189 l -0.004,0.50773 -0.625,-0.59879 c -0.34375,-0.32933 -0.625,-0.55255 -0.625,-0.49604 0,0.27838 1.74856,11.56192 2.53049,16.329381 0.80608,4.91465 0.88928,5.76421 0.89771,9.16667 0.007,2.9752 -0.0675,4.02978 -0.36231,5.10416 -0.61779,2.25122 -1.49892,3.88127 -2.86976,5.30885 l -1.27198,1.32464 0.44493,1.00617 c 0.55822,1.2624 1.32601,2.07408 2.25056,2.3792 1.37011,0.45218 2.1373,-0.54291 4.40969,-5.71961 2.1913,-4.99199 3.29402,-6.76633 5.13237,-8.2583 l 0.64087,-0.52011 -1.21199,-8.12501 c -0.66659,-4.468751 -1.69655,-10.937501 -2.28878,-14.375001 -0.59224,-3.4375 -1.07657,-6.57812 -1.07628,-6.97917 2.1e-4,-0.40104 0.16986,-1.29166 0.37683,-1.97916 l 0.3763,-1.25 1.63787,3.33333 c 1.20402,2.45037 1.6024,3.46083 1.50393,3.81464 l -0.13395,0.4813 -0.62063,-0.58547 -0.62063,-0.58547 0.12486,0.625 c 0.0687,0.34375 0.87561,5.64063 1.79318,11.77084 2.1404,14.299681 1.90537,13.213051 2.9238,13.518171 0.9296,0.27852 1.43931,1.00204 2.4746,3.51266 1.34963,3.27289 2.65774,4.33864 5.13192,4.1811 1.59336,-0.10146 2.84196,-0.8518 3.4832,-2.0932 0.478,-0.92537 0.46402,-1.0573 -1.47622,-13.93392 l -1.21213,-8.044351 -2.28973,-2.58725 c -2.66892,-3.01569 -5.10689,-6.04412 -6.79577,-8.44163 l -1.19817,-1.70091 0.21497,-1.51576 c 0.11824,-0.83366 0.24824,-1.54901 0.28889,-1.58967 0.0983,-0.0983 2.83977,2.09289 4.34344,3.47156 1.49252,1.36845 1.55305,1.75173 0.26042,1.64892 -0.51562,-0.041 -0.9375,-0.0392 -0.9375,0.004 0,0.0959 3.27488,3.923 4.51818,5.28002 0.58056,0.63365 0.89849,0.85855 0.89849,0.63557 0,-0.18979 -0.29114,-2.03734 -0.64698,-4.10566 l -0.64698,-3.76057 0.36997,-1.62076 c 0.20348,-0.89142 0.43909,-1.54767 0.52358,-1.45834 0.35315,0.37341 3.10874,6.55308 3.10874,6.97164 0,0.43776 -0.0253,0.43199 -0.625,-0.14254 -0.38427,-0.36816 -0.625,-0.48744 -0.625,-0.3097 0,0.15899 0.24443,1.93435 0.54317,3.94522 l 0.54318,3.65615 1.59224,1.73681 c 0.87574,0.95525 2.0335,2.22088 2.57281,2.8125 0.53931,0.59163 0.98462,0.93896 0.98958,0.77186 0.0291,-0.98184 -2.33654,-15.63192 -2.59062,-16.04303 -0.0794,-0.12838 0.6809,-3.36451 0.82442,-3.50931 0.17332,-0.17485 3.24495,6.57064 3.1908,7.00719 l -0.0614,0.4951 -0.57292,-0.45277 c -0.45218,-0.35735 -0.57291,-0.38614 -0.57291,-0.13661 0,0.34755 1.50735,10.80646 1.98093,13.74489 l 0.29708,1.843291 2.03808,2.19499 c 3.99459,4.30213 5.24212,5.99083 5.79089,7.83872 0.34897,1.17513 0.40731,3.41044 0.10135,3.88387 -0.16746,0.25913 -0.20285,0.24134 -0.20718,-0.10417 -0.0156,-1.24516 -2.1946,-4.43492 -5.26363,-7.7053 l -1.75671,-1.87197 0.2724,1.97614 c 0.62828,4.55785 0.56372,7.70378 -0.20358,9.92008 -0.22771,0.65772 -0.34799,0.0582 -1.35103,-6.73436 l -1.10107,-7.45636 -1.39723,-1.45995 c -0.76848,-0.80297 -1.93418,-2.061861 -2.59044,-2.797531 -0.65626,-0.73568 -1.1932,-1.22248 -1.1932,-1.08178 0,0.1407 0.37377,2.57074 0.8306,5.400091 1.04687,6.48368 1.32425,9.13528 1.14837,10.97761 -0.23806,2.49359 -1.83177,5.99155 -3.15211,6.91842 -1.47455,1.03513 -3.9429,1.27443 -5.40625,0.52412 -1.1124,-0.57036 -1.73331,-1.41629 -2.96153,-4.03481 -1.06913,-2.27933 -1.88061,-3.3475 -1.63611,-2.15364 0.58669,2.8647 0.72042,8.00256 0.25929,9.96248 -0.33346,1.41729 -0.74893,2.01578 -0.74893,1.07883 0,-0.76577 -1.43082,-10.88575 -1.62965,-11.5263 l -0.14928,-0.4809 -0.86321,0.6253 c -1.48083,1.07271 -2.65537,3.11583 -4.74136,8.24761 -2.45939,6.05038 -3.17106,6.80579 -5.34415,5.67258 z m -23.10568,-1.15245 c 3.16587,-1.57949 5.32468,-3.41804 7.04849,-6.00281 0.9346,-1.40141 1.41787,-1.94927 1.71945,-1.94927 0.31918,0 1.0221,1.30835 1.02294,1.90401 4.2e-4,0.3024 -0.17477,0.76663 -0.38934,1.03161 -0.38219,0.47199 -0.40766,0.47488 -1.25359,0.14259 l -0.86348,-0.33918 -0.42787,0.8387 c -0.60977,1.19524 -1.97044,2.61135 -3.40407,3.54275 -1.2767,0.82945 -3.49991,1.63641 -4.46405,1.62033 -0.424269,-0.007 -0.191639,-0.18847 1.01152,-0.78873 z m 8.94294,-6.40813 c -0.27608,-0.33265 -0.81794,-0.39623 -0.81794,-0.096 0,0.25856 0.67086,0.6316 0.89108,0.4955 0.0939,-0.0581 0.061,-0.23785 -0.0731,-0.39953 z m -53.638447,6.64746 c -0.48915,-0.48915 -0.312623,-2.0156 0.402015,-3.47626 0.5415,-1.10679 2.276159,-3.25682 2.627623,-3.25682 0.09379,0 -0.24311,0.61685 -0.748669,1.37077 -0.978331,1.45895 -1.203467,2.04157 -1.092321,2.8268 0.05459,0.38567 0.195009,0.4879 0.659807,0.48036 0.540908,-0.009 0.580387,0.0408 0.470452,0.59045 -0.300577,1.50289 -1.514169,2.26944 -2.318907,1.4647 z m 32.307078,-0.26656 c -0.77946,-0.86129 0.29538,-3.83671 2.07714,-5.75002 1.15865,-1.2442 1.4319,-1.09647 0.42115,0.2277 -1.27861,1.67506 -1.69031,3.10555 -1.04737,3.63914 0.23129,0.19195 0.38516,0.19905 0.59209,0.0273 0.4564,-0.37878 0.55899,-0.0265 0.22504,0.77277 -0.62075,1.48566 -1.51659,1.91346 -2.26805,1.0831 z m 42.383229,-0.78943 c -0.35732,-0.4528 -0.43085,-0.76319 -0.35072,-1.48045 0.15595,-1.39595 1.66503,-4.23349 2.95316,-5.55287 1.1957,-1.22471 2.00822,-1.59563 1.01809,-0.46476 -0.32697,0.37345 -0.92115,1.18933 -1.3204,1.81306 -0.60345,0.94276 -0.72645,1.32902 -0.72916,2.28975 l -0.003,1.15569 0.67708,-0.0307 c 0.77123,-0.035 0.83686,0.18255 0.38285,1.26915 -0.66413,1.58947 -1.8168,2.02865 -2.62763,1.00115 z m -88.89803,-0.58158 c -3.418809,-0.92073 -5.537946,-3.09526 -6.440765,-6.60912 -0.420063,-1.63493 -0.281927,-4.78448 0.308523,-7.03447 0.498737,-1.9005 1.742987,-5.1835 1.84666,-4.87248 0.04104,0.12312 -0.12026,1.01343 -0.35845,1.97846 -0.246425,0.9984 -0.485752,2.84207 -0.555306,4.27781 -0.1065,2.1984 -0.06543,2.71023 0.319046,3.97604 1.513927,4.98427 8.057084,6.46459 13.979098,3.16264 2.511356,-1.40027 6.134938,-4.51059 7.803474,-6.69815 l 0.54654,-0.71655 -0.520665,-3.3111 c -0.286367,-1.8211 -0.521625,-3.42828 -0.5228,-3.5715 -0.0012,-0.14323 -0.142759,-0.26042 -0.314634,-0.26042 -0.251125,0 -0.3125,0.31982 -0.3125,1.6284 0,1.96878 -0.321602,3.82942 -0.833687,4.82332 -0.49549,0.9617 -2.324013,3.04806 -3.679322,4.19813 -2.603546,2.2093 -5.204394,3.30612 -8.214868,3.46434 -1.857854,0.0976 -2.089831,0.0641 -3.291767,-0.47524 -1.695712,-0.76099 -3.023004,-2.21071 -3.487781,-3.80948 -0.536457,-1.84535 -0.303446,-5.20755 0.541748,-7.81711 0.365204,-1.12758 0.69961,-2.01454 0.743125,-1.97102 0.04351,0.0435 -0.06423,0.87233 -0.239436,1.8418 -0.980579,5.42598 1.301444,8.85401 5.85782,8.79956 2.608667,-0.0312 6.275232,-2.04992 9.427085,-5.19039 1.559164,-1.55354 1.718325,-1.78647 1.714175,-2.50868 -0.0025,-0.43787 -0.185434,-1.19457 -0.406482,-1.68155 l -0.401906,-0.88541 h -2.519654 c -2.378424,0 -2.547547,-0.0279 -3.017213,-0.49756 -1.011365,-1.01137 -0.972692,-3.70959 0.08393,-5.85589 0.745617,-1.514561 1.449171,-2.072061 2.620067,-2.076121 1.570204,-0.005 3.843875,2.156511 4.18603,3.980351 0.12411,0.66156 0.544508,0.92688 0.803819,0.50731 0.09824,-0.15896 -0.503669,-4.663601 -0.825765,-6.179971 -0.06236,-0.29357 -0.36504,-0.51611 -0.933713,-0.68649 -1.186183,-0.35538 -2.262631,-1.38195 -2.930963,-2.79514 -0.31511,-0.6663 -0.616089,-1.1359 -0.668846,-1.04356 -0.05275,0.0923 -0.260798,0.67284 -0.462318,1.29 -0.730263,2.23644 -2.525867,3.57107 -5.001578,3.71755 -1.225557,0.0725 -1.607498,0.009 -2.392838,-0.39752 -2.466928,-1.27715 -3.34168,-4.21737 -2.707665,-9.101 0.265329,-2.04376 -0.0028,-2.52339 -0.580636,-1.03853 -0.628343,1.61474 -0.812414,2.30733 -1.292721,4.86406 -0.800585,4.2616 -1.232106,5.15161 -2.633654,5.43192 -2.301005,0.4602 -4.336636,-5.30083 -3.369582,-9.53625 l 0.252073,-1.104 0.15421,2.04639 c 0.276175,3.66485 1.191936,5.6487 2.546605,5.51681 0.87604,-0.0853 1.388277,-1.14808 2.457609,-5.09905 1.00101,-3.69855 1.880194,-5.53712 3.205725,-6.7039 0.535838,-0.47166 1.069813,-0.79851 1.186613,-0.72632 0.236485,0.14616 0.05566,3.91112 -0.263527,5.4869 -0.940836,4.64475 1.134219,7.80383 4.526055,6.8905 1.108779,-0.29856 2.017796,-1.06496 2.901329,-2.44615 0.900523,-1.40774 0.904102,-2.10537 0.0332,-6.47136 l -0.674461,-3.38117 0.394632,-1.16099 c 0.217046,-0.63854 0.466202,-1.20522 0.553681,-1.25928 0.08748,-0.0541 0.410694,0.3311 0.718259,0.85592 0.452666,0.77242 0.632389,1.5176 0.943321,3.91129 0.65282,5.02574 1.369539,7.31928 2.679383,8.57419 0.345886,0.33138 0.66175,0.56247 0.701923,0.51353 0.146673,-0.17867 -1.275431,-8.67624 -1.709267,-10.21345 -0.475893,-1.68625 -0.479079,-1.65483 0.388784,-3.83386 0.247429,-0.62125 0.258133,-0.60685 1.781094,2.39583 0.842694,1.66146 1.537087,3.28105 1.543098,3.5991 0.0109,0.57598 0.0085,0.57699 -0.614071,0.25507 -0.792077,-0.4096 -0.792077,-0.59377 0,4.0625 0.341106,2.00521 0.621273,3.71614 0.622596,3.80208 0.0076,0.49565 2.652375,-0.3539 3.458067,-1.11081 l 0.480727,-0.45162 -0.928923,-1.8496 c -1.35625,-2.70046 -2.107192,-4.70305 -2.501384,-6.67062 -0.191758,-0.95715 -0.422214,-1.88184 -0.512123,-2.05489 -0.185302,-0.35663 0.385773,-3.17029 0.614738,-3.02879 0.43844,0.27098 2.959907,4.32689 2.856861,4.59542 -0.136706,0.35625 -0.464346,0.40751 -0.653058,0.10216 -0.07082,-0.11458 -0.207109,-0.20833 -0.302871,-0.20833 -0.09576,0 0.239645,0.97622 0.745354,2.16939 1.010546,2.38428 1.745012,4.97678 1.745012,6.15945 0,2.14705 -1.271583,4.16003 -3.234527,5.12041 -0.95659,0.46802 -1.139413,0.64641 -1.133921,1.10645 0.0084,0.7037 0.754486,5.024781 0.89119,5.161481 0.05695,0.057 0.480514,-0.0888 0.941246,-0.3238 1.078537,-0.55023 3.836352,-1.476711 4.395662,-1.476711 0.39834,0 0.43202,0.12057 0.43202,1.546511 0,1.35983 0.0651,1.6239 0.53935,2.1875 0.37997,0.45157 0.72273,0.64099 1.15988,0.64099 0.49211,0 0.59877,-0.0754 0.51543,-0.36459 -0.1417,-0.4916 -1.18727,-7.133901 -2.10703,-13.385411 -0.41302,-2.8073 -0.97878,-6.23795 -1.25723,-7.62368 l -0.50629,-2.51951 0.40459,-1.41478 c 0.22252,-0.77812 0.43824,-1.44843 0.47938,-1.48957 0.15569,-0.15569 3.27192,6.42978 3.27192,6.91448 0,0.65046 -0.15213,0.63937 -0.88993,-0.0649 l -0.60022,-0.57292 0.11103,0.52084 c 0.0611,0.28645 0.74005,4.69271 1.50883,9.79166 0.76878,5.09896 1.43133,9.312131 1.47233,9.362611 0.1511,0.186 0.81842,-0.66867 1.73129,-2.21741 0.51563,-0.87478 1.05123,-1.628221 1.19023,-1.674321 0.14266,-0.0473 0.30608,0.17217 0.37521,0.50391 0.2549,1.223201 0.85058,2.434881 1.39714,2.841931 0.48781,0.36331 0.70262,0.39531 1.542332,0.22977 1.32701,-0.26159 1.5639,-0.69064 0.97642,-1.76848 l -0.45616,-0.83692 0.62865,-1.397631 0.62865,-1.39762 0.38901,0.47773 c 0.85784,1.05346 0.81201,3.908481 -0.0924,5.757061 -0.7473,1.52745 -1.8525,2.30688 -3.271032,2.30688 -0.84997,0 -1.10006,-0.10355 -1.73396,-0.71796 -0.40741,-0.39487 -0.74074,-0.84018 -0.74074,-0.98958 0,-0.47809 -0.35807,-0.29105 -0.61078,0.31905 -0.13457,0.32487 -0.50996,0.88114 -0.83421,1.23614 l -0.58955,0.64547 0.4075,2.77427 c 0.29767,2.02654 0.38809,3.56039 0.33546,5.69094 -0.0648,2.62372 -0.12327,3.01083 -0.5822,3.85417 l -0.51018,0.9375 -0.1666,-2.29167 c -0.0916,-1.26041 -0.39899,-3.90145 -0.68302,-5.86898 -0.28403,-1.96752 -0.51642,-3.67846 -0.51642,-3.80208 0,-0.12362 -0.35156,-0.22683 -0.78125,-0.22935 -1.0593,-0.006 -2.39353,-0.64594 -2.93598,-1.40774 -0.24577,-0.34515 -0.57413,-1.12486 -0.72968,-1.73271 -0.15556,-0.60784 -0.38661,-1.13976 -0.51344,-1.18204 -0.12684,-0.0423 -0.897938,0.31959 -1.713566,0.80415 l -1.482956,0.881 0.172185,1.78971 c 0.308636,3.20798 0.205561,7.27598 -0.216906,8.56054 -0.892402,2.71346 -4.686999,6.56894 -8.465076,8.6009 -3.200717,1.72144 -7.121541,2.40719 -9.736554,1.70294 z m 11.507387,-22.56483 0.833334,-0.15365 -0.760417,-0.77185 c -0.851835,-0.86464 -1.761371,-1.02475 -2.313492,-0.40726 -1.023796,1.14501 -0.01044,1.74779 2.240575,1.33276 z m 25.172574,22.18241 c -0.75031,-0.63134 -1.20834,-1.6628 -1.41519,-3.18689 l -0.14631,-1.07798 -1.28339,0.8295 c -3.624722,2.34277 -6.734112,3.10139 -12.684052,3.0946 l -2.351964,-0.003 2.708334,-0.91013 c 4.19713,-1.41046 8.30533,-3.34273 12.661982,-5.95551 1.53367,-0.91978 1.80717,-1.17635 2.24073,-2.10199 0.61498,-1.31303 0.89771,-1.5145 0.70828,-0.50474 -0.13891,0.74044 -0.1267,0.76196 0.30201,0.53252 0.47812,-0.25589 4.05277,-2.95273 5.1893,-3.915 l 0.68563,-0.5805 -1.12044,-1.70304 c -0.61624,-0.93667 -1.32678,-2.33158 -1.57897,-3.09981 -0.25219,-0.76822 -0.69994,-1.80872 -0.99502,-2.31222 -0.48727,-0.83148 -0.52289,-1.04243 -0.38827,-2.29948 0.0815,-0.76121 0.19917,-1.51681 0.26146,-1.67912 0.16779,-0.43726 4.42915,3.86143 4.42915,4.46795 0,0.44614 -0.0245,0.45158 -0.72248,0.15997 -0.39736,-0.16602 -0.81316,-0.30186 -0.92398,-0.30186 -0.11084,0 0.16542,0.78302 0.6139,1.74005 1.41582,3.02128 1.58963,5.29359 0.54169,7.08177 -0.69005,1.17749 -2.89286,3.3788 -5.29381,5.29021 -1.32976,1.05864 -1.91458,1.65281 -1.83385,1.86318 0.0652,0.16988 0.11852,0.44182 0.11852,0.60433 0,0.1625 0.1875,0.48296 0.41667,0.71213 1.28326,1.28326 5.29536,-0.48053 9.03297,-3.97105 0.85831,-0.80157 1.85573,-1.90006 2.21649,-2.44109 0.55243,-0.82848 0.63592,-1.11187 0.52914,-1.79603 -0.19623,-1.25718 -1.92689,-6.27867 -2.84498,-8.25469 -0.80932,-1.74193 -0.82372,-1.8145 -0.76466,-3.85417 l 0.0602,-2.078811 0.69547,0.718801 c 1.46896,1.51823 2.82083,5.06011 3.97982,10.42703 0.35879,1.66146 0.68309,3.11459 0.72067,3.22917 0.0376,0.11458 0.1772,-0.21354 0.31028,-0.72917 0.62825,-2.43414 1.45015,-3.46364 4.69538,-5.88144 1.38327,-1.03059 2.591619,-1.94449 2.685199,-2.0309 0.0936,-0.0864 0.0162,-0.68679 -0.17204,-1.33419 -0.393359,-1.35305 -0.281189,-2.17942 0.38013,-2.80069 0.74488,-0.69979 1.98921,-1.12948 2.81966,-0.97368 0.87998,0.16508 2.81105,1.13231 3.67184,1.83913 l 0.61974,0.50889 -0.50359,1.11769 c -0.68041,1.51014 -0.75548,1.57642 -2.52445,2.22885 -1.446,0.5333 -1.56203,0.62256 -1.81477,1.39595 -0.1485,0.45443 -0.44632,1.00425 -0.66182,1.22184 -0.38433,0.38806 -0.39455,0.38105 -0.53487,-0.36688 -0.0787,-0.41938 -0.21415,-0.80645 -0.30107,-0.86017 -0.38068,-0.23527 -5.628079,3.9861 -5.628079,4.52762 0,0.25454 10.243249,0.0761 13.958329,-0.24317 1.20313,-0.10339 2.22377,-0.15197 2.2681,-0.10796 0.0443,0.044 -0.30874,0.67762 -0.78461,1.40801 -0.82951,1.27317 -0.9145,1.339 -2.05976,1.59519 -3.38965,0.75825 -8.55504,2.89181 -10.056729,4.15392 l -0.72117,0.60611 0.9759,0.93965 c 0.53674,0.51681 1.454179,1.15807 2.038749,1.42503 l 1.06285,0.48537 -0.0596,1.35076 -0.0596,1.35076 -0.9375,-0.0547 c -2.587509,-0.15107 -5.077539,-1.19165 -6.736399,-2.81515 -1.2994,-1.27171 -2.07851,-2.53511 -2.7521,-4.46282 -0.26892,-0.76958 -0.53018,-1.26114 -0.5806,-1.09236 -0.0504,0.16878 -0.1942,0.68634 -0.31952,1.15013 -0.34272,1.26834 -1.38603,2.6967 -2.95797,4.04962 -2.90914,2.50383 -5.46524,3.94974 -7.272,4.11357 -1.03573,0.0939 -1.23757,0.045 -1.81302,-0.43919 z m 18.26493,-5.26183 c 0,-1.67677 1.01742,-3.20047 3.009239,-4.50668 l 1.2616,-0.82735 -4.131769,0.11135 c -2.27247,0.0612 -4.18593,0.1655 -4.25213,0.2317 -0.20709,0.20709 0.36625,1.84474 1.0562,3.01688 0.6252,1.06212 2.22943,2.50643 2.79644,2.51768 0.14373,0.003 0.26042,-0.24072 0.26042,-0.54358 z m 6.875009,-16.58469 c 0,-0.2707 -1.0003,-0.5749 -1.89048,-0.5749 h -0.82168 l 0.46111,0.70343 0.46111,0.70343 0.89497,-0.3317 c 0.49223,-0.18244 0.89497,-0.40755 0.89497,-0.50026 z m 49.16667,20.41622 c 5.40247,-3.03722 7.49316,-4.50513 9.53049,-6.69153 1.44722,-1.55312 2.05876,-2.59625 2.26006,-3.85512 0.15293,-0.95635 0.0427,-1.80843 -1.37768,-10.65281 -0.56127,-3.494791 -1.35853,-8.603371 -1.7717,-11.352391 -0.41317,-2.74903 -0.98428,-6.16952 -1.26913,-7.60109 -0.50104,-2.51809 -0.50703,-2.64725 -0.18393,-3.96568 0.18368,-0.74955 0.39932,-1.4682 0.47918,-1.59699 0.18822,-0.30354 3.16604,6.05999 3.16604,6.76574 v 0.5367 l -0.64821,-0.6119 -0.64821,-0.61189 0.12589,0.625 c 0.0692,0.34375 0.40459,2.5 0.74521,4.79167 0.34063,2.29167 1.04781,6.87265 1.57152,10.17996 1.13901,7.193061 1.42101,9.921391 1.2411,12.007541 -0.43872,5.08697 -1.99851,7.97009 -5.62363,10.39472 -2.30615,1.54245 -4.61867,2.2872 -8.11784,2.61439 l -1.45833,0.13635 z m -2.70834,-0.83237 c 0,-0.16638 0.18529,-0.47019 0.41176,-0.67514 0.40878,-0.36994 0.40798,-0.37711 -0.11068,-0.99351 -0.56513,-0.67162 -0.53945,-1.09727 0.12255,-2.03177 0.91214,-1.28757 1.95865,-1.85582 2.6935,-1.46254 0.49695,0.26596 0.5462,0.80141 0.12606,1.37064 -0.23922,0.32413 -0.35088,0.35271 -0.5625,0.14399 -0.37945,-0.37428 -0.89461,-0.32101 -1.30745,0.13517 -0.34046,0.37621 -0.33467,0.41195 0.11823,0.72917 0.64624,0.45264 0.95482,0.42339 2.22836,-0.21124 0.60132,-0.29965 1.14843,-0.48971 1.2158,-0.42234 0.28311,0.28311 -1.04036,1.55644 -2.56618,2.46894 -2.01939,1.20768 -2.36945,1.34783 -2.36945,0.94863 z m -88.238643,-2.12845 c -0.92724,-0.92723 -0.478744,-3.14046 1.210332,-5.97273 0.80637,-1.35213 2.98357,-3.67175 3.22228,-3.43304 0.055,0.055 -0.31872,0.64478 -0.83048,1.31064 -1.27775,1.66254 -2.03016,3.21878 -2.03016,4.19906 0,1.01148 0.38343,1.3686 1.2622,1.17559 0.61423,-0.13491 0.64497,-0.11372 0.50219,0.34616 -0.8103,2.60998 -2.14843,3.56226 -3.336362,2.37432 z m 51.995573,-2.43314 c -0.0104,-2.39446 -2.18719,-17.60366 -2.69446,-18.826531 -0.0951,-0.22928 -1.05277,-1.44837 -2.12812,-2.7091 -2.2913,-2.68626 -4.77435,-5.87146 -6.7392,-8.64487 l -1.40216,-1.97917 0.13905,-1.42755 c 0.0765,-0.78516 0.18781,-1.55461 0.2474,-1.70989 0.15361,-0.40031 5.48722,4.17893 5.48722,4.71112 0,0.35326 -0.10801,0.38272 -0.97005,0.26456 -0.80108,-0.1098 -0.93923,-0.0819 -0.79311,0.16024 0.31171,0.5165 5.34351,6.46987 5.4102,6.40108 0.1058,-0.10911 -1.28484,-9.0424 -1.8241,-11.71782 l -0.50086,-2.48492 0.46435,-1.57758 0.46434,-1.57757 1.58295,3.26454 c 1.81456,3.74218 2.09752,5.09139 0.81513,3.88665 -0.34611,-0.32515 -0.48339,-0.36925 -0.48647,-0.15625 -0.002,0.1632 0.43889,3.23183 0.98055,6.81917 l 0.98483,6.52244 3.82375,4.206731 c 2.10306,2.3137 4.1857,4.67548 4.62809,5.24839 1.73727,2.24988 2.35089,4.31954 1.98548,6.69681 l -0.15548,1.01153 -0.29381,-1.14584 c -0.16159,-0.63021 -0.60854,-1.66146 -0.99321,-2.29166 -0.6168,-1.01052 -8.04095,-9.20227 -8.2088,-9.05755 -0.036,0.031 0.21716,1.77696 0.56251,3.87988 1.3296,8.09642 1.33661,11.76481 0.0255,13.33808 l -0.40455,0.48542 -0.007,-1.59034 z m -39.730851,-3.84381 c -0.48374,-0.48373 -0.5255,-0.64743 -0.41188,-1.61458 0.23444,-1.99561 2.474292,-5.63335 3.957272,-6.42703 0.43106,-0.23069 0.43241,-0.2258 0.0736,0.26621 -1.19293,1.63591 -2.04271,3.04986 -2.22099,3.69554 -0.365952,1.32535 0.15778,2.17056 1.04931,1.69343 0.32718,-0.1751 0.40073,-0.14601 0.397,0.157 -0.008,0.63344 -0.759,2.07026 -1.26923,2.42764 -0.663982,0.46507 -0.947512,0.42939 -1.575112,-0.19821 z m -30.356198,-2.76975 c -0.746167,-1.57276 -0.836802,-1.68088 -1.16224,-1.38636 -0.907087,0.8209 -2.299319,-0.1061 -2.299319,-1.53098 0,-0.64602 0.120481,-0.92246 0.548929,-1.25947 0.301911,-0.23749 0.711142,-0.43179 0.909405,-0.43179 0.61735,0 1.408887,0.79491 2.00521,2.01374 l 0.572642,1.17044 0.542548,-2.06084 c 0.591634,-2.2473 0.790302,-2.70212 1.435242,-3.28578 1.037844,-0.93924 2.213298,0.48587 1.695317,2.05537 -0.28954,0.87731 -0.492579,1.02644 -1.016054,0.74629 -0.307134,-0.16437 -0.520425,-0.11764 -0.928659,0.20348 -0.52614,0.41386 -0.831558,1.43884 -1.325973,4.44991 l -0.167773,1.02177 z m 84.222959,-1.29909 c -0.65608,-0.65608 -0.46375,-2.24772 0.5096,-4.21716 0.76767,-1.55327 2.30611,-3.48275 3.12737,-3.92227 0.43106,-0.2307 0.43241,-0.22581 0.0736,0.2662 -2.08842,2.8639 -2.67376,4.19039 -2.25482,5.10985 0.21022,0.4614 0.34302,0.52596 0.86649,0.42126 0.71081,-0.14216 0.74689,-0.0119 0.29578,1.06771 -0.68345,1.63573 -1.74163,2.15083 -2.61805,1.27441 z m 14.89425,-0.65326 c 0.29464,-1.08452 0.37244,-3.22393 0.14742,-4.0541 -0.13074,-0.48236 -0.56755,-1.30912 -0.97068,-1.83726 -0.67832,-0.88865 -0.72837,-1.05453 -0.67131,-2.22497 l 0.0616,-1.26473 0.87239,0.87389 c 2.07656,2.08012 2.4657,4.81757 1.14998,8.08972 -0.37067,0.92185 -0.81126,1.23387 -0.58945,0.41745 z m -35.0324,-0.0639 c -0.35666,-0.24982 -0.46303,-0.53053 -0.46303,-1.22201 0,-1.47667 1.94102,-4.90336 3.14133,-5.54575 0.54234,-0.29025 0.50793,-0.1835 -0.24538,0.76134 -1.00484,1.26033 -1.46851,2.31171 -1.39723,3.16829 0.0577,0.69333 0.11855,0.76286 0.6367,0.72739 0.3151,-0.0216 0.57292,0.0426 0.57292,0.14268 0,0.72958 -1.05837,2.29237 -1.55246,2.29237 -0.12641,0 -0.43819,-0.14594 -0.69285,-0.32431 z m -73.796369,-2.26711 c 0,-0.0379 0.859898,-0.70679 1.910886,-1.48635 2.241477,-1.6626 4.688369,-4.05215 5.271936,-5.1484 l 0.411988,-0.77393 -0.799798,-0.659261 c -0.753615,-0.62119 -0.793765,-0.71279 -0.695313,-1.58625 0.121242,-1.07566 0.725465,-1.99615 1.373459,-2.09236 0.56351,-0.0837 1.06851,0.98916 1.06851,2.26996 0,0.61555 0.148921,1.03901 0.520834,1.48101 0.604087,0.717911 0.712889,2.128451 0.214958,2.786771 -0.288319,0.38119 -0.306254,0.3635 -0.3125,-0.30836 -0.0036,-0.39202 -0.15724,-0.87919 -0.341325,-1.0826 -0.314571,-0.3476 -0.372471,-0.29425 -0.962825,0.88715 -0.751923,1.50473 -2.974026,3.79905 -4.441976,4.58633 -0.926731,0.49702 -3.218834,1.29904 -3.218834,1.12629 z m 7.708335,-9.804411 c 0,-0.38194 -0.111111,-0.52083 -0.416667,-0.52083 -0.506915,0 -0.524392,0.16065 -0.07188,0.66068 0.44725,0.4942 0.488544,0.48238 0.488544,-0.13985 z m 50.423455,7.924841 c -0.13892,-0.16738 -0.30239,-0.67571 -0.36327,-1.12961 -0.0794,-0.59206 -0.19253,-0.79387 -0.4003,-0.71414 -0.36676,0.14074 -0.18405,-0.41237 0.42595,-1.28942 l 0.43469,-0.625 0.13627,1.11528 c 0.25828,2.11379 1.11404,1.94223 1.11404,-0.22333 0,-0.80719 0.0919,-1.29982 0.25274,-1.35527 0.25091,-0.0865 0.33665,0.15992 0.57803,1.66123 0.0978,0.60828 0.2203,0.78125 0.5533,0.78125 0.3968,0 0.41831,-0.0865 0.29796,-1.19791 -0.15636,-1.44391 0.14417,-2.14721 0.50887,-1.19086 0.32255,0.84581 0.49545,2.44966 0.3336,3.09451 -0.19276,0.76803 -0.83325,1.05568 -1.55209,0.69707 -0.52921,-0.264 -0.60367,-0.2484 -0.93956,0.1969 -0.41499,0.55017 -1.00846,0.62726 -1.38023,0.1793 z m -58.317336,-2.55693 c -0.164818,-0.0624 0.3516,-0.40671 1.197917,-0.79872 0.818196,-0.37898 1.48763,-0.78375 1.48763,-0.89948 0,-0.11574 -0.492188,-0.23877 -1.093751,-0.2734 -1.032658,-0.0594 -1.089891,-0.0921 -1.024666,-0.58381 0.147554,-1.112431 0.576033,-1.458331 1.806504,-1.458331 1.478852,0 2.811913,0.51984 2.811913,1.096541 0,0.23447 -0.369836,0.77812 -0.821856,1.20812 -1.030594,0.98038 -3.614864,1.99253 -4.363691,1.70908 z m 63.310556,-2.64651 c 0,-0.0378 0.77344,-0.630651 1.71875,-1.317541 1.672959,-1.21561 3.697929,-3.16594 3.697929,-3.5616 0,-0.10804 -0.32513,-0.52156 -0.72251,-0.91894 -0.65635,-0.65634 -0.7047,-0.7846 -0.52805,-1.40056 0.2334,-0.81383 0.7673,-1.66859 1.04222,-1.66859 0.35539,0 0.8338,0.95206 0.89839,1.78785 0.0347,0.44897 0.26828,1.14444 0.51907,1.54548 0.52682,0.84245 0.56238,1.35326 0.14504,2.08333 l -0.29773,0.52084 -0.007,-0.55588 c -0.0177,-1.32989 -0.47577,-1.57639 -0.9262,-0.49837 -0.37189,0.89007 -1.87307,2.54152 -2.69805,2.96813 -0.681629,0.35248 -2.841479,1.124651 -2.841479,1.015851 z m 5.416679,-7.200571 c 0,-0.23148 -0.13889,-0.41666 -0.3125,-0.41666 -0.37671,0 -0.40276,0.24308 -0.0625,0.58333 0.3362,0.33621 0.375,0.31896 0.375,-0.16667 z m 14.7768,6.638911 c -0.55042,-1.028461 0.70407,-4.113201 2.34793,-5.773501 1.14953,-1.16102 1.38282,-1.09623 0.4471,0.12418 -0.86906,1.13347 -1.51893,2.45379 -1.5256,3.09949 -0.006,0.5948 0.49473,0.9789 1.04766,0.8034 0.39337,-0.12485 0.42935,-0.083 0.29874,0.34737 -0.0817,0.26913 -0.33294,0.79401 -0.55839,1.1664 -0.33278,0.549701 -0.54251,0.677091 -1.11475,0.677091 -0.5063,0 -0.77184,-0.12519 -0.94269,-0.44443 z m 19.46275,-1.130411 c -0.47601,-0.47601 -0.51751,-0.6376 -0.3871,-1.50723 0.30527,-2.03569 2.42828,-5.55558 3.83928,-6.36541 0.66639,-0.38247 0.66438,-0.37637 -0.30956,0.9375 -1.17496,1.58505 -1.74754,2.76795 -1.74941,3.61414 -0.002,0.95889 0.24947,1.21396 1.02861,1.04283 0.63326,-0.13909 0.66309,-0.11947 0.52047,0.34232 -0.70992,2.29851 -1.83765,3.04049 -2.94229,1.93585 z m 22.02934,-1.18558 c 0.27115,-1.40162 0.21675,-3.22926 -0.12011,-4.03548 -0.17025,-0.40747 -0.59213,-1.09764 -0.9375,-1.53371 -0.52942,-0.66845 -0.62795,-0.97611 -0.62795,-1.96079 0,-0.64237 0.0851,-1.16794 0.18902,-1.16794 0.43721,0 2.0944,2.15934 2.428,3.16371 0.46753,1.40759 0.31803,3.83619 -0.32868,5.3395 -0.56318,1.30916 -0.83538,1.39709 -0.60278,0.19471 z m -33.06157,-1.09783 c -0.50955,-0.77768 -0.27349,-2.14344 0.71544,-4.13919 0.7986,-1.61164 2.64261,-3.87756 3.15556,-3.87756 0.12476,0 -0.14065,0.49218 -0.5898,1.09375 -1.45803,1.95281 -2.09045,3.58748 -1.6827,4.34939 0.18246,0.34091 0.36317,0.40847 0.83838,0.31343 0.71494,-0.14299 0.77161,0.10996 0.28534,1.27374 -0.47032,1.12565 -0.90065,1.51135 -1.6862,1.51135 -0.50976,0 -0.78268,-0.13828 -1.03602,-0.52491 z m -44.571419,0.0237 c -0.93407,-0.40687 -2.31188,-2.08506 -2.71956,-3.31245 -0.40987,-1.23402 -0.46831,-2.87928 -0.21233,-5.97802 0.31344,-3.79441 -0.71583,-1.56959 -1.84314,3.98405 -0.7525,3.70713 -1.166292,4.72382 -2.094742,5.14685 -0.77395,0.35263 -1.12552,0.30548 -1.85163,-0.24836 -0.73658,-0.56181 -1.49664,-1.96537 -1.91482,-3.53595 -0.35623,-1.33794 -0.37619,-4.75044 -0.0364,-6.22175 l 0.25497,-1.10401 0.12958,2.29167 c 0.14339,2.53583 0.57763,4.32469 1.26054,5.19286 0.48697,0.61909 1.16995,0.9588 1.5992,0.79544 0.48268,-0.18371 1.2421,-1.99451 1.991722,-4.74917 1.27005,-4.66713 1.77964,-5.73921 3.4103,-7.17457 l 0.9912,-0.87249 0.15247,0.69563 c 0.1729,0.78884 0.0658,2.27422 -0.37812,5.24501 -0.45117,3.01924 -0.033,4.85906 1.3735,6.04252 1.15994,0.97603 2.95215,0.97954 4.43971,0.009 1.14193,-0.74529 2.43741,-2.82875 2.43376,-3.91412 -0.002,-0.46922 -0.32165,-2.44038 -0.71128,-4.38037 l -0.70841,-3.52725 0.41368,-1.05608 c 0.22753,-0.58085 0.49337,-1.1378 0.59077,-1.23766 0.0988,-0.10129 0.41587,0.28962 0.71713,0.88412 0.4059,0.80102 0.64025,1.81575 0.94358,4.08569 0.71874,5.37872 1.51644,7.60109 3.12668,8.71091 1.10153,0.7592 4.07086,0.33363 5.55142,-0.79566 l 0.67848,-0.5175 -0.91264,-1.71799 c -1.20357,-2.26567 -2.07921,-4.60294 -2.63392,-7.03051 -0.502,-2.19687 -0.53104,-2.85415 -0.18317,-4.14602 l 0.23712,-0.88063 0.3716,0.48208 c 1.16493,1.51125 2.52183,3.71788 2.52183,4.10105 0,0.50861 -0.0718,0.53122 -0.67028,0.21095 -0.34897,-0.18676 -0.40933,-0.1765 -0.30645,0.0521 1.9734,4.38462 2.794879,7.50983 2.432639,9.25473 -0.295599,1.42385 -1.239579,2.82654 -2.435159,3.61846 -1.1417,0.75623 -1.9152,0.92545 -3.70828,0.81128 -1.85769,-0.11829 -2.87424,-0.84281 -3.84166,-2.73807 l -0.71669,-1.40407 -0.4522,1.24885 c -0.56363,1.55659 -0.9389,2.13501 -1.82235,2.80885 -1.43589,1.09521 -4.01191,1.50546 -5.46865,0.87093 z m 33.540959,-5.84627 c -0.16603,-0.39737 -0.30187,-0.91852 -0.30187,-1.15813 0,-0.23961 -0.0937,-0.37771 -0.20834,-0.3069 -0.45762,0.28283 -0.17081,-0.68496 0.40365,-1.36203 l 0.61198,-0.7213 -0.009,1.22419 c -0.009,1.29069 0.29208,1.77168 0.83028,1.32501 0.20823,-0.17282 0.25264,-0.50998 0.15958,-1.21152 -0.13088,-0.98657 -0.009,-1.65018 0.30327,-1.65018 0.19876,0 0.51142,0.82425 0.44551,1.17448 -0.0869,0.4617 0.3741,1.32552 0.70737,1.32552 0.28928,0 0.31781,-0.17495 0.19754,-1.21125 -0.10853,-0.93505 -0.0716,-1.26853 0.1621,-1.46245 0.25342,-0.21032 0.3408,-0.0999 0.53679,0.6785 0.29277,1.16269 0.30099,2.52261 0.0184,3.05056 -0.22909,0.42807 -1.11837,0.54119 -1.64318,0.20903 -0.20943,-0.13254 -0.41247,-0.04 -0.69221,0.31569 -0.57569,0.73187 -1.15984,0.64773 -1.52208,-0.21922 z m -67.28827,-2.97545 c 0.07784,-0.20052 0.19489,-0.99351 0.260115,-1.7622 0.149917,-1.76675 -0.189902,-3.01959 -1.110859,-4.09553 -0.633289,-0.73985 -0.704533,-0.9514 -0.704533,-2.09205 0,-0.69793 0.07472,-1.26897 0.166052,-1.26897 0.3168,0 1.667304,1.56736 2.154115,2.5 0.688431,1.31892 0.688231,4.14755 -4.17e-4,5.88542 -0.261077,0.65886 -0.571731,1.19792 -0.690341,1.19792 -0.120409,0 -0.153151,-0.16102 -0.07413,-0.36459 z m 36.504801,-1.09375 c 0.38364,-2.59962 -0.009,-4.45759 -1.1629,-5.50104 -0.35842,-0.32414 -0.43884,-0.63911 -0.43884,-1.71875 0,-0.72703 0.0828,-1.32187 0.18409,-1.32187 0.34828,0 1.73847,1.7212 2.16688,2.68283 0.58866,1.32131 0.57654,3.64376 -0.0278,5.32585 -0.62698,1.74516 -0.93378,1.97182 -0.72145,0.53298 z m -50.119705,-1.82291 c -0.241517,-0.20052 -0.497429,-0.66643 -0.568694,-1.03536 -0.141798,-0.73406 -0.142777,-0.73288 1.951236,-2.34897 0.601563,-0.46426 1.09375,-0.91345 1.09375,-0.9982 0,-0.0848 -0.210937,-0.24663 -0.46875,-0.35974 -0.63276,-0.2776 -0.695896,-1.00447 -0.165354,-1.90367 0.323433,-0.54818 0.379631,-0.81488 0.213815,-1.01468 -0.468296,-0.56426 0.245639,-0.54979 1.070287,0.0217 1.157665,0.80226 1.850003,1.68277 1.850003,2.35283 0,0.75051 -0.351319,1.06734 -1.183532,1.06734 -0.557704,0 -0.707908,0.0971 -0.81596,0.52765 -0.08273,0.32962 -0.631515,0.88378 -1.462303,1.47662 -0.731431,0.52194 -1.329873,1.0345 -1.329873,1.13902 0,0.3299 1.95953,0.21072 2.505728,-0.1524 0.283308,-0.18835 1.101044,-0.9122 1.817189,-1.60857 0.716146,-0.69636 1.302084,-1.19539 1.302084,-1.10895 0,0.0864 -0.226275,0.59935 -0.502833,1.13981 -1.235486,2.41444 -4.010734,3.88164 -5.306793,2.80558 z m 4.351292,-5.3323 c 0,-0.0395 -0.1875,-0.24156 -0.416666,-0.44895 -0.404419,-0.366 -0.416667,-0.36388 -0.416667,0.0719 0,0.31006 0.1289,0.44895 0.416667,0.44895 0.229166,0 0.416666,-0.0323 0.416666,-0.0719 z m -1.354166,-0.74695 c 0,-0.16075 -0.09375,-0.32201 -0.208334,-0.35834 -0.341798,-0.10838 -0.794239,0.27833 -0.632267,0.54041 0.200928,0.32511 0.840601,0.18656 0.840601,-0.18207 z m 53.895839,5.15216 c -0.1375,-0.1375 -0.25,-0.55937 -0.25,-0.9375 0,-0.37812 -0.0937,-0.6875 -0.20833,-0.6875 -0.11459,0 -0.20522,-0.11718 -0.20141,-0.26041 0.007,-0.27015 0.70459,-1.19792 0.90047,-1.19792 0.0613,0 0.14001,0.44531 0.17494,0.98958 0.0457,0.71252 0.15099,0.98959 0.376,0.98959 0.23525,0 0.31859,-0.27218 0.33713,-1.10103 0.0136,-0.60556 0.0776,-1.15401 0.14239,-1.21878 0.24489,-0.24488 0.56214,0.17983 0.56214,0.75256 0,0.82393 0.1957,1.25475 0.56997,1.25475 0.2573,0 0.29294,-0.18649 0.18911,-0.98959 -0.0704,-0.54427 -0.0479,-1.1158 0.0499,-1.27007 0.25816,-0.40708 0.64931,0.83203 0.64931,2.0569 0,1.22864 -0.38516,1.63464 -1.24342,1.31068 -0.48711,-0.18386 -0.64088,-0.15559 -0.91876,0.16896 -0.38453,0.44909 -0.7722,0.49707 -1.12949,0.13978 z m -20.188642,-0.79953 c 1.70429,-0.56731 2.76242,-1.16279 4.14321,-2.33165 0.49141,-0.416 0.5248,-0.51895 0.27715,-0.85449 -0.31697,-0.42947 -0.0905,-1.38723 0.430282,-1.81941 0.16298,-0.13527 0.29633,-0.42196 0.29633,-0.63709 0,-0.59477 0.3637,-0.47217 1.15204,0.38835 1.04409,1.13969 1.27234,1.79942 0.84709,2.44843 -0.35546,0.54251 -0.57624,0.60122 -1.2577,0.33447 -0.31953,-0.12507 -0.64746,0.0896 -1.562502,1.02307 -1.41748,1.44597 -2.92373,2.08692 -4.86382,2.0697 l -1.29427,-0.0115 1.83219,-0.60989 z m 6.550752,-3.67765 c -0.19371,-0.1937 -0.41068,-0.29369 -0.48218,-0.22219 -0.20503,0.20504 0.10973,0.57437 0.48951,0.57437 0.31802,0 0.31744,-0.0274 -0.007,-0.35218 z m -0.77878,-0.59761 c 0,-0.35353 -0.53685,-0.40304 -0.74356,-0.0686 -0.15705,0.25411 0.31085,0.63622 0.57737,0.4715 0.0914,-0.0565 0.16619,-0.23781 0.16619,-0.40292 z m 24.732189,2.90419 c -0.0863,-0.0864 0.50108,-0.46183 1.30541,-0.83438 0.80433,-0.37256 1.46242,-0.77698 1.46242,-0.8987 0,-0.12937 -0.47602,-0.22132 -1.14584,-0.22132 -1.31417,0 -1.44063,-0.24311 -0.73145,-1.40625 0.37586,-0.61645 0.50172,-0.67565 1.40547,-0.66107 1.26549,0.0204 2.55218,0.40699 2.8322,0.85091 0.35398,0.56117 -0.69671,1.72257 -2.20804,2.44071 -1.39983,0.66515 -2.66804,0.98223 -2.92017,0.7301 z m 12.27997,-0.026 c -0.0679,-0.10991 0.22498,-0.30606 0.65092,-0.43589 0.95627,-0.29148 2.12859,-0.99704 2.12859,-1.28109 0,-0.11743 -0.51105,-0.21139 -1.1498,-0.21139 -1.14828,0 -1.14962,-8.4e-4 -1.01432,-0.57292 0.0745,-0.3151 0.33411,-0.79368 0.57688,-1.0635 0.39724,-0.4415 0.56181,-0.47825 1.64455,-0.36724 1.44387,0.14804 2.44269,0.61887 2.44269,1.15143 0,0.52284 -1.48384,1.83033 -2.63929,2.32562 -1.15651,0.49574 -2.47464,0.72289 -2.64022,0.45498 z m 10.72918,0.005 c -0.15373,-0.0584 0.38534,-0.42784 1.19792,-0.8209 0.81258,-0.39305 1.47742,-0.80425 1.47742,-0.91377 0,-0.10953 -0.51563,-0.19914 -1.14584,-0.19914 -1.31417,0 -1.44063,-0.24311 -0.73145,-1.40625 0.37416,-0.61366 0.50722,-0.67708 1.42044,-0.67708 1.41555,0 2.95685,0.55319 2.95685,1.06125 0,0.63596 -1.51107,1.97625 -2.7365,2.42723 -1.40521,0.51714 -2.08281,0.66402 -2.43884,0.52867 z m 29.49437,0.0251 c -0.0881,-0.0886 0.28693,-0.35589 0.83334,-0.59399 2.23324,-0.97314 2.42516,-1.36488 0.66867,-1.36488 -0.79077,0 -1.02937,-0.0748 -1.02937,-0.32285 0,-0.62385 0.63809,-1.5475 1.15945,-1.67836 1.09978,-0.27602 3.63221,0.45315 3.63221,1.04583 0,0.17373 -0.27872,0.63333 -0.61939,1.02133 -0.93631,1.0664 -4.16041,2.38031 -4.64491,1.89293 z"
       id="path1007" />
  </g>
</svg>
