<?xml version="1.0" encoding="UTF-8" standalone="no"?>
<svg
   xmlns:dc="http://purl.org/dc/elements/1.1/"
   xmlns:cc="http://creativecommons.org/ns#"
   xmlns:rdf="http://www.w3.org/1999/02/22-rdf-syntax-ns#"
   xmlns:svg="http://www.w3.org/2000/svg"
   xmlns="http://www.w3.org/2000/svg"
   xmlns:sodipodi="http://sodipodi.sourceforge.net/DTD/sodipodi-0.dtd"
   xmlns:inkscape="http://www.inkscape.org/namespaces/inkscape"
   width="210mm"
   height="297mm"
   version="1.1"
   viewBox="0 0 210 297"
   id="svg6"
   sodipodi:docname="Albania 1992-2002  — unstandarized.svg"
   inkscape:version="1.0.2-2 (e86c870879, 2021-01-15)">
  <metadata
     id="metadata12">
    <rdf:RDF>
      <cc:Work
         rdf:about="">
        <dc:format>image/svg+xml</dc:format>
        <dc:type
           rdf:resource="http://purl.org/dc/dcmitype/StillImage" />
        <dc:title></dc:title>
      </cc:Work>
    </rdf:RDF>
  </metadata>
  <defs
     id="defs10" />
  <sodipodi:namedview
     pagecolor="#ffffff"
     bordercolor="#666666"
     borderopacity="1"
     objecttolerance="10"
     gridtolerance="10"
     guidetolerance="10"
     inkscape:pageopacity="0"
     inkscape:pageshadow="2"
     inkscape:window-width="1366"
     inkscape:window-height="705"
     id="namedview8"
     showgrid="false"
     inkscape:zoom="0.49531425"
     inkscape:cx="500.3891"
     inkscape:cy="424.48075"
     inkscape:window-x="-8"
     inkscape:window-y="-8"
     inkscape:window-maximized="1"
     inkscape:current-layer="svg6" />
  <path
     d="m0-0.52917v90.62h126.87v-90.62h-108.74z"
     fill="#f00"
     stroke-linejoin="round"
     stroke-opacity=".4498"
     stroke-width=".265"
     id="path2"
     style="fill:#e5181a;fill-opacity:1" />
  <path
     d="m49.557 19.472c1.0411-0.60845 1.8087-0.31268 2.5109 0.66049-0.91001 0-1.954 0.0597-2.7752-0.40805-0.48686-0.27741-1.1786-1.3564-1.8081-1.1993-0.94437 0.23553 0.43664 1.4684 0.7509 1.618 1.3489 0.64174 2.8107 0.39749 4.2289 0.38573-0.88623 0.88758-1.8627 0.47173-2.9074 0.1321 0.45196 0.91849 1.4626 1.0416 2.3788 1.2449 2.3834 0.52919 4.6412 1.2129 6.0648 3.3786 0.72024 1.0956 1.0048 2.7848-0.014 3.8026-0.83019 0.82945-2.1055 0.65204-2.8054-0.24161-0.46809-0.59762-0.54553-1.3769-0.42725-2.1079 0.0868-0.53698 0.40399-1.1748 0.01-1.6658-0.34228-0.42562-1.03-0.63883-1.5062-0.87674-1.0005-0.5-2.0061-0.98942-3.0396-1.4189-0.44866-0.18652-0.96129-0.46604-1.4536-0.49458-0.5606-0.0324-0.82187 0.48877-1.3336 0.54359-0.89297 0.0955-2.1418-0.60277-2.8955-1.0165-0.97107-0.53315-1.8814-1.2304-2.6034-2.0724-0.40928-0.47728-0.70306-1.1033-1.1653-1.5279-0.36858-0.33857-0.84685-0.35284-1.2234-0.0152-0.89363 0.80091-0.49201 2.1386 0.0708 2.9961 1.2005 1.8293 3.6208 2.9541 5.7142 3.3753 0.58478 0.11757 2.5019 0.0724 2.1775 1.1141-0.2807 0.90131-1.3406 0.7519-2.0454 0.68493-1.1248-0.107-2.1482-0.17648-3.1717-0.72575-0.53259-0.28586-0.95099-0.70819-1.4537-1.0338-0.56139-0.3634-1.286-0.46129-1.561 0.28983-0.29113 0.7955 0.3292 1.824 0.90592 2.3285 1.3827 1.2096 3.54 1.3634 5.2805 1.1375 0.45778-0.0594 2.1124-0.57265 2.205 0.1786 0.0806 0.6531-1.0826 1.1905-1.5442 1.4211-1.2235 0.61149-2.6739 0.85614-3.9646 0.29987-0.6276-0.27054-1.1183-0.73408-1.718-1.0427-0.45607-0.23474-1.0057-0.24993-1.2215 0.30251-0.32286 0.82654 0.47602 1.9597 1.0913 2.4284 1.5766 1.2006 4.0175 0.62932 5.6806-0.06 0.38206-0.15825 1.7174-0.99748 1.8269-0.11559 0.0846 0.68018-0.95679 1.208-1.4304 1.4905-1.1072 0.6601-2.4915 1.4498-3.8325 1.3309-0.85754-0.0758-2.1996-1.1129-2.9822-0.47714-0.77812 0.63196-0.1155 1.8198 0.60395 2.1329 1.2519 0.54491 2.8512 0.14689 4.0962-0.228 1.1168-0.33633 2.1735-1.2075 3.3038-1.3579-0.0621 0.82284-0.58319 1.2238-1.1894 1.7277-1.163 0.9671-2.5333 1.9766-4.0968 2.0913-0.87156 0.0639-2.6809-0.49061-2.9803 0.6749-0.29497 1.1478 0.926 1.9304 1.9231 1.9341 1.8861 7e-3 3.7002-1.2576 5.154-2.3174 0.34797-0.25363 1.2234-0.99933 1.5004-0.25958 0.25479 0.68018-0.57593 1.5214-0.98362 1.9614-1.3341 1.4395-2.9838 2.7031-5.01 2.8631-0.67729 0.0535-2.0559-0.65152-2.543-0.0465-0.75671 0.93988 0.53337 1.9964 1.3537 2.1417 1.5401 0.27279 3.2918-0.59933 4.4932-1.4762 1.0774-0.78651 1.8759-2.0811 3.0395-2.6895 0.1537 0.98282-0.38853 1.7435-0.94516 2.5099-1.1569 1.593-2.6349 3.228-4.6053 3.7661-0.91028 0.24862-1.8861-3e-3 -2.7674 0.23884-0.51395 0.14108-0.61042 0.69405-0.43823 1.1464 0.42409 1.1142 1.9074 1.3662 2.9414 1.3162 1.364-0.0659 2.2571-0.93024 3.1717-1.8441 0.99354-0.99273 1.9283-2.032 2.9055-3.0383 0.52122-0.53672 0.96711-1.2293 1.5877-1.6574 0.31796-0.21928 0.67452-0.27833 0.90129 0.0939 0.23431 0.38454 0.11313 0.89603 3e-3 1.2993-0.36369 1.3284-1.361 1.944-2.4891 2.5783-0.52108 0.293-1.034 0.89458-0.47192 1.4305 0.60209 0.5741 1.4488 0.26671 2.0571-0.10766 1.3449-0.82786 2.067-2.1647 2.4923-3.6369 0.14286-0.49485 0.31347-1.3571 0.94557-1.4452 0.92838-0.12945 0.78856 1.0725 0.60077 1.5778-0.30039 0.80805-0.79068 1.3071-1.3654 1.9249-0.79768 0.85746 0.26021 1.2792 1.0271 0.87912 1.3215-0.68955 1.678-2.0399 2.4253-3.1963 0.19427-0.30079 0.58875-0.66353 0.87446-0.23091 0.34968 0.52919-0.13017 1.4542-0.36395 1.9436-0.82702 1.7317-2.2068 3.0321-3.993 3.7237-0.49055 0.18996-1.97 0.32959-2.2034 0.82483-0.25942 0.55072 0.859 1.3848 1.1462 1.7922l-3.9646 0.94147-1.662 0.33883-2.6337-1.745-0.76966-0.96419-1.1459-0.04-1.9823 0.14796 1.0329 0.58519 1.0868 1.0341 1.5245 0.15772 1.5097 1.1292v0.1321c-0.83746 0-1.8248 0.14464-2.6431-0.04-0.59363-0.13395-0.99697-0.65521-1.5858-0.80898-0.87552-0.22879-2.3897 0.61096-2.7752 1.3774l2.6431 0.48097 1.3215-0.39312 2.9074 0.30845c-0.42831 0.19987-0.85054 0.51809-1.3215 0.6033-0.64729 0.11717-1.222-0.1432-1.8482 0.20779-0.9975 0.55917-1.1886 1.9898-1.1914 3.0198h0.13215c0.21052-0.40409 0.46439-0.81809 0.92561-0.97198 0.48527-0.16195 0.9675 0.0653 1.4388-0.22919 0.4632-0.28943 0.53774-0.86552 0.95851-1.1964 1.1635-0.91465 2.7635-1.3272 4.064-0.49722 0.41972 0.26777 0.62905 0.74861 1.0767 0.98507 0.89455 0.47278 2.1359-0.28785 2.5052 0.98506h0.13215c0.26352-0.90197-0.39527-2.1666-1.3268-2.4784-0.43373-0.14518-0.8779 0.0561-1.3162-0.0499-0.50417-0.12192-0.97557-0.44306-1.4537-0.642v-0.1321c1.2252-0.10673 2.5046-0.54306 3.7003-0.84187 0.47641-0.11915 1.0917-0.39603 1.5858-0.33658 0.76187 0.0915 1.4861 1.5314 2.3103 1.0407 0.53205-0.31677 0.87235-1.1962 1.1782-1.7116 0.70214-1.1837 1.3476-2.3169 2.3268-3.3023 0.46095-0.46393 1.099-1.2358 1.8476-0.97516 1.1245 0.39141 0.83957 1.9844 0.52187 2.8244-0.7686 2.0325-2.7085 4.3239-4.881 4.9152-0.62429 0.16988-2.5277-0.42655-2.6382 0.64015-0.0568 0.54927 0.62866 0.92535 1.0523 1.0873 1.5389 0.58863 2.3501-0.14293 3.568-0.94874 0.26709-0.17675 0.69262-0.36908 0.88398 0.0223 0.22757 0.46591-0.3395 0.99008-0.62482 1.2831-0.59073 0.60673-1.2904 1.1695-2.1092 1.4259-0.49334 0.15456-1.4269 0.0662-1.7066 0.59392-0.2733 0.51585 0.39302 0.87014 0.78169 1.0061 0.96486 0.33778 1.9558 0.0164 2.7751-0.52787 0.69289-0.46023 1.1639-1.2096 1.9823-1.4392 0.0465 1.1885-0.53113 2.4643-1.5878 3.0861-0.49782 0.29286-2.0076 0.19168-1.9034 1.0095 0.11325 0.88982 1.4718 1.2042 2.1697 0.92298 1.2001-0.48375 1.4873-1.7148 2.2219-2.6187 0.2396-0.29485 0.57421-0.35324 0.79399 0 0.62152 0.99959-0.26061 2.4318-0.91372 3.1483-0.29431 0.32299-0.8216 0.70132-0.80336 1.1889 0.0214 0.57648 0.68442 1.2563 0.99181 1.7173 0.83958 1.2586 1.7551 2.4943 2.4669 3.8309h0.2643c0.71179-1.3366 1.6274-2.5722 2.4669-3.8309 0.30739-0.46102 0.9704-1.1408 0.99181-1.7173 0.0182-0.48758-0.50906-0.86591-0.80336-1.1889-0.65483-0.71848-1.5329-2.1463-0.91385-3.1483 0.21832-0.35337 0.53694-0.29181 0.77403 0 0.74918 0.92178 1.0968 2.272 2.3742 2.6656 0.68006 0.20965 1.932-0.14068 2.0376-0.96987 0.10414-0.81782-1.4056-0.71664-1.9034-1.0095-1.0567-0.62179-1.6344-1.8976-1.5878-3.0861 0.81843 0.22959 1.2894 0.97899 1.9823 1.4392 0.81936 0.54425 1.8102 0.86565 2.7751 0.52787 0.38867-0.13593 1.055-0.49022 0.78169-1.0061-0.27977-0.52773-1.2133-0.43936-1.7066-0.59392-0.81882-0.2564-1.5184-0.81914-2.1092-1.4259-0.28532-0.293-0.85239-0.81717-0.62482-1.2831 0.19136-0.39141 0.61689-0.19908 0.88398-0.0223 1.2179 0.80581 2.0291 1.5375 3.568 0.94874 0.42368-0.16196 1.1092-0.53804 1.0523-1.0873-0.11048-1.0667-2.0139-0.47027-2.6382-0.64015-2.1807-0.59352-4.1095-2.8749-4.881-4.9152-0.3177-0.84001-0.60263-2.433 0.52187-2.8244 0.74866-0.26063 1.3867 0.51123 1.8476 0.97516 0.97926 0.98546 1.6247 2.1186 2.3268 3.3023 0.3058 0.51545 0.6461 1.3948 1.1782 1.7116 0.82425 0.49075 1.5485-0.94913 2.3103-1.0407 0.49413-0.0594 1.1094 0.21743 1.5858 0.33658 1.1957 0.29881 2.4751 0.73514 3.7003 0.84187v0.1321c-0.47814 0.19894-0.94953 0.52008-1.4537 0.642-0.43835 0.10608-0.88252-0.0952-1.3162 0.0499-0.93156 0.31188-1.5904 1.5765-1.3268 2.4784h0.13215c0.36937-1.2729 1.6107-0.51228 2.5052-0.98506 0.44761-0.23646 0.65694-0.7173 1.0767-0.98507 1.3005-0.82998 2.9005-0.41743 4.064 0.49722 0.42078 0.33091 0.49532 0.907 0.95852 1.1964 0.47126 0.29445 0.95349 0.0672 1.4388 0.22919 0.46122 0.15389 0.71509 0.56789 0.92561 0.97198h0.13215c-3e-3 -1.03-0.19387-2.4606-1.1914-3.0198-0.62614-0.35099-1.2009-0.0906-1.8482-0.20779-0.471-0.0852-0.89322-0.40343-1.3215-0.6033l2.9074-0.30845 1.3215 0.39312 2.6431-0.48097c-0.38549-0.76644-1.8997-1.6062-2.7752-1.3774-0.58887 0.15377-0.99234 0.67503-1.5858 0.80898-0.81829 0.18467-1.8056 0.04-2.6431 0.04v-0.1321l1.5298-1.1292 1.5044-0.15772 1.0868-1.0341 1.0329-0.58519-1.9823-0.14796-1.1459 0.04-0.76966 0.96419-2.6538 1.745-1.6419-0.33883-3.9646-0.94147c0.28717-0.4074 1.4056-1.2416 1.1462-1.7922-0.2351-0.49894-1.7106-0.62998-2.2034-0.80951-1.7807-0.649-3.1821-2.0411-3.993-3.7391-0.23378-0.48943-0.71363-1.4144-0.36395-1.9436 0.28571-0.43249 0.68019-0.0699 0.87446 0.23091 0.74733 1.1564 1.1038 2.5067 2.4253 3.1963 0.76689 0.40013 1.8248-0.0217 1.0271-0.87912-0.57435-0.6173-1.067-1.1168-1.3654-1.9253-0.18713-0.50687-0.33356-1.7088 0.60077-1.5774 0.63223 0.089 0.80244 0.94966 0.94556 1.4452 0.42528 1.4722 1.1474 2.8091 2.4923 3.637 0.62535 0.38494 1.4451 0.6712 2.0571 0.0877 0.5573-0.53144 0.0461-1.1193-0.47192-1.4106-1.1281-0.63434-2.1254-1.2499-2.4891-2.5783-0.11049-0.4033-0.23167-0.91479 3e-3 -1.2993 0.22677-0.37225 0.58332-0.3132 0.90129-0.0939 0.62059 0.42813 1.0665 1.1207 1.5877 1.6574 0.97728 1.0063 1.912 2.0456 2.9055 3.0383 0.91464 0.91386 1.8077 1.7782 3.1717 1.8441 1.034 0.0499 2.5173-0.20198 2.9414-1.3162 0.17219-0.45231 0.0757-1.0053-0.43823-1.1464-0.88133-0.24201-1.8572 0.01-2.7674-0.23884-1.9704-0.53817-3.4484-2.1732-4.6053-3.7661-0.55292-0.76129-1.1331-1.5326-0.94515-2.5099 1.1636 0.60845 1.9621 1.903 3.0395 2.6895 1.1821 0.86287 2.8417 1.6989 4.3611 1.4975 0.88226-0.11704 2.237-1.1339 1.4673-2.163-0.45144-0.60356-1.8712 0.0982-2.5245 0.0465-2.0263-0.15998-3.6759-1.4236-5.01-2.8631-0.40769-0.44002-1.2384-1.2812-0.98361-1.9614 0.29602-0.79035 1.2774 0.0991 1.6325 0.35614 1.4171 1.0259 3.1918 2.2275 5.0219 2.2208 0.97371-4e-3 2.0948-0.69907 1.9469-1.8038-0.072-0.53751-0.4965-0.85191-1.0219-0.86261-0.75077-0.0155-1.4908 0.13857-2.2465 0.0297-1.3644-0.19656-2.5193-1.025-3.5682-1.8626-0.40042-0.31968-1.4982-0.96829-1.412-1.5868 0.0341-0.24491 0.31068-0.24108 0.49332-0.193 0.50496 0.13316 0.96631 0.51189 1.4474 0.71928 1.3666 0.58903 3.1207 1.1648 4.6254 0.92311 0.85186-0.13685 1.7064-0.54345 1.7064-1.5269 0-0.56803-0.31585-0.99933-0.91398-1.0075-0.7649-0.0104-1.4816 0.55244-2.2461 0.65666-1.3337 0.1819-2.7246-0.58771-3.8325-1.236-0.49941-0.2922-1.6519-0.84979-1.5626-1.5687 0.11709-0.94213 1.8063 0.11546 2.2234 0.27385 1.8877 0.7169 4.8261 1.1157 6.0311-0.9494 0.21964-0.37661 0.44761-0.87265 0.40188-1.3202-0.0556-0.54438-0.49518-0.83843-1.0148-0.67463-0.67187 0.21189-1.209 0.79828-1.85 1.0972-1.328 0.61928-2.8194 0.39907-4.0968-0.23937-0.49015-0.24491-1.5105-0.71228-1.5202-1.3654-0.0124-0.83883 1.9736-0.25826 2.4452-0.19551 1.5948 0.21189 3.598-0.047 4.8877-1.0707 0.62918-0.49947 1.2428-1.4577 1.0621-2.3059-0.18211-0.85587-0.98614-0.80831-1.5888-0.41809-0.50271 0.32562-0.92111 0.74795-1.4537 1.0338-1.0235 0.54927-2.0469 0.61875-3.1717 0.72575-0.70412 0.067-1.5874 0.21638-1.9914-0.55799-0.58411-1.1198 1.5372-1.1231 2.1236-1.2411 2.0427-0.41096 4.4063-1.496 5.6241-3.2433 0.59245-0.84992 1.0593-2.1302 0.26748-3.0186-0.32747-0.36737-0.80785-0.48996-1.2231-0.1856-0.5302 0.38863-0.84645 1.1227-1.2721 1.6191-0.69077 0.80541-1.5515 1.4724-2.4713 1.9983-0.77839 0.44504-2.0944 1.1905-3.0278 1.0906-0.51169-0.0548-0.77283-0.57595-1.3334-0.54359-0.49228 0.0285-1.0049 0.30806-1.4536 0.49458-1.0334 0.42946-2.039 0.91888-3.0395 1.4189-0.47602 0.23791-1.164 0.45112-1.5062 0.87674-0.39448 0.49101-0.0773 1.1288 0.01 1.6658 0.10863 0.67146 0.0575 1.4053-0.33422 1.9795-0.63315 0.92773-1.8854 1.244-2.7807 0.47833-1.1512-0.98467-0.87856-2.7749-0.13176-3.9109 1.4237-2.1656 3.6814-2.8494 6.0648-3.3786 0.91623-0.2033 1.9268-0.32641 2.3788-1.2449-1.0447 0.33963-2.0212 0.75548-2.9074-0.1321 1.4183 0.0118 2.88 0.25601 4.2289-0.38573 0.31426-0.14953 1.6953-1.3824 0.7509-1.6179-0.62958-0.15706-1.3213 0.92192-1.8081 1.1993-0.82121 0.46776-1.8652 0.40805-2.7752 0.40805 0.70227-0.97317 1.4698-1.2689 2.5109-0.66049 0.25559-1.6228-1.2678-1.2004-2.2466-1.5308-0.89112-0.30079-1.4965-0.84424-2.5109-0.81267-0.97028 0.0301-1.8683 0.4675-2.7752 0.75442-1.01 0.31968-2.1122 0.52351-3.1717 0.53223l1.5858 1.321c-0.94279 0.4066-1.9339 1.0288-2.3788 1.9815h1.5858v0.1321c-1.0403 0.15363-2.1371 0.59445-2.7752 1.4531l0.92508 0.1321-1.344 1.4519-0.77046 0.52219-0.77046-0.52219-1.344-1.4519 0.92508-0.1321c-0.63817-0.85864-1.7349-1.2995-2.7752-1.4531v-0.1321h1.5858c-0.44483-0.9527-1.436-1.5749-2.3788-1.9815l1.5858-1.321c-1.0595-9e-3 -2.1616-0.21255-3.1717-0.53223-0.94398-0.29868-1.894-0.76512-2.9074-0.76512-0.96763 0-1.5436 0.54438-2.3907 0.82707-0.97781 0.32629-2.4895-0.0906-2.2347 1.5271m4.6261-0.74663c0.35946-0.0705 0.84869-0.0441 1.1442 0.19895 0.42488 0.34953 0.0369 0.70342-0.35444 0.79893-0.37716 0.0921-0.94529 0.0983-1.2745-0.14082-0.50972-0.3704 0.1048-0.78242 0.48474-0.85706m17.841 0c0.35946-0.0705 0.8487-0.0441 1.1442 0.19895 0.42488 0.34953 0.0369 0.70342-0.35443 0.79893-0.37717 0.0921-0.9453 0.0983-1.2745-0.14082-0.50972-0.3704 0.1048-0.78242 0.48474-0.85706z"
     fill="#030101"
     id="path4" />
</svg>
