<?xml version="1.0" encoding="UTF-8" standalone="no"?>
<svg
   xmlns:dc="http://purl.org/dc/elements/1.1/"
   xmlns:cc="http://creativecommons.org/ns#"
   xmlns:rdf="http://www.w3.org/1999/02/22-rdf-syntax-ns#"
   xmlns:svg="http://www.w3.org/2000/svg"
   xmlns="http://www.w3.org/2000/svg"
   xmlns:sodipodi="http://sodipodi.sourceforge.net/DTD/sodipodi-0.dtd"
   xmlns:inkscape="http://www.inkscape.org/namespaces/inkscape"
   width="113.953mm"
   height="140.424mm"
   viewBox="0 0 113.953 140.424"
   version="1.1"
   id="svg8"
   inkscape:version="1.0.2-2 (e86c870879, 2021-01-15)"
   sodipodi:docname="Favicon.svg">
  <defs
     id="defs2">
    <pattern
       id="EMFhbasepattern"
       patternUnits="userSpaceOnUse"
       width="6"
       height="6"
       x="0"
       y="0" />
  </defs>
  <sodipodi:namedview
     id="base"
     pagecolor="#ffffff"
     bordercolor="#666666"
     borderopacity="1.0"
     inkscape:pageopacity="0.0"
     inkscape:pageshadow="2"
     inkscape:zoom="2.8"
     inkscape:cx="92.839852"
     inkscape:cy="158.49908"
     inkscape:document-units="mm"
     inkscape:current-layer="g25"
     inkscape:document-rotation="0"
     showgrid="false"
     inkscape:pagecheckerboard="false"
     inkscape:window-width="1366"
     inkscape:window-height="696"
     inkscape:window-x="0"
     inkscape:window-y="0"
     inkscape:window-maximized="0" />
  <metadata
     id="metadata5">
    <rdf:RDF>
      <cc:Work
         rdf:about="">
        <dc:format>image/svg+xml</dc:format>
        <dc:type
           rdf:resource="http://purl.org/dc/dcmitype/StillImage" />
        <dc:title />
      </cc:Work>
    </rdf:RDF>
  </metadata>
  <g
     inkscape:label="Warstwa 1"
     inkscape:groupmode="layer"
     id="layer1">
    <g
       id="g25"
       transform="translate(-57.36351,-54.026721)">
      <path
         style="fill:#00a1e7;stroke-width:0.999999"
         d="m 96.631269,110.94404 c 0.323684,0 2.383499,-0.0441 2.383499,-1.98625 -10.549059,-11.830268 -3.510883,-20.835804 -3.662424,-22.242288 1.927439,-2.504671 7.759826,-5.050307 11.604246,-5.502111 0.35988,-0.04356 0.64553,-0.05644 0.84267,-0.01138 5.60291,0.492614 8.6945,3.523538 8.6945,3.523538 v 1.19175 c -5.53202,3.098274 0.24324,5.393549 4.1569,8.620714 2.32189,1.914604 2.971,5.542787 2.99359,6.077527 0.11696,0.12589 0.27578,0.33913 0.40614,0.45108 0.64403,3.85563 -5.4404,10.58996 -5.4404,10.58996 -0.51052,-3.39364 -3.7886,-2.15532 -1.34731,-3.1592 1.42094,-10.192218 -3.08416,-8.05175 -3.17121,5.45396 0,0 -2.11795,1.16036 -6.73446,1.36245 -5.20472,-0.41317 -9.086359,-1.79892 -10.725741,-4.36975 z m 8.822171,-24.232238 c 0,-0.164007 -0.19725,-0.313942 -0.15109,-0.426902 0.33066,-0.809238 0.22549,-0.788858 0.46566,-1.162097 0.21497,-0.334076 0.46564,-0.506412 0.39725,-0.794499 -0.0522,-0.220022 -0.23377,-0.449317 -0.47931,-0.624179 -0.16397,-0.116768 -0.26486,-0.26162 -0.71244,-0.170321 -1.22793,0.250478 -0.79014,0.06486 -1.3571,0.664571 -0.72649,0.481048 -1.04055,0.606659 -1.42364,1.321678 0,0.264833 0.26483,0.39725 0.7945,0.39725 0.51557,0.04656 1.01599,0.574891 1.08568,1.215176 0.045,0.413287 0.11587,0.615317 0.24345,0.841943 0.11168,0.187791 0.21421,0.39725 0.43269,0.39725 0.20475,0 -0.0388,-0.611025 0.2554,-1.014001 0.18895,-0.258825 0.44895,-0.228979 0.44895,-0.645869 z"
         id="path31"
         sodipodi:nodetypes="cccccccscccccccssssssscccscss" />
      <path
         style="fill:#21b04b;stroke-width:0.999999"
         d="m 112.98898,112.93029 c 0.13729,-3.5267 0.51306,-1.78945 0.20411,-1.78945 -0.33104,0 -0.0966,-1.96625 -0.0966,-4.61458 -0.55051,-1.68844 -1.73849,0.86863 -3.75326,-1.54097 v -2.3835 c 0,-1.94211 0.0736,-2.3835 0.39725,-2.3835 0.21849,0 0.39725,-0.17876 0.39725,-0.397246 0,-0.333493 3.57525,-1.032014 3.57525,-1.032014 l 1.52698,0.05976 2.04827,0.575005 v 0.794495 c 0,0.70623 0.0883,0.7945 0.7945,0.7945 0.52966,0 0.7945,0.13242 0.7945,0.39725 0,0.21849 0.17876,0.39725 0.39725,0.39725 0.29317,0 0.39725,0.30657 0.39725,1.17009 0,1.57779 0.20463,2.00791 0.95525,2.00791 0.52761,0 0.63375,0.13306 0.63375,0.7945 0,0.52967 -0.13242,0.7945 -0.39725,0.7945 -0.26484,0 -0.39725,0.26483 -0.39725,0.7945 0,0.52967 -0.13242,0.7945 -0.39725,0.7945 -0.47443,0.16545 -0.39719,0.63112 -0.7945,0.7945 -0.29426,0 -0.39725,0.30897 -0.39725,1.19175 v 1.19175 c 0,0 -0.36984,1.37566 -5.75464,3.01096 z m -16.357711,-1.98625 c -3.664036,-4.24719 -5.5271,-7.70317 -5.561497,-12.711995 0.293371,-6.736717 4.282572,-11.516543 4.282572,-11.516543 1.26547,-0.351543 2.877617,-0.704427 3.08508,0.159689 0,0.294259 0.09182,0.631111 0.974594,0.631111 h 1.191752 v 1.191749 c 0.22264,1.066723 -0.56233,1.024408 -0.794503,1.588999 -0.165455,0.474427 -0.631123,0.397199 -0.794499,0.7945 0,0.218487 -0.178763,0.397249 -0.39725,0.397249 -0.3178,0 -0.39725,0.39725 -0.39725,1.986249 0,1.588999 -0.07945,1.986249 -0.397249,1.986249 -0.294259,0 -0.39725,0.308973 -0.39725,1.191749 v 1.19175 h -1.19175 -1.191749 v 1.588999 c 0,1.235885 0.08828,1.588995 0.39725,1.588995 0.294259,0 0.39725,0.30898 0.39725,1.19175 0,0.88278 0.102991,1.19175 0.397249,1.19175 0.264834,0 0.39725,0.26484 0.39725,0.7945 0,0.52967 0.132417,0.7945 0.39725,0.7945 0.218487,0 0.39725,0.17876 0.39725,0.39725 0,0.21849 0.178762,0.39725 0.39725,0.39725 0.218487,0 0.397249,0.17876 0.397249,0.39725 0,0.21849 0.178763,0.39725 0.39725,0.39725 0.323684,0 0.39725,0.44139 0.39725,2.3835 v 2.3835 h -1.191749 c -0.882777,0 -1.19175,-0.10299 -1.19175,-0.39725 z m 27.012981,-10.3285 c 0,-0.29425 -0.30897,-0.39725 -1.19175,-0.39725 -0.88277,0 -1.19174,-0.10299 -1.19174,-0.397246 -0.32085,-0.551214 -0.78831,-0.555192 -0.7945,-1.191749 0,-0.706223 -0.0883,-0.794499 -0.7945,-0.794499 -0.52967,0 -0.7945,-0.132417 -0.7945,-0.39725 0,-0.264833 0.26483,-0.39725 0.7945,-0.39725 0.70622,0 0.7945,-0.08828 0.7945,-0.7945 0,-0.529666 -0.13242,-0.794499 -0.39725,-0.794499 -0.21849,0 -0.39725,-0.178762 -0.39725,-0.39725 0,-0.218487 -0.17877,-0.39725 -0.39725,-0.39725 -0.26484,0 -0.39725,0.264834 -0.39725,0.7945 0,0.765074 -0.0441,0.794499 -1.19175,0.794499 -0.88278,0 -1.19175,-0.102991 -1.19175,-0.397249 0,-0.264833 -0.26484,-0.39725 -0.7945,-0.39725 -0.52967,0 -0.7945,-0.132417 -0.7945,-0.39725 0,-0.218487 -0.17876,-0.39725 -0.39725,-0.39725 -1.71022,1.120195 1.46817,1.551864 -1.19175,1.588999 -1.23589,0 -1.589,-0.08828 -1.589,-0.397249 0,-0.218488 -0.17876,-0.39725 -0.39725,-0.39725 -0.47443,-0.165455 -0.3972,-0.631124 -0.7945,-0.7945 -0.30897,0 -0.39725,0.35311 -0.39725,1.588999 0.0459,1.910665 0.23128,1.589 -1.589,1.589 -1.66006,-0.0086 -1.589,0.406232 -1.589,-1.19175 0,-0.882776 0.10299,-1.191749 0.39725,-1.191749 0.32369,0 0.39725,-0.44139 0.39725,-2.383499 0,-1.942109 -0.0736,-2.383498 -0.39725,-2.383498 -0.21848,0 -0.39725,-0.178763 -0.39725,-0.39725 0,-0.294259 0.30898,-0.39725 1.19175,-0.39725 0.88278,0 1.19175,0.102991 1.19175,0.39725 0,0.308973 0.35311,0.39725 1.589,0.39725 1.23589,0 1.589,-0.08828 1.589,-0.39725 0,-0.264833 0.26483,-0.39725 0.7945,-0.39725 h 0.7945 v -1.588999 c -0.29235,-0.951147 -0.26446,-0.920825 -0.7945,-1.588999 -0.70622,0 -0.7945,0.08828 -0.7945,0.7945 0,0.706222 -0.0883,0.794499 -0.7945,0.794499 -0.76507,0 -0.7945,-0.04414 -0.7945,-1.191749 -0.20335,-1.995328 0.5356,-2.327644 2.27962,-2.327644 3.37798,0.88432 2.49868,2.040482 3.28688,0.01216 0,0 7.28489,5.816719 8.02075,12.978461 0.0167,2.080385 -0.41621,3.688791 -0.41621,3.688791 -0.0857,0.20095 -0.45895,-0.62679 -0.45895,-0.84528 z M 106.95976,87.109052 c -0.0915,-1.274405 -0.004,-1.191749 1.19175,-1.191749 1.95205,0.07803 0.85737,0.07791 1.589,0.794499 0.26484,0 0.39725,0.264833 0.39725,0.7945 0.16862,1.163847 -0.63634,0.794499 -1.589,0.794499 -1.66006,-0.0086 -1.589,0.406232 -1.589,-1.191749 z"
         id="path29"
         sodipodi:nodetypes="csccssscccsssssssssccscccccccsccccsssscccssssssssssscsccsccssssssssssssccscccccssssssssscccssccccsscccsccc" />
      <path
         style="fill:#3c2417;stroke-width:0.999999"
         d="m 159.84325,194.32747 c -0.56955,-0.56954 -0.0786,-1.43036 1.65579,-2.90297 l 1.83747,-1.56018 0.0164,-29.72752 0.0164,-29.72752 c -13.5326,-6.46619 -13.86982,-6.28243 -26.81307,-10.02592 -0.85661,-0.26221 -0.85846,-0.29292 -1.59281,0.11809 -13.58167,9.46263 -33.29101,18.96213 -49.455075,19.44183 -6.800935,-0.80596 -21.114293,-5.34539 -23.20753,-6.61596 -3.508636,-1.55063 -3.762516,-1.47313 -4.202704,-2.91803 L 57.700871,97.834796 57.36351,65.293724 c 0,0 0.489348,-0.824631 2.32361,-0.827909 1.328504,-0.04727 1.986169,0.798997 1.986169,0.798997 8.565819,3.717344 13.651265,8.584005 23.437817,8.734998 6.265799,1.468377 44.524314,-20.411111 50.450724,-19.862489 8.0068,-0.848499 13.37704,3.292426 21.84874,8.739495 0,0 1.09063,-4.62229 7.15049,-4.766997 5.6146,0.107491 6.75325,6.753246 6.75325,6.753246 0.1,4.35493 -3.57487,5.958746 -3.57525,5.958746 0,0 -0.39651,6.772442 -0.39078,59.388839 l 0.006,59.38884 1.99317,1.69881 c 1.64939,1.4058 1.97943,1.81689 1.91357,2.38349 l -0.0796,0.6847 -5.57844,0.0713 c -3.06815,0.0392 -5.6602,-0.0104 -5.76012,-0.11035 z m -22.91287,-77.0323 c 14.43363,4.51069 13.97039,4.05634 24.55835,8.73742 -0.61673,-20.49143 -1.63572,-56.799808 -1.63572,-56.799808 -5.73054,-6.067196 -17.68583,-11.990414 -24.29129,-11.917493 -5.58632,0.24497 -41.505394,18.577644 -49.656225,19.862489 -5.510918,0.0099 -21.648832,-4.944486 -24.232236,-7.150496 v 29.396483 c 0,25.953655 0.04653,29.396485 0.397249,29.396485 0.218488,0 0.39725,0.17876 0.39725,0.39725 6.464502,2.53584 16.231076,7.43556 22.643238,7.54774 20.841484,-0.60626 33.208724,-9.833 49.464144,-19.26763 1.03371,-0.60698 1.02529,-0.57294 2.35524,-0.20244 z"
         id="path27"
         sodipodi:nodetypes="csccccccccccccccccccccsscsccccccccsscccc" />
    </g>
  </g>
</svg>
