<?xml version="1.0" encoding="UTF-8"?>
<svg style="height:512px;width:512px" version="1.1" viewBox="0 0 512 512" xmlns="http://www.w3.org/2000/svg">
 <circle cx="256" cy="256" r="235" fill="#fff" stroke-linejoin="round" stroke-width="1.0016"/>
 <g class="" transform="translate(0)">
  <path d="m256 21c-129.57 0-235 105.43-235 235s105.43 235 235 235 235-105.43 235-235-105.43-235-235-235zm0 36c110.12 0 199 88.882 199 199s-88.882 199-199 199-199-88.882-199-199 88.882-199 199-199zm-7.352 36.744c-8.227 0-15.317 2.976-21.27 8.928-5.776 5.952-8.665 12.955-8.665 21.008 0 8.227 2.89 15.23 8.666 21.006 5.95 5.776 13.04 8.666 21.268 8.666s15.23-2.89 21.006-8.666c5.777-5.777 8.666-12.78 8.666-21.006 0-8.053-2.976-15.056-8.927-21.008-5.777-5.952-12.692-8.928-20.745-8.928zm-62.757 82.453v28.096h46.215v186.13h-46.216v27.833h140.22v-27.834h-45.69v-214.22h-94.53z"/>
 </g>
</svg>
