<?xml version="1.0" encoding="UTF-8"?>
<svg width="3175mm" height="1666.9mm" version="1.1" viewBox="0 0 3175 1666.9" xmlns="http://www.w3.org/2000/svg">
 <defs>
  <linearGradient id="a" x1="662.84" x2="616.54" y1="280.15" y2="130.93" gradientUnits="userSpaceOnUse">
   <stop stop-color="#00acff" offset="0"/>
   <stop stop-color="#00acff" stop-opacity="0" offset="1"/>
  </linearGradient>
 </defs>
 <g transform="matrix(1.8405 0 0 1.8229 432.42 339.55)">
  <rect x="-234.95" y="-186.27" width="1725.1" height="457.2" fill="#0093ff" stroke-width=".40243"/>
  <rect x="-234.95" y="-186.27" width="1725.1" height="457.2" fill="url(#a)" stroke-width=".54595"/>
  <rect x="-234.95" y="270.93" width="1725.1" height="457.2" fill="#00b100" stroke-width=".54595" style="mix-blend-mode:normal"/>
 </g>
 <path d="m1757.3 1324.1c-4.8911-0.731-4.0861-6.5707 2.716-19.694l7.2061-13.904-149.82-284.67c-43.386 4.2018-122.86 22.103-151.42 30.836-35.326 8.5978-50.481 30.55-59.3 42.078-64.846 91.52-80.191 161.45-177 220.37-43.275 19.965-141.53 48.374-157.43 49.628-25.189 4.8687-26.533 6.1288-32.848 0.7554l-84.6-154.51-84.154-154.56s0.88685-5.6608 12.002-12.102c7.9368-4.8798 14.061-3.1332 14.061-3.1332 61.324-12.213 104.44-6.7334 164.17-40.292 275.58-317.08 393.5-151.91 393.5-151.91s90.396 1.7392 102.99 1.608c24.572 43.615 51.548 96.19 83.663 156.35l149.89 284.22c11.259 22.801 40.968 38.931 1.5885 29.291-20.808-5.5508-34.35 19.777-35.208 19.648z" fill-opacity=".12048" stroke-width="4.021"/>
 <path d="m1753.5 1321.5c-4.2148-4.1747-0.5816-10.485 12.254-21.279l13.598-11.436 0.2428-435.8c-100.15-47.397-82.001-50.431-177.79-77.872-6.3395-1.922-65.338 19.761-70.772 22.774-110.84 59.137-202.13 99.556-327.65 124.98-50.33-5.9076-156.26-39.182-171.75-48.495-25.966-11.366-27.844-10.798-31.102-21.389l-2.9399-238.77-2.4966-238.52s3.6215-6.0444 17.196-6.0684c9.8317-0.3467 14.699 5.8566 14.699 5.8566 63.392 27.248 101.02 62.92 173.45 64.026 46.37 10.763 329.5-149.61 373.36-145.59 59.255-6.2195 98.997 24.133 161.69 64.06 0 0 8.071-33.881 52.918-34.942 41.551 0.78791 49.977 49.501 49.977 49.501 0.74 31.921-26.456 43.677-26.458 43.677 0 0-2.9343 49.641-2.8919 435.32l0.044 435.32 14.751 12.452c12.206 10.304 14.648 13.318 14.162 17.471l-0.589 5.0189-41.283 0.5224c-22.706 0.2875-41.888-0.076-42.628-0.8088z" fill="#fff"/>
 <g transform="matrix(1.8405 0 0 1.8229 1364.8 554.62)" stroke-width=".54595">
  <g transform="translate(-57.364,-54.027)" stroke-width=".13578">
   <g transform="matrix(4.021,0,0,4.021,-950.04,-460.07)" stroke-width=".10008">
    <path d="m257.51 153.06a16.854 16.854 0 0 1-16.854-16.854 16.854 16.854 0 0 1 16.854-16.853 16.854 16.854 0 0 1 16.854 16.853 16.854 16.854 0 0 1-16.854 16.854z" fill="#00a1e7"/>
    <path d="m263.41 121.58 3.6e-4 3.6e-4c-1.744 0-2.483 0.3322-2.2796 2.3275 0 1.1476 0.0294 1.1918 0.79452 1.1918 0.7062 0 0.79452-0.0883 0.79452-0.79452 0-0.70621 0.0883-0.7945 0.79451-0.7945 0.53004 0.66816 0.502 0.63788 0.79435 1.589l-0.011 0.88277-0.78332 0.35304c-0.48289 0.21763-0.79451 0.13251-0.79451 0.39734 0 0.25265-0.23615 0.5342-0.99804 0.56409-0.16981 7e-3 -0.36575 0.18611-0.591 0.18611-0.19172-0.0128-0.54942 2e-3 -0.80415-0.0919-0.0604-0.0222-0.0487-0.33403-0.10365-0.32854-0.0934 9e-3 -0.0726 0.33359-0.15614 0.37551-0.29324 0.14707-0.63629 0.12725-0.81553 8e-5 -0.7148-0.50711-0.82977-0.64982-0.83393-0.18055-2e-3 0.25869-0.10533 0.56496 0.24141 1.0423 0 0.26737 8e-3 2.2302-0.0267 2.4406-0.0662 0.3973 0.15637 1.0412 5e-3 1.2766-0.24881 0.38612-0.90781 0.23291-1.0812 0.23291-0.29426 0-0.59285 0.33084-0.39734 1.1917 0.0936 0.41219 0.25663 1.1051 1.589 1.1917 0.91533 0.0312 1.5725-0.81734 1.589-1.589 0-1.2359 0.0882-1.5888 0.39718-1.5888 0.3973 0.16337 0.80376 0.0518 1.2782 0.21722 0.21849 0 0.64699 0.49073 0.64699 0.70922 0 0.16619 0.46091 0.46745 0.6392 0.8728 0.0924 0.21015 0.17372 0.0203 0.39899 0.41016 0.14528 0.25142-0.21101 0.58082 0.0155 0.58082 0.40983-0.02 0.16351-0.36236 0.24149-0.78834 6e-3 -0.0342 0.11676-0.21135 0.19814-0.0579 0.23285 0.43912 0.67158 0.76984 0.67967 0.72451 0.0122-0.0686 0.0228-0.33527-0.0284-0.44187-0.27862-0.57945-1.1735-1.5216-0.0971-2.2266 0.12227 0 0.10524 0.80688 0.3257 1.2381 0.0393 0.0769 0.76983 0.11549 0.77345 0.17752 3e-3 0.0493-0.72601-0.0416-0.79654-0.0229-0.2325 0.0617 0.22696 0.21614 0.22696 0.27323 0 0.17595 0.15147 0.1443 0.60102 0.28837 0.16063 0.0515 0.48824-0.74865 0.0928-1.0984-0.0505-0.0446 0.16998-0.12355 0.34633-0.0575 0.18303 0.0685 0.32367 0.28301 0.35017 0.28301 0.1644 0 0.328-1.0376 0.80951-1.4763 0.10443-0.071 0.44123-0.10883 0.49352-8e-3 8e-3 0.0157 0.029 0.0942-0.0101 0.12737-0.0723 0.0612-0.14514 0.0577-0.11618 0.12649 0.0213 0.0506 0.0857 0.0268 0.13707 0.0653 0.10105 0.0757 0.0789 0.18733 0.17475 0.19131 0.10303-0.087 0.0748-0.15933 0.15197-0.18812 0.0781-0.0291 0.21107-7.1e-4 0.30679 4.4e-4 0.0493-0.0652-0.11435-0.10688-0.21465-0.18328-0.10415-0.0793-0.14522-0.19141-0.0947-0.14438 0.26066-7e-3 0.58616 0.0583 0.67898 0.17844 0.0301 0.0389-0.19473 0.0976-0.15211 0.1431 0.0479 0.0512 0.25089 0.0674 0.29659 0.12506 0.17876 0.22556 0.62456 0.48718 0.69743 0.70317 0.048 0.14233-0.26008 0.27367-0.22451 0.33051 0.0115 0.0184-0.28029 0.16847-0.63435 0.0383-0.42237-0.15523-1.0582-0.19457-1.5584-0.0651-0.37783 0.0978-0.67531 0.12289-0.67531 0.14631-0.0214 0.22083 6e-3 0.67848 0.32063 0.93793-0.52967 0 2.0629 0.38626 2.0629 0.65109-0.0786 1.1135-0.22204 1.034-0.19824 1.6716 3e-3 0.33721-0.38258 0.48579-0.21082 0.64333 0.0663 0.0608 0.24159 0.28958 0.38683 0.55197 0.18733 0.33845 0.21309 0.44007 0.4694 0.47629 0.0232-0.0351 0.15411 5e-3 0.15015-0.12514-0.0123-0.4024 0.38676-1.2485 0.22306-0.39286-0.0303 0.15818 0.70786 3.0547 1.3262 4.0167 0.11287 0.17563 1.6242-0.35453 2.6375-0.774 0.12958-0.51632 0.23462-1.0385 0.31478-1.5647-0.15121-0.0933-0.31972-0.16034-0.49837-0.17928-0.56572-0.06-1.058-1.9259-1.1348-2.1063 0.0505 0.0212 0.26334 0.0323 0.52146 0.20582 0.3793 0.25507 0.88315 0.65458 1.2426 0.97069 0.0121-0.14993 0.0239-0.30226 0.0315-0.43079v-1e-3l3.6e-4 -6e-3 3.5e-4 -5e-3 8.8e-4 -0.0159c2.7e-4 -9e-3 0.0274-0.94854 0.0279-0.96172v-0.02c-1.8e-4 -0.16675-3e-3 -0.33318-8e-3 -0.49921l-1e-3 -0.0334v-3.6e-4c-6e-3 -0.17306-0.014-0.34566-0.0248-0.51783v-1e-3l-1e-3 -0.021c-0.0108-0.1673-0.0241-0.33406-0.0398-0.50042l-1.7e-4 -2e-3 -3.5e-4 -4e-3 -3e-3 -0.0319c-6e-5 -6.2e-4 -8e-5 -1e-3 -1.8e-4 -2e-3 -8e-5 -8.9e-4 -2.6e-4 -2e-3 -3.5e-4 -3e-3 -0.0159-0.16426-0.0343-0.32805-0.055-0.49129v-3.5e-4l-4e-3 -0.0319c-9e-5 -7.1e-4 -2.7e-4 -1e-3 -3.6e-4 -2e-3 -0.021-0.16315-0.0446-0.32582-0.0703-0.48785-1e-3 -8e-3 -3e-3 -0.017-4e-3 -0.0255l-4e-3 -0.0233c-5e-5 -3.5e-4 -8e-5 -7e-4 -1.7e-4 -1e-3 -5e-5 -2.6e-4 -9e-5 -5.3e-4 -1.8e-4 -8.8e-4 -0.0257-0.15897-0.0536-0.31727-0.0838-0.47508l-8.8e-4 -5e-3c-3e-3 -0.0133-5e-3 -0.0267-8e-3 -0.04-2.7e-4 -1e-3 -4.4e-4 -2e-3 -7.1e-4 -4e-3 -3.5e-4 -2e-3 -7e-4 -3e-3 -1e-3 -5e-3 -0.0296-0.15173-0.0612-0.30298-0.0948-0.45354l-5.3e-4 -2e-3c-4e-3 -0.0195-9e-3 -0.039-0.0131-0.0584-0.0346-0.15226-0.0714-0.30394-0.11016-0.45491-5.2e-4 -2e-3 -1e-3 -4e-3 -2e-3 -6e-3l-4e-3 -0.0165c-3e-3 -0.012-6e-3 -0.0239-9e-3 -0.0359-2.7e-4 -9.2e-4 -4.5e-4 -2e-3 -7.1e-4 -3e-3 -3.5e-4 -1e-3 -8.8e-4 -3e-3 -1e-3 -4e-3 -0.0382-0.14625-0.0781-0.29187-0.12015-0.43682l-1e-3 -5e-3 -2e-3 -5e-3c-5e-3 -0.0164-0.01-0.0328-0.0145-0.0491-0.0451-0.15336-0.0923-0.30604-0.1417-0.45785-2e-3 -7e-3 -4e-3 -0.0132-7e-3 -0.0198l-6e-3 -0.0172-5.3e-4 -2e-3c-7e-5 -2.6e-4 -2.6e-4 -4.4e-4 -3.5e-4 -7e-4 -0.0506-0.15424-0.10331-0.30757-0.15825-0.46009-4e-3 -0.0108-8e-3 -0.0215-0.0115-0.0322l-1.8e-4 -5.3e-4c-1.7e-4 -4.5e-4 -3.5e-4 -9.2e-4 -5.2e-4 -1e-3 -0.0566-0.15601-0.11543-0.31097-0.17653-0.46509l-5e-3 -0.0124-3e-3 -7e-3c-6.2e-4 -2e-3 -1e-3 -3e-3 -2e-3 -5e-3 -0.0617-0.15488-0.12551-0.30894-0.19169-0.46181l-8.9e-4 -2e-3 -2e-3 -5e-3 -5e-3 -0.0109c-7.1e-4 -2e-3 -1e-3 -3e-3 -2e-3 -5e-3 -0.0658-0.15134-0.13376-0.30169-0.20393-0.45096l-2e-3 -4e-3 -0.01-0.021c-5.2e-4 -1e-3 -1e-3 -2e-3 -2e-3 -3e-3 -0.071-0.15041-0.14436-0.29965-0.21979-0.44785l-8e-3 -0.0157c-0.0771-0.15104-0.15647-0.30094-0.23806-0.44957l-1e-3 -2e-3 -2e-3 -3e-3c-8e-4 -1e-3 -2e-3 -3e-3 -2e-3 -4e-3 -3.6e-4 -6.2e-4 -7.1e-4 -1e-3 -1e-3 -2e-3 -0.082-0.14913-0.16622-0.29694-0.25271-0.44354l-3.5e-4 -5.3e-4 -3e-3 -5e-3c-7.9e-4 -1e-3 -2e-3 -3e-3 -2e-3 -4e-3 -9e-5 -1.8e-4 -2.6e-4 -3.6e-4 -3.5e-4 -5.3e-4 -0.0864-0.14618-0.17503-0.29103-0.26582-0.43458l-9e-3 -0.015c-0.0903-0.14251-0.18292-0.28374-0.27754-0.42355l-0.01-0.0141c-0.0947-0.13964-0.19152-0.27791-0.29047-0.41475l-0.0114-0.0157c-9.8e-4 -1e-3 -2e-3 -3e-3 -3e-3 -4e-3 -0.0964-0.13297-0.19491-0.26454-0.29529-0.39475l-1e-3 -1e-3 -0.011-0.0143-9e-3 -0.0114c-5.3e-4 -7.1e-4 -1e-3 -1e-3 -2e-3 -2e-3 -0.10268-0.1326-0.20736-0.26375-0.31408-0.39338l-1.8e-4 -1.7e-4 -2e-3 -3e-3c-1e-3 -1e-3 -2e-3 -3e-3 -3e-3 -4e-3 -9.6e-4 -1e-3 -2e-3 -2e-3 -3e-3 -4e-3 -0.10423-0.12641-0.21036-0.2513-0.31839-0.37476l-6e-3 -7e-3c-8e-3 -9e-3 -0.016-0.0182-0.024-0.0272l-4e-3 -4e-3c-0.10361-0.11771-0.20894-0.23414-0.31598-0.34908l-4e-3 -5e-3c-0.0105-0.0113-0.0211-0.0225-0.0317-0.0338-0.1083-0.11559-0.21838-0.22984-0.33011-0.34252l-1e-3 -1e-3c-0.0125-0.0126-0.0249-0.0252-0.0374-0.0378-1e-3 -1e-3 -2e-3 -2e-3 -3e-3 -4e-3 -0.10887-0.10903-0.21943-0.2165-0.33149-0.3227l-2e-3 -2e-3c-0.0146-0.0139-0.0293-0.0277-0.044-0.0415l-3e-3 -3e-3h-3.5e-4c-0.1174-0.11037-0.23654-0.21912-0.35735-0.32632l-0.0183-0.0164c-1e-3 -9.2e-4 -2e-3 -2e-3 -3e-3 -3e-3h-3.6e-4c-0.12416-0.11012-0.25017-0.21822-0.37786-0.32458l-8.9e-4 -8.8e-4c-3e-3 -2e-3 -5e-3 -5e-3 -8e-3 -7e-3l-2e-3 -2e-3 -0.0203-0.0169c-1e-3 -1e-3 -3e-3 -2e-3 -4e-3 -4e-3 -0.12513-0.10363-0.25183-0.20556-0.38028-0.30581-0.0106-8e-3 -0.0211-0.0165-0.0317-0.0247-0.13483-0.1047-0.27135-0.20767-0.40976-0.30856l-7.1e-4 -5.3e-4 -1.7e-4 -1.8e-4 -1.8e-4 -1.7e-4 -3.5e-4 -3.6e-4 -5e-3 -3e-3c-5.3e-4 -3.5e-4 -1e-3 -7e-4 -2e-3 -1e-3 -0.14093-0.10261-0.28362-0.20328-0.4282-0.30184l-8.8e-4 -5.3e-4 -2e-3 -1e-3 -5e-3 -3e-3c-2.7e-4 -1.7e-4 -6.2e-4 -3.5e-4 -8.9e-4 -5.3e-4 -0.14315-0.0975-0.28808-0.19294-0.43475-0.28632l-0.0117-7e-3c-0.5363 1.4713-8e-3 0.42149-3.1417-0.3989zm10.895 16.05c-9.4e-4 0.0118-2e-3 0.0221-3e-3 0.0338l3e-3 -0.0334c-1.8e-4 -8e-5 -1.8e-4 -2.6e-4 -3.6e-4 -3.5e-4zm-16.012-13.056c3.5e-4 0.0714-0.34643 0.0267-0.40183 0.16971-0.0773 0.0396 0.26163 0.18687 0.1959 0.27504 0 0-0.22931 0.13954-0.14923 0.20016 0.19844 0.15022 0.5925 0.17834 0.44604 0.22138-1.5556 0.45712-0.19982 0.41106 0.36301 0.54207 0.40657-0.40565 0.79031 0.43174 0.62169-0.7321 0-0.52966-0.0519-0.98365-0.24115-1.169-0.0575-0.0563 0.12369-0.12809 0.0551-0.17226-0.0775-0.0499-0.18427-0.0394-0.24553-0.0743-0.12105-0.069 0.0178-0.0445 0.15988-0.20444 0.15123-0.1702-0.0104-0.35464-0.7004-0.39032-0.49914 0.51615-0.12568 1.0794-0.10352 1.334zm-11.848-1.0808c-1e-3 9.7e-4 -2e-3 2e-3 -3e-3 3e-3 -0.0983 0.0856-0.19546 0.17229-0.29151 0.25996-1e-3 9.3e-4 -2e-3 2e-3 -3e-3 3e-3 -1e-3 9.6e-4 -2e-3 2e-3 -3e-3 3e-3 -0.0965 0.0881-0.19177 0.17718-0.28598 0.26736-1e-3 1e-3 -3e-3 2e-3 -4e-3 4e-3 -0.0935 0.0896-0.18595 0.18016-0.27719 0.27168l-0.0107 0.0107-1.8e-4 1.7e-4c-0.0914 0.0918-0.18156 0.18466-0.27064 0.2784-0.0911 0.0958-0.18096 0.19267-0.26961 0.29046l-1e-3 1e-3c-0.0859 0.0948-0.17063 0.19058-0.25427 0.28719l-3e-3 4e-3 -4e-3 5e-3c-1e-3 2e-3 -3e-3 3e-3 -4e-3 5e-3l-6e-3 6e-3c-0.0817 0.0946-0.16224 0.1902-0.24168 0.2865l-8.9e-4 8.9e-4c-1.7e-4 1.7e-4 -1.7e-4 3.5e-4 -3.5e-4 5.2e-4 -9.9e-4 1e-3 -2e-3 2e-3 -3e-3 4e-3 -0.0796 0.0966-0.15809 0.19409-0.23548 0.29236-7e-3 9e-3 -0.014 0.0178-0.021 0.0267-0.0755 0.0963-0.14991 0.19336-0.22323 0.29116l-3.6e-4 3.5e-4 -0.0128 0.0171c-0.0717 0.0959-0.14229 0.19247-0.21186 0.28977l-5e-3 7e-3 -0.0183 0.0259c-0.0728 0.10234-0.14452 0.20539-0.21496 0.30926-0.0725 0.10683-0.14365 0.21446-0.21358 0.32287l-8.9e-4 1e-3 -2e-3 3e-3c-1e-3 2e-3 -2e-3 3e-3 -3e-3 5e-3l-3e-3 4e-3c-0.0674 0.10467-0.13356 0.21005-0.19858 0.31615-7e-5 9e-5 -9e-5 2.6e-4 -1.8e-4 3.5e-4 -2.7e-4 4.4e-4 -6.2e-4 9.2e-4 -8.8e-4 1e-3 -3e-3 4e-3 -5e-3 8e-3 -8e-3 0.0126-6.2e-4 1e-3 -1e-3 2e-3 -2e-3 3e-3 -0.0665 0.10883-0.13182 0.21847-0.19583 0.32874-0.0658 0.11327-0.13016 0.22725-0.19324 0.342-0.0617 0.1123-0.1222 0.22524-0.18135 0.33891-3e-3 5e-3 -5e-3 0.0105-8e-3 0.0157-0.0589 0.11348-0.11659 0.22772-0.1729 0.34252-0.0559 0.1139-0.1103 0.22841-0.1636 0.34356l-1.7e-4 1.8e-4 -0.01 0.0205-1.8e-4 3.5e-4c-0.0506 0.10976-0.10016 0.22011-0.14842 0.33097-1e-3 3e-3 -2e-3 5e-3 -3e-3 7e-3 -7.1e-4 2e-3 -1e-3 3e-3 -2e-3 5e-3 -1e-3 3e-3 -3e-3 6e-3 -4e-3 0.01-0.0494 0.1138-0.0973 0.22813-0.14412 0.34304l-2e-3 4e-3 -7e-3 0.0179-4e-3 9e-3v1.8e-4c-0.0456 0.11261-0.0902 0.22578-0.13342 0.33942l-9e-3 0.0228c-0.0445 0.11751-0.0877 0.23552-0.12964 0.35407l-3e-3 9e-3c-0.043 0.12207-0.0847 0.24474-0.12497 0.36787-0.038 0.1161-0.0745 0.23275-0.10999 0.34976l-7e-4 2e-3c-3.6e-4 9.7e-4 -5.3e-4 2e-3 -8.9e-4 3e-3l-9e-3 0.0297c-9.2e-4 3e-3 -2e-3 6e-3 -3e-3 9e-3 -0.0358 0.1192-0.0703 0.23881-0.10343 0.3589-4.4e-4 2e-3 -9e-4 4e-3 -1e-3 5e-3 -0.0338 0.1225-0.0662 0.24534-0.0972 0.36873l-4e-3 0.012-2e-3 7e-3c-2.6e-4 1e-3 -6.1e-4 2e-3 -8.8e-4 3e-3 -4.4e-4 2e-3 -9.2e-4 4e-3 -1e-3 5e-3 -0.0291 0.11648-0.0568 0.23339-0.0834 0.35062-5.3e-4 2e-3 -1e-3 5e-3 -2e-3 7e-3 -2.6e-4 1e-3 -4.4e-4 2e-3 -7e-4 3e-3 -1e-3 5e-3 -2e-3 0.0103-4e-3 0.0155-0.0273 0.12132-0.0534 0.24303-0.0781 0.36511l-6e-3 0.0317c-0.0234 0.11675-0.0456 0.2339-0.0665 0.35131l-1e-3 6e-3c-2e-3 0.0114-4e-3 0.0229-6e-3 0.0343l-4e-3 0.0212c-0.0184 0.10571-0.0358 0.21166-0.0522 0.31787-4e-3 0.0228-7e-3 0.0456-0.0105 0.0684-0.0161 0.10721-0.0312 0.21468-0.0453 0.32236-3e-3 0.0222-6e-3 0.0445-9e-3 0.0667-0.0146 0.11529-0.0281 0.23086-0.0403 0.34666-2.7e-4 3e-3 -7.1e-4 6e-3 -1e-3 8e-3l-1e-3 0.0133 2.3717 0.18393h1.1919s0.1189 0.89474 1.1476 1.2356c0.31461-1.3481 0.0441-2.4273 0.0441-2.4273 0.016-0.88262 0.10291-1.1917 0.39717-1.1917 0.3178 0 0.39735-0.39738 0.39735-1.9864s0.0794-1.9862 0.39717-1.9862c0.21849 0 0.39735-0.17868 0.39735-0.39717 0.16337-0.3973 0.62889-0.32009 0.79434-0.79451 0.23217-0.56458 1.0172-0.52231 0.79452-1.589v-1.1917h-1.1917c-0.88277 0-0.97466-0.33684-0.97466-0.63109-0.0147-0.0614-0.0398-0.12173-0.0721-0.181zm15.724 11.698-1.8e-4 1.7e-4c-0.63612-8e-3 -1.3141 0.1108-3.2955 0.26168-0.0459 4e-3 -0.16756-0.25343-0.21393-0.24582 0 0-0.75255 0.35322-1.302 0.9269-0.22387 0.23374-0.96375 0.66699-0.92674 2.5821l0.46337 3.0674c2.3892 1.5983 2.3594 0.75652 4.2829 2.0705 0 2.4614-0.20238 3.8032 0.0348 4.0552-0.0528 0.3253-0.10595 0.88329-0.14239 1.8193l0.56491 2.1303c0.0571-0.0235 0.31092 0.23666 0.58472 0.52732l0.01-3e-3c0.0877-0.0255 0.17515-0.0518 0.26237-0.0788 0.0144-4e-3 0.0287-9e-3 0.0431-0.0135 0.0789-0.0246 0.15753-0.0497 0.236-0.0755l8e-3 -3e-3c0.0146-5e-3 0.0292-0.01 0.0438-0.0145 0.0831-0.0276 0.16579-0.0558 0.2484-0.0846 0.0136-5e-3 0.0272-0.01 0.0409-0.0143 0.0801-0.0282 0.15997-0.057 0.23961-0.0864l6e-3 -2e-3c0.0126-5e-3 0.0253-0.01 0.0379-0.0143 0.0814-0.0303 0.16265-0.0612 0.24358-0.0927l3e-3 -1e-3 0.0305-0.0119c0.0844-0.0331 0.16854-0.0669 0.25237-0.10136l1e-3 -5.3e-4 0.0281-0.0115c0.0851-0.0352 0.16977-0.071 0.25427-0.10757l8e-3 -4e-3c0.0913-0.0396 0.18229-0.08 0.27288-0.12119l5e-3 -2e-3c2e-3 -9e-4 4e-3 -2e-3 6e-3 -3e-3 3e-3 -1e-3 5e-3 -2e-3 7e-3 -3e-3 0.1187-0.0556 0.23876-0.11119 0.34425-0.16187l3e-3 -1e-3 4e-3 -2e-3c8e-4 -4.4e-4 2e-3 -7.9e-4 2e-3 -1e-3l3.6e-4 -1.8e-4c0.11791-0.0583 0.23982-0.11824 0.34528-0.17221 0.12006-0.0622 0.24435-0.12765 0.35167-0.18583 0.12326-0.067 0.25045-0.13831 0.35511-0.19842l0.0109-6e-3 3e-3 -2e-3 3e-3 -1e-3 2e-3 -1e-3c7.1e-4 -4.4e-4 1e-3 -7.9e-4 2e-3 -1e-3 3.5e-4 -1.7e-4 7e-4 -3.5e-4 1e-3 -5.2e-4 2e-3 -9.7e-4 3e-3 -2e-3 5e-3 -3e-3 0.10933-0.0631 0.21793-0.12751 0.3258-0.19307l1.8e-4 -1.7e-4 2e-3 -1e-3 5.3e-4 -1.8e-4 1e-3 -7e-4c1e-3 -7.1e-4 2e-3 -1e-3 3e-3 -2e-3 0.11212-0.0682 0.22342-0.13777 0.33391-0.20858l1e-3 -5.3e-4 5.3e-4 -3.6e-4 5.3e-4 -3.5e-4 1e-3 -1e-3c1e-3 -7.1e-4 2e-3 -1e-3 3e-3 -2e-3 2e-3 -1e-3 3e-3 -2e-3 5e-3 -3e-3 2.6e-4 -1.8e-4 4.4e-4 -3.6e-4 7e-4 -5.3e-4 0.10611-0.0681 0.21142-0.13739 0.31598-0.2079l0.0212-0.0143c0.10398-0.0703 0.2072-0.14178 0.3096-0.21444l7e-4 -5.3e-4 2e-3 -1e-3 0.0165-0.0117c2e-3 -2e-3 4e-3 -3e-3 7e-3 -5e-3 2e-3 -1e-3 3e-3 -2e-3 4e-3 -3e-3 0.10015-0.0714 0.19946-0.14395 0.29806-0.21755l2e-3 -1e-3 7.1e-4 -5.3e-4 4e-3 -3e-3c1e-3 -1e-3 3e-3 -2e-3 4e-3 -3e-3 1e-3 -9.1e-4 2e-3 -2e-3 4e-3 -3e-3 2.6e-4 -2.6e-4 5.3e-4 -4.4e-4 8.8e-4 -7e-4 0.10436-0.0781 0.20789-0.15737 0.31046-0.23789 0.10542-0.0827 0.20992-0.16673 0.3134-0.25203 0.10143-0.0836 0.20198-0.16841 0.3015-0.25444l6e-3 -5e-3c1e-3 -1e-3 3e-3 -2e-3 4e-3 -3e-3 0.1-0.0866 0.19901-0.17425 0.29702-0.26323l1.7e-4 -1.8e-4 3.6e-4 -3.5e-4c0.0971-0.0881 0.19313-0.17758 0.28822-0.26806l3e-3 -3e-3 1e-3 -8.8e-4 3e-3 -3e-3 -0.0767-0.74194 0.0159-0.71678c-0.0367-0.88201 0.10291-1.1917 0.39717-1.1917 0.0392-2.0951 1.4295-2.8393 2.2982-3.8647-5e-3 -0.68084-1.0205-0.15287-1.5096-0.65557-0.30063-1.2899-0.70989-2.3002-1.0543-3.2267-0.21707-0.58397-0.2687-1.3077-0.69074-1.5027l-0.9857 0.0245-1.607-0.20013c-0.12807-3e-3 -0.2303 0.0797-0.24238 0.14428l-0.0302 0.61041s-0.10345 0.10503-0.19566-0.0612c-0.0219-0.0395-0.0564-0.015-0.10567-0.0209-0.65414-0.0785-1.3665 0.0556-2.0078-0.0155-0.0844-0.19313-0.2082-0.28839-0.30185-0.71418 0.0312-0.3492 0.21535-0.66477 0.20324-0.79917-0.021-0.1621 9e-5 1e-5 -0.0303-0.17048-4e-3 -0.0212-0.0647-0.0112-0.0846-0.0145-0.39028-0.0649-0.67086-0.0948-0.96-0.0984zm-21.506 0.66436c-1e-3 0.0667-2e-3 0.1333-3e-3 0.19996-7e-5 0.0493-8.9e-4 0.0982-8.9e-4 0.14756 1e-5 0.11705 2e-3 0.23419 4e-3 0.35132v1e-3c4e-3 0.17513 0.01 0.35017 0.0191 0.52507 6e-5 1e-3 9e-5 2e-3 1.8e-4 3e-3 9e-5 2e-3 2.7e-4 4e-3 3.5e-4 6e-3 5e-5 8e-4 9e-5 2e-3 1.8e-4 2e-3 9e-3 0.17525 0.0213 0.35036 0.036 0.52525 0.1363 0.28847 0.29685 0.61531 0.30736 0.69849 0.0128 0.101-0.0724 0.40848-0.13532 0.67092 2e-5 9e-5 -2e-5 2.7e-4 0 3.6e-4 3.5e-4 2e-3 7.1e-4 4e-3 1e-3 6e-3 0.0207 0.12323 0.0428 0.24606 0.0662 0.36856 9e-5 7e-4 1.8e-4 1e-3 3.5e-4 2e-3 3.6e-4 2e-3 7.1e-4 3e-3 1e-3 5e-3l1e-3 8e-3c0.0228 0.11898 0.0469 0.23772 0.0722 0.35597 3.6e-4 2e-3 7.1e-4 3e-3 1e-3 5e-3 8e-4 4e-3 2e-3 8e-3 2e-3 0.0114 3.6e-4 1e-3 7.1e-4 3e-3 1e-3 4e-3 0.0259 0.12035 0.0532 0.24022 0.0817 0.35977 9e-4 4e-3 2e-3 8e-3 3e-3 0.0114 2.7e-4 1e-3 7.1e-4 3e-3 1e-3 4e-3 0.0285 0.11919 0.0582 0.23797 0.0893 0.35632l3.6e-4 2e-3c1e-3 5e-3 3e-3 0.01 4e-3 0.0148 4.4e-4 2e-3 7.9e-4 3e-3 1e-3 5e-3 0.0313 0.11856 0.0639 0.23673 0.0977 0.35442 0.0338 0.11746 0.0689 0.23443 0.10515 0.35098 5.3e-4 2e-3 1e-3 3e-3 2e-3 5e-3 2e-3 6e-3 4e-3 0.0114 5e-3 0.0171 0.0362 0.11581 0.0736 0.23112 0.11222 0.34598 1.8e-4 4.4e-4 3.6e-4 9.2e-4 5.3e-4 1e-3l7e-3 0.0212c0.0378 0.11164 0.0767 0.22285 0.11671 0.33356 9e-5 3.6e-4 1.7e-4 7.1e-4 3.5e-4 1e-3l3e-3 9e-3 6e-3 0.0181c6.2e-4 2e-3 1e-3 3e-3 2e-3 5e-3 0.0412 0.11327 0.0836 0.22614 0.12722 0.33839 0.0447 0.11508 0.0907 0.22959 0.13791 0.34357 9.6e-4 2e-3 2e-3 5e-3 3e-3 7e-3 7.9e-4 2e-3 2e-3 4e-3 2e-3 6e-3 5.3e-4 1e-3 1e-3 3e-3 2e-3 4e-3 0.0477 0.11494 0.0968 0.22926 0.14704 0.34304 0.0512 0.116 0.1036 0.2314 0.15739 0.34615 0.0523 0.11168 0.10606 0.22276 0.16083 0.33322 4.4e-4 7.9e-4 8e-4 2e-3 1e-3 2e-3 2e-3 4e-3 4e-3 8e-3 6e-3 0.0122 0.0544 0.10943 0.10979 0.2183 0.16652 0.32649 5.3e-4 1e-3 1e-3 2e-3 2e-3 3e-3 1e-3 2e-3 3e-3 5e-3 4e-3 7e-3 0.0573 0.10918 0.11594 0.21759 0.17566 0.32546l2e-3 4e-3c1e-3 2e-3 2e-3 4e-3 4e-3 6e-3 0.0599 0.10794 0.12087 0.21542 0.18308 0.32202 4.4e-4 7.1e-4 7.9e-4 1e-3 1e-3 2e-3 2.6e-4 5.3e-4 5.3e-4 1e-3 8.8e-4 2e-3 7.9e-4 1e-3 2e-3 3e-3 2e-3 4e-3 0.0613 0.10493 0.12381 0.20912 0.18738 0.31271 1.8e-4 1.7e-4 1.8e-4 4.4e-4 3.5e-4 7e-4 3e-3 5e-3 6e-3 0.01 9e-3 0.0145 1e-3 2e-3 2e-3 4e-3 4e-3 6e-3 0.0638 0.10362 0.12875 0.20651 0.1948 0.30874 0.0687 0.10638 0.13867 0.21202 0.20979 0.31685 0.0689 0.10154 0.13901 0.2023 0.21014 0.30236l0.0133 0.0188c0.0714 0.10018 0.14391 0.19957 0.21754 0.29822 0.0759 0.10162 0.15282 0.20242 0.231 0.30237l3e-3 4e-3c0.0748 0.0956 0.15092 0.19053 0.22789 0.28461 9.4e-4 1e-3 2e-3 2e-3 3e-3 3e-3 3e-3 4e-3 6e-3 7e-3 9e-3 0.011 0.0769 0.0938 0.15477 0.18674 0.23375 0.27892 2.7e-4 3.5e-4 5.3e-4 7e-4 8.9e-4 1e-3 4e-3 5e-3 8e-3 0.01 0.0128 0.0146 0.0805 0.0937 0.16185 0.1866 0.24444 0.27858 0.0832 0.0927 0.16756 0.18441 0.25289 0.27529 3e-3 4e-3 7e-3 7e-3 0.0102 0.0109 0.084 0.0893 0.16892 0.17774 0.25495 0.2653l7.1e-4 7.1e-4c3e-3 3e-3 6e-3 6e-3 8e-3 9e-3l1e-3 1e-3c0.0879 0.0893 0.17686 0.17768 0.26685 0.26512 0.0909 0.0883 0.1828 0.17582 0.27581 0.2622 7.1e-4 7.1e-4 2e-3 1e-3 2e-3 2e-3 0.0938 0.0871 0.18871 0.17301 0.28461 0.25806 0.0926 0.0821 0.18613 0.16324 0.28064 0.24341 2e-3 2e-3 4e-3 3e-3 6e-3 5e-3 3e-3 2e-3 6e-3 5e-3 8e-3 7e-3 0.0966 0.0818 0.19426 0.16247 0.29288 0.2422l3.6e-4 3.5e-4c2.6e-4 1.8e-4 4.4e-4 3.5e-4 7e-4 5.3e-4 0.0751 0.0602 0.15022 0.12044 0.22652 0.17997l0.16445-5.357c1.0551-2.2901 1.6471-0.83737 1.2422-3.1014-1.7283-0.91177-0.94691-0.69434-1.7282-0.91192-1.2405-1.0945-3.4246-2.0332-5.4113-2.1834z" fill="#21b04b"/>
    <path d="m303.02 232.54c-0.56955-0.56954-0.0786-1.4304 1.6558-2.903l1.8375-1.5602 0.0328-59.455c-5.7645-3.3409-17.003-7.8261-21.196-9.0695-5.0385-1.8912-8.4172 0.22278-10.3 1.2532-14.296 8.659-30.201 16.87-46.365 17.35-6.8009-0.80596-21.114-5.3454-23.208-6.616-3.5086-1.5506-3.7625-1.4731-4.2027-2.918l-0.39725-32.574-0.33736-32.541s0.48935-0.82462 2.3236-0.8279c1.3285-0.0473 1.9862 0.79899 1.9862 0.79899 8.5658 3.7173 13.651 8.5839 23.438 8.7349 6.2658 1.4684 44.524-20.411 50.451-19.862 8.0068-0.8485 13.377 3.2924 21.849 8.7395 0 0 1.0906-4.6223 7.1505-4.767 5.6146 0.10749 6.7532 6.7532 6.7532 6.7532 0.1 4.3549-3.5749 5.9587-3.5752 5.9587 0 0-0.39651 6.7724-0.39078 59.389l6e-3 59.389 1.9932 1.6988c1.6494 1.4058 1.9794 1.8169 1.9136 2.3835l-0.0796 0.6847-5.5784 0.0713c-3.0682 0.0392-5.6602-0.0104-5.7601-0.11035zm-17.522-75.393c4.2546 1.2448 8.5794 2.4175 19.167 7.0986-0.61673-20.491-1.6357-56.799-1.6357-56.799-5.7305-6.0671-17.686-11.99-24.291-11.917-5.5863 0.24497-41.505 18.577-49.656 19.862-5.5109 0.01-21.649-4.9444-24.232-7.1504v29.396c0 25.954 0.0465 29.396 0.39725 29.396 0.21849 0 0.39725 0.17876 0.39725 0.39725 6.4645 2.5358 16.231 7.4356 22.643 7.5477 20.841-0.60626 29.541-7.6575 45.796-17.092 5.3775-2.9602 10.084-1.1092 11.414-0.73867z" fill="#3c2417"/>
    <path d="m258.43 122.53c-0.19043-0.25704-0.0246-0.56309 0.0696-0.81889 0.0552-0.35342 0.46992-0.55401 0.44219-0.91429-0.10286-0.38993-0.54165-0.69324-0.94512-0.5707-0.35104 0.0493-0.72281 0.14435-0.91738 0.46931-0.35189 0.26735-0.79876 0.47337-0.985 0.90195-0.0936 0.35652 0.38548 0.35316 0.61909 0.36931 0.48642 0.10407 0.72671 0.63196 0.74644 1.0881 0.0232 0.22394 0.30404 0.89689 0.5274 0.53142-0.0162-0.29044 0.0304-0.60636 0.30905-0.76633 0.0827-0.0725 0.15029-0.17487 0.13368-0.28986z" fill="#fff"/>
   </g>
  </g>
 </g>
</svg>
