<?xml version="1.0" encoding="UTF-8" standalone="no"?>
<svg
   xmlns:dc="http://purl.org/dc/elements/1.1/"
   xmlns:cc="http://creativecommons.org/ns#"
   xmlns:rdf="http://www.w3.org/1999/02/22-rdf-syntax-ns#"
   xmlns:svg="http://www.w3.org/2000/svg"
   xmlns="http://www.w3.org/2000/svg"
   xmlns:sodipodi="http://sodipodi.sourceforge.net/DTD/sodipodi-0.dtd"
   xmlns:inkscape="http://www.inkscape.org/namespaces/inkscape"
   width="210mm"
   height="297mm"
   viewBox="0 0 210 297"
   version="1.1"
   id="svg8"
   inkscape:version="1.0.2-2 (e86c870879, 2021-01-15)"
   sodipodi:docname="Polska.svg">
  <defs
     id="defs2" />
  <sodipodi:namedview
     id="base"
     pagecolor="#ffffff"
     bordercolor="#666666"
     borderopacity="1.0"
     inkscape:pageopacity="0.0"
     inkscape:pageshadow="2"
     inkscape:zoom="0.49497475"
     inkscape:cx="48.892776"
     inkscape:cy="292.80402"
     inkscape:document-units="mm"
     inkscape:current-layer="layer1"
     inkscape:document-rotation="0"
     showgrid="false"
     inkscape:window-width="1366"
     inkscape:window-height="705"
     inkscape:window-x="-8"
     inkscape:window-y="-8"
     inkscape:window-maximized="1" />
  <metadata
     id="metadata5">
    <rdf:RDF>
      <cc:Work
         rdf:about="">
        <dc:format>image/svg+xml</dc:format>
        <dc:type
           rdf:resource="http://purl.org/dc/dcmitype/StillImage" />
        <dc:title />
      </cc:Work>
    </rdf:RDF>
  </metadata>
  <g
     inkscape:label="Warstwa 1"
     inkscape:groupmode="layer"
     id="layer1">
    <path
       id="rect1581-1-2-1-7-2-7-0-5-1"
       style="fill:#e9e8e7;fill-opacity:1;stroke:none;stroke-width:1.00157;stroke-linejoin:round;stroke-opacity:1"
       d="M 0.5 0.5 L 0.5 38.296875 L 0.5 76.091797 L 0.5 113.88672 L 0.5 151.68164 L 0.5 189.47656 L 38.296875 189.47656 L 76.091797 189.47656 L 113.88672 189.47656 L 151.68164 189.47656 L 189.47656 189.47656 L 227.27148 189.47656 L 265.06836 189.47656 L 302.86328 189.47656 L 340.6582 189.47656 L 378.45312 189.47656 L 416.24805 189.47656 L 454.04492 189.47656 L 491.83984 189.47656 L 529.63477 189.47656 L 567.42969 189.47656 L 605.22461 189.47656 L 605.22461 151.68164 L 605.22461 113.88672 L 605.22461 76.091797 L 605.22461 38.296875 L 605.22461 0.5 L 567.42969 0.5 L 529.63477 0.5 L 491.83984 0.5 L 454.04492 0.5 L 416.24805 0.5 L 378.45312 0.5 L 340.6582 0.5 L 302.86328 0.5 L 265.06836 0.5 L 227.27148 0.5 L 189.47656 0.5 L 151.68164 0.5 L 113.88672 0.5 L 76.091797 0.5 L 38.296875 0.5 L 0.5 0.5 z "
       transform="scale(0.26458333)" />
    <path
       id="rect1581-1-2-1-7-2-7-0-5-1-9-8"
       style="fill:#d4213d;fill-opacity:1;stroke:none;stroke-width:1.00157;stroke-linejoin:round;stroke-opacity:1"
       d="M 0.5 189.47656 L 0.5 227.27148 L 0.5 265.06836 L 0.5 302.86328 L 0.5 340.6582 L 0.5 378.45312 L 38.296875 378.45312 L 76.091797 378.45312 L 113.88672 378.45312 L 151.68164 378.45312 L 189.47656 378.45312 L 227.27148 378.45312 L 265.06836 378.45312 L 302.86328 378.45312 L 340.6582 378.45312 L 378.45312 378.45312 L 416.24805 378.45312 L 454.04492 378.45312 L 491.83984 378.45312 L 529.63477 378.45312 L 567.42969 378.45312 L 605.22461 378.45312 L 605.22461 340.6582 L 605.22461 302.86328 L 605.22461 265.06836 L 605.22461 227.27148 L 605.22461 189.47656 L 567.42969 189.47656 L 529.63477 189.47656 L 491.83984 189.47656 L 454.04492 189.47656 L 416.24805 189.47656 L 378.45312 189.47656 L 340.6582 189.47656 L 302.86328 189.47656 L 265.06836 189.47656 L 227.27148 189.47656 L 189.47656 189.47656 L 151.68164 189.47656 L 113.88672 189.47656 L 76.091797 189.47656 L 38.296875 189.47656 L 0.5 189.47656 z "
       transform="scale(0.26458333)" />
  </g>
</svg>
