<?xml version="1.0" encoding="UTF-8" standalone="no"?>
<svg
   xmlns:dc="http://purl.org/dc/elements/1.1/"
   xmlns:cc="http://creativecommons.org/ns#"
   xmlns:rdf="http://www.w3.org/1999/02/22-rdf-syntax-ns#"
   xmlns:svg="http://www.w3.org/2000/svg"
   xmlns="http://www.w3.org/2000/svg"
   xmlns:sodipodi="http://sodipodi.sourceforge.net/DTD/sodipodi-0.dtd"
   xmlns:inkscape="http://www.inkscape.org/namespaces/inkscape"
   width="210mm"
   height="297mm"
   viewBox="0 0 210 297"
   version="1.1"
   id="svg8"
   inkscape:version="1.0.2-2 (e86c870879, 2021-01-15)"
   sodipodi:docname="Wielka brytania.svg">
  <defs
     id="defs2" />
  <sodipodi:namedview
     id="base"
     pagecolor="#ffffff"
     bordercolor="#666666"
     borderopacity="1.0"
     inkscape:pageopacity="0.0"
     inkscape:pageshadow="2"
     inkscape:zoom="0.98994949"
     inkscape:cx="439.3907"
     inkscape:cy="141.71967"
     inkscape:document-units="mm"
     inkscape:current-layer="layer1"
     inkscape:document-rotation="0"
     showgrid="false"
     inkscape:window-width="1366"
     inkscape:window-height="705"
     inkscape:window-x="-8"
     inkscape:window-y="-8"
     inkscape:window-maximized="1"
     showguides="true"
     inkscape:guide-bbox="true"
     inkscape:pagecheckerboard="true"
     objecttolerance="16"
     guidetolerance="17.2" />
  <metadata
     id="metadata5">
    <rdf:RDF>
      <cc:Work
         rdf:about="">
        <dc:format>image/svg+xml</dc:format>
        <dc:type
           rdf:resource="http://purl.org/dc/dcmitype/StillImage" />
        <dc:title></dc:title>
      </cc:Work>
    </rdf:RDF>
  </metadata>
  <g
     inkscape:label="Warstwa 1"
     inkscape:groupmode="layer"
     id="layer1">
    <path
       id="rect3734-2"
       style="fill:#ffffff;fill-opacity:1;stroke:none;stroke-width:0.264999;stroke-linejoin:round;stroke-opacity:1"
       d="M 0,0 H 84.303037 V 33.721176 H 0 Z" />
    <path
       style="fill:#c8102e;fill-opacity:1;stroke:none;stroke-width:0.264583px;stroke-linecap:butt;stroke-linejoin:miter;stroke-opacity:1"
       d="M 7.175119e-6,0 66.081662,33.04082 H 7.175119e-6 Z"
       id="path3827" />
    <path
       id="rect3734-2-8"
       style="fill:#c8102e;fill-opacity:1;stroke:none;stroke-width:0.264999;stroke-linejoin:round;stroke-opacity:1"
       d="M 198.24494,6.4576071e-5 H 115.64295 V 33.04082 h 82.60199 z" />
    <path
       style="fill:#ffffff;fill-opacity:1;stroke:none;stroke-width:0.264583px;stroke-linecap:butt;stroke-linejoin:miter;stroke-opacity:1"
       d="M 198.24494,6.4576073e-5 126.28334,35.980851 h 71.9616 z"
       id="path3827-0"
       sodipodi:nodetypes="cccc" />
    <path
       id="rect3734-2-9"
       style="fill:#ffffff;fill-opacity:1;stroke:none;stroke-width:0.264999;stroke-linejoin:round;stroke-opacity:1"
       d="M 198.24494,99.09544 H 109.89647 V 63.756101 h 88.34847 z" />
    <path
       style="fill:#c8102e;fill-opacity:1;stroke:none;stroke-width:0.264583px;stroke-linecap:butt;stroke-linejoin:miter;stroke-opacity:1"
       d="M 198.24493,99.095439 132.16327,66.054615 h 66.08166 z"
       id="path3827-6" />
    <path
       id="rect3734-2-8-1"
       style="fill:#c8102e;fill-opacity:1;stroke:none;stroke-width:0.264999;stroke-linejoin:round;stroke-opacity:1"
       d="M 7.8926309e-5,99.999992 82.602062,99.122461 82.602058,66.95924 H 7.8926309e-5 Z"
       sodipodi:nodetypes="ccccc" />
    <path
       style="fill:#ffffff;fill-opacity:1;stroke:none;stroke-width:0.264583px;stroke-linecap:butt;stroke-linejoin:miter;stroke-opacity:1"
       d="M 7.8926309e-5,99.999999 74.233455,62.883316 H 7.8926309e-5 Z"
       id="path3827-0-7" />
    <path
       id="rect1581-86-5"
       style="fill:#ffffff;fill-opacity:1;stroke:none;stroke-width:1.00157;stroke-linejoin:round;stroke-opacity:1"
       d="M 312.19727 0 L 312.19727 12.488281 L 312.19727 24.974609 L 312.19727 37.462891 L 312.19727 49.951172 L 312.19727 62.439453 L 312.19727 74.927734 L 312.19727 87.414062 L 312.19727 99.902344 L 312.19727 112.39062 L 312.19727 124.87891 L 299.70898 124.87891 L 287.2207 124.87891 L 274.73438 124.87891 L 262.24609 124.87891 L 249.75781 124.87891 L 237.26953 124.87891 L 224.78125 124.87891 L 212.29492 124.87891 L 199.80664 124.87891 L 193.95117 124.87891 L 0 27.902344 L 0 124.87891 L 0 137.36719 L 0 149.85352 L 0 162.3418 L 0 174.83008 L 0 187.31836 L 0 199.80664 L 0 212.29297 L 0 224.78125 L 0 237.26953 L 0.0625 253.08398 L 12.550781 253.08398 L 25.039062 253.08398 L 37.527344 253.08398 L 50.015625 253.08398 L 62.501953 253.08398 L 74.990234 253.08398 L 87.478516 253.08398 L 99.966797 253.08398 L 112.45508 253.08398 L 124.94141 253.08398 L 137.42969 253.08398 L 149.91797 253.08398 L 162.40625 253.08398 L 174.89258 253.08398 L 187.38086 253.08398 L 199.86914 253.08398 L 212.35742 253.08398 L 224.8457 253.08398 L 237.33203 253.08398 L 249.82031 253.08398 L 262.30859 253.08398 L 274.79688 253.08398 L 287.28516 253.08398 L 299.77148 253.08398 L 305.54492 253.08398 L 55.806641 377.95312 L 312.19727 374.63672 L 324.68359 374.63672 L 337.17188 374.63672 L 349.66016 374.63672 L 362.14844 374.63672 L 374.63672 374.63672 L 387.12305 374.63672 L 399.61133 374.63672 L 412.09961 374.63672 L 424.58789 374.63672 L 437.07617 374.63672 L 437.07617 362.14844 L 437.07617 349.66016 L 437.07617 337.17188 L 437.07617 324.68359 L 437.07617 312.19727 L 437.07617 299.70898 L 437.07617 287.2207 L 437.07617 274.73242 L 437.07617 262.24414 L 437.07617 249.75781 L 449.5625 249.75781 L 462.05078 249.75781 L 474.53906 249.75781 L 487.02734 249.75781 L 499.51562 249.75781 L 512.00391 249.75781 L 524.49023 249.75781 L 536.97852 249.75781 L 549.4668 249.75781 L 555.52734 249.75781 L 749.27148 346.63086 L 749.27148 249.75781 L 749.27148 249.6543 L 749.27148 237.26953 L 749.27148 224.78125 L 749.27148 212.29297 L 749.27148 199.80664 L 749.27148 187.31836 L 749.27148 174.83008 L 749.27148 162.3418 L 749.27148 149.85352 L 749.27148 137.36719 L 749.27148 124.87891 L 736.78516 124.87891 L 724.29688 124.87891 L 711.80859 124.87891 L 699.32031 124.87891 L 686.83203 124.87891 L 674.3457 124.87891 L 661.85742 124.87891 L 649.36914 124.87891 L 636.88281 124.87891 L 624.39258 124.87891 L 611.90625 124.87891 L 599.41797 124.87891 L 586.92969 124.87891 L 574.44141 124.87891 L 561.95508 124.87891 L 549.4668 124.87891 L 536.97852 124.87891 L 524.49023 124.87891 L 512.00391 124.87891 L 499.51562 124.87891 L 487.02734 124.87891 L 474.53906 124.87891 L 462.05078 124.87891 L 449.5625 124.87891 L 443.70898 124.87891 L 693.4668 0 L 437.07617 0 L 424.58789 0 L 412.09961 0 L 399.61133 0 L 387.12305 0 L 374.63672 0 L 362.14844 0 L 349.66016 0 L 337.17188 0 L 324.68359 0 L 312.19727 0 z M 312.19727 253.08398 L 312.25977 253.08398 L 312.19727 262.24414 L 312.19727 253.08398 z "
       transform="scale(0.26458333)" />
    <path
       id="path3827-7-14-2"
       style="fill:#012169;fill-opacity:1;stroke:none;stroke-width:0.999999px;stroke-linecap:butt;stroke-linejoin:miter;stroke-opacity:1"
       d="M 83.708984 0 L 312.19727 114.24414 L 312.19727 0 L 83.708984 0 z M 437.07617 0 L 437.07617 114.24414 L 665.56445 0 L 437.07617 0 z M 0 41.853516 L 0 124.87891 L 166.04883 124.87891 L 0 41.853516 z M 749.27148 41.853516 L 583.22266 124.87891 L 749.27148 124.87891 L 749.27148 41.853516 z M 583.22266 249.6543 L 749.27148 332.67969 L 749.27148 249.6543 L 583.22266 249.6543 z M 0 253.07422 L 0 336.09766 L 166.04883 253.07422 L 0 253.07422 z M 437.07617 260.28906 L 437.07617 374.5332 L 665.56445 374.5332 L 437.07617 260.28906 z M 312.19727 263.70898 L 83.708984 377.95312 L 312.19727 374.63672 L 312.19727 263.70898 z "
       transform="scale(0.26458333)" />
    <path
       id="rect1581-1-2-1-7-2-7-0-5-1-1"
       style="fill:#c8102e;fill-opacity:1;stroke:none;stroke-width:0.264998;stroke-linejoin:round;stroke-opacity:1"
       d="m 89.210321,0 v 3.304049 3.304049 3.3040419 3.3040491 3.304049 3.304049 3.304049 3.304049 3.304042 3.304049 3.304049 3.304049 1.72e-4 H 89.209603 85.905576 82.601534 79.297485 75.993436 72.689387 69.385338 66.081289 62.777247 59.473198 56.169149 52.8651 49.561051 46.257009 42.95296 39.648911 36.344862 33.040813 29.736764 26.432722 23.128673 19.824624 16.520575 13.216526 9.9124771 6.6084353 3.3043863 3.3723059e-4 v 3.304049 3.304046 3.304049 3.304041 3.304049 3.30405 H 3.3043863 h 3.304049 3.3040418 3.3038769 3.304049 3.304049 3.304049 3.304049 3.304049 3.304042 3.304049 3.304049 3.304049 3.304049 3.304049 3.304042 3.304049 3.304049 3.304049 3.304049 3.304049 3.304042 3.304049 3.304049 3.304049 3.304049 3.304042 0.0014 v 3.303876 3.304049 3.304049 3.304053 3.304042 3.304049 3.304049 3.304049 3.304049 3.304042 3.304049 3.304056 h 3.304042 v 0 h 3.304056 3.304042 3.304057 3.30405 3.30404 v -3.304049 -3.304042 -3.304056 -3.304042 -3.304049 -3.304049 -3.304049 -3.304049 -3.304053 -3.304041 -3.30405 -3.304049 h 3.30268 3.30405 3.30405 3.30405 3.30404 3.30405 3.30405 3.30405 3.30404 3.30404 3.30406 3.30404 3.30405 3.30405 3.30404 3.30405 3.30405 3.30405 3.30404 3.30405 3.30405 3.30405 3.30404 3.30405 3.30405 3.30405 3.30405 v -3.304049 0 -3.303884 -3.304049 -3.304049 -3.304045 -3.304042 h -3.30406 -3.30405 -3.30404 -3.30405 -3.30404 -3.30405 -3.30405 -3.30405 -3.30404 -3.30406 -3.30404 -3.30405 -3.30404 -3.30405 -3.30406 -3.30404 -3.30405 -3.30404 -3.30406 -3.30404 -3.30404 -3.30405 -3.30404 -3.30406 -3.30404 -3.30405 -3.30285 V 36.344697 33.040648 29.736599 26.43255 23.128508 19.824459 16.52041 13.216361 9.9123121 6.6082631 3.3042212 1.7220286e-4 h -3.30405 V 0 h -3.30405 -3.30405 -3.304041 -3.304057 z" />
  </g>
</svg>
