<?xml version="1.0" encoding="UTF-8"?>
<svg width="198.24mm" height="100mm" version="1.1" viewBox="0 0 198.24 100" xmlns="http://www.w3.org/2000/svg">
 <g>
  <path d="m0 0h84.303v33.721h-84.303z" fill="#fff"/>
  <path d="m7.1751e-6 0 66.082 33.041h-66.082z" fill="#c8102e"/>
  <path d="m198.24 6.4576e-5h-82.602v33.041h82.602z" fill="#c8102e"/>
  <path d="m198.24 6.4576e-5 -71.962 35.981h71.962z" fill="#fff"/>
  <path d="m198.24 99.095h-88.348v-35.339h88.348z" fill="#fff"/>
  <path d="m198.24 99.095-66.082-33.041h66.082z" fill="#c8102e"/>
  <path d="m7.8926e-5 100 82.602-0.87753-4e-6 -32.163h-82.602z" fill="#c8102e"/>
  <path d="m7.8926e-5 100 74.233-37.117h-74.233z" fill="#fff"/>
  <path transform="scale(.26458)" d="m312.2 0v124.88h-118.25l-193.95-96.977v209.37l0.0625 15.814h305.48l-249.74 124.87 256.39-3.3164h124.88v-124.88h118.45l193.74 96.873v-221.75h-305.56l249.76-124.88h-368.78zm0 253.08h0.0625l-0.0625 9.1602z" fill="#fff"/>
  <path transform="scale(.26458)" d="m83.709 0 228.49 114.24v-114.24zm353.37 0v114.24l228.49-114.24zm-437.08 41.854v83.025h166.05zm749.27 0-166.05 83.025h166.05zm-166.05 207.8 166.05 83.025v-83.025zm-583.22 3.4199v83.023l166.05-83.023zm437.08 7.2148v114.24h228.49zm-124.88 3.4199-228.49 114.24 228.49-3.3164z" fill="#012169"/>
  <path transform="scale(.26458)" d="m337.17 0v149.85h-337.17v74.926h337.17v149.85h74.926v-149.85h337.16v-74.926h-337.16v-149.85h-74.928z" fill="#c8102e"/>
 </g>
</svg>
