<?xml version="1.0" encoding="UTF-8"?>
<svg width="200mm" height="99.998mm" version="1.1" viewBox="0 0 200 99.998" xmlns="http://www.w3.org/2000/svg">
 <path d="m0 0v99.998h200v-99.998z" fill="#fff" stroke-linejoin="round" stroke-opacity=".4498" stroke-width=".265"/>
 <path d="m124.17 75.53c-0.63081-0.32895-1.1888-0.8793-1.7827-1.7584-0.73304-1.085-1.0314-1.7651-1.639-3.7365-0.0493-0.15999-0.56714 8.3e-4 -1.4973 0.46473-0.78206 0.39012-2.1237 0.88774-2.9814 1.1058-1.5199 0.38646-4.7884 0.80833-4.5803 0.59118 0.0573-0.0598 1.3644-0.82964 2.9048-1.7108 1.5403-0.88115 3.4713-2.0547 4.2911-2.6078l1.4905-1.0058 0.12898-1.5258c0.0709-0.8392 0.26616-1.9007 0.43383-2.3589l0.30486-0.83308 0.0294 3.9452 1.24-1.227c1.2578-1.2447 2.3515-3.0127 2.6043-4.2101 0.16689-0.7904-0.0136-2.1945-1.3482-10.487-0.56243-3.4948-1.3074-8.2761-1.6554-10.625-0.34803-2.349-0.92324-5.8444-1.2782-7.7676-0.64525-3.4956-0.64535-3.4972-0.28983-4.9479 0.19559-0.79814 0.42407-1.4512 0.50773-1.4512 0.25379 0 3.1449 6.317 3.1405 6.8619l-4e-3 0.50773-0.625-0.59879c-0.34375-0.32933-0.625-0.55255-0.625-0.49604 0 0.27838 1.7486 11.562 2.5305 16.329 0.80608 4.9146 0.88928 5.7642 0.89771 9.1667 7e-3 2.9752-0.0675 4.0298-0.36231 5.1042-0.61779 2.2512-1.4989 3.8813-2.8698 5.3088l-1.272 1.3246 0.44493 1.0062c0.55822 1.2624 1.326 2.0741 2.2506 2.3792 1.3701 0.45218 2.1373-0.54291 4.4097-5.7196 2.1913-4.992 3.294-6.7663 5.1324-8.2583l0.64087-0.52011-1.212-8.125c-0.66659-4.4688-1.6966-10.938-2.2888-14.375-0.59224-3.4375-1.0766-6.5781-1.0763-6.9792 2.1e-4 -0.40104 0.16986-1.2917 0.37683-1.9792l0.3763-1.25 1.6379 3.3333c1.204 2.4504 1.6024 3.4608 1.5039 3.8146l-0.13395 0.4813-1.2413-1.1709 0.12486 0.625c0.0687 0.34375 0.87561 5.6406 1.7932 11.771 2.1404 14.3 1.9054 13.213 2.9238 13.518 0.9296 0.27852 1.4393 1.002 2.4746 3.5127 1.3496 3.2729 2.6577 4.3386 5.1319 4.1811 1.5934-0.10146 2.842-0.8518 3.4832-2.0932 0.478-0.92537 0.46402-1.0573-1.4762-13.934l-1.2121-8.0444-2.2897-2.5872c-2.6689-3.0157-5.1069-6.0441-6.7958-8.4416l-1.1982-1.7009 0.21497-1.5158c0.11824-0.83366 0.24824-1.549 0.28889-1.5897 0.0983-0.0983 2.8398 2.0929 4.3434 3.4716 1.4925 1.3684 1.553 1.7517 0.26042 1.6489-0.51562-0.041-0.9375-0.0392-0.9375 4e-3 0 0.0959 3.2749 3.923 4.5182 5.28 0.58056 0.63365 0.89849 0.85855 0.89849 0.63557 0-0.18979-0.29114-2.0373-0.64698-4.1057l-0.64698-3.7606 0.36997-1.6208c0.20348-0.89142 0.43909-1.5477 0.52358-1.4583 0.35315 0.37341 3.1087 6.5531 3.1087 6.9716 0 0.43776-0.0253 0.43199-0.625-0.14254-0.38427-0.36816-0.625-0.48744-0.625-0.3097 0 0.15899 0.24443 1.9344 0.54317 3.9452l0.54318 3.6562 1.5922 1.7368c0.87574 0.95525 2.0335 2.2209 2.5728 2.8125 0.53931 0.59163 0.98462 0.93896 0.98958 0.77186 0.0291-0.98184-2.3365-15.632-2.5906-16.043-0.0794-0.12838 0.6809-3.3645 0.82442-3.5093 0.17332-0.17485 3.245 6.5706 3.1908 7.0072l-0.0614 0.4951-0.57292-0.45277c-0.45218-0.35735-0.57291-0.38614-0.57291-0.13661 0 0.34755 1.5074 10.806 1.9809 13.745l0.29708 1.8433 2.0381 2.195c3.9946 4.3021 5.2421 5.9908 5.7909 7.8387 0.34897 1.1751 0.40731 3.4104 0.10135 3.8839-0.16746 0.25913-0.20285 0.24134-0.20718-0.10417-0.0156-1.2452-2.1946-4.4349-5.2636-7.7053l-1.7567-1.872 0.2724 1.9761c0.62828 4.5578 0.56372 7.7038-0.20358 9.9201-0.22771 0.65772-0.34799 0.0582-1.351-6.7344l-1.1011-7.4564-1.3972-1.46c-0.76848-0.80297-1.9342-2.0619-2.5904-2.7975-0.65626-0.73568-1.1932-1.2225-1.1932-1.0818s0.37377 2.5707 0.8306 5.4001c1.0469 6.4837 1.3242 9.1353 1.1484 10.978-0.23806 2.4936-1.8318 5.9916-3.1521 6.9184-1.4746 1.0351-3.9429 1.2744-5.4062 0.52412-1.1124-0.57036-1.7333-1.4163-2.9615-4.0348-1.0691-2.2793-1.8806-3.3475-1.6361-2.1536 0.58669 2.8647 0.72042 8.0026 0.25929 9.9625-0.33346 1.4173-0.74893 2.0158-0.74893 1.0788 0-0.76577-1.4308-10.886-1.6296-11.526l-0.14928-0.4809-0.86321 0.6253c-1.4808 1.0727-2.6554 3.1158-4.7414 8.2476-2.4594 6.0504-3.1711 6.8058-5.3442 5.6726zm-23.106-1.1524c3.1659-1.5795 5.3247-3.418 7.0485-6.0028 0.9346-1.4014 1.4179-1.9493 1.7194-1.9493 0.31918 0 1.0221 1.3084 1.0229 1.904 4.2e-4 0.3024-0.17477 0.76663-0.38934 1.0316-0.38219 0.47199-0.40766 0.47488-1.2536 0.14259l-0.86348-0.33918-0.42787 0.8387c-0.60977 1.1952-1.9704 2.6114-3.4041 3.5428-1.2767 0.82945-3.4999 1.6364-4.464 1.6203-0.42427-7e-3 -0.19164-0.18847 1.0115-0.78873zm8.9429-6.4081c-0.27608-0.33265-0.81794-0.39623-0.81794-0.096 0 0.25856 0.67086 0.6316 0.89108 0.4955 0.0939-0.0581 0.061-0.23785-0.0731-0.39953zm-53.638 6.6475c-0.48915-0.48915-0.31262-2.0156 0.40202-3.4763 0.5415-1.1068 2.2762-3.2568 2.6276-3.2568 0.09379 0-0.24311 0.61685-0.74867 1.3708-0.97833 1.459-1.2035 2.0416-1.0923 2.8268 0.05459 0.38567 0.19501 0.4879 0.65981 0.48036 0.54091-9e-3 0.58039 0.0408 0.47045 0.59045-0.30058 1.5029-1.5142 2.2694-2.3189 1.4647zm32.307-0.26656c-0.77946-0.86129 0.29538-3.8367 2.0771-5.75 1.1586-1.2442 1.4319-1.0965 0.42115 0.2277-1.2786 1.6751-1.6903 3.1056-1.0474 3.6391 0.23129 0.19195 0.38516 0.19905 0.59209 0.0273 0.4564-0.37878 0.55899-0.0265 0.22504 0.77277-0.62075 1.4857-1.5166 1.9135-2.268 1.0831zm42.383-0.78943c-0.35732-0.4528-0.43085-0.76319-0.35072-1.4804 0.15595-1.396 1.665-4.2335 2.9532-5.5529 1.1957-1.2247 2.0082-1.5956 1.0181-0.46476-0.32697 0.37345-0.92115 1.1893-1.3204 1.8131-0.60345 0.94276-0.72645 1.329-0.72916 2.2898l-3e-3 1.1557 0.67708-0.0307c0.77123-0.035 0.83686 0.18255 0.38285 1.2692-0.66413 1.5895-1.8168 2.0286-2.6276 1.0012zm-88.898-0.58158c-3.4188-0.92073-5.5379-3.0953-6.4408-6.6091-0.42006-1.6349-0.28193-4.7845 0.30852-7.0345 0.49874-1.9005 1.743-5.1835 1.8467-4.8725 0.04104 0.12312-0.12026 1.0134-0.35845 1.9785-0.24642 0.9984-0.48575 2.8421-0.55531 4.2778-0.1065 2.1984-0.06543 2.7102 0.31905 3.976 1.5139 4.9843 8.0571 6.4646 13.979 3.1626 2.5114-1.4003 6.1349-4.5106 7.8035-6.6982l0.54654-0.71655-0.52066-3.3111c-0.28637-1.8211-0.52162-3.4283-0.5228-3.5715-0.0012-0.14323-0.14276-0.26042-0.31463-0.26042-0.25112 0-0.3125 0.31982-0.3125 1.6284 0 1.9688-0.3216 3.8294-0.83369 4.8233-0.49549 0.9617-2.324 3.0481-3.6793 4.1981-2.6035 2.2093-5.2044 3.3061-8.2149 3.4643-1.8579 0.0976-2.0898 0.0641-3.2918-0.47524-1.6957-0.76099-3.023-2.2107-3.4878-3.8095-0.53646-1.8454-0.30345-5.2076 0.54175-7.8171 0.3652-1.1276 0.69961-2.0145 0.74312-1.971s-0.06423 0.87233-0.23944 1.8418c-0.98058 5.426 1.3014 8.854 5.8578 8.7996 2.6087-0.0312 6.2752-2.0499 9.4271-5.1904 1.5592-1.5535 1.7183-1.7865 1.7142-2.5087-0.0025-0.43787-0.18543-1.1946-0.40648-1.6816l-0.40191-0.88541h-2.5197c-2.3784 0-2.5475-0.0279-3.0172-0.49756-1.0114-1.0114-0.97269-3.7096 0.08393-5.8559 0.74562-1.5146 1.4492-2.0721 2.6201-2.0761 1.5702-5e-3 3.8439 2.1565 4.186 3.9804 0.12411 0.66156 0.54451 0.92688 0.80382 0.50731 0.09824-0.15896-0.50367-4.6636-0.82576-6.18-0.06236-0.29357-0.36504-0.51611-0.93371-0.68649-1.1862-0.35538-2.2626-1.382-2.931-2.7951-0.31511-0.6663-0.61609-1.1359-0.66885-1.0436-0.05275 0.0923-0.2608 0.67284-0.46232 1.29-0.73026 2.2364-2.5259 3.5711-5.0016 3.7176-1.2256 0.0725-1.6075 9e-3 -2.3928-0.39752-2.4669-1.2772-3.3417-4.2174-2.7077-9.101 0.26533-2.0438-0.0028-2.5234-0.58064-1.0385-0.62834 1.6147-0.81241 2.3073-1.2927 4.8641-0.80058 4.2616-1.2321 5.1516-2.6337 5.4319-2.301 0.4602-4.3366-5.3008-3.3696-9.5362l0.25207-1.104 0.15421 2.0464c0.27618 3.6648 1.1919 5.6487 2.5466 5.5168 0.87604-0.0853 1.3883-1.1481 2.4576-5.099 1.001-3.6986 1.8802-5.5371 3.2057-6.7039 0.53584-0.47166 1.0698-0.79851 1.1866-0.72632 0.23648 0.14616 0.05566 3.9111-0.26353 5.4869-0.94084 4.6448 1.1342 7.8038 4.5261 6.8905 1.1088-0.29856 2.0178-1.065 2.9013-2.4462 0.90052-1.4077 0.9041-2.1054 0.0332-6.4714l-0.67446-3.3812 0.39463-1.161c0.21705-0.63854 0.4662-1.2052 0.55368-1.2593s0.41069 0.3311 0.71826 0.85592c0.45267 0.77242 0.63239 1.5176 0.94332 3.9113 0.65282 5.0257 1.3695 7.3193 2.6794 8.5742 0.34589 0.33138 0.66175 0.56247 0.70192 0.51353 0.14667-0.17867-1.2754-8.6762-1.7093-10.213-0.47589-1.6862-0.47908-1.6548 0.38878-3.8339 0.24743-0.62125 0.25813-0.60685 1.7811 2.3958 0.84269 1.6615 1.5371 3.281 1.5431 3.5991 0.0109 0.57598 0.0085 0.57699-0.61407 0.25507-0.79208-0.4096-0.79208-0.59377 0 4.0625 0.34111 2.0052 0.62127 3.7161 0.6226 3.8021 0.0076 0.49565 2.6524-0.3539 3.4581-1.1108l0.48073-0.45162-0.92892-1.8496c-1.3562-2.7005-2.1072-4.703-2.5014-6.6706-0.19176-0.95715-0.42221-1.8818-0.51212-2.0549-0.1853-0.35663 0.38577-3.1703 0.61474-3.0288 0.43844 0.27098 2.9599 4.3269 2.8569 4.5954-0.13671 0.35625-0.46435 0.40751-0.65306 0.10216-0.07082-0.11458-0.20711-0.20833-0.30287-0.20833s0.23964 0.97622 0.74535 2.1694c1.0105 2.3843 1.745 4.9768 1.745 6.1594 0 2.147-1.2716 4.16-3.2345 5.1204-0.95659 0.46802-1.1394 0.64641-1.1339 1.1064 0.0084 0.7037 0.75449 5.0248 0.89119 5.1615 0.05695 0.057 0.48051-0.0888 0.94125-0.3238 1.0785-0.55023 3.8364-1.4767 4.3957-1.4767 0.39834 0 0.43202 0.12057 0.43202 1.5465 0 1.3598 0.0651 1.6239 0.53935 2.1875 0.37997 0.45157 0.72273 0.64099 1.1599 0.64099 0.49211 0 0.59877-0.0754 0.51543-0.36459-0.1417-0.4916-1.1873-7.1339-2.107-13.385-0.41302-2.8073-0.97878-6.238-1.2572-7.6237l-0.50629-2.5195 0.40459-1.4148c0.22252-0.77812 0.43824-1.4484 0.47938-1.4896 0.15569-0.15569 3.2719 6.4298 3.2719 6.9145 0 0.65046-0.15213 0.63937-0.88993-0.0649l-0.60022-0.57292 0.11103 0.52084c0.0611 0.28645 0.74005 4.6927 1.5088 9.7917 0.76878 5.099 1.4313 9.3121 1.4723 9.3626 0.1511 0.186 0.81842-0.66867 1.7313-2.2174 0.51563-0.87478 1.0512-1.6282 1.1902-1.6743 0.14266-0.0473 0.30608 0.17217 0.37521 0.50391 0.2549 1.2232 0.85058 2.4349 1.3971 2.8419 0.48781 0.36331 0.70262 0.39531 1.5423 0.22977 1.327-0.26159 1.5639-0.69064 0.97642-1.7685l-0.45616-0.83692 1.2573-2.7952 0.38901 0.47773c0.85784 1.0535 0.81201 3.9085-0.0924 5.7571-0.7473 1.5274-1.8525 2.3069-3.271 2.3069-0.84997 0-1.1001-0.10355-1.734-0.71796-0.40741-0.39487-0.74074-0.84018-0.74074-0.98958 0-0.47809-0.35807-0.29105-0.61078 0.31905-0.13457 0.32487-0.50996 0.88114-0.83421 1.2361l-0.58955 0.64547 0.4075 2.7743c0.29767 2.0265 0.38809 3.5604 0.33546 5.6909-0.0648 2.6237-0.12327 3.0108-0.5822 3.8542l-0.51018 0.9375-0.1666-2.2917c-0.0916-1.2604-0.39899-3.9014-0.68302-5.869-0.28403-1.9675-0.51642-3.6785-0.51642-3.8021s-0.35156-0.22683-0.78125-0.22935c-1.0593-6e-3 -2.3935-0.64594-2.936-1.4077-0.24577-0.34515-0.57413-1.1249-0.72968-1.7327-0.15556-0.60784-0.38661-1.1398-0.51344-1.182-0.12684-0.0423-0.89794 0.31959-1.7136 0.80415l-1.483 0.881 0.17218 1.7897c0.30864 3.208 0.20556 7.276-0.21691 8.5605-0.8924 2.7135-4.687 6.5689-8.4651 8.6009-3.2007 1.7214-7.1215 2.4072-9.7366 1.7029zm11.507-22.565 0.83333-0.15365-0.76042-0.77185c-0.85184-0.86464-1.7614-1.0248-2.3135-0.40726-1.0238 1.145-0.01044 1.7478 2.2406 1.3328zm25.173 22.182c-0.75031-0.63134-1.2083-1.6628-1.4152-3.1869l-0.14631-1.078-1.2834 0.8295c-3.6247 2.3428-6.7341 3.1014-12.684 3.0946l-2.352-3e-3 2.7083-0.91013c4.1971-1.4105 8.3053-3.3427 12.662-5.9555 1.5337-0.91978 1.8072-1.1764 2.2407-2.102 0.61498-1.313 0.89771-1.5145 0.70828-0.50474-0.13891 0.74044-0.1267 0.76196 0.30201 0.53252 0.47812-0.25589 4.0528-2.9527 5.1893-3.915l0.68563-0.5805-1.1204-1.703c-0.61624-0.93667-1.3268-2.3316-1.579-3.0998-0.25219-0.76822-0.69994-1.8087-0.99502-2.3122-0.48727-0.83148-0.52289-1.0424-0.38827-2.2995 0.0815-0.76121 0.19917-1.5168 0.26146-1.6791 0.16779-0.43726 4.4292 3.8614 4.4292 4.468 0 0.44614-0.0245 0.45158-0.72248 0.15997-0.39736-0.16602-0.81316-0.30186-0.92398-0.30186-0.11084 0 0.16542 0.78302 0.6139 1.74 1.4158 3.0213 1.5896 5.2936 0.54169 7.0818-0.69005 1.1775-2.8929 3.3788-5.2938 5.2902-1.3298 1.0586-1.9146 1.6528-1.8338 1.8632 0.0652 0.16988 0.11852 0.44182 0.11852 0.60433 0 0.1625 0.1875 0.48296 0.41667 0.71213 1.2833 1.2833 5.2954-0.48053 9.033-3.971 0.85831-0.80157 1.8557-1.9001 2.2165-2.4411 0.55243-0.82848 0.63592-1.1119 0.52914-1.796-0.19623-1.2572-1.9269-6.2787-2.845-8.2547-0.80932-1.7419-0.82372-1.8145-0.76466-3.8542l0.0602-2.0788 0.69547 0.7188c1.469 1.5182 2.8208 5.0601 3.9798 10.427 0.35879 1.6615 0.68309 3.1146 0.72067 3.2292 0.0376 0.11458 0.1772-0.21354 0.31028-0.72917 0.62825-2.4341 1.4502-3.4636 4.6954-5.8814 1.3833-1.0306 2.5916-1.9445 2.6852-2.0309s0.0162-0.68679-0.17204-1.3342c-0.39336-1.353-0.28119-2.1794 0.38013-2.8007 0.74488-0.69979 1.9892-1.1295 2.8197-0.97368 0.87998 0.16508 2.811 1.1323 3.6718 1.8391l0.61974 0.50889-0.50359 1.1177c-0.68041 1.5101-0.75548 1.5764-2.5244 2.2288-1.446 0.5333-1.562 0.62256-1.8148 1.396-0.1485 0.45443-0.44632 1.0042-0.66182 1.2218-0.38433 0.38806-0.39455 0.38105-0.53487-0.36688-0.0787-0.41938-0.21415-0.80645-0.30107-0.86017-0.38068-0.23527-5.6281 3.9861-5.6281 4.5276 0 0.25454 10.243 0.0761 13.958-0.24317 1.2031-0.10339 2.2238-0.15197 2.2681-0.10796 0.0443 0.044-0.30874 0.67762-0.78461 1.408-0.82951 1.2732-0.9145 1.339-2.0598 1.5952-3.3896 0.75825-8.555 2.8918-10.057 4.1539l-0.72117 0.60611 0.9759 0.93965c0.53674 0.51681 1.4542 1.1581 2.0387 1.425l1.0628 0.48537-0.1192 2.7015-0.9375-0.0547c-2.5875-0.15107-5.0775-1.1916-6.7364-2.8152-1.2994-1.2717-2.0785-2.5351-2.7521-4.4628-0.26892-0.76958-0.53018-1.2611-0.5806-1.0924-0.0504 0.16878-0.1942 0.68634-0.31952 1.1501-0.34272 1.2683-1.386 2.6967-2.958 4.0496-2.9091 2.5038-5.4652 3.9497-7.272 4.1136-1.0357 0.0939-1.2376 0.045-1.813-0.43919zm18.265-5.2618c0-1.6768 1.0174-3.2005 3.0092-4.5067l1.2616-0.82735-4.1318 0.11135c-2.2725 0.0612-4.1859 0.1655-4.2521 0.2317-0.20709 0.20709 0.36625 1.8447 1.0562 3.0169 0.6252 1.0621 2.2294 2.5064 2.7964 2.5177 0.14373 3e-3 0.26042-0.24072 0.26042-0.54358zm6.875-16.585c0-0.2707-1.0003-0.5749-1.8905-0.5749h-0.82168l0.92222 1.4069 0.89497-0.3317c0.49223-0.18244 0.89497-0.40755 0.89497-0.50026zm49.167 20.416c5.4025-3.0372 7.4932-4.5051 9.5305-6.6915 1.4472-1.5531 2.0588-2.5962 2.2601-3.8551 0.15293-0.95635 0.0427-1.8084-1.3777-10.653-0.56127-3.4948-1.3585-8.6034-1.7717-11.352-0.41317-2.749-0.98428-6.1695-1.2691-7.6011-0.50104-2.5181-0.50703-2.6472-0.18393-3.9657 0.18368-0.74955 0.39932-1.4682 0.47918-1.597 0.18822-0.30354 3.166 6.06 3.166 6.7657v0.5367l-1.2964-1.2238 0.12589 0.625c0.0692 0.34375 0.40459 2.5 0.74521 4.7917 0.34063 2.2917 1.0478 6.8726 1.5715 10.18 1.139 7.1931 1.421 9.9214 1.2411 12.008-0.43872 5.087-1.9985 7.9701-5.6236 10.395-2.3062 1.5424-4.6187 2.2872-8.1178 2.6144l-1.4583 0.13635zm-2.7083-0.83237c0-0.16638 0.18529-0.47019 0.41176-0.67514 0.40878-0.36994 0.40798-0.37711-0.11068-0.99351-0.56513-0.67162-0.53945-1.0973 0.12255-2.0318 0.91214-1.2876 1.9586-1.8558 2.6935-1.4625 0.49695 0.26596 0.5462 0.80141 0.12606 1.3706-0.23922 0.32413-0.35088 0.35271-0.5625 0.14399-0.37945-0.37428-0.89461-0.32101-1.3074 0.13517-0.34046 0.37621-0.33467 0.41195 0.11823 0.72917 0.64624 0.45264 0.95482 0.42339 2.2284-0.21124 0.60132-0.29965 1.1484-0.48971 1.2158-0.42234 0.28311 0.28311-1.0404 1.5564-2.5662 2.4689-2.0194 1.2077-2.3694 1.3478-2.3694 0.94863zm-88.239-2.1284c-0.92724-0.92723-0.47874-3.1405 1.2103-5.9727 0.80637-1.3521 2.9836-3.6718 3.2223-3.433 0.055 0.055-0.31872 0.64478-0.83048 1.3106-1.2778 1.6625-2.0302 3.2188-2.0302 4.1991 0 1.0115 0.38343 1.3686 1.2622 1.1756 0.61423-0.13491 0.64497-0.11372 0.50219 0.34616-0.8103 2.61-2.1484 3.5623-3.3364 2.3743zm51.996-2.4331c-0.0104-2.3945-2.1872-17.604-2.6945-18.827-0.0951-0.22928-1.0528-1.4484-2.1281-2.7091-2.2913-2.6863-4.7744-5.8715-6.7392-8.6449l-1.4022-1.9792 0.13905-1.4276c0.0765-0.78516 0.18781-1.5546 0.2474-1.7099 0.15361-0.40031 5.4872 4.1789 5.4872 4.7111 0 0.35326-0.10801 0.38272-0.97005 0.26456-0.80108-0.1098-0.93923-0.0819-0.79311 0.16024 0.31171 0.5165 5.3435 6.4699 5.4102 6.4011 0.1058-0.10911-1.2848-9.0424-1.8241-11.718l-0.50086-2.4849 0.46435-1.5776 0.46434-1.5776 1.583 3.2645c1.8146 3.7422 2.0975 5.0914 0.81513 3.8866-0.34611-0.32515-0.48339-0.36925-0.48647-0.15625-2e-3 0.1632 0.43889 3.2318 0.98055 6.8192l0.98483 6.5224 3.8238 4.2067c2.1031 2.3137 4.1857 4.6755 4.6281 5.2484 1.7373 2.2499 2.3509 4.3195 1.9855 6.6968l-0.15548 1.0115-0.29381-1.1458c-0.16159-0.63021-0.60854-1.6615-0.99321-2.2917-0.6168-1.0105-8.041-9.2023-8.2088-9.0576-0.036 0.031 0.21716 1.777 0.56251 3.8799 1.3296 8.0964 1.3366 11.765 0.0255 13.338l-0.40455 0.48542-7e-3 -1.5903zm-39.731-3.8438c-0.48374-0.48373-0.5255-0.64743-0.41188-1.6146 0.23444-1.9956 2.4743-5.6334 3.9573-6.427 0.43106-0.23069 0.43241-0.2258 0.0736 0.26621-1.1929 1.6359-2.0427 3.0499-2.221 3.6955-0.36595 1.3254 0.15778 2.1706 1.0493 1.6934 0.32718-0.1751 0.40073-0.14601 0.397 0.157-8e-3 0.63344-0.759 2.0703-1.2692 2.4276-0.66398 0.46507-0.94751 0.42939-1.5751-0.19821zm-30.356-2.7698c-0.74617-1.5728-0.8368-1.6809-1.1622-1.3864-0.90709 0.8209-2.2993-0.1061-2.2993-1.531 0-0.64602 0.12048-0.92246 0.54893-1.2595 0.30191-0.23749 0.71114-0.43179 0.9094-0.43179 0.61735 0 1.4089 0.79491 2.0052 2.0137l0.57264 1.1704 0.54255-2.0608c0.59163-2.2473 0.7903-2.7021 1.4352-3.2858 1.0378-0.93924 2.2133 0.48587 1.6953 2.0554-0.28954 0.87731-0.49258 1.0264-1.0161 0.74629-0.30713-0.16437-0.52042-0.11764-0.92866 0.20348-0.52614 0.41386-0.83156 1.4388-1.326 4.4499l-0.16777 1.0218zm84.223-1.2991c-0.65608-0.65608-0.46375-2.2477 0.5096-4.2172 0.76767-1.5533 2.3061-3.4828 3.1274-3.9223 0.43106-0.2307 0.43241-0.22581 0.0736 0.2662-2.0884 2.8639-2.6738 4.1904-2.2548 5.1098 0.21022 0.4614 0.34302 0.52596 0.86649 0.42126 0.71081-0.14216 0.74689-0.0119 0.29578 1.0677-0.68345 1.6357-1.7416 2.1508-2.618 1.2744zm14.894-0.65326c0.29464-1.0845 0.37244-3.2239 0.14742-4.0541-0.13074-0.48236-0.56755-1.3091-0.97068-1.8373-0.67832-0.88865-0.72837-1.0545-0.67131-2.225l0.0616-1.2647 0.87239 0.87389c2.0766 2.0801 2.4657 4.8176 1.15 8.0897-0.37067 0.92185-0.81126 1.2339-0.58945 0.41745zm-35.032-0.0639c-0.35666-0.24982-0.46303-0.53053-0.46303-1.222 0-1.4767 1.941-4.9034 3.1413-5.5458 0.54234-0.29025 0.50793-0.1835-0.24538 0.76134-1.0048 1.2603-1.4685 2.3117-1.3972 3.1683 0.0577 0.69333 0.11855 0.76286 0.6367 0.72739 0.3151-0.0216 0.57292 0.0426 0.57292 0.14268 0 0.72958-1.0584 2.2924-1.5525 2.2924-0.12641 0-0.43819-0.14594-0.69285-0.32431zm-73.796-2.2671c0-0.0379 0.8599-0.70679 1.9109-1.4864 2.2415-1.6626 4.6884-4.0522 5.2719-5.1484l0.41199-0.77393-0.7998-0.65926c-0.75362-0.62119-0.79376-0.71279-0.69531-1.5862 0.12124-1.0757 0.72546-1.9962 1.3735-2.0924 0.56351-0.0837 1.0685 0.98916 1.0685 2.27 0 0.61555 0.14892 1.039 0.52083 1.481 0.60409 0.71791 0.71289 2.1285 0.21496 2.7868-0.28832 0.38119-0.30625 0.3635-0.3125-0.30836-0.0036-0.39202-0.15724-0.87919-0.34132-1.0826-0.31457-0.3476-0.37247-0.29425-0.96282 0.88715-0.75192 1.5047-2.974 3.799-4.442 4.5863-0.92673 0.49702-3.2188 1.299-3.2188 1.1263zm7.7083-9.8044c0-0.38194-0.11111-0.52083-0.41667-0.52083-0.50692 0-0.52439 0.16065-0.07188 0.66068 0.44725 0.4942 0.48854 0.48238 0.48854-0.13985zm50.423 7.9248c-0.13892-0.16738-0.30239-0.67571-0.36327-1.1296-0.0794-0.59206-0.19253-0.79387-0.4003-0.71414-0.36676 0.14074-0.18405-0.41237 0.42595-1.2894l0.43469-0.625 0.13627 1.1153c0.25828 2.1138 1.114 1.9422 1.114-0.22333 0-0.80719 0.0919-1.2998 0.25274-1.3553 0.25091-0.0865 0.33665 0.15992 0.57803 1.6612 0.0978 0.60828 0.2203 0.78125 0.5533 0.78125 0.3968 0 0.41831-0.0865 0.29796-1.1979-0.15636-1.4439 0.14417-2.1472 0.50887-1.1909 0.32255 0.84581 0.49545 2.4497 0.3336 3.0945-0.19276 0.76803-0.83325 1.0557-1.5521 0.69707-0.52921-0.264-0.60367-0.2484-0.93956 0.1969-0.41499 0.55017-1.0085 0.62726-1.3802 0.1793zm-58.317-2.5569c-0.16482-0.0624 0.3516-0.40671 1.1979-0.79872 0.8182-0.37898 1.4876-0.78375 1.4876-0.89948 0-0.11574-0.49219-0.23877-1.0938-0.2734-1.0327-0.0594-1.0899-0.0921-1.0247-0.58381 0.14755-1.1124 0.57603-1.4583 1.8065-1.4583 1.4789 0 2.8119 0.51984 2.8119 1.0965 0 0.23447-0.36984 0.77812-0.82186 1.2081-1.0306 0.98038-3.6149 1.9925-4.3637 1.7091zm63.311-2.6465c0-0.0378 0.77344-0.63065 1.7188-1.3175 1.673-1.2156 3.6979-3.1659 3.6979-3.5616 0-0.10804-0.32513-0.52156-0.72251-0.91894-0.65635-0.65634-0.7047-0.7846-0.52805-1.4006 0.2334-0.81383 0.7673-1.6686 1.0422-1.6686 0.35539 0 0.8338 0.95206 0.89839 1.7878 0.0347 0.44897 0.26828 1.1444 0.51907 1.5455 0.52682 0.84245 0.56238 1.3533 0.14504 2.0833l-0.29773 0.52084-7e-3 -0.55588c-0.0177-1.3299-0.47577-1.5764-0.9262-0.49837-0.37189 0.89007-1.8731 2.5415-2.698 2.9681-0.68163 0.35248-2.8415 1.1247-2.8415 1.0159zm5.4167-7.2006c0-0.23148-0.13889-0.41666-0.3125-0.41666-0.37671 0-0.40276 0.24308-0.0625 0.58333 0.3362 0.33621 0.375 0.31896 0.375-0.16667zm14.777 6.6389c-0.55042-1.0285 0.70407-4.1132 2.3479-5.7735 1.1495-1.161 1.3828-1.0962 0.4471 0.12418-0.86906 1.1335-1.5189 2.4538-1.5256 3.0995-6e-3 0.5948 0.49473 0.9789 1.0477 0.8034 0.39337-0.12485 0.42935-0.083 0.29874 0.34737-0.0817 0.26913-0.33294 0.79401-0.55839 1.1664-0.33278 0.5497-0.54251 0.67709-1.1148 0.67709-0.5063 0-0.77184-0.12519-0.94269-0.44443zm19.463-1.1304c-0.47601-0.47601-0.51751-0.6376-0.3871-1.5072 0.30527-2.0357 2.4283-5.5556 3.8393-6.3654 0.66639-0.38247 0.66438-0.37637-0.30956 0.9375-1.175 1.585-1.7475 2.768-1.7494 3.6141-2e-3 0.95889 0.24947 1.214 1.0286 1.0428 0.63326-0.13909 0.66309-0.11947 0.52047 0.34232-0.70992 2.2985-1.8376 3.0405-2.9423 1.9358zm22.029-1.1856c0.27115-1.4016 0.21675-3.2293-0.12011-4.0355-0.17025-0.40747-0.59213-1.0976-0.9375-1.5337-0.52942-0.66845-0.62795-0.97611-0.62795-1.9608 0-0.64237 0.0851-1.1679 0.18902-1.1679 0.43721 0 2.0944 2.1593 2.428 3.1637 0.46753 1.4076 0.31803 3.8362-0.32868 5.3395-0.56318 1.3092-0.83538 1.3971-0.60278 0.19471zm-33.062-1.0978c-0.50955-0.77768-0.27349-2.1434 0.71544-4.1392 0.7986-1.6116 2.6426-3.8776 3.1556-3.8776 0.12476 0-0.14065 0.49218-0.5898 1.0938-1.458 1.9528-2.0904 3.5875-1.6827 4.3494 0.18246 0.34091 0.36317 0.40847 0.83838 0.31343 0.71494-0.14299 0.77161 0.10996 0.28534 1.2737-0.47032 1.1256-0.90065 1.5114-1.6862 1.5114-0.50976 0-0.78268-0.13828-1.036-0.52491zm-44.571 0.0237c-0.93407-0.40687-2.3119-2.0851-2.7196-3.3124-0.40987-1.234-0.46831-2.8793-0.21233-5.978 0.31344-3.7944-0.71583-1.5696-1.8431 3.984-0.7525 3.7071-1.1663 4.7238-2.0947 5.1468-0.77395 0.35263-1.1255 0.30548-1.8516-0.24836-0.73658-0.56181-1.4966-1.9654-1.9148-3.536-0.35623-1.3379-0.37619-4.7504-0.0364-6.2218l0.25497-1.104 0.12958 2.2917c0.14339 2.5358 0.57763 4.3247 1.2605 5.1929 0.48697 0.61909 1.17 0.9588 1.5992 0.79544 0.48268-0.18371 1.2421-1.9945 1.9917-4.7492 1.27-4.6671 1.7796-5.7392 3.4103-7.1746l0.9912-0.87249 0.15247 0.69563c0.1729 0.78884 0.0658 2.2742-0.37812 5.245-0.45117 3.0192-0.033 4.8591 1.3735 6.0425 1.1599 0.97603 2.9522 0.97954 4.4397 9e-3 1.1419-0.74529 2.4374-2.8288 2.4338-3.9141-2e-3 -0.46922-0.32165-2.4404-0.71128-4.3804l-0.70841-3.5272 0.41368-1.0561c0.22753-0.58085 0.49337-1.1378 0.59077-1.2377 0.0988-0.10129 0.41587 0.28962 0.71713 0.88412 0.4059 0.80102 0.64025 1.8158 0.94358 4.0857 0.71874 5.3787 1.5164 7.6011 3.1267 8.7109 1.1015 0.7592 4.0709 0.33363 5.5514-0.79566l0.67848-0.5175-0.91264-1.718c-1.2036-2.2657-2.0792-4.6029-2.6339-7.0305-0.502-2.1969-0.53104-2.8542-0.18317-4.146l0.23712-0.88063 0.3716 0.48208c1.1649 1.5112 2.5218 3.7179 2.5218 4.101 0 0.50861-0.0718 0.53122-0.67028 0.21095-0.34897-0.18676-0.40933-0.1765-0.30645 0.0521 1.9734 4.3846 2.7949 7.5098 2.4326 9.2547-0.2956 1.4238-1.2396 2.8265-2.4352 3.6185-1.1417 0.75623-1.9152 0.92545-3.7083 0.81128-1.8577-0.11829-2.8742-0.84281-3.8417-2.7381l-0.71669-1.4041-0.4522 1.2488c-0.56363 1.5566-0.9389 2.135-1.8224 2.8088-1.4359 1.0952-4.0119 1.5055-5.4686 0.87093zm33.541-5.8463c-0.16603-0.39737-0.30187-0.91852-0.30187-1.1581s-0.0937-0.37771-0.20834-0.3069c-0.45762 0.28283-0.17081-0.68496 0.40365-1.362l0.61198-0.7213-9e-3 1.2242c-9e-3 1.2907 0.29208 1.7717 0.83028 1.325 0.20823-0.17282 0.25264-0.50998 0.15958-1.2115-0.13088-0.98657-9e-3 -1.6502 0.30327-1.6502 0.19876 0 0.51142 0.82425 0.44551 1.1745-0.0869 0.4617 0.3741 1.3255 0.70737 1.3255 0.28928 0 0.31781-0.17495 0.19754-1.2112-0.10853-0.93505-0.0716-1.2685 0.1621-1.4624 0.25342-0.21032 0.3408-0.0999 0.53679 0.6785 0.29277 1.1627 0.30099 2.5226 0.0184 3.0506-0.22909 0.42807-1.1184 0.54119-1.6432 0.20903-0.20943-0.13254-0.41247-0.04-0.69221 0.31569-0.57569 0.73187-1.1598 0.64773-1.5221-0.21922zm-67.288-2.9754c0.07784-0.20052 0.19489-0.99351 0.26012-1.7622 0.14992-1.7668-0.1899-3.0196-1.1109-4.0955-0.63329-0.73985-0.70453-0.9514-0.70453-2.092 0-0.69793 0.07472-1.269 0.16605-1.269 0.3168 0 1.6673 1.5674 2.1541 2.5 0.68843 1.3189 0.68823 4.1476-4.17e-4 5.8854-0.26108 0.65886-0.57173 1.1979-0.69034 1.1979-0.12041 0-0.15315-0.16102-0.07413-0.36459zm36.505-1.0938c0.38364-2.5996-9e-3 -4.4576-1.1629-5.501-0.35842-0.32414-0.43884-0.63911-0.43884-1.7188 0-0.72703 0.0828-1.3219 0.18409-1.3219 0.34828 0 1.7385 1.7212 2.1669 2.6828 0.58866 1.3213 0.57654 3.6438-0.0278 5.3258-0.62698 1.7452-0.93378 1.9718-0.72145 0.53298zm-50.12-1.8229c-0.24152-0.20052-0.49743-0.66643-0.56869-1.0354-0.1418-0.73406-0.14278-0.73288 1.9512-2.349 0.60156-0.46426 1.0938-0.91345 1.0938-0.9982 0-0.0848-0.21094-0.24663-0.46875-0.35974-0.63276-0.2776-0.6959-1.0045-0.16535-1.9037 0.32343-0.54818 0.37963-0.81488 0.21382-1.0147-0.4683-0.56426 0.24564-0.54979 1.0703 0.0217 1.1577 0.80226 1.85 1.6828 1.85 2.3528 0 0.75051-0.35132 1.0673-1.1835 1.0673-0.5577 0-0.70791 0.0971-0.81596 0.52765-0.08273 0.32962-0.63152 0.88378-1.4623 1.4766-0.73143 0.52194-1.3299 1.0345-1.3299 1.139 0 0.3299 1.9595 0.21072 2.5057-0.1524 0.28331-0.18835 1.101-0.9122 1.8172-1.6086 0.71615-0.69636 1.3021-1.1954 1.3021-1.109s-0.22628 0.59935-0.50283 1.1398c-1.2355 2.4144-4.0107 3.8816-5.3068 2.8056zm4.3513-5.3323c0-0.0395-0.1875-0.24156-0.41667-0.44895-0.40442-0.366-0.41667-0.36388-0.41667 0.0719 0 0.31006 0.1289 0.44895 0.41667 0.44895 0.22917 0 0.41667-0.0323 0.41667-0.0719zm-1.3542-0.74695c0-0.16075-0.09375-0.32201-0.20833-0.35834-0.3418-0.10838-0.79424 0.27833-0.63227 0.54041 0.20093 0.32511 0.8406 0.18656 0.8406-0.18207zm53.896 5.1522c-0.1375-0.1375-0.25-0.55937-0.25-0.9375 0-0.37812-0.0937-0.6875-0.20833-0.6875-0.11459 0-0.20522-0.11718-0.20141-0.26041 7e-3 -0.27015 0.70459-1.1979 0.90047-1.1979 0.0613 0 0.14001 0.44531 0.17494 0.98958 0.0457 0.71252 0.15099 0.98959 0.376 0.98959 0.23525 0 0.31859-0.27218 0.33713-1.101 0.0136-0.60556 0.0776-1.154 0.14239-1.2188 0.24489-0.24488 0.56214 0.17983 0.56214 0.75256 0 0.82393 0.1957 1.2548 0.56997 1.2548 0.2573 0 0.29294-0.18649 0.18911-0.98959-0.0704-0.54427-0.0479-1.1158 0.0499-1.2701 0.25816-0.40708 0.64931 0.83203 0.64931 2.0569 0 1.2286-0.38516 1.6346-1.2434 1.3107-0.48711-0.18386-0.64088-0.15559-0.91876 0.16896-0.38453 0.44909-0.7722 0.49707-1.1295 0.13978zm-20.189-0.79953c1.7043-0.56731 2.7624-1.1628 4.1432-2.3316 0.49141-0.416 0.5248-0.51895 0.27715-0.85449-0.31697-0.42947-0.0905-1.3872 0.43028-1.8194 0.16298-0.13527 0.29633-0.42196 0.29633-0.63709 0-0.59477 0.3637-0.47217 1.152 0.38835 1.0441 1.1397 1.2723 1.7994 0.84709 2.4484-0.35546 0.54251-0.57624 0.60122-1.2577 0.33447-0.31953-0.12507-0.64746 0.0896-1.5625 1.0231-1.4175 1.446-2.9237 2.0869-4.8638 2.0697l-1.2943-0.0115 1.8322-0.60989zm6.5508-3.6776c-0.19371-0.1937-0.41068-0.29369-0.48218-0.22219-0.20503 0.20504 0.10973 0.57437 0.48951 0.57437 0.31802 0 0.31744-0.0274-7e-3 -0.35218zm-0.77878-0.59761c0-0.35353-0.53685-0.40304-0.74356-0.0686-0.15705 0.25411 0.31085 0.63622 0.57737 0.4715 0.0914-0.0565 0.16619-0.23781 0.16619-0.40292zm24.732 2.9042c-0.0863-0.0864 0.50108-0.46183 1.3054-0.83438 0.80433-0.37256 1.4624-0.77698 1.4624-0.8987 0-0.12937-0.47602-0.22132-1.1458-0.22132-1.3142 0-1.4406-0.24311-0.73145-1.4062 0.37586-0.61645 0.50172-0.67565 1.4055-0.66107 1.2655 0.0204 2.5522 0.40699 2.8322 0.85091 0.35398 0.56117-0.69671 1.7226-2.208 2.4407-1.3998 0.66515-2.668 0.98223-2.9202 0.7301zm12.28-0.026c-0.0679-0.10991 0.22498-0.30606 0.65092-0.43589 0.95627-0.29148 2.1286-0.99704 2.1286-1.2811 0-0.11743-0.51105-0.21139-1.1498-0.21139-1.1483 0-1.1496-8.4e-4 -1.0143-0.57292 0.0745-0.3151 0.33411-0.79368 0.57688-1.0635 0.39724-0.4415 0.56181-0.47825 1.6446-0.36724 1.4439 0.14804 2.4427 0.61887 2.4427 1.1514 0 0.52284-1.4838 1.8303-2.6393 2.3256-1.1565 0.49574-2.4746 0.72289-2.6402 0.45498zm10.729 5e-3c-0.15373-0.0584 0.38534-0.42784 1.1979-0.8209 0.81258-0.39305 1.4774-0.80425 1.4774-0.91377 0-0.10953-0.51563-0.19914-1.1458-0.19914-1.3142 0-1.4406-0.24311-0.73145-1.4062 0.37416-0.61366 0.50722-0.67708 1.4204-0.67708 1.4156 0 2.9568 0.55319 2.9568 1.0612 0 0.63596-1.5111 1.9762-2.7365 2.4272-1.4052 0.51714-2.0828 0.66402-2.4388 0.52867zm29.494 0.0251c-0.0881-0.0886 0.28693-0.35589 0.83334-0.59399 2.2332-0.97314 2.4252-1.3649 0.66867-1.3649-0.79077 0-1.0294-0.0748-1.0294-0.32285 0-0.62385 0.63809-1.5475 1.1594-1.6784 1.0998-0.27602 3.6322 0.45315 3.6322 1.0458 0 0.17373-0.27872 0.63333-0.61939 1.0213-0.93631 1.0664-4.1604 2.3803-4.6449 1.8929z"/>
</svg>
