<?xml version="1.0" encoding="UTF-8"?>
<svg width="210mm" height="297mm" version="1.1" viewBox="0 0 210 297" xmlns="http://www.w3.org/2000/svg">
 <rect x="100" width="100" height="100.13" fill="#fff" stroke-linejoin="round" stroke-opacity=".4498" stroke-width=".265"/>
 <rect width="100" height="100.13" fill="#fff" stroke-linejoin="round" stroke-opacity=".4498" stroke-width=".265"/>
 <path d="m128.17 74.57c-1.9823-1.0039-2.9289-2.8724-3.1135-6.1462-0.0657-1.1651-0.22274-2.1107-0.38103-2.2947-0.45775-0.53195-0.5417-1.3112-0.30411-2.823 0.30258-1.9253 1.1468-3.6849 2.5792-5.3756 0.64526-0.76162 1.1732-1.4244 1.1732-1.4728s-1.5615-1.5242-3.47-3.2797l-3.47-3.1917 0.13805 2.1782c0.0759 1.198 0.19575 4.3373 0.26628 6.9762 0.13668 5.1144 0.0333 6.2094-0.78711 8.3443l-0.48103 1.2516-0.14346-2.1904c-0.0789-1.2047-0.40328-5.9205-0.72085-10.479l-0.5774-8.289-2.2386-2.386c-1.2312-1.3123-2.914-3.3085-3.7395-4.4361-0.82549-1.1276-2.0504-2.6758-2.722-3.4404l-1.221-1.3904v-1.5823c0-0.87028 0.0835-1.5823 0.18554-1.5823 0.10203 0 1.0519 0.56965 2.1108 1.2659 2.2353 1.4697 4.162 3.2154 4.162 3.771 0 0.466 0.0265 0.46392-0.91207 0.0713-0.41503-0.17363-0.7546-0.22413-0.7546-0.11227 0 0.20533 2.3376 3.0736 3.919 4.8087 0.80385 0.88198 0.85591 0.90721 0.86086 0.41722 3e-3 -0.28682-0.22426-3.6605-0.5048-7.4971l-0.51008-6.9755 0.6656-1.2124c0.36609-0.66676 0.72533-1.2123 0.79832-1.2123 0.1984 0 1.5624 3.6882 1.855 5.0158 0.14019 0.63608 0.22 1.3378 0.17738 1.5595-0.0654 0.34024-0.15278 0.29011-0.56119-0.32209l-0.4837-0.72502 0.11234 1.5646c0.0618 0.86051 0.26286 3.9584 0.44683 6.8841 0.18396 2.9257 0.37598 5.5261 0.42672 5.7787 0.10153 0.50542 8.734 8.6863 9.0513 8.5777 0.43777-0.14988 6.2465-5.6668 6.2465-5.9327 0-0.45828-1.8555-18.25-1.9919-19.101-0.0996-0.62087 0.01-1.0105 0.56973-2.0315 0.38116-0.69477 0.75515-1.2643 0.83104-1.2657 0.36354-6e-3 2.0495 5.1183 2.0495 6.2299v0.7328l-0.53402-0.71852-0.53404-0.71849 0.13106 1.2516c0.0721 0.68841 0.39371 4.0946 0.71475 7.5692 0.32106 3.4746 0.62238 6.3562 0.66961 6.4035 0.0743 0.0744 5.21-4.4557 6.6144-5.8346l0.49924-0.49017-0.93648-1.1121c-0.51507-0.61163-1.6193-2.0039-2.4538-3.0938-0.8345-1.09-1.8263-2.3104-2.204-2.7119-0.63695-0.67717-0.6916-0.84739-0.75382-2.3473-0.0369-0.88947-0.0445-1.617-0.0167-1.6167 0.10559 1e-3 4.9956 3.6518 5.9392 4.4341 1.1754 0.97454 1.1299 1.1658 0.67917-2.8514l-0.3023-2.6942 0.64788-1.2172c0.35634-0.66944 0.71533-1.2172 0.79776-1.2172 0.40171 0 2.3555 5.7262 2.1624 6.3375-0.11212 0.35485-0.17084 0.33496-0.61647-0.20861l-0.49255-0.60081 0.11174 0.93873c0.0614 0.51631 0.22299 1.892 0.35896 3.0572l0.2472 2.1184 2.837-2.4313c1.5603-1.3372 3.1856-2.713 3.6117-3.0572l0.77476-0.62583-0.20193-1.4603c-0.19994-1.4459-0.19465-1.4734 0.5368-2.7927 0.66725-1.2036 0.76501-1.2965 1.0104-0.96041 0.14944 0.20465 0.47282 0.97727 0.71866 1.717l0.44696 1.3449 0.86198-0.79898c0.47408-0.43945 1.5389-1.4522 2.3663-2.2507 0.82737-0.79842 1.5604-1.3955 1.629-1.3268 0.23297 0.23327-0.35892 1.7466-1.0632 2.7183-0.38582 0.53236-1.2657 1.4196-1.9553 1.9716-1.2338 0.9877-1.252 1.0175-1.1431 1.8718 0.13783 1.081-0.15128 1.2924-0.73995 0.54108-0.41682-0.53203-0.4428-0.5397-0.34961-0.10321 0.0554 0.25932 0.35939 4.4367 0.67559 9.2831l0.57489 8.8116 2.4163 2.5033c3.3918 3.514 4.8651 5.8273 5.4221 8.514 0.23674 1.1418 0.11703 3.0638-0.19093 3.0638-0.0835 0-0.271-0.39896-0.4168-0.88658-0.40286-1.3472-1.5224-3.4553-2.5758-4.8501-1.1549-1.5292-4.2286-4.8375-4.3608-4.6937-0.0528 0.0574-0.0125 1.3716 0.0906 2.9205 0.29017 4.3804 0.0624 8.0892-0.62144 10.118l-0.56262 1.6689-0.14662-1.2516c-0.0806-0.68841-0.35452-4.5237-0.6086-8.5229l-0.46199-7.2713-2.2039-1.9929c-2.3682-2.1415-5.5346-4.8469-5.6728-4.8469-0.0466 0 0.17986 2.8397 0.50311 6.3104 0.59834 6.4243 0.8516 14.442 0.50755 16.067-0.32844 1.5517-2.1345 3.0516-4.3625 3.6232-2.2062 0.56596-4.2437 0.0347-5.4771-1.4281-0.68661-0.8143-1.5515-2.5963-1.5544-3.2027-6e-3 -1.442-1.2875-1.4166-2.9256 0.058-1.2278 1.1054-2.0009 2.528-2.7931 5.1399-1.0064 3.3183-2.5528 4.3203-4.862 3.1508zm2.0165-2.0676c0.81406-0.42152 1.0966-0.93261 1.9684-3.5602 0.44053-1.3278 1.1203-2.8464 1.6103-3.5972 1.7111-2.6222 4.4596-4.1268 5.4787-2.9992 0.19325 0.21382 0.67585 1.1709 1.0725 2.1268 1.2786 3.0817 2.7068 3.9127 5.5723 3.2423 2.0085-0.46989 3.0685-1.0503 3.0685-1.6802 0-0.2768-0.51562-5.5682-1.1458-11.759-0.63021-6.1904-1.1473-11.383-1.149-11.54-1e-3 -0.15638-0.0888-0.41972-0.19329-0.58519-0.14842-0.2349-0.86058 0.33675-3.2485 2.6076-1.6821 1.5996-3.4775 3.284-3.9898 3.7429l-0.93138 0.83442 0.26423 2.6409c0.21039 2.1028 0.212 2.9316 8e-3 4.0679-0.27172 1.5126-1.0643 3.3867-1.6311 3.8566-0.31265 0.2592-0.33072 0.10322-0.22057-1.904 0.13788-2.5124-0.0377-6.6795-0.28149-6.6795-0.0906 0-0.85408 0.63366-1.6966 1.4081-0.84251 0.77446-1.9762 1.8119-2.5194 2.3055l-0.98755 0.89735 0.72488 0.848c0.87649 1.0253 1.3725 2.3932 1.3725 3.785 0 1.6669-0.39989 2.6435-1.5619 3.8142-1.2706 1.2802-2.9174 1.9866-4.9485 2.123-1.6074 0.10788-1.5904 0.0761-1.0874 2.0374 0.89967 3.5082 2.5306 4.961 4.4522 3.9659zm8.0414-12.059c0.45833-0.27404 1.4908-0.88141 2.2944-1.3497 0.80359-0.46828 1.8817-1.2277 2.3958-1.6877l0.93475-0.83621-0.59602-0.23049c-0.53502-0.20689-0.58173-0.29954-0.45643-0.90483 0.0768-0.37089 0.13257-1.0158 0.12392-1.433-0.0268-1.3032 1.09-1.226 2.53 0.17488 0.99426 0.96719 1.2965 1.6872 1.0172 2.4229-0.23214 0.61135-0.55003 0.68682-1.352 0.32094-0.48495-0.22124-0.59501-0.15946-1.4883 0.83538-0.72008 0.80195-1.448 1.3093-2.8715 2.0015-1.0488 0.50995-2.2351 0.9851-2.6361 1.0559l-0.72916 0.1287zm7.7664-4.5701c-0.0445-0.13355-0.3804-0.47414-0.74653-0.75686l-0.66569-0.51405v0.6178c0 0.33979 0.0626 0.68038 0.13889 0.75686 0.24579 0.24614 1.3596 0.1554 1.2733-0.10372zm-1.6897-0.29487c0.0694-0.181-0.0273-0.48275-0.21487-0.67053-0.31576-0.31617-0.36796-0.31404-0.70558 0.0289-0.34733 0.35285-0.34545 0.38456 0.0398 0.67052 0.51934 0.38548 0.7244 0.37874 0.88063-0.0289zm-14.883 7.1954c2.4154-0.951 2.8748-1.5471 2.0864-2.7068-0.76798-1.1295-1.7979-2.282-2.0393-2.282-0.27383 0-2.1271 2.0509-3.1858 3.5255-0.68319 0.95158-0.8495 1.778-0.39857 1.9805 0.46712 0.20971 2.4142-0.0749 3.5372-0.51713zm26.806-21.881c-0.35236-5.1787-0.55102-7.0951-0.73108-7.0522-0.13599 0.0325-1.627 1.2793-3.3132 2.7708-1.6863 1.4916-3.1958 2.8161-3.3545 2.9435-0.61417 0.49299-0.26296 1.0778 1.951 3.2485 3.279 3.215 5.7067 5.4256 5.8265 5.3056 0.0578-0.0579-0.11261-3.3052-0.37877-7.2163zm-10.187-4.144c0-1.0016-8e-3 -1.0122-0.85363-1.2661-0.46948-0.14085-0.90131-0.20834-0.95958-0.14997-0.0903 0.0903 1.6026 2.4261 1.7584 2.4261 0.0301 0 0.0549-0.45452 0.0549-1.01zm-84.167 34.946c5.6312-2.8277 9.821-5.1127 10.34-5.639 0.12964-0.13148 0.43807-0.86102 0.68543-1.6212 0.44788-1.3764 1.6233-3.5506 2.2415-4.146 0.40499-0.39012 0.37083-0.29953-0.70795 1.8775-0.48327 0.97524-0.94104 2.136-1.0173 2.5795l-0.1386 0.8063 1.9548-1.3102c3.6812-2.4672 6.8506-5.1379 6.8506-5.7725 0-0.16261-0.79688-2.0383-1.7708-4.1682-0.97396-2.1299-1.7708-3.9673-1.7708-4.083 0-0.11579 0.1921-0.85636 0.42688-1.6457 0.50125-1.6853 0.56677-1.6807 1.9801 0.14122 1.0211 1.3162 1.3981 1.9571 1.655 2.8136l0.15644 0.52152-0.54671-0.50573c-0.65143-0.60261-0.68312-0.47551-0.14486 0.58095 1.2631 2.4791 1.7319 5.9031 1.0726 7.8329-0.40971 1.1991-3.2071 3.9999-6.4464 6.4543l-2.7844 2.1098 0.59691 0.25528c1.5203 0.65021 4.415 0.0223 6.9455-1.5066 1.9719-1.1914 5.3934-3.8588 7.4014-5.7702l1.3814-1.3149-1.1691-3.442c-0.64301-1.8931-1.7273-4.5458-2.4095-5.8949-0.6822-1.3491-1.2346-2.6633-1.2276-2.9205 7e-3 -0.25719 0.17367-0.98154 0.37038-1.6097l0.35765-1.142 0.58758 0.77135c0.8273 1.0861 2.7205 4.5618 3.4858 6.3996 0.93772 2.2518 1.6198 5.1693 1.8531 7.9261 0.11369 1.3434 0.40835 3.0635 0.66393 3.8756 0.3932 1.2495 0.66118 1.6671 1.8566 2.8931 0.76841 0.78804 1.4892 1.3758 1.6018 1.3061 0.1126-0.0697 0.26754-0.46189 0.34429-0.87158 0.3301-1.762 2.4208-3.1417 6.7827-4.4762 1.2031-0.36808 2.4219-0.75351 2.7083-0.85648 0.3178-0.11428-2.1888-0.15295-6.4301-0.0994l-6.9509 0.088 0.12771-0.79973c0.29745-1.8626 0.59549-2.357 2.1047-3.4912 1.4661-1.1018 5.6528-3.348 7.8674-4.221 1.2177-0.47998 1.442-0.79559 0.89093-1.2536-1.3385-1.1123 0.41074-4.594 2.3081-4.594 0.79591 0 2.6944 0.88966 4.4656 2.0927 1.6887 1.1469 1.6905 1.1511 1.1494 2.601l-0.46716 1.2516-1.3349 0.26749c-0.7342 0.14711-1.6727 0.35825-2.0856 0.46917l-0.75068 0.20167 0.0975 1.0161c0.11778 1.2273-0.23558 1.5796-0.56916 0.56745-0.39809-1.2078-0.58225-1.2445-2.6359-0.52503-2.2133 0.77544-5.3574 2.2975-6.2244 3.0132l-0.625 0.51594 10.99 1e-3c6.0443 6.3e-4 10.99 0.038 10.99 0.0831s-0.30752 0.63185-0.68337 1.3038l-0.68337 1.2217-1.5562 0.36682c-8.352 1.9686-10.947 2.6385-13.64 3.5212-3.3058 1.0837-4.7492 1.7621-4.8486 2.2789-0.0762 0.39608 1.3412 1.1033 3.1167 1.5551 0.72341 0.18407 1.6669 0.42648 2.0966 0.53871l0.78125 0.20402v3.113l-0.78125-1e-3c-1.7581-4e-3 -4.6533-0.5934-5.994-1.2216-1.6841-0.78912-3.4898-2.553-4.4146-4.3123-0.73361-1.3956-1.439-3.7554-1.6868-5.6428l-0.162-1.234-0.47389 1.4603c-0.4143 1.2767-0.64889 1.6263-1.866 2.7814-4.5277 4.2967-9.6455 7.0722-12.683 6.8785-1.4747-0.094-2.16-0.55828-2.7554-1.8667l-0.34571-0.75971-1.3456 0.82306c-2.2556 1.3797-3.1578 1.7852-5.209 2.3413-1.9901 0.53957-8.9967 2.004-9.5741 2.001-0.17188-8.4e-4 2.3594-1.3433 5.625-2.9831zm45.586-19.707c1.2474-0.35304 1.2955-0.39002 0.93375-0.71783-0.57118-0.5176-2.1697-1.1932-2.8355-1.1984-0.32264-2e-3 -0.77863 0.0984-1.0133 0.22407-0.40818 0.21874-0.38762 0.26853 0.47375 1.1474 0.49523 0.50527 0.95121 0.91831 1.0133 0.91787 0.0621-4.3e-4 0.7047-0.16833 1.428-0.37306zm38.177 21.395c0.19117-0.42013 1.1452-0.89105 5.1379-2.5362 2.6967-1.1111 4.9444-1.9789 4.9949-1.9284 0.0505 0.0505-0.028 0.28399-0.17446 0.51877-0.21363 0.34254-5.9943 2.8865-9.8216 4.3223-0.32864 0.12334-0.34441 0.0798-0.13671-0.37658zm8.0196 0.30361c-0.0554-0.0554 0.95863-0.58894 2.2533-1.1855 4.5953-2.1174 8.68-4.7694 10.192-6.6173 0.41849-0.51135 1.0206-1.4864 1.338-2.1668 0.84795-1.8175 0.84345-3.6824-0.0356-14.703-0.41585-5.2144-0.92842-11.648-1.139-14.298-0.21064-2.6494-0.49539-5.0274-0.63282-5.2845-0.21263-0.39783-0.14869-0.6979 0.42931-2.0149 0.37353-0.85108 0.73712-1.5474 0.80798-1.5474 0.24475 0 2.2959 6.6576 2.2945 7.4476l-1e-3 0.79243-0.8586-1.2516 0.13439 2.1904c0.074 1.2047 0.363 5.1005 0.6424 8.6572 1.0096 12.853 1.0199 13.067 0.75535 15.716-0.65962 6.6062-3.1648 10.308-8.394 12.402-2.302 0.92218-7.4868 2.1626-7.7862 1.8628zm-109.11-0.27011c-1.9531-0.26416-3.6344-0.94704-4.6582-1.892l-0.87532-0.80791-7.4498 0.23057 6.4088-2.2091-0.03596-2.1904c-0.02828-1.7221 0.07212-2.6141 0.46952-4.1722 0.49787-1.952 1.7731-5.5237 1.9198-5.3769 0.04134 0.0414-0.10589 0.65773-0.32718 1.3697-0.94138 3.0286-0.94178 6.4033-1e-3 8.5329l0.38961 0.88194 1.6299-0.6576c2.6942-1.0871 8.1551-3.9387 10.458-5.4608 2.2721-1.5021 4.9759-3.7125 5.1742-4.23 0.13615-0.35521-0.34404-1.9433-0.58757-1.9433-0.09065 0-0.70472 0.14081-1.3646 0.31292-1.4957 0.3901-3.8265 0.40435-4.7127 0.0288-1.3793-0.5846-1.878-1.7312-1.5502-3.5647 0.2275-1.2724 0.75958-2.3368 1.5378-3.0764 0.63163-0.60028 1.901-1.2113 2.5124-1.2094 1.4124 5e-3 3.3715 1.3533 4.2571 2.9312 0.25394 0.45243 0.51644 0.8226 0.58333 0.8226 0.21071 0 1.7542-1.0758 2.4058-1.6768 0.95677-0.88247 2.2002-1.661 2.6528-1.661 0.3672 0 0.39349 0.0995 0.26795 1.0134-0.12036 0.87622-0.07365 1.0892 0.34503 1.5736 0.3753 0.43414 0.69512 0.56986 1.4217 0.60332 0.92207 0.0425 0.93669 0.0328 0.88849-0.58267-0.02696-0.34419-0.61331-5.5403-1.303-11.547l-1.254-10.921 1.3304-2.4993 0.56209 1.1144c0.77284 1.5322 1.861 4.679 1.8519 5.3553l-0.0075 0.55705-1.068-1.2516 0.1192 1.2516c0.06557 0.6884 0.35552 3.223 0.64434 5.6324 0.28883 2.4094 0.69373 6.0705 0.89979 8.1357 0.29185 2.925 0.43993 3.7549 0.66996 3.7549 0.16241 0 0.72097-0.69492 1.2413-1.5443 1.017-1.6603 1.5207-2.1359 1.8804-1.7756 0.15018 0.15038 0.14727 0.41683-0.01 0.86711-0.47133 1.3538 0.34517 1.8604 2.825 1.7525 1.3138-0.0572 1.4927-0.25512 1.1106-1.2291-0.31185-0.79496-0.3035-0.84662 0.34481-2.1326 0.7604-1.5083 0.85058-1.4328 1.0607 0.88889 0.1845 2.0387-0.26176 3.624-1.3486 4.7907-0.69929 0.75067-0.91739 0.85658-1.9386 0.94137-1.3872 0.11516-2.5011-0.33678-3.027-1.2282-0.33795-0.57287-0.68112-0.79106-0.68112-0.43306 0 0.0921-0.30469 0.58268-0.67709 1.0901l-0.67708 0.92259-2e-3 2.6127c-1e-3 2.4023-0.0501 2.7303-0.60322 4.073-1.4115 3.426-6.2648 7.9589-11.169 10.432-2.8297 1.4269-7.0383 2.6443-9.9968 2.8917-0.63021 0.0526-1.7721 0.0113-2.5375-0.0924zm6.7501-3.8088c5.1667-1.3512 9.7752-3.9748 13.776-7.8426 2.2279-2.154 2.2455-2.1966 1.9663-4.7684l-0.22897-2.1095-1.2121 0.0337c-1.5148 0.042-2.1578-0.37724-2.9023-1.8924l-0.53451-1.0878-0.50716 0.54273c-0.27894 0.29848-0.9387 0.86058-1.4661 1.2491-0.94224 0.69411-0.96112 0.73109-1.0819 2.1193-0.15217 1.7489-0.768 3.566-1.5399 4.5436-1.7424 2.207-5.9088 5.0999-10.958 7.6088-3.5373 1.7576-3.6792 1.8515-3.125 2.0669 1.0343 0.40198 5.5228 0.13578 7.8141-0.46345zm3.4403-17.349c-1.1402-1.0048-3.2131-1.1184-3.5668-0.19557-0.18815 0.49096 0.52967 0.70386 2.3722 0.7036l1.7708-2e-4 -0.57624-0.50779zm33.452 19.817c-0.75548-2.4656-0.76532-2.9798-0.0703-3.6757 0.32998-0.33039 0.8134-0.60073 1.0743-0.60073 0.34305 0 0.41134-0.0632 0.24672-0.22794-0.16462-0.16484-0.34778-0.16355-0.66168 5e-3 -0.39569 0.21204-0.41866 0.19072-0.25998-0.24144 0.31226-0.85043 1.7356-1.0395 2.0307-0.26969 0.16648 0.43443-0.0863 1.3602-0.39799 1.4572-0.13981 0.0435-0.59672 0.13592-1.0154 0.20535-0.41862 0.0694-0.81741 0.27307-0.88618 0.45254-0.0688 0.17947 0.021 0.89068 0.19951 1.5805 0.1785 0.68979 0.29376 1.5965 0.25611 2.0149-0.065 0.72245-0.0909 0.68728-0.51588-0.69955zm49.951 0.56697c-0.0228-1.0693-0.51904-2.0148-1.4508-2.7646-0.56081-0.45126-0.85552-0.85604-0.85552-1.175 0-0.7041 0.30958-0.60483 1.344 0.43099 1.1776 1.1792 1.6326 2.6654 1.156 3.7761-0.14957 0.34854-0.18145 0.30452-0.19368-0.26746zm-29.53-1.3797c-0.5094-0.43874-0.55516-0.57252-0.37459-1.0952 0.12656-0.3663 0.63325-0.87631 1.3169-1.3255l1.1112-0.73012-0.76278-0.0656c-0.41953-0.0361-0.89687 0.0457-1.0607 0.18199-0.24221 0.20128-0.29797 0.16613-0.29797-0.18781 0-0.58701 0.59604-0.86731 1.8443-0.86731 2.1799 0 2.2105 0.40121 0.1303 1.7112-0.85684 0.5396-1.5579 1.1245-1.5579 1.2998 0 0.73886 2.4532 0.67462 3.9962-0.10459l0.89966-0.45437-0.50411 0.54614c-0.71023 0.76943-2.4555 1.5912-3.3793 1.5912-0.52346 0-0.97207-0.16473-1.3611-0.49982zm7.8904-1.0022c-0.13751-0.13767-0.24794-0.48971-0.24543-0.78227 5e-3 -0.54548 0.71316-2.3051 0.9281-2.3051 0.0658 0-0.0233 0.27696-0.19816 0.61546-0.17482 0.3385-0.31784 0.79638-0.31784 1.0175 0 0.4783 0.51665 0.96202 0.8242 0.77169 0.30102-0.18629 0.27424 0.37556-0.0325 0.68275-0.1375 0.1377-0.35313 0.25033-0.47917 0.25033s-0.34166-0.11263-0.47916-0.25033zm-84.579-5.9154c-0.69971-0.49075-0.61011-1.6237 0.26494-3.35 1.0412-2.0542 1.7582-2.8923 0.92768-1.0845-0.83651 1.8209-0.80631 2.9521 0.08153 3.0539 0.34979 0.0401 0.75401-0.0796 0.98958-0.29309 0.76838-0.69629 0.34611 0.60174-0.49744 1.5291-0.49941 0.54904-1.1175 0.59964-1.7663 0.14463zm14.877-1.3963c-0.06909-0.25815-0.1269-1.0321-0.12847-1.72-0.0029-1.2518-0.94261-13.611-1.162-15.282-0.09812-0.7472-0.19046-0.88659-0.58738-0.88659-0.98261 0-2.4098-0.66801-3.1281-1.4642-1.4421-1.5984-1.747-4.3265-0.86311-7.7237 0.63007-2.4216 0.44701-2.8032-0.71881-1.4982-0.91624 1.0256-1.6691 2.9528-2.2842 5.8475-0.67773 3.1893-1.881 4.8386-3.5301 4.8386-2.7801 0-3.9922-2.824-3.2932-7.6727 0.18602-1.2903 0.44236-2.5091 0.56966-2.7084 0.19442-0.3043 0.21031-0.27883 0.09931 0.15926-0.28642 1.1304-0.36063 5.324-0.11053 6.2456 0.67335 2.4813 3.587 3.3324 4.7794 1.3962 0.22131-0.35939 0.64585-1.6164 0.94342-2.7934 0.70426-2.7856 1.3174-4.4521 2.2568-6.1342 0.78252-1.4011 2.5249-3.5121 2.8988-3.5121 0.33535 0 0.08462 1.7588-0.65302 4.581-1.0473 4.0067-0.81135 5.5867 1.0206 6.8353 0.6465 0.44064 2.0082 0.83752 2.2032 0.64218 0.10619-0.10636-0.90372-12.625-1.0591-13.128-0.05775-0.18696 0.243-0.92484 0.6683-1.6398 0.70804-1.1901 0.79674-1.2677 1.0512-0.91921 0.48734 0.66736 1.964 5.5116 1.8193 5.9682-0.12894 0.40678-0.15957 0.39856-0.64737-0.17384l-0.51202-0.6008 0.10149 0.52151c0.05582 0.28684 0.26551 2.6572 0.46599 5.2674 0.40513 5.2748 0.31328 5.0594 1.8578 4.3568 1.0087-0.45883 2.0935-1.6508 2.6739-2.9381 0.67069-1.4874 0.73186-4.6629 0.13322-6.9164-0.25588-0.96329-0.51122-2.0615-0.56742-2.4405-0.10022-0.67576 0.41869-2.4255 0.78687-2.6534 0.33403-0.20671 1.2447 3.2947 1.7407 6.6928 0.26972 1.8479 0.67297 3.7668 0.89918 4.2788 0.83438 1.8888 2.6277 3.1013 4.5989 3.1095 1.2416 5e-3 2.2545-0.35379 2.833-1.004 0.38583-0.43369 0.38024-0.46714-0.37079-2.2177-0.41939-0.97752-1.3783-3.4443-2.1309-5.4816l-1.3684-3.7043 0.37048-1.1061c0.20376-0.60837 0.45428-1.158 0.55669-1.2214 0.27864-0.17245 1.0905 0.67437 2.0283 2.1156 0.80802 1.2418 1.1459 2.1707 0.58542 1.6095-0.33429-0.33474-1.0757-0.32649-0.93811 0.01 1.0513 2.575 2.0776 5.3587 2.3221 6.2985 0.26718 1.0271 0.27092 1.4125 0.02727 2.81-0.34135 1.9579-0.66964 2.6339-1.7565 3.6171-1.4227 1.287-3.6772 1.2842-5.5321-7e-3 -0.98095-0.68279-2.0716-2.2186-2.5667-3.6143-0.19951-0.56247-0.44886-0.99393-0.5541-0.95881-0.10525 0.0351-0.30212 0.43948-0.43749 0.89856-0.66075 2.2408-2.6273 4.9103-4.0529 5.5016-0.61611 0.25554-0.63885 0.30828-0.53074 1.2311 0.29983 2.559 0.68046 10.806 0.5885 12.75-0.07886 1.6676-0.23163 2.5264-0.64014 3.5985-0.29511 0.77446-0.55769 1.4081-0.58351 1.4081-0.02582 0-0.10348-0.21122-0.17258-0.46936zm26.744-4.1283c0-0.78832-0.61757-1.7902-1.2917-2.0955-0.78709-0.35645-1.171-1.1813-0.64413-1.3838 0.24866-0.0956 0.63505 0.1867 1.3504 0.98645 0.75216 0.84088 1.0032 1.0193 1.0067 0.71551 2e-3 -0.22264 0.18543-0.80376 0.40648-1.2914 0.28861-0.63665 0.52609-0.88657 0.84245-0.88657 0.60705 0 1.2465 0.37199 1.2465 0.72515 0 0.46429-0.38982 0.58318-0.74523 0.2273-0.51209-0.51276-1.0702-0.0559-1.4353 1.1751-0.17573 0.59252-0.31951 1.2894-0.31951 1.5487 0 0.25924-0.0937 0.52937-0.20833 0.60027-0.11458 0.0709-0.20834-0.0737-0.20834-0.32122zm39.505-2.2634c0.96166-0.48104 1.9792-1.1736 2.3564-1.6038 0.60847-0.69392 0.63679-0.78731 0.3388-1.117-0.5251-0.581-0.4198-1.4426 0.1952-1.5971 0.85774-0.21556 1.186 0.0318 1.1164 0.84137-0.0341 0.39562 6e-3 0.78696 0.0881 0.86959 0.21871 0.219 0.18373 0.91517-0.046 0.91517-0.10783 0-0.25509-0.0957-0.32724-0.21257-0.0733-0.11881-0.51661 0.18451-1.0052 0.68787-0.97954 1.0092-2.4138 1.7844-3.6107 1.9516-0.69331 0.0969-0.57569 1.5e-4 0.89414-0.73509zm3.4117-3.465c0-0.1721-0.1521-0.31292-0.33801-0.31292-0.27683 0-0.29107 0.0566-0.0787 0.31292 0.14265 0.1721 0.29475 0.31291 0.33801 0.31291 0.0433 0 0.0787-0.14081 0.0787-0.31291zm-83.814 3.2462c0.0598-0.22897 0.25216-0.53549 0.42747-0.68118 0.40262-0.33459 8.6777-4.7354 8.7586-4.658 0.03293 0.0316-0.04209 0.28139-0.16671 0.55528-0.23323 0.51255-0.71712 0.79954-6.0731 3.6018-2.4765 1.2957-3.0344 1.5196-2.9462 1.1821zm7.7784 0.30017c0-0.11478 0.09088-0.34942 0.20195-0.52153 0.11108-0.17209 0.20195-0.21904 0.20195-0.10434 0 0.11478-0.09088 0.34941-0.20195 0.52151-0.11108 0.1721-0.20195 0.21904-0.20195 0.10435zm-8.8605-3.4955c0.45833-0.27407 1.4908-0.88142 2.2944-1.3497 0.80359-0.46829 1.8817-1.2277 2.3958-1.6877l0.93476-0.83621-0.57292-0.2217c-0.6124-0.23697-0.74156-0.77835-0.35725-1.4974 0.14846-0.27778 0.14859-0.52901 4.16e-4 -0.80624-0.16248-0.30399-0.13509-0.48299 0.11172-0.73012 0.39569-0.39623 0.35759-0.39491 1.202-0.0416 0.37567 0.15717 1.0289 0.69038 1.4516 1.1849 0.59744 0.6989 0.7686 1.078 0.7686 1.7026 0 0.94492-0.37635 1.1844-1.308 0.83227-0.59303-0.22413-0.66424-0.18737-1.5519 0.80124-0.68284 0.76049-1.4377 1.2829-2.8373 1.9634-1.0488 0.50996-2.2351 0.98511-2.6361 1.0559l-0.72917 0.12869 0.83333-0.49825zm7.8125-4.5217c0-0.19149-1.0926-1.0572-1.3342-1.0572-0.06825 0-0.12409 0.28161-0.12409 0.62582 0 0.57616 0.05787 0.62583 0.72917 0.62583 0.40104 0 0.72917-0.0875 0.72917-0.19441zm-1.729-0.34859c0.03735-0.11215-0.06825-0.38796-0.23466-0.61279-0.29206-0.39456-0.31569-0.39564-0.67989-0.031-0.3642 0.36468-0.36312 0.38836 0.03092 0.68079 0.42961 0.31884 0.76991 0.30457 0.88363-0.0371zm55.753 2.6276c-0.25032-0.10095-0.56566-0.3904-0.70073-0.64314-0.30059-0.56239-0.14395-2.2111 0.24727-2.6029 0.23923-0.23955 0.2836-0.12359 0.2836 0.74119 0 1.258 0.29644 1.6225 1.0927 1.3433 0.51563-0.18078 0.58479-0.32224 0.6802-1.3912 0.0657-0.73581 0.24458-1.3285 0.46875-1.553 0.3445-0.34495 0.36254-0.33345 0.36254 0.23115 0 1.0619 0.46771 2.2394 0.98289 2.4744 0.72929 0.33273 0.92275-0.0373 0.48583-0.9293-0.38778-0.79167-0.35013-1.8419 0.066-1.8405 0.34355 1e-3 0.9653 1.648 0.9653 2.5569 0 0.86009-0.57098 1.6145-1.2219 1.6145-0.21371 0-0.62901-0.18937-0.92289-0.42085l-0.53432-0.42085-0.77285 0.52516c-0.85216 0.57905-0.83638 0.57569-1.4823 0.31509zm32.226-0.91547c0-0.69113 0.79913-1.2523 4.7249-3.3178 2.3551-1.2392 4.3381-2.1969 4.4066-2.1282 0.22871 0.229-0.31054 0.82524-1.2363 1.3669-1.6124 0.94347-7.8952 4.1896-7.8952 4.0791zm-16.504-3.242c0.69784-0.45163 1.43-1.0674 1.6269-1.3685 0.33614-0.51366 0.33653-0.56897 6e-3 -0.89956-0.33017-0.33061-0.38977-0.33045-0.96965 2e-3 -0.83339 0.47892-0.78141 0.14426 0.0976-0.62855 0.88026-0.7739 1.5003-0.98862 1.8987-0.65754 0.81447 0.67685-0.30315 2.5564-2.1968 3.6945-1.6018 0.96269-1.9876 0.84343-0.46315-0.14317zm53.81-2.1582c-0.0252-1.7228-1.0762-3.459-2.5667-4.2408-0.58143-0.30493-0.70593-0.81573-0.39286-1.6119 0.13272-0.33754 0.28439-0.26313 1.2671 0.62159 1.4077 1.2674 2.0951 2.6723 2.0778 4.2469-0.0165 1.5129-0.36455 2.4015-0.38535 0.9842zm-84.598 0.45089c-0.8712-0.34684-1.6374-1.2392-1.9984-2.3275-0.39368-1.1868-0.32867-5.0535 0.11762-6.9969 0.36996-1.611 0.50089-1.1711 0.20257 0.68065-0.34212 2.1236-0.16161 4.5908 0.41931 5.731 0.3444 0.67598 0.68276 0.9893 1.4219 1.3167 0.88417 0.39163 1.0439 0.40391 1.8065 0.13889 1.0862-0.37749 1.5576-1.2524 2.2925-4.2543 0.72534-2.9628 2.385-6.4357 3.8636-8.0849 1.7314-1.9311 1.7717-1.6339 0.48369 3.5703-1.1046 4.4632-0.7947 5.9054 1.5119 7.0354 1.49 0.72995 3.8564 0.79959 5.2954 0.15582 1.7249-0.77166 2.9262-2.505 3.3657-4.8564 0.2696-1.4424-0.0616-4.4478-0.70173-6.3674l-0.46095-1.3824 0.40893-1.1597c0.22491-0.63784 0.49937-1.1563 0.60991-1.1522 0.47834 0.0178 1.192 2.8056 1.7699 6.914 0.43813 3.1148 0.81533 4.2548 1.7898 5.4094 0.80089 0.94895 2.4279 1.6866 3.7257 1.6892 1.1884 2e-3 2.7442-0.66225 2.9312-1.2522 0.0747-0.23558-0.41591-1.7485-1.23-3.7932-1.8856-4.7361-2.7857-7.3106-2.6844-7.6777 0.32702-1.1852 0.76204-2.0861 1.0074-2.0861 0.47873 0 2.8306 3.3786 2.5485 3.6611-0.0701 0.0702-0.32298 0.0229-0.56196-0.10523-0.65657-0.35186-0.57702 0.0144 0.71896 3.3107 1.433 3.6446 1.6051 4.9313 0.94906 7.094-1.5315 5.0488-7.2015 4.6197-9.525-0.72087-0.32281-0.74197-0.64269-1.349-0.71085-1.349-0.0682 0-0.27987 0.49535-0.47048 1.1008-0.38907 1.2359-1.5732 3.3115-2.3629 4.1417-0.2871 0.30184-1.0074 0.81813-1.6006 1.1474-0.94049 0.52193-1.2946 0.59821-2.7661 0.59574-1.5114-2e-3 -1.7938-0.0687-2.7051-0.63278-1.3843-0.85697-2.1521-2.3478-2.3117-4.4886-0.095-1.2752-0.0149-1.9327 0.45038-3.694 0.68058-2.5763 0.60061-3.1076-0.33403-2.219-1.1121 1.0573-1.9055 2.9798-2.5908 6.2782-0.79446 3.8236-2.4878 5.5004-4.6753 4.6296zm-10.204-0.78077c0.01604-0.45992 1.0803-1.2214 3.6412-2.6055 2.6716-1.4439 3.6707-1.7243 2.6808-0.7523-0.44282 0.43481-6.3291 3.5612-6.322 3.3578zm57.66-1.8538c-0.67519-0.77803-0.58623-2.571 0.15826-3.1897 0.27526-0.22874 0.28878-0.19166 0.10585 0.29024-0.26762 0.70483-0.06 1.7638 0.39347 2.0068 0.22238 0.11918 0.5356 0.0956 0.85789-0.0648 0.43454-0.21607 0.51657-0.42193 0.56962-1.4294 0.0778-1.4778 0.55906-2.0265 0.7205-0.82147 0.17626 1.3159 0.59703 1.9994 1.279 2.0776 0.43082 0.0494 0.57088-0.01 0.49665-0.20859-0.60035-1.6108-0.64361-1.8393-0.43518-2.2989 0.20688-0.4562 0.24914-0.41964 0.79552 0.68827 0.54995 1.1152 0.56343 1.213 0.28761 2.0861-0.25826 0.81747-0.36469 0.92326-0.98926 0.98311-0.49397 0.0472-0.83947-0.0643-1.1743-0.37922l-0.47442-0.4463-0.53497 0.53568c-0.62787 0.6287-1.5894 0.70848-2.0562 0.1706zm-67.859-3.8071c-0.01826-1.1127-0.52397-2.0266-1.5586-2.8168-0.71715-0.54772-0.96346-1.1967-0.55104-1.4519 0.3164-0.1958 1.7121 1.1687 2.1239 2.0766 0.40174 0.88548 0.47719 2.0217 0.1802 2.7137-0.13667 0.31846-0.1827 0.19502-0.19447-0.52151zm30.727-2.1325c-0.46778-0.66875-0.42166-2.2928 0.0824-2.9031l0.40676-0.49249-0.11968 0.77095c-0.24354 1.5689 0.35722 2.3604 1.3147 1.7323 0.40309-0.26447 0.49147-0.502 0.49147-1.3208 0-0.54909 0.12728-1.1727 0.28285-1.3857 0.25994-0.35597 0.29523-0.32119 0.43576 0.42948 0.28195 1.5061 0.66549 2.1728 1.2499 2.1728 0.61762 0 0.65495-0.19884 0.20201-1.0759-0.35366-0.6848-0.25053-1.6366 0.17717-1.6353 0.14105 4.3e-4 0.43194 0.42805 0.64643 0.95027 0.4087 0.99507 0.36885 2.1611-0.0929 2.7182-0.36152 0.4362-1.5215 0.36634-1.9593-0.11805-0.37-0.40939-0.37697-0.40865-0.98577 0.10435-0.7759 0.65373-1.6956 0.67659-2.1319 0.0529zm-10.121-0.6973c-0.26457-0.69679-0.29441-0.54277 0.42182-2.1768 0.60495-1.3801 0.76115-2.3225 0.49855-3.0078-0.19274-0.50294-0.45275-0.39793-0.83173 0.33591-0.65231 1.2631-2.4156 2.9149-3.7768 3.5381-1.619 0.74118-1.8501 0.75312-0.7821 0.0404 1.5342-1.0238 3.0774-2.4477 3.6744-3.3902 0.72814-1.1497 0.73868-1.4223 0.0669-1.7288-1.1143-0.50838-0.72001-2.0458 0.52468-2.0458 0.58767 0 1.0428 0.64531 1.0428 1.4785 0 0.22872 0.20626 0.69519 0.45834 1.0366 0.63239 0.85648 0.57421 1.7159-0.2351 3.4722-0.43612 0.94642-0.63829 1.6411-0.54643 1.8775 0.13487 0.34705 0.17452 0.33999 0.52831-0.0942 0.21038-0.25816 0.43779-0.46937 0.50536-0.46937 0.24214 0 0.1167 0.75039-0.20146 1.2052-0.44085 0.63023-1.0942 0.59557-1.3475-0.0715zm-0.16573-7.6466c-0.11977-0.11994-0.38813-0.15186-0.59636-0.0709-0.34094 0.13247-0.3268 0.17521 0.14225 0.42995 0.54508 0.29601 0.85978 0.0472 0.45411-0.35898zm44.79 7.3736c-0.15738-0.1-0.24738-0.43647-0.20833-0.77907 0.0581-0.50969 0.2787-0.70857 1.4229-1.2829 1.6615-0.83401 7.2917-2.8225 7.2917-2.5754 0 0.35225-0.56526 0.6314-3.2327 1.5964-1.4876 0.53822-3.3142 1.2555-4.059 1.594l-1.3542 0.61546 0.57292 0.30492c0.3151 0.16769 0.57291 0.39578 0.57291 0.50686 0 0.24745-0.62806 0.25972-1.0063 0.0196zm-51.687-2.3419c-0.0166-1.0875-0.79915-2.3764-1.7503-2.8828-0.40193-0.21397-0.55602-0.4597-0.55602-0.8866 0-0.74415 0.1412-0.73958 1.0797 0.035 1.3095 1.0808 1.9562 3.0281 1.4203 4.2767-0.13581 0.31648-0.18258 0.18552-0.19368-0.54238zm-39.968-0.30388c-0.68902-0.48325-0.60514-1.5887 0.25282-3.3318 0.39371-0.79991 0.91443-1.6891 1.1571-1.9759 0.40338-0.4767 0.39759-0.43188-0.06726 0.52152-1.0803 2.2157-1.0824 3.442-0.0059 3.442 0.30977 0 0.73467-0.15536 0.94421-0.34525 0.75527-0.6844 0.31729 0.63009-0.5147 1.5448-0.49941 0.54901-1.1175 0.59963-1.7663 0.14462zm23.027-0.5264c-0.40474-0.23606-0.50265-1.5327-0.15625-2.0694 0.15006-0.23249 0.20277-0.11025 0.20514 0.47592 0.0021 0.50945 0.11481 0.83172 0.31834 0.90994 0.49195 0.18902 0.93485-0.32557 0.93485-1.0862 0-0.38074 0.09375-0.75028 0.20833-0.82119 0.11458-0.0709 0.20833 0.06 0.20833 0.29079 0 0.69346 0.45854 1.4824 0.86162 1.4824 0.31975 0 0.34673-0.0826 0.17489-0.53511-0.24946-0.65699-0.26385-1.3424-0.02819-1.3424 0.23948 0 0.7196 1.511 0.6282 1.9769-0.12149 0.61935-0.69775 0.86197-1.2915 0.54377-0.44027-0.23594-0.58577-0.22693-0.99742 0.0619-0.55873 0.39186-0.58322 0.39445-1.0663 0.11265zm54.894-0.40765c-0.84212-0.33884-1.0011-1.0747-0.53039-2.4551 0.37649-1.1041 1.7208-3.4576 1.8825-3.2956 0.0363 0.0365-0.21737 0.66624-0.56386 1.3996-0.66953 1.4171-0.78769 2.2397-0.38031 2.6476 0.37909 0.37958 1.0988 0.30007 1.522-0.16817 0.56883-0.62938 0.6209-0.3398 0.12378 0.68845-0.24397 0.50464-0.68099 1.0258-0.97115 1.1582-0.29016 0.13239-0.54658 0.23475-0.56984 0.22747-0.0232-7e-3 -0.25398-0.0985-0.51272-0.20252zm-18.172-0.80267c-4e-3 -1.1142-0.58866-2.1319-1.5762-2.743-0.70762-0.43791-0.8774-0.88022-0.54143-1.4105 0.22846-0.36058 1.8305 1.185 2.2363 2.1574 0.33837 0.81091 0.38256 2.1385 0.0864 2.5973-0.14738 0.22836-0.20282 0.0659-0.20515-0.60119zm35.096-0.12893c-0.24944-0.99258-0.708-1.7732-1.0416-1.7732-0.44406 0-1.1405-0.76431-1.1405-1.2516 0-0.66655 0.42183-0.49144 1.4905 0.61877l0.99725 1.036 0.2093-0.77523c0.41833-1.5495 1.1259-2.0598 1.9845-1.4312 0.54362 0.39804 0.28704 1.0831-0.27419 0.7321-0.2166-0.13543-0.55108-0.18581-0.74331-0.11201-0.41579 0.15976-0.94979 1.3525-0.97033 2.1674-8e-3 0.3192-0.091 0.76811-0.18447 0.99759-0.15287 0.37555-0.18552 0.35472-0.3271-0.20861z"/>
</svg>
