<?xml version="1.0" encoding="UTF-8"?>
<svg width="200mm" height="99.998mm" version="1.1" viewBox="0 0 200 99.998" xmlns="http://www.w3.org/2000/svg">
 <path d="m0 0v99.998h200v-99.998z" fill="#fff" stroke-linejoin="round" stroke-opacity=".4498" stroke-width=".265"/>
 <path d="m61.789 89.754c-1.0566-0.33708-2.006-1.1306-2.456-2.0527-0.38773-0.79448-0.4281-1.1639-0.34158-3.125 0.0636-1.4418 0.22368-2.5171 0.45508-3.0573 0.19633-0.45834 0.43624-1.741 0.53315-2.8503 0.14595-1.6708 0.29182-2.2339 0.85007-3.2813 0.37063-0.69538 0.74517-1.2643 0.83231-1.2643 0.0871 0-0.0625 0.63525-0.3325 1.4117-0.27001 0.77642-0.51843 1.8311-0.55204 2.3438-0.0599 0.91392-0.0479 0.93336 0.61597 0.99737 0.78735 0.0759 0.76635 0.0165 0.36172 1.0242-0.17581 0.43788-0.58412 0.93876-0.92269 1.1319-0.73905 0.42153-1.0508 1.4-1.0524 3.3032-1e-3 1.1024 0.0958 1.5006 0.514 2.116 1.0873 1.6002 3.3731 1.8092 6.514 0.59585 1.7815-0.68823 4.8459-2.4045 4.8459-2.714 0-0.1081-0.82032-0.44039-1.8229-0.73844-1.0026-0.29804-2.0573-0.61296-2.3438-0.69982-0.38962-0.11814-0.53724-0.32393-0.58596-0.81683-0.0826-0.83609 0.39787-1.298 2.6452-2.5428 1.5952-0.8836 1.9574-1.2643 1.4824-1.5578-0.11459-0.0708-0.20834-0.52875-0.20834-1.0176 0-2.1409 2.1058-2.3869 4.1146-0.48066 1.1913 1.1305 0.81863 2.2951-0.91033 2.8448-0.5951 0.18918-1.0958 0.4988-1.2234 0.7566-0.17518 0.35368-0.30129 0.39837-0.66555 0.23583-0.34487-0.15388-0.65462-0.0858-1.3315 0.2928-0.48513 0.27133-0.84769 0.58708-0.80569 0.70166 0.042 0.11459 0.5401 0.39584 1.1069 0.625 0.56677 0.22917 1.2027 0.65104 1.4131 0.9375 0.33045 0.44986 0.3494 0.62802 0.13904 1.3073-0.54122 1.7476-2.6575 3.3808-6.2668 4.8361-1.9154 0.77236-3.6309 1.0473-4.6019 0.7375zm11.093-11.696c0.36605-0.12761 0.63258-0.33094 0.59228-0.45184-0.0816-0.24477-1.6237-0.83253-1.7784-0.67782-0.0877 0.0877 0.35466 1.3617 0.47279 1.3617 0.0263 0 0.3473-0.10441 0.71336-0.23202zm-2.1898 11.149c-0.0828-0.3301-8e-3 -0.7982 0.19104-1.1979l0.32703-0.65609 0.0133 0.54688c7e-3 0.30078 0.0719 0.83984 0.14353 1.1979 0.10259 0.51295 0.0593 0.65104-0.20436 0.65104-0.18659 0-0.39473-0.23966-0.47057-0.54183zm46.256 0.0235c-0.18198-0.72507 0.0227-1.903 0.44177-2.5426 0.47658-0.72735 0.54847-0.51473 0.18382 0.54366-0.2817 0.81765-0.27907 0.9397 0.0275 1.2784 0.41161 0.45482 0.32413 1.1047-0.1613 1.1982-0.23775 0.0458-0.39994-0.11174-0.49178-0.47767zm-43.055-0.13118c-0.87335-0.44955-0.93313-0.68455-0.43817-1.7225 0.30445-0.63844 0.39982-0.69789 0.8469-0.52791 0.84609 0.32169 1.0765 0.22429 1.5184-0.64178 0.47536-0.9318 0.55031-0.95718 1.5692-0.53147 0.79802 0.33344 0.86794 0.61338 0.42061 1.684-0.34595 0.82797-0.31662 0.81783-1.2447 0.43004l-0.69989-0.29243-0.36727 0.81446c-0.52377 1.1615-0.70541 1.2506-1.605 0.78759zm5.2698-0.13177c5e-3 -0.31511 0.14262-0.85417 0.30545-1.1979l0.29604-0.625-0.11582 0.75739c-0.0682 0.44596-0.0225 0.81509 0.11122 0.89772 0.38175 0.23593 0.25253 0.74073-0.18962 0.74073-0.31793 0-0.41444-0.13576-0.40727-0.57292zm26.553 0.18149c-1.0163-0.46622-1.8735-1.3062-2.4678-2.4184-0.37166-0.69547-0.44924-1.2039-0.46136-3.0236-8e-3 -1.2031-0.0885-2.4435-0.17882-2.7563-0.1906-0.66008 0.45199-2.9941 1.2673-4.6029 0.71422-1.4094 0.82839-1.0848 0.21876 0.62207-0.94956 2.6586-0.91776 3.2996 0.16368 3.2996 0.32397 0 0.40129 0.11586 0.34758 0.52084-0.038 0.28646-0.2255 0.74417-0.41667 1.0171-0.8028 1.1463-0.88413 1.39-0.7706 2.3093 0.15253 1.235 0.95228 2.3965 2.0281 2.9453 0.76852 0.39208 1.1182 0.43404 2.8644 0.3437 1.2985-0.0672 2.3747-0.25229 3.1001-0.53325 1.3703-0.53072 3.7732-1.9436 4.7214-2.7761l0.70772-0.62138-0.49814-1.1861c-1.1901-2.8337-1.5333-3.9121-1.4215-4.4673 0.1551-0.77024 0.4617-0.72195 1.3787 0.21712 0.84756 0.86798 0.93654 1.085 0.44491 1.085-0.37464 0-0.28108 0.45301 0.35327 1.7104 0.24772 0.49106 0.38955 1.2129 0.38887 1.9792-1e-3 1.5771-0.58253 2.541-2.3218 3.8509-3.2671 2.4606-7.2292 3.5026-9.448 2.4847zm-71.039-0.26855c-1.2473-0.98111-1.4363-2.4991-0.60959-4.8944 0.29649-0.85902 0.50081-1.6002 0.45402-1.6469-0.0468-0.0468-1.0628 0.24777-2.2578 0.65457-3.2129 1.0937-4.652 1.3385-7.8635 1.3376-3.185-8.3e-4 -3.6678-0.1559-4.7001-1.5093-0.77039-1.01-0.84381-1.6697-0.55769-5.0103 0.32061-3.7432 0.50495-4.5886 1.3064-5.9909 0.8086-1.4149 0.98583-1.073 0.27591 0.53227-0.87164 1.9709-0.68833 4.3461 0.26206 3.3957 0.19444-0.19445 0.25-0.0766 0.25 0.5303 0 0.75697-0.19809 1.049-1.3343 1.9675-0.42722 0.34532-0.43613 1.7388-0.0163 2.5507 0.35889 0.69403 1.1924 1.1826 2.7048 1.5857 2.8118 0.74926 5.7838 0.15485 14.167-2.8333 1.5525-0.5534 1.9736-0.63047 2.4479-0.44809 0.63163 0.24286 0.76379 0.93292 0.33607 1.7547-0.56503 1.0856-3.6222 4.9521-3.682 4.6567-0.0905-0.44715 0.4039-1.3356 1.6422-2.9512 0.58485-0.76305 1.0052-1.4455 0.93415-1.5166-0.0711-0.0711-0.52463-0.0234-1.0079 0.10586-1.9236 0.51457-1.9398 0.52947-2.5396 2.3303-0.69964 2.1008-0.77375 3.3574-0.23322 3.9547 0.82173 0.90801 1.5347 0.47985 5.2604-3.159l2.8194-2.7537-0.13341-3.4394c-0.0734-1.8916-0.1858-3.7995-0.24984-4.2398-0.11472-0.78855-0.1273-0.79835-0.85076-0.66263-1.1435 0.21452-4.6029 1.4334-6.5021 2.2908-1.9012 0.85842-2.4542 0.79224-1.7944-0.21475 0.57132-0.87193 3.8442-2.2278 7.762-3.2156l0.87562-0.22077 0.0619-1.2967c0.0782-1.6387 0.54084-1.783 0.98403-0.30711 0.23012 0.76637 0.3946 0.98975 0.72917 0.99033 0.23761 4.1e-4 2.3344-0.5269 4.6595-1.1718 2.3251-0.64489 4.2832-1.1169 4.3511-1.0489 0.068 0.068-0.0168 0.33749-0.18848 0.59888-0.33432 0.50906-0.34993 0.51447-5.5499 1.9252-1.8754 0.50878-3.4393 0.95459-3.4754 0.99069s0.0397 1.9683 0.16848 4.2938l0.23413 4.2282 0.5329-0.16252c0.2931-0.0894 0.9419-0.16255 1.4418-0.16258 1.1302-8e-5 1.6953 0.58959 1.6953 1.7691 0 1.0017-0.26974 1.1767-0.96761 0.62775-0.6236-0.49052-1.6888-0.56231-2.2504-0.15166-0.31443 0.22992-0.3639 0.48397-0.28337 1.4551 0.12254 1.4777 0.56203 2.0164 1.6451 2.0164 1.5591 0 2.586-0.6825 3.3256-2.2102 0.68547-1.416 1.9356-2.5815 2.769-2.5815 1.1591 0 1.6477 0.86075 1.6239 2.8603-0.016 1.3368-0.44463 2.1397-1.1424 2.1397-0.65892 0-2.4282-0.62147-2.4282-0.85292 0-0.44942-0.62735-0.12996-1.0327 0.52585-0.60521 0.97924-1.7266 1.926-2.4761 2.0907-0.34268 0.0753-0.9994 0.0355-1.4594-0.0884-1.1294-0.30412-1.7133-1.261-1.8563-3.0424-0.0639-0.79595-0.20351-1.3412-0.34346-1.3412-0.12969 0-1.1715 0.94758-2.3152 2.1057-3.3658 3.4084-4.3096 3.8887-5.6183 2.8593zm17.601-4.4079c0-0.1519-0.22919-0.49149-0.5093-0.75465-0.37521-0.35248-0.64947-0.44328-1.0417-0.34484-0.2928 0.0735-0.53237 0.2141-0.53237 0.31247 0 0.27296 0.53245 0.65566 1.1846 0.85142 0.83144 0.24957 0.89874 0.24475 0.89874-0.0644zm119.01 4.442c-0.73845-0.30728-0.86451-0.98777-0.84122-4.5409 0.0183-2.7874 0.0824-3.4284 0.40256-4.0224l0.38083-0.70665-0.13088 1.2185c-0.0878 0.81765-0.0527 1.2668 0.10669 1.3653 0.17757 0.10974 0.17487 0.57701-0.0107 1.85-0.32797 2.2502-0.14002 2.8334 0.94207 2.9231 0.6041 0.0501 1.1592-0.13507 2.392-0.79776 2.146-1.1536 5.6685-3.5059 5.8128-3.8818 0.14387-0.37492-0.16852-0.60819-2.6449-1.9751-2.9407-1.6231-4.9256-3.7806-4.4997-4.8906 0.16264-0.42384 0.88793-0.26327 2.149 0.47576 0.81767 0.47919 0.87109 0.55717 0.54503 0.79559-0.32453 0.2373-0.24535 0.3385 0.77417 0.98955 0.62462 0.39887 1.7197 1.0195 2.4335 1.3793 1.7163 0.86492 2.0033 1.3263 1.8938 3.045-0.10533 1.6541-0.40648 2.0178-3.4 4.1069-3.3697 2.3516-5.2007 3.1258-6.3051 2.6663zm-130.54-0.13802c-0.2431-0.2431-0.14935-1.6422 0.13621-2.0327 0.23964-0.32773 0.2732-0.2277 0.26041 0.77625-0.0146 1.1476-0.13238 1.5207-0.39662 1.2564zm59.461-1.4503c-9e-3 -0.93135-0.15424-3.6032-0.32214-5.9375-0.81269-11.298-0.79852-10.987-0.52933-11.637 0.14188-0.34252 0.33285-0.57648 0.42439-0.51991 0.21207 0.13107 1.4519 3.3642 1.4519 3.7861 0 0.20636-0.11756 0.27188-0.33684 0.18773-0.30173-0.11578-0.32338 0.0937-0.20771 2.009 0.071 1.176 0.17933 4.3882 0.24067 7.1382 0.10416 4.67 0.0846 5.055-0.29627 5.8333l-0.40779 0.83333-0.0169-1.6934zm20.027 1.2753c-1.2631-0.5488-1.5751-2.1479-1.9103-9.7903-0.11558-2.6354-0.31039-5.3314-0.43291-5.9911-0.27186-1.4638-0.18879-3.3209 0.1536-3.4337 0.65394-0.21541 1.2014 3.7658 1.4248 10.362 0.16456 4.8583 0.35885 6.2372 0.94665 6.7188 0.99912 0.81849 2.2391 0.29465 3.6535-1.5435 0.95828-1.2453 0.99587-1.2702 1.1842-0.78282 0.47183 1.2211 0.71691 1.5215 1.7024 2.0868 0.95482 0.54769 1.2231 0.60033 3.0686 0.60212 1.9926 2e-3 2.0482-0.0117 3.7786-0.92434 0.96594-0.50945 1.8092-0.87338 1.8738-0.80873 0.0647 0.0647 0.0616 0.39721-7e-3 0.73903-0.15725 0.78627 0.14254 0.98862 1.4709 0.9928 0.94606 3e-3 1.0992-0.076 2.2917-1.182l1.2778-1.1851 0.0676 0.81792c0.0372 0.44985 0.16585 0.93629 0.28593 1.081 0.53677 0.64677 1.8972 0.0663 2.7589-1.1771 0.63788-0.92046 0.95008-0.93608 0.95008-0.0475 0 0.79853 0.35681 1.071 1.4024 1.071 1.1904 0 1.2928-0.32977 0.61512-1.98-0.60474-1.4726-1.3925-4.3862-1.3925-5.1503 0-0.27411 0.13164-0.67841 0.29253-0.89844 0.28453-0.38912 0.30418-0.38593 0.71843 0.11643 0.23425 0.28407 0.5948 0.82716 0.80122 1.2069 0.33942 0.62435 0.34368 0.70823 0.0446 0.87683-0.29617 0.16695-0.27779 0.34431 0.17577 1.6966 0.70777 2.1103 0.81888 3.4889 0.3749 4.6514-0.42284 1.1072-0.99009 1.5639-1.9424 1.5639-0.67531 0-1.4754-0.56455-1.7884-1.2618-0.11637-0.25929-0.15397-0.25793-0.27317 0.01-0.076 0.17077-0.39693 0.56921-0.71314 0.88542-0.87232 0.87233-2.0471 0.81291-2.8354-0.14339l-0.5921-0.71831-0.69295 0.70871c-0.81373 0.83224-1.8904 1.2409-2.7936 1.0602-0.71752-0.14351-1.4013-0.67122-1.4013-1.0815 0-0.51946-0.41094-0.51054-1.2225 0.0265-1.723 1.1402-3.9624 1.4307-6.0228 0.78121-0.89236-0.28129-1.3507-0.59894-2.1367-1.4808l-1.0007-1.1228-0.35386 0.6996c-0.45568 0.90089-1.0977 1.6013-1.8052 1.9694-0.69828 0.36331-1.1227 0.35882-1.9973-0.0212zm47.808-1.5611c-0.0685-1.0885-0.22579-4.1354-0.34957-6.7708-0.12377-2.6354-0.32721-5.9479-0.45209-7.3612-0.22352-2.5297-0.10028-3.5764 0.4211-3.5764 0.22569 0 1.4889 3.0642 1.4873 3.6078-8.3e-4 0.28959-0.10392 0.34599-0.43835 0.23985-0.3558-0.11293-0.41646-0.067-0.32573 0.24637 0.0613 0.21184 0.26869 2.531 0.46082 5.1536 0.41572 5.675 0.34893 8.1706-0.25432 9.5023l-0.42468 0.9375zm-16.522 1.2784c-0.62085-0.28924-0.92458-0.59219-1.102-1.0992-0.26364-0.75322-0.51668-3.7827-0.84216-10.083-0.11269-2.1813-0.30806-4.447-0.43416-5.035-0.30053-1.4014-0.19918-2.6657 0.21369-2.6657 0.75089 0 1.1457 2.7833 1.4629 10.313 0.27653 6.5637 0.34089 6.7724 2.0867 6.7677 0.81527-2e-3 1.3589-0.13353 1.8562-0.44839l0.70324-0.44526-1.0626-0.53845c-0.78366-0.39711-1.2361-0.50374-1.7237-0.40622-0.62318 0.12464-0.65207 0.10354-0.50314-0.36732 0.51851-1.6393 1.2803-1.9579 4.6813-1.9579 2.1014 0 2.7349 0.0714 3.2813 0.36993l0.67708 0.36994v-0.63705c0-0.80383 0.45879-1.9158 1.0234-2.4804 0.95318-0.95317 2.6927-0.22818 3.6091 1.5042 0.66286 1.2531 0.66481 3.6877 4e-3 4.7506-0.64421 1.0359-1.7847 1.7716-3.3782 2.1792-1.6649 0.42587-3.0157 0.1875-4.4967-0.79353l-0.98671-0.65356-0.64775 0.38813c-2.2547 1.351-3.1699 1.5515-4.4215 0.96836zm12.554-2.5275c0.7284-0.35859 1.3244-0.78432 1.3244-0.94607 0-0.48178-1.0485-0.86865-2.6522-0.97863l-1.5064-0.1033-0.4001 0.67813c-0.26433 0.448-0.67219 0.76514-1.2019 0.93456-1.0173 0.32535-1.2688 0.55165-0.95824 0.86218 0.73324 0.73324 3.4555 0.50774 5.3946-0.44687zm-5.8686-1.6764c-0.14578-0.23587-2.182-0.27262-2.182-0.0394 0 0.088 0.25443 0.31446 0.5654 0.50314 0.50301 0.30521 0.63018 0.30956 1.1526 0.0394 0.32299-0.16702 0.53178-0.39343 0.46398-0.50314zm5.4749-2.1265c-0.0474-0.14323-0.33313-0.39967-0.635-0.56987-0.45075-0.25414-0.59671-0.26094-0.81663-0.0381-0.21852 0.22146-0.19338 0.32631 0.13662 0.56987 0.50502 0.37273 1.4346 0.39964 1.315 0.0381zm-108.07 6.3021c-0.0153-0.17188-0.11039-1.9063-0.21135-3.8542-0.25605-4.9402-0.81107-12.823-0.94228-13.384-0.12907-0.5511 0.42898-2.0113 0.70375-1.8415 0.23845 0.14736 1.1751 2.4832 1.3835 3.4503 0.142 0.65884 0.1248 0.69895-0.18835 0.43907-0.18954-0.15731-0.39572-0.23493-0.45817-0.17248-0.0624 0.0624 0.0336 1.8034 0.21337 3.8688 0.1798 2.0654 0.32445 5.1917 0.32145 6.9474-5e-3 2.692-0.0673 3.3228-0.39981 4.0255-0.21688 0.45834-0.40684 0.69271-0.42212 0.52084zm28.838-0.34293c-0.28099-0.30319-0.51088-0.72697-0.51088-0.94173 0-0.37663-0.0293-0.37555-0.82504 0.0304-1.1829 0.60347-2.0487 0.56084-2.3051-0.1135-0.40974-1.0777-0.23573-2.4303 0.51386-3.9944l0.71705-1.4962-0.63252-0.53223-0.63251-0.53223-0.55328 0.42966c-1.7663 1.3716-2.4013 1.8064-4.1264 2.8254-1.814 1.0715-2.5382 1.3674-2.2651 0.9257 0.0681-0.11022 1.0815-0.94448 2.2519-1.8539s2.503-1.9839 2.9614-2.3878l0.83333-0.73425-2.5247-2.4032c-3.1446-2.9933-5.2878-5.7784-5.2878-6.8716 0-1.0345 0.42759-0.9938 1.9271 0.18337 1.2012 0.94299 1.4686 1.351 0.88542 1.351-0.17188 0-0.3125 0.0856-0.3125 0.1902 0 0.2187 6.249 6.2681 6.475 6.2681 0.18683 0 3.8839-4.1836 5.4532-6.1708 1.0767-1.3634 2.6785-2.7524 3.5204-3.0528 0.18938-0.0675 0.50864-3e-3 0.70945 0.14415 0.30025 0.21955 0.34397 0.47194 0.24606 1.4206-0.0655 0.63448-0.26581 1.4374-0.44517 1.7842-0.41388 0.80034-3.7043 5.2176-5.3199 7.1418l-1.2306 1.4656 0.63698 1.3612c0.61559 1.3155 0.62796 1.3988 0.36845 2.4805-0.33401 1.3923-0.10964 1.7588 1.0768 1.7588 1.1096 0 1.9475-0.3981 3.3-1.5679l1.1447-0.99004 0.17489 0.70603c0.30054 1.2133 0.42678 1.327 1.5469 1.3933 1.0427 0.0617 1.0598 0.0526 2.0495-1.0938 0.54891-0.6358 1.0609-1.156 1.1377-1.156s0.0943 0.23766 0.0387 0.52813c-0.12351 0.64615 0.44952 1.3469 1.1014 1.3469 0.3931 0 0.47727-0.14038 0.56828-0.94779 0.0588-0.52129 0.16243-1.0034 0.23039-1.0714 0.26731-0.2673 0.75864 0.44095 0.75864 1.0936 0 2.1909-1.7766 3.5528-3.0609 2.3462l-0.48358-0.4543-0.57151 0.53301c-0.31434 0.29316-0.77629 0.63822-1.0266 0.76681-1.1011 0.56568-2.7062 4.1e-4 -2.9113-1.0252-0.0678-0.33881-0.18685-0.61603-0.26463-0.61603-0.0778 0-0.4645 0.33931-0.85937 0.75401-0.89289 0.93773-1.7804 1.3293-3.0129 1.3293-0.76419 0-1.0558-0.10975-1.465-0.55126zm-1.26-2.8376c1.2738-0.72877 1.3497-1.0065 0.55044-2.0157l-0.68769-0.86828-0.47499 0.44624c-0.67855 0.63745-1.44 2.1587-1.284 2.5652 0.18261 0.47586 0.92936 0.42566 1.8962-0.12748zm3.2714-8.7008c1.6478-2.066 3.1643-4.0845 3.3701-4.4856 0.36459-0.71066 0.33465-1.1331-0.0803-1.1331-0.36515 0-2.2885 1.924-4.2693 4.2708-1.0638 1.2604-2.2646 2.6667-2.6682 3.125-0.40367 0.45833-0.73747 0.9452-0.74177 1.0819-9e-3 0.27818 0.78874 0.89723 1.1559 0.89723 0.13071 0 1.5858-1.6903 3.2336-3.7563zm-56.05 11.491c-0.23261-0.43463-0.0491-1.2785 0.48548-2.2329l0.33955-0.60618-0.13107 0.99147c-0.0865 0.65449-0.0442 1.0962 0.1245 1.2994 0.31033 0.37393 0.13109 0.93827-0.298 0.93827-0.17144 0-0.40565-0.17553-0.52046-0.39006zm76.074-2.8509c-0.64393-0.45102-0.61482-1.6816 0.0718-3.0367 0.65929-1.301 0.87242-1.2002 0.38197 0.18066-0.42642 1.2006-0.29403 1.7808 0.38434 1.6845 0.40617-0.0577 0.46969-0.19078 0.46969-0.9843 0-1.0938 0.37313-1.3265 0.80085-0.49935 0.26065 0.50402 0.26376 0.70721 0.0216 1.4116-0.26819 0.78014-0.9868 1.5532-1.4532 1.5633-0.11774 3e-3 -0.42243-0.14131-0.67709-0.31968zm-44.838-0.16172c0-0.063 0.57769-0.42244 1.2838-0.79877 1.1199-0.59692 1.2216-0.6989 0.7967-0.7992-0.61134-0.14432-0.73437-0.48015-0.3061-0.83557 0.24127-0.20024 0.53272-0.22263 1.0849-0.0833 0.92615 0.23361 1.0542 0.54279 0.45571 1.1004-0.7172 0.66818-3.3149 1.7782-3.3149 1.4165zm66.168-0.67684c-0.20367-0.53074-0.14792-1.0908 0.18877-1.8966 0.39134-0.93659 0.62097-0.78377 0.34176 0.22743-0.18076 0.65467-0.15234 0.78675 0.22632 1.052 0.36142 0.25314 0.38888 0.35652 0.16602 0.62504-0.34415 0.41468-0.76211 0.41114-0.92287-8e-3zm6.7486-1.1222c0.17187-0.12811 1.1562-0.66158 2.1875-1.1855s1.9192-0.99369 1.9731-1.044c0.24081-0.22437-0.57882-0.48312-1.1919-0.37626-0.82095 0.1431-0.87584-0.13771-0.16572-0.84783 0.55865-0.55865 1.0564-0.62329 2.249-0.29207 0.54295 0.15078 0.78126 0.33449 0.78126 0.60225 0 0.56905-1.3542 1.6576-3.0166 2.4248-1.4872 0.68636-3.4427 1.1852-2.8167 0.7186zm-46.984-0.43089c-0.1855-0.30013 0.0964-1.8351 0.36787-2.0028 0.14868-0.0919 0.18104 0.0708 0.0973 0.48936-0.0692 0.34617-0.0247 0.72766 0.0993 0.85172 0.25036 0.25036 0.0871 0.87772-0.22844 0.87772-0.11142 0-0.26265-0.0972-0.33606-0.21598zm34.328-0.47542c-0.59394-0.87245-0.58821-0.96853 0.0901-1.5094l0.5588-0.44557-0.57716-0.98486c-0.31745-0.54168-0.54547-1.0079-0.50672-1.036 0.81065-0.58812 1.4292-0.95784 1.6024-0.95784 0.11971 0 0.47077 0.33185 0.78013 0.73745l0.56248 0.73744-1.1494 1.1997 0.97765 1.7395-0.67764 0.60546c-0.86249 0.77064-1.0854 0.75911-1.6606-0.0859zm8.9455-0.46471c-0.24776-0.50997-0.57598-0.92722-0.72937-0.92722-0.7995 0-1.4634-1.529-0.98921-2.2783 0.23653-0.3738 0.63823-0.0825 1.4758 1.0703l0.56031 0.77116 0.23649-0.78933c0.43854-1.4637 1.7283-2.0182 1.8685-0.80329 0.0569 0.49264-8e-3 0.57113-0.47391 0.57113-0.62275 0-0.85306 0.44786-1.0696 2.0799-0.0769 0.57997-0.20484 1.0946-0.28424 1.1437s-0.34706-0.32803-0.59483-0.83801zm-19.878-0.0405c-0.78138-0.48455-0.84162-0.7689-0.34219-1.6154 0.49742-0.84307 0.66621-0.87687 1.584-0.31726 0.71446 0.43563 0.71704 0.74228 0.0157 1.8654-0.32326 0.51762-0.51469 0.52786-1.2575 0.0672zm-14.499-0.30831c-0.34772-0.34772-0.29566-0.96967 0.16175-1.9326l0.39587-0.83333-0.11715 0.98958c-0.0791 0.66853-0.0404 0.98958 0.1195 0.98958 0.32404 0 0.29857 0.5226-0.0391 0.80287-0.20139 0.16715-0.34189 0.16279-0.52083-0.0162zm-3.6715-1.0992c-0.24564-0.6432-0.47875-0.9375-0.74259-0.9375-0.59335 0-1.0393-0.58217-1.0393-1.3568 0-1.1191 0.40118-1.1156 1.3936 0.0123 0.6887 0.78266 0.89823 0.92476 0.89882 0.6096 1e-3 -0.63891 0.78004-1.7651 1.2207-1.7651 0.5422 0 0.92406 0.51762 0.76096 1.0315-0.1112 0.35034-0.20839 0.38743-0.54424 0.20769-0.35479-0.18988-0.44937-0.12186-0.71517 0.5143-0.16848 0.40321-0.3076 0.94707-0.30916 1.2086-4e-3 0.65856-0.22275 1.4129-0.40982 1.4129-0.0857 0-0.31685-0.42187-0.51377-0.9375zm-68.097-0.27181c-0.67913-0.70886-0.68616-0.81684-0.0942-1.447l0.46564-0.49564-0.48715-0.84644-0.48714-0.84643 0.64831-0.64831c0.72394-0.72394 1.0094-0.66474 1.7801 0.36917l0.42712 0.573-0.57292 0.41785c-0.72376 0.52786-0.71787 0.7373 0.0469 1.6651l0.61979 0.75191-0.78724 0.54556c-0.43298 0.30005-0.83497 0.54555-0.89331 0.54555-0.0583 0-0.35799-0.26294-0.66589-0.58431zm130.33 0.20767c-0.81914-0.42948-0.83621-0.64898-0.13314-1.7114l0.54869-0.82911 0.84226 0.469c0.46325 0.25795 0.87473 0.56915 0.9144 0.69156 0.10325 0.31859-0.83149 1.6417-1.1947 1.691-0.16784 0.0228-0.60773-0.11717-0.97752-0.31105zm-123.66-0.58605c-0.23083-0.23083-0.17484-1.4598 0.0933-2.0484 0.26775-0.58763 0.72868-0.74702 0.48022-0.16605-0.35406 0.82789-0.3615 1.5104-0.0165 1.5104 0.24528 0 0.33615-0.19711 0.33615-0.72917 0-0.50509 0.0948-0.72917 0.30853-0.72917 0.46191 0 0.64137 1.023 0.28985 1.6522-0.29009 0.51929-1.1786 0.82314-1.4916 0.51011zm111.05-0.92707c-0.42969-0.22654-0.78125-0.47013-0.78125-0.54132 0-0.22629 1.1397-1.9432 1.2902-1.9436 0.34019-8.3e-4 1.6265 0.89692 1.6265 1.1352 0 0.33251-0.87015 1.6259-1.1458 1.7032-0.11458 0.0321-0.55989-0.12695-0.98958-0.3535zm-16.601-0.54094c-0.53598-0.37542-0.5397-0.7045-0.0195-1.7241 0.64271-1.2598 1.6878-1.9655 4.1348-2.7919 2.4564-0.82956 14.995-4.3033 15.533-4.3033 0.38626 0 0.45172 0.32215 0.10854 0.53424-0.76564 0.4732-1.4205 3.7327-0.72113 3.5895 0.16436-0.0337 0.30498 9e-3 0.3125 0.095 0.0533 0.60939-0.0271 0.96263-0.29898 1.3144-0.30681 0.39685-0.32041 0.39522-0.72917-0.0874-0.50172-0.59243-0.52374-1.259-0.0899-2.7201 0.17967-0.60501 0.28213-1.1446 0.22768-1.199-0.30078-0.30078-15.104 4.1439-15.919 4.7796-0.14323 0.11176-0.26042 0.46578-0.26042 0.78671 0 0.65772-0.82815 1.761-1.4424 1.9217-0.22311 0.0583-0.59922-0.0295-0.8358-0.1952zm1.4449-1.1735c0-0.26354 0.11719-0.6022 0.26042-0.75258 0.21291-0.22354 0.1654-0.24564-0.26042-0.12119-1.1862 0.34669-1.557 1.3529-0.49854 1.3529 0.38133 0 0.49854-0.11266 0.49854-0.47917zm-87.153 1.1736c-0.24591-0.24591-0.1481-1.5191 0.17634-2.2956 0.39977-0.95678 0.61852-0.7749 0.32903 0.27356-0.17884 0.64768-0.16237 0.82672 0.089 0.96739 0.40809 0.22838 0.39465 0.90756-0.0211 1.0671-0.40804 0.15658-0.40415 0.15666-0.57324-0.0124zm9.2576-0.79862c-0.29059-0.65692-0.53845-0.9375-0.8282-0.9375-0.87752 0-1.3966-1.2646-0.85524-2.0833 0.17054-0.25789 0.37221-0.13958 1.1541 0.67708 0.5211 0.54427 0.98918 0.98959 1.0402 0.98959 0.051 0 0.0927-0.22174 0.0927-0.49274 0-0.63908 0.75243-1.5906 1.2578-1.5906 0.42281 0 0.9067 0.69574 0.76874 1.1053-0.0461 0.13688-0.35687 0.24887-0.69059 0.24887-0.58661 0-0.6168 0.0502-0.90841 1.5104-0.1659 0.83073-0.37245 1.5104-0.459 1.5104-0.0865 0-0.34398-0.42188-0.57207-0.93751zm112.99 0.60454c-1.1306-0.58143-1.2435-0.80431-0.75477-1.4907 0.79453-1.1158 0.98192-1.1866 1.8015-0.68 0.82501 0.50988 0.85828 0.61935 0.43629 1.4354-0.49143 0.95031-0.78339 1.0951-1.483 0.73527zm-133.22-0.7087c-0.52436-0.52437-0.53103-1.3724-0.0174-2.2147 0.27756-0.45517 0.89091-0.88673 2.0305-1.4286 3.0419-1.4465 8.5282-3.44 9.4673-3.44 0.54144 0 0.4969 0.5502-0.074 0.91447-0.25781 0.16449-1.5 0.64605-2.7604 1.0701-2.8125 0.94628-5.8783 2.2218-7.367 3.065l-1.117 0.63264 0.64826 0.50734c0.80608 0.63085 0.87216 1.3105 0.12742 1.3105-0.28646 0-0.70833-0.1875-0.9375-0.41666zm35.454-1.1177c-1.061-1.3501-1.3669-2.2156-0.78299-2.2156 0.16294 0 0.63169 0.39188 1.0417 0.87084 0.40997 0.47895 0.74475 0.78364 0.74394 0.67708-8.3e-4 -0.10656-0.1883-0.97313-0.41666-1.9257-0.46866-1.9549-0.5367-3.5841-0.16521-3.9556 0.74519-0.74519 2.0417 0.0516 2.0417 1.2547 0 0.65163-0.13424 0.70023-0.7169 0.25952-0.22242-0.16823-0.48024-0.30587-0.57292-0.30587-0.26352 0-0.19853 1.4732 0.14395 3.2629 0.38392 2.0063 0.39108 2.5917 0.0376 3.0751-0.25192 0.34452-0.36516 0.26111-1.3542-0.99738zm42.046 0.81438c0-0.0523 0.9375-0.57658 2.0833-1.1652 1.1458-0.58857 2.0833-1.1581 2.0833-1.2657 0-0.34384-0.66746-0.46613-1.2807-0.23465-0.8021 0.30276-0.7944-0.0948 0.0169-0.87208 0.54585-0.52296 0.70983-0.57074 1.5344-0.44709 0.50776 0.0761 1.0922 0.26205 1.2988 0.41313 0.35862 0.26223 0.35456 0.30432-0.0897 0.92815-0.55845 0.78427-1.7089 1.4806-3.64 2.203-1.36 0.50882-2.0064 0.6507-2.0064 0.44038zm52.014-0.0439c-0.25881-0.2588-0.14068-1.7533 0.18898-2.3908 0.4137-0.80002 0.62964-0.62625 0.32122 0.25849-0.31386 0.90034-0.29242 1.2296 0.0801 1.2296 0.33624 0 0.38609 0.19081 0.18604 0.71212-0.12995 0.33866-0.53005 0.43692-0.77632 0.19065zm-22.478-0.78381c-0.0689-0.44584-0.18223-0.47091-0.89008-0.19684-0.39685 0.15366-0.40096 0.13761-0.0864-0.33766 0.52054-0.78643 1.0062-1.0088 1.2537-0.57405 0.27398 0.48127 0.44161 0.4619 1.3525-0.15625 0.86309-0.58571 1.3796-0.65583 1.7291-0.23474 0.56546 0.68134-0.19292 1.2923-2.0891 1.6831-1.1508 0.23714-1.206 0.22916-1.2697-0.18354zm2.6639-0.84151c0.3233-0.24453 0.33927-0.3072 0.0796-0.3125-0.17863-4e-3 -0.50675 0.13102-0.72917 0.29925-0.32331 0.24454-0.33928 0.30721-0.0796 0.3125 0.17862 4e-3 0.50675-0.13101 0.72917-0.29925zm8.5525 1.02c-0.14933-0.38915 0.25612-2.1273 0.53667-2.3007 0.11806-0.073 0.1399 0.17789 0.0549 0.63083-0.0904 0.48171-0.0493 0.86249 0.11419 1.0595 0.30522 0.36777 0.13298 0.93787-0.28337 0.93787-0.16321 0-0.3533-0.14738-0.42242-0.32751zm-50.88-0.42053c-0.14456-0.57598 0.21478-2.0692 0.54742-2.2748 0.12359-0.0764 0.15039 0.23882 0.0701 0.82459-0.10855 0.79198-0.0738 0.94825 0.21085 0.94825 0.3985 0 0.41685 0.0936 0.12516 0.63869-0.30499 0.56987-0.79378 0.49977-0.95353-0.13673zm80.76-0.18024c-0.30473-0.36718-0.14476-1.5356 0.33807-2.4693 0.42079-0.81373 0.51371-0.6298 0.23551 0.46622-0.20495 0.80745-0.18677 0.94156 0.16229 1.1968 0.30241 0.22113 0.34266 0.36741 0.17449 0.63403-0.30652 0.48593-0.60342 0.54212-0.91036 0.17227zm-56.88-0.27338c1e-3 -0.19847 0.14187-0.82106 0.3125-1.3835 0.42581-1.4036 0.38922-2.3152-0.13507-3.365-0.46543-0.93193-0.41245-1.626 0.10884-1.426 0.59201 0.22718 1.0656 1.5842 1.0656 3.0533 0 0.98041 0.0783 1.4062 0.25846 1.4062 0.14215 0 1.2672-0.38654 2.5-0.85897 2.1034-0.80603 6.8567-2.4744 7.0498-2.4744 0.1878 0 0.0609 0.74643-0.17951 1.0555-0.23586 0.30327-4.1737 1.8959-8.9517 3.6205-1.782 0.64319-2.031 0.68889-2.029 0.37233zm31.329-0.42358c0.64681-2.902 0.64386-3.5203-0.0228-4.7773-0.27362-0.51591-0.29986-0.73063-0.11224-0.91825 0.65631-0.65631 1.6173 1.4709 1.4696 3.2529-0.0525 0.63318-0.0193 1.1512 0.0737 1.1512 0.0931 0 1.0852-0.36358 2.2046-0.80794 2.8905-1.1474 7.5978-2.7617 7.714-2.6454 0.054 0.054-0.0958 0.41193-0.33285 0.79546-0.3083 0.49884-0.71535 0.79221-1.43 1.0306-0.54946 0.18332-1.6084 0.56723-2.3532 0.85315-3.7071 1.4231-5.9271 2.2388-6.5966 2.4236-0.73015 0.2016-0.73796 0.19705-0.61423-0.35807zm-71.43-0.22818c-0.0788-0.35899-6e-3 -0.90753 0.18115-1.3542 0.39372-0.9423 0.48249-0.94674 0.37415-0.0187-0.047 0.40262 0.0302 0.87137 0.17151 1.0417 0.20385 0.24562 0.20335 0.37423-2e-3 0.62213-0.38308 0.46158-0.57618 0.38404-0.72443-0.29092zm83.159-0.22176c-0.46228-0.54939-0.49791-0.71089-0.32581-1.4768 0.22187-0.98745 0.89559-2.3905 1.2543-2.6122 0.26645-0.16468 0.22665 0.0195-0.33535 1.5516-0.42665 1.1632-0.26882 1.696 0.50238 1.696 0.8012 0 1.1385-0.4329 0.74373-0.9546-0.38424-0.5078-0.39856-1.2172-0.0307-1.5225 0.47551-0.39463 0.86098 0.31663 0.86098 1.5887 0 1.014-0.0703 1.1937-0.68037 1.7388-0.86083 0.76915-1.3362 0.76702-1.9891-9e-3zm6.107-0.18607c0-0.55928 0.83783-1.3784 2.0253-1.9802 1.2991-0.65828 7.1998-3.0503 7.5247-3.0503 0.13294 0 0.24172 0.13872 0.24172 0.30827 0 0.35801-0.70248 0.73334-3.8542 2.0592-1.2604 0.53025-3.0708 1.4332-4.023 2.0066-0.95221 0.5734-1.7725 1.0426-1.8229 1.0426s-0.0916-0.17382-0.0916-0.38625zm-147.04-0.73869c-0.92053-0.99865-1.0287-1.2554-0.63237-1.5003 0.14074-0.087 0.46129 0.10451 0.76407 0.45645l0.52161 0.6063-0.17923-0.9375c-0.0986-0.51562-0.18459-1.4531-0.19115-2.0833-0.011-1.0607 0.0259-1.1512 0.49724-1.2177 0.56203-0.0793 1.0533 0.42044 1.0533 1.0715 0 0.2953-0.0949 0.36222-0.36458 0.25725-0.88252-0.34347-0.91162-0.21834-0.49023 2.1074 0.12853 0.70939 0.15713 1.4835 0.0641 1.735-0.15953 0.43125-0.21202 0.40633-1.0428-0.49496zm46.625-0.91856c0-0.43644 0.13635-0.9755 0.30299-1.1979 0.27951-0.37307 0.29387-0.34592 0.18537 0.35036-0.0705 0.45238-0.0249 0.81204 0.11368 0.89772 0.3852 0.23806 0.2592 0.74335-0.18537 0.74335-0.34374 0-0.41667-0.13889-0.41667-0.79351zm22.083 0.42434c0-0.0885 1.0078-0.66645 2.2396-1.2844 1.9646-0.98563 2.1756-1.1414 1.7188-1.2684-0.28646-0.0797-0.77865-0.0993-1.0938-0.0437-0.72919 0.12874-0.74295-0.21652-0.0367-0.92271 0.48623-0.48624 0.63661-0.52296 1.6146-0.39435 1.3203 0.17362 1.5374 0.35803 1.2262 1.0412-0.34455 0.7562-1.7299 1.6802-3.6007 2.4017-1.7058 0.65784-2.0679 0.74026-2.0679 0.47076zm23.559-0.55033c-0.72125-0.74414-0.73235-1.3381-0.0179-0.95571 0.35898 0.19212 0.3801 0.14527 0.25799-0.57236-0.25371-1.4909-0.19441-1.8175 0.34385-1.8936 0.49659-0.0702 0.84768 0.24292 0.85371 0.76143 2e-3 0.18136-0.14026 0.22893-0.41969 0.14024-0.4086-0.12968-0.41814-0.0774-0.28255 1.5485 0.0772 0.92548 0.0984 1.6827 0.0471 1.6827s-0.40343-0.32003-0.78254-0.71117zm-90.118 0.28858c0.0728-0.11784 0.96181-0.6308 1.9755-1.1399s1.9027-1.0221 1.9755-1.1399c0.0833-0.13482-0.21973-0.21426-0.81738-0.21426-0.52239 0-0.94933-0.0703-0.94876-0.15625 6.3e-4 -0.0859 0.21151-0.41202 0.46875-0.72463 0.44707-0.54328 0.52059-0.56092 1.6655-0.39947 0.65876 0.0929 1.2656 0.23679 1.3486 0.31977 0.27818 0.27818-0.46488 1.2669-1.4494 1.9286-0.94507 0.63518-3.5375 1.7403-4.0824 1.7403-0.14756 0-0.20871-0.0964-0.13588-0.21426zm33.098-0.95045c-0.16808-0.66971 0.21929-2.0228 0.68832-2.4043 0.31131-0.25322 0.33254-0.23849 0.18965 0.13153-0.0885 0.22917-0.21341 0.72966-0.27759 1.1122-0.10757 0.64113-0.0777 0.68963 0.38231 0.62005 0.31798-0.0481 0.46929-0.18705 0.41711-0.38303-0.18519-0.69553-0.11256-1.1409 0.18606-1.1409 0.21994 0 0.33178 0.26857 0.3776 0.90671 0.0781 1.0878-0.36696 1.6975-1.2393 1.6975-0.45973 0-0.61842-0.11827-0.7242-0.53971zm18.906-0.0945c-0.1216-0.34882-0.41664-0.90884-0.65565-1.2445-0.34504-0.48456-0.38832-0.69671-0.2101-1.0297 0.22352-0.41765 0.22767-0.41771 0.98404-0.0123 1.3805 0.73989 2.8281 0.94397 4.5928 0.64746 0.86675-0.14564 2.1338-0.44304 2.8158-0.66089 0.68195-0.21785 1.3195-0.34691 1.4168-0.28679 0.23679 0.14635 0.0322 0.68024-0.57551 1.5022-0.50969 0.68935-1.1947 0.94644-0.97143 0.36459 0.14283-0.37221-0.17242-0.39654-1.176-0.0908-0.40028 0.12196-1.8059 0.28603-3.1236 0.36459-2.2758 0.13568-2.3992 0.16631-2.4624 0.61159-0.0932 0.65652-0.37352 0.58344-0.63459-0.16547zm55.736 0.49533c-0.25299-0.25299-0.12931-1.8316 0.18498-2.3611 0.29645-0.49951 0.30389-0.48153 0.18174 0.43909-0.1027 0.77406-0.0614 0.98524 0.21333 1.0907 0.27129 0.1041 0.29493 0.21624 0.11605 0.55049-0.23164 0.43282-0.45431 0.52266-0.6961 0.28087zm-8.1921-0.59938c-0.18346-0.47812 0.0786-1.7931 0.42668-2.1412 0.26665-0.26665 0.28115-0.20421 0.11759 0.50641-0.15054 0.65403-0.12149 0.8596 0.15041 1.0645 0.27649 0.20833 0.28945 0.31117 0.0722 0.57292-0.33757 0.40674-0.61017 0.40582-0.7669-3e-3zm-19.867-0.3332c-2e-3 -0.27007-0.0911-0.63001-0.19847-0.79988-0.16307-0.2579-0.3-0.20852-0.83014 0.2994-0.90513 0.86716-0.83162 0.19554 0.0921-0.84126l0.72695-0.81596 0.43626 0.57291c0.23995 0.31511 0.51278 0.57292 0.60629 0.57292 0.0935 0 0.65761-0.32812 1.2536-0.72917 1.624-1.0929 2.9474-0.87683 2.62 0.42769-0.15963 0.63602-0.97599 1.0273-2.7477 1.3171-0.67458 0.11034-1.3906 0.26511-1.5911 0.34395-0.28426 0.11176-0.36529 0.0352-0.36778-0.3477zm3.4928-1.1135c0.25781-0.0741 0.46875-0.22217 0.46875-0.32904 0-0.26001-0.76201-0.24712-1.2637 0.0214-0.50257 0.26897-0.53169 0.68165-0.0384 0.54408 0.20052-0.0559 0.57552-0.16231 0.83333-0.23641zm15.573-15.035c-1.9004-0.99868-2.8377-2.7601-2.9759-5.5924-0.0511-1.0458-0.20542-2.0132-0.34906-2.1875-0.46797-0.56787-0.52682-1.0476-0.31444-2.5631 0.26071-1.8603 0.89382-3.1821 2.3795-4.968l1.1524-1.3852-1.9254-1.7268c-1.059-0.94973-2.5184-2.2951-3.2432-2.9898l-1.3178-1.263 0.17193 3.3333c0.0946 1.8333 0.17107 5.0208 0.17002 7.0833-2e-3 3.4112-0.0462 3.8723-0.49178 5.1042-0.71662 1.9809-0.85955 1.9792-0.86762-0.0104-4e-3 -0.96823-0.26801-5.2936-0.58685-9.6119l-0.57972-7.8515-2.0207-2.1053c-1.1114-1.1579-2.8084-3.156-3.7711-4.4402-0.96271-1.2842-2.1331-2.7055-2.6008-3.1585-0.84203-0.81544-0.85039-0.83847-0.85039-2.3438 0-0.83612 0.0742-1.5202 0.16496-1.5202 0.0907 0 0.92463 0.46751 1.8531 1.0389 2.8715 1.7671 5.2363 4.3622 3.388 3.7178-0.3496-0.12187-0.69061-0.16661-0.7578-0.0994-0.12411 0.12411 1.3816 2.0138 3.261 4.0927 1.2413 1.373 1.1777 2.1038 0.5439-6.25l-0.48206-6.3542 0.61311-1.0938c0.33721-0.60156 0.69111-1.0938 0.78645-1.0938 0.18687 0 1.3167 2.9854 1.6882 4.461 0.12494 0.49621 0.19564 1.1252 0.15709 1.3977-0.067 0.47381-0.091 0.46358-0.54775-0.23366l-0.47767-0.72917 0.12331 1.1458c0.0678 0.63021 0.29351 3.6383 0.50152 6.6846l0.37819 5.5387 1.8512 1.7697c1.0181 0.97331 2.9039 2.7304 4.1906 3.9048l2.3395 2.1351 2.8688-2.6435c1.5779-1.4539 2.8934-2.7972 2.9234-2.9851 0.054-0.33815-1.7225-17.415-1.8588-17.868-0.0981-0.32592 1.1354-2.5903 1.3691-2.5133 0.10442 0.0344 0.49838 0.85433 0.87545 1.8221 1.1954 3.0682 1.4452 4.9821 0.48757 3.7357-0.21878-0.28474-0.39987-0.44023-0.40242-0.34553-0.0137 0.50876 1.2836 13.581 1.3548 13.653 0.0465 0.0465 1.1754-0.88877 2.5085-2.0784 1.3332-1.1896 2.8074-2.4988 3.2762-2.9093l0.85223-0.74635-1.4539-1.7536c-0.79966-0.96451-1.8424-2.2693-2.3172-2.8995-0.47477-0.63021-1.1509-1.4212-1.5026-1.7577-0.59113-0.56575-0.63935-0.71893-0.63935-2.0312 0-0.78065 0.0602-1.4194 0.13385-1.4194 0.0736 0 1.5267 1.0288 3.2292 2.2862s3.0944 2.2184 3.0933 2.1354c-1e-3 -0.083-0.13941-1.3806-0.30735-2.8838l-0.30534-2.7329 0.65188-1.2036 0.65189-1.2036 0.36155 0.70734c0.63169 1.2358 1.6578 4.3616 1.6567 5.0469l-1e-3 0.66048-0.52235-0.625c-0.51432-0.61539-0.52082-0.61699-0.42302-0.10417 0.0546 0.28646 0.20822 1.5726 0.34132 2.8581l0.24201 2.3373 0.75497-0.6373c0.41524-0.35051 1.9103-1.5898 3.3223-2.7539l2.5673-2.1166-0.089-1.4583c-0.0802-1.3138-0.0286-1.5668 0.52089-2.5521 0.33546-0.60156 0.68537-1.0938 0.77758-1.0938 0.0922 0 0.38114 0.58594 0.64208 1.3021 0.26094 0.71614 0.53177 1.3693 0.60184 1.4514 0.0701 0.0822 1.1049-0.75415 2.2995-1.8584 1.2092-1.1177 2.2094-1.8959 2.2563-1.7553 0.20433 0.61299-1.0699 2.5653-2.5481 3.9042l-1.5186 1.3754 0.1908 1.9348-1.1038-1.25 0.11238 0.9375c0.0618 0.51563 0.2996 3.8438 0.52842 7.3958 0.22881 3.5521 0.45937 6.9637 0.51235 7.5814 0.0955 1.1131 0.11761 1.1447 2.4793 3.5417 3.6356 3.6899 4.9328 5.9958 4.9328 8.7683 0 0.79102-0.0798 1.4876-0.1774 1.5479s-0.29572-0.28573-0.44032-0.76895c-0.6767-2.2613-2.3082-4.6793-4.8526-7.1917l-1.5408-1.5214 0.01 5.2714c9e-3 5.0463-0.0112 5.3248-0.47847 6.5215-0.69755 1.7862-0.85388 1.8418-0.84987 0.30208 5e-3 -1.9469-0.83343-13.783-1.0046-14.18-0.20407-0.47355-7.1014-6.5269-7.2582-6.3701-0.0235 0.0236 0.18706 2.4327 0.46801 5.3536 0.61654 6.41 0.87067 13.862 0.51686 15.156-0.7438 2.7207-5.3133 4.4281-7.934 2.9645-1.1122-0.62112-2.1597-2.0833-2.6153-3.6507-0.17601-0.60547-0.46187-1.1553-0.63523-1.2218-0.47412-0.18194-1.786 0.57211-2.64 1.5174-0.97402 1.0781-1.4595 2.0446-2.0529 4.0868-0.37652 1.2958-0.66234 1.8398-1.3362 2.5431-0.72992 0.76178-0.97856 0.89341-1.6742 0.88631-0.44933-5e-3 -1.0982-0.15615-1.442-0.3368zm2.1562-2.2646c0.47976-0.4037 0.80354-1.0604 1.3887-2.8166 0.89657-2.6907 1.9941-4.4539 3.4269-5.5058 1.8868-1.3851 3.0558-1.4051 3.6391-0.0622 1.3364 3.0767 1.5804 3.5028 2.2336 3.9 1.3861 0.84295 3.1024 0.76461 5.459-0.24917l1.0174-0.43768-0.14554-1.3698c-0.08-0.7534-0.59731-5.7586-1.1495-11.123s-1.0534-9.8024-1.1139-9.8628c-0.19574-0.19574-0.6622 0.18987-4.1761 3.4522l-3.4591 3.2114 0.14485 0.85109c0.0797 0.4681 0.14862 1.9292 0.15323 3.2469 9e-3 2.637-0.31689 3.9848-1.2349 5.1042l-0.51257 0.625-8e-3 -3.785c-4e-3 -2.0818-0.0636-3.9313-0.13218-4.11-0.11382-0.29661-1.238 0.6093-4.6402 3.7394-0.23927 0.22012-0.1813 0.39312 0.35632 1.0634 1.7254 2.1513 1.713 5.0952-0.029 6.9126-1.1515 1.2013-3.4194 2.1094-5.2813 2.1147l-0.8648 2e-3 0.31803 1.4063c0.39054 1.7268 1.1116 3.2011 1.8494 3.7815 0.78544 0.61783 1.965 0.5797 2.76-0.0892zm8.0057-11.284c1.8916-1.0366 4.109-2.6316 4.109-2.9558 0-0.10182-0.1875-0.23416-0.41667-0.29409-0.44573-0.11656-0.56138-0.84664-0.21968-1.3867 0.11839-0.18713 0.10719-0.45714-0.0296-0.71267-0.17176-0.32095-0.14354-0.46744 0.12839-0.66628 0.9557-0.69883 3.2459 1.1949 3.2459 2.684 0 0.73361-0.56058 1.0194-1.275 0.64992-0.53314-0.2757-0.58458-0.25497-1.1247 0.45322-0.94692 1.2415-3.5641 2.7064-5.5169 3.0879-0.55024 0.10751-0.28047-0.10341 1.0994-0.85952zm6.4006-3.592c0-0.19125-1.0926-1.0559-1.3342-1.0559-0.16997 0-0.15746 0.93885 0.0148 1.1111 0.21186 0.21185 1.3194 0.16546 1.3194-0.0553zm-1.7043-0.48294c-0.0435-0.30644-0.20986-0.46875-0.48039-0.46875-0.53059 0-0.67346 0.66139-0.171 0.7916 0.67343 0.17452 0.71883 0.15202 0.65139-0.32285zm-13.136 6.4066c0.83248-0.3916 1.57-0.85888 1.6388-1.0384 0.13306-0.34673-0.50107-1.3999-1.5702-2.6078l-0.6454-0.72917-1.3677 1.445c-0.75226 0.79473-1.6122 1.8622-1.911 2.372-0.53113 0.90631-0.53432 0.93379-0.14235 1.2268 0.59434 0.44436 2.2044 0.17513 3.9979-0.6685zm24.22-20.248c-0.24093-3.2918-0.46489-6.0119-0.4977-6.0447-0.19916-0.19916-6.59 5.5649-6.59 5.9437 0 0.3579 2.3246 2.733 5.625 5.7473l1.7708 1.6173 0.065-0.63925c0.0357-0.35159-0.13217-3.3325-0.3731-6.6243zm-9.4662-3.7161c-0.0803-0.31997-0.37267-0.5664-0.86456-0.72874-0.40877-0.13491-0.78531-0.2032-0.83675-0.15175-0.0515 0.0514 0.3064 0.59674 0.79521 1.2118 0.79695 1.0027 0.8959 1.0683 0.95809 0.63521 0.0381-0.26567 0.0147-0.70058-0.052-0.96648zm-79.307 33.022c2.5678-1.2587 6.0471-3.0517 7.7318-3.9845l3.063-1.696 0.36101-1.1682c0.44134-1.4281 1.582-3.5334 2.2162-4.0902 0.48685-0.42749 0.455-0.33843-0.33724 0.94289-0.50603 0.81842-1.3493 2.9757-1.3493 3.4517 0 0.22389 0.33576 0.0982 1.1979-0.44852 3.4204-2.1689 6.9271-5.0401 6.9271-5.6718 0-0.18806-0.75615-1.9592-1.6803-3.9357l-1.6803-3.5938 0.95914-2.978 0.9028 1.0152c0.97615 1.0976 1.7823 2.3733 2.0238 3.2026l0.15168 0.52084-1.1446-1.0417 0.4188 0.83333c0.77853 1.5492 1.2991 3.6285 1.2991 5.1894 0 2.0101-0.59872 3.1965-2.5348 5.0229-1.3799 1.3018-5.37 4.4038-5.9515 4.627-0.49594 0.19031-0.2639 0.45715 0.59978 0.68971 1.0341 0.27846 3.1061-0.0202 4.5449-0.65504 2.2578-0.99628 9.5917-6.6342 9.5917-7.3737 0-0.70779-2.429-7.0604-3.3987-8.8886l-1.0679-2.0133 0.31273-1.2006c0.172-0.66036 0.40645-1.2319 0.52101-1.2701 0.42485-0.14162 2.9776 4.2775 4.0472 7.006 0.69883 1.7828 1.2352 4.2889 1.4613 6.8279 0.28007 3.1444 0.75399 4.3556 2.3149 5.9166 0.67435 0.67435 1.3087 1.2261 1.4097 1.2261s0.28763-0.41317 0.41479-0.91815c0.4451-1.7676 2.9166-3.2323 7.5573-4.4785l1.5318-0.41138-6.4203-0.0126c-6.0138-0.0118-6.4134-0.0357-6.3115-0.37722 0.0598-0.20053 0.21998-0.81816 0.35589-1.3725 0.20065-0.81844 0.43441-1.156 1.2433-1.7954 1.4311-1.1312 3.9096-2.5147 6.5493-3.6557 1.2604-0.54484 2.3202-1.0148 2.355-1.0444s-0.1289-0.36902-0.36381-0.75434c-0.5293-0.8682-0.53479-1.2383-0.0329-2.222 1.29-2.5286 2.5785-2.5072 6.5388 0.10868 1.5483 1.0227 1.5193 0.92067 0.76389 2.685-0.3235 0.75557-0.46662 0.8716-1.2247 0.99281-0.47209 0.0755-1.3294 0.23827-1.9051 0.36174l-1.0467 0.22448 0.13399 0.89349c0.15988 1.0662-0.2104 1.4733-0.54338 0.59753-0.42865-1.1274-0.50071-1.1408-2.4514-0.45366-2.4654 0.86839-4.1944 1.6702-5.3877 2.4987l-1.0026 0.69607 20.483 0.20833-1.3163 2.2408-3.9583 0.88442c-8.9142 1.9917-14.688 3.8664-14.688 4.7693 0 0.37605 1.5778 1.0374 3.8113 1.5976l1.8137 0.45488v2.9148l-1.8121-0.15095c-3.1973-0.26633-4.8308-0.85834-6.5496-2.3737-1.8038-1.5903-2.868-3.7156-3.4938-6.9775l-0.35467-1.8487-0.38921 1.2855c-0.32874 1.0857-0.58835 1.4718-1.6708 2.4844-3.4621 3.2386-7.8896 5.8687-10.639 6.32-1.326 0.21762-1.5524 0.20191-2.2889-0.15881-0.70976-0.34761-1.5751-1.3029-1.805-1.9926-0.04-0.11998-0.86662 0.26116-1.837 0.84699-0.97033 0.58582-2.4674 1.2885-3.3267 1.5614-1.2392 0.39362-6.5767 1.5417-9.7917 2.1062-0.28646 0.0503 1.5801-0.93839 4.1479-2.1971zm44.467-18.966c0.24517-0.21511-1.5503-1.2343-2.4243-1.3761-0.39402-0.0639-0.91927-8e-3 -1.1672 0.12501-0.44598 0.23868-0.44243 0.2509 0.33065 1.1396l0.78145 0.89833 1.1512-0.31576c0.63316-0.17367 1.2308-0.38563 1.3282-0.47104zm34.309 20.294c0.0199-0.53526 0.93291-1.0237 4.9737-2.6608 2.4474-0.99156 4.4866-1.7662 4.5314-1.7214 0.28601 0.28602-0.37613 0.82621-1.6647 1.3581-1.1579 0.47796-5.1912 2.1244-7.5865 3.0968-0.14323 0.0581-0.25743 0.0254-0.25379-0.0728zm-93.653-0.30069c-0.80208-0.0898-1.7709-0.25879-2.153-0.37561-0.90545-0.27685-2.3267-1.1148-2.8252-1.6656-0.37804-0.41772-0.5376-0.43131-3.8539-0.32812l-3.4596 0.10765 2.3958-0.81459c4.1016-1.3946 3.7112-1.1328 3.5176-2.3575-0.092-0.58232-0.0808-1.7413 0.0249-2.5754 0.1888-1.4891 1.451-5.7335 1.8876-6.3477 0.17838-0.25092 0.19801-0.22588 0.0996 0.12705-0.76883 2.7568-0.93657 5.5871-0.43186 7.2867 0.5494 1.85 0.58806 1.8662 2.5063 1.0486 6.0459-2.577 10.916-5.4528 13.708-8.0944l0.79149-0.74887-0.3294-0.78837c-0.18117-0.43361-0.35973-0.8187-0.3968-0.85577-0.0371-0.0371-0.66688 0.0739-1.3996 0.24664-2.421 0.57069-4.2188 0.39066-5.1938-0.5201-0.54904-0.51288-0.61733-0.71209-0.61552-1.7954 5e-3 -3.0234 2.4322-5.3869 4.8026-4.6767 0.95498 0.28611 2.262 1.3782 2.9162 2.4367 0.24102 0.38997 0.56401 0.70903 0.71776 0.70903 0.15376 0 0.73205-0.34601 1.2851-0.76892 0.55304-0.42291 1.4112-1.0792 1.9069-1.4583 0.49576-0.37918 1.0923-0.68942 1.3257-0.68942 0.3847 0 0.41127 0.0874 0.28421 0.93464-0.12318 0.8214-0.0767 0.99808 0.38354 1.4583 0.38677 0.38678 0.74406 0.5237 1.3665 0.5237 0.46354 0 0.8428-0.0629 0.8428-0.13974 0-0.37905-2.309-19.834-2.4125-20.327-0.0869-0.41424 0.0648-0.89413 0.55183-1.7454 0.66471-1.1618 0.6746-1.1689 0.94813-0.67868 0.60707 1.0879 1.9538 4.7705 1.9467 5.3234l-7e-3 0.58862-0.51231-0.625c-0.28177-0.34375-0.51277-0.55343-0.51334-0.46596-6.3e-4 0.0875 0.27409 2.4312 0.61036 5.2083s0.7722 6.6196 0.96874 8.5389 0.42991 3.4896 0.51859 3.4896c0.19667 0 0.82181-0.79856 1.7125-2.1875 0.88078-1.3736 1.293-1.3765 1.293-9e-3 0 0.88785 0.073 1.0717 0.52083 1.3124 0.56231 0.30214 2.8477 0.20324 3.1889-0.13801 0.10957-0.10957 0.0812-0.47701-0.0688-0.8918-0.23204-0.64171-0.19816-0.81773 0.37496-1.9478l0.63005-1.2423 0.17004 0.83334c0.73764 3.615-0.69537 6.5625-3.1905 6.5625-1.075 0-1.9367-0.39689-2.5475-1.1735-0.24089-0.30625-0.46108-0.51906-0.48931-0.47292-0.0282 0.0461-0.35553 0.47745-0.72735 0.95846-0.66933 0.86591-0.6759 0.89686-0.66296 3.125 0.0134 2.3018-0.25808 3.5335-1.1654 5.2881-0.58963 1.1402-4.827 5.2274-6.658 6.422-4.7114 3.0739-10.554 4.8274-14.583 4.3765zm4.8958-3.2468c4.9348-0.96866 9.694-3.454 13.888-7.2529 2.0871-1.8903 2.2194-2.1834 1.9512-4.3225-0.11803-0.94132-0.21461-1.811-0.21461-1.9326 0-0.13189-0.49865-0.21815-1.2358-0.2138-1.0904 6e-3 -1.3116-0.0652-1.8796-0.60904-0.3541-0.33899-0.74991-0.97044-0.87957-1.4032l-0.23576-0.78688-0.87131 0.80315c-0.47922 0.44174-1.1084 0.95846-1.3981 1.1483-0.44268 0.29006-0.54896 0.56204-0.666 1.7044-0.24633 2.4043-0.80513 3.5432-2.5804 5.2592-2.365 2.286-6.9033 5.1201-10.93 6.826-0.77344 0.32762-1.4062 0.66431-1.4062 0.74821s0.35156 0.21133 0.78125 0.2832c0.42969 0.0719 0.875 0.16419 0.98958 0.20516 0.35597 0.12729 3.0492-0.13511 4.6875-0.45668zm4.5573-15.701c0.54368-0.0111-0.49996-0.78001-1.4418-1.0622-0.90054-0.26981-2.0739 0.0524-2.0739 0.56958 0 0.38324 1.5266 0.72814 2.5781 0.58249 0.32943-0.0456 0.75131-0.0861 0.93751-0.0899zm93.593 18.285c7.9093-3.6371 11.256-6.6094 11.73-10.417 0.0821-0.66065-0.19135-5.1171-0.69339-11.299-0.45596-5.6146-0.94239-11.755-1.081-13.646s-0.37638-3.7488-0.52845-4.1292c-0.25793-0.64527-0.22943-0.78509 0.42426-2.0818l0.70077-1.39 0.33914 0.81167c0.65831 1.5756 1.7919 5.408 1.7874 6.0425l-5e-3 0.64267-0.42347-0.52083-0.42346-0.52083 0.10824 1.25c0.0595 0.6875 0.16334 2.0938 0.23068 3.125 0.11086 1.6978 0.95891 12.448 1.2657 16.045 0.16369 1.919-0.23175 5.7719-0.77433 7.5444-1.1154 3.6437-2.8674 5.7244-6.12 7.2677-2.0499 0.97266-5.1227 1.8519-7.2095 2.0629l-1.3322 0.13471zm-62.687-0.64413c-0.79737-2.4584-0.57417-3.4031 0.92063-3.8966 0.57679-0.19042 0.57345-0.19329-0.1071-0.0923-0.68766 0.10207-0.6959 0.0944-0.39302-0.36435 0.18736-0.28379 0.5665-0.49431 0.96132-0.53378 0.52967-0.053 0.69749 0.0348 0.89483 0.46791 0.20292 0.44536 0.18071 0.60177-0.13496 0.95059-0.20782 0.22963-0.62665 0.41751-0.93074 0.41751s-0.71897 0.12144-0.92196 0.26987c-0.34885 0.25509-0.3504 0.3419-0.0283 1.585 0.18743 0.7233 0.30967 1.6097 0.27165 1.9697-0.061 0.57744-0.12373 0.48624-0.53236-0.77358zm46.426 0.51529c-0.0171-1.0647-0.55588-2.0332-1.4625-2.6288-0.39486-0.25939-0.63449-0.5936-0.63486-0.88542-8.4e-4 -0.59847 0.1147-0.58916 0.99199 0.08 1.1894 0.9072 1.8019 2.7603 1.2991 3.9304-0.13754 0.32008-0.18244 0.20504-0.19369-0.49624zm-26.833-0.88658c-1.4991-0.42166-1.279-1.548 0.52371-2.6801l0.9819-0.61664-0.69078-4e-3c-0.37993-2e-3 -0.8805 0.0976-1.1124 0.22166-0.35728 0.19121-0.41041 0.16762-0.34834-0.15466 0.1217-0.63194 1.1434-0.98869 2.2234-0.77636 0.5163 0.10151 0.9732 0.29051 1.0154 0.42 0.0422 0.12948-0.41962 0.51646-1.0262 0.85994-1.2548 0.71062-1.9364 1.3796-1.7359 1.704 0.22263 0.36022 2.1062 0.2531 3.2871-0.18694l1.096-0.40841-0.625 0.53029c-1.1441 0.9707-2.5248 1.3905-3.5889 1.0912zm6.7574-1.1431c-0.38448-0.38449 0.12771-2.7866 0.59417-2.7866 0.0584 0 9e-3 0.18134-0.10951 0.40297-0.11862 0.22163-0.21567 0.63203-0.21567 0.91199 0 0.54881 0.45827 1.0707 0.71885 0.81865 0.0878-0.0849 0.12511 0.0331 0.0829 0.26222-0.0763 0.41382-0.78792 0.67352-1.0707 0.39074zm-78.779-5.614c-0.61439-0.61438-0.2832-2.0558 0.92265-4.0155 0.72878-1.1844 1.1121-1.3702 0.44289-0.21461-0.67672 1.1684-0.96865 2.4042-0.65674 2.7801 0.35356 0.42602 1.1403 0.40451 1.5882-0.0434 0.34447-0.34447 0.35482-0.33151 0.20777 0.26042-0.33244 1.3382-1.7177 2.0202-2.5048 1.233zm13.982-0.84924c-0.0786-0.0786-0.14974-0.94752-0.1582-1.931-9e-3 -0.9835-0.26626-4.6921-0.57291-8.2412l-0.55755-6.4531-0.8695-0.14794c-3.2196-0.54781-4.568-3.7213-3.408-8.0205 0.25175-0.933 0.42654-1.9026 0.38843-2.1546l-0.0693-0.45825-0.56376 0.44538c-0.827 0.65335-1.7736 2.758-2.2547 5.0129-0.52523 2.4618-1.4644 4.4712-2.2893 4.8977-1.215 0.62829-2.8718 0.23635-3.624-0.85732-0.78766-1.1452-1.0165-4.1862-0.51436-6.8363 0.31134-1.6432 0.60077-1.9726 0.34549-0.39319-0.10756 0.66546-0.16106 2.0572-0.1189 3.0927 0.11379 2.795 0.99526 3.9709 2.9383 3.92 1.2199-0.032 1.8362-0.80089 2.413-3.0104 0.74084-2.8379 1.0532-3.7507 1.8191-5.3161 0.82638-1.689 2.5188-3.8973 3.068-4.003 0.45153-0.087 0.38549 0.40321-0.51948 3.856-0.63255 2.4134-0.78 4.1682-0.42573 5.0667 0.32185 0.81627 1.3509 1.6634 2.4065 1.9811l0.96579 0.29066v-0.68613c0-0.89188-0.79602-10.466-0.93516-11.248-0.0759-0.4267 0.0779-0.92205 0.53368-1.7188 0.35222-0.61561 0.71906-1.1193 0.81522-1.1193 0.38029 0 1.8741 4.4883 1.8722 5.625l-1e-3 0.72917-0.43914-0.68582c-0.24153-0.3772-0.46159-0.65845-0.48902-0.625-0.0503 0.0613 0.66401 8.7206 0.77262 9.3664 0.0519 0.30893 0.14443 0.31746 0.83775 0.0773 0.42865-0.14849 1.0205-0.42796 1.3152-0.62104 0.68168-0.44666 1.7028-2.0494 1.9965-3.1336 0.36147-1.3346 0.11376-4.9724-0.4462-6.5529-0.47163-1.3312-0.47236-1.3498-0.0954-2.4588 0.20892-0.61461 0.45183-1.162 0.5398-1.2163 0.30845-0.19063 1.1914 3.1824 1.6394 6.2627 0.60566 4.1646 1.1604 5.2513 3.2148 6.2968 0.84284 0.42895 1.2445 0.50681 2.2424 0.43463 1.324-0.0958 2.3121-0.64511 2.4172-1.3439 0.0337-0.22429-0.26034-1.1593-0.65348-2.0778-0.39315-0.91852-1.2411-3.0891-1.8844-4.8235l-1.1696-3.1535 0.43795-1.1705 0.43794-1.1705 0.52936 0.48522c0.56269 0.51578 2.1367 2.8208 2.1367 3.129 0 0.10085-0.18134 0.0863-0.40297-0.0323-0.88567-0.47399-0.8579-0.22955 0.29511 2.5983 1.2975 3.1823 1.4899 4.1498 1.1712 5.891-0.51001 2.7869-1.8415 4.1202-4.0842 4.0896-2.2071-0.0301-3.7422-1.2015-4.9462-3.7744-0.56929-1.2165-0.99128-1.5352-0.99128-0.74848 0 0.18174-0.32633 1.0089-0.72519 1.8382-0.72905 1.5158-2.6865 3.6401-3.3541 3.6401-0.35966 0-0.36337-0.49145 0.0391 5.1788 0.42549 5.9943 0.31124 9.2419-0.38415 10.919-0.2741 0.66102-0.56263 1.1376-0.64119 1.059zm24.772-4.524c-0.13347-0.71149-0.55637-1.2144-1.2188-1.4494-0.40844-0.14491-0.92425-1.108-0.7088-1.3234 0.2355-0.2355 1.1472 0.37958 1.6438 1.1091 0.26019 0.38216 0.53295 0.69549 0.60613 0.69627 0.0732 8.3e-4 0.19083-0.3065 0.26144-0.68284 0.16615-0.88566 0.67802-1.6074 1.14-1.6074 0.58393 0 1.1545 0.52022 1.0031 0.91464-0.12231 0.31875-0.17793 0.32128-0.62497 0.0284-0.45032-0.29507-0.51972-0.28946-0.84339 0.0682-0.408 0.45083-0.75674 1.5444-0.75674 2.3728 0 0.804-0.34342 0.71757-0.50173-0.12627zm-30.95-1.0703c0-0.11459 0.0909-0.34896 0.20196-0.52084 0.11107-0.17187 0.20195-0.21875 0.20195-0.10416 0 0.11458-0.0909 0.34895-0.20195 0.52083-0.11108 0.17187-0.20196 0.21875-0.20196 0.10417zm67.628-0.50184c0.70415-0.33312 1.6677-0.95565 2.1411-1.3834 0.78442-0.70868 0.8326-0.80893 0.54265-1.1293-0.60664-0.67033-0.26902-1.673 0.56334-1.673 0.43494 0 0.49346 0.13198 0.6825 1.5393 0.11919 0.8872 0.0931 1.0016-0.20252 0.88822-0.22373-0.0859-0.59494 0.12538-1.0896 0.62-0.83537 0.83538-2.5977 1.7391-3.397 1.742-0.37944 1e-3 -0.17328-0.16255 0.75944-0.6038zm3.4072-3.2482c0-0.17187-0.1521-0.3125-0.33801-0.3125-0.27683 0-0.29107 0.0566-0.0787 0.3125 0.14265 0.17188 0.29475 0.3125 0.33801 0.3125 0.0433 0 0.0787-0.14062 0.0787-0.3125zm-77.948 2.7876c0.11092-0.29983 1.4626-1.1247 4.212-2.5705 2.2268-1.1709 4.0807-2.1043 4.1198-2.0742s0.0108 0.24475-0.0629 0.47695c-0.0912 0.28729-1.422 1.091-4.1654 2.5157-2.2173 1.1514-4.0844 2.0935-4.1492 2.0935s-0.0442-0.19868 0.0456-0.44152zm-0.10625-3.285c3.0152-1.7168 4.6903-3.1484 3.6836-3.1484-0.35808 0-0.3967-0.15034-0.37259-1.4505 0.0296-1.5947 0.19859-1.8071 1.1515-1.4471 1.8813 0.71068 3.1128 3.5285 1.5381 3.5194-0.30268-2e-3 -0.68372-0.0876-0.84676-0.19081-0.21773-0.1378-0.54069 0.0841-1.2164 0.83558-0.96878 1.0775-3.6093 2.5414-5.0497 2.7996-0.57978 0.10391-0.35192-0.0841 1.1122-0.91771zm6.1795-3.55c0-0.10627-0.25781-0.39646-0.57292-0.64488-0.50323-0.39673-0.58139-0.40976-0.64262-0.10712-0.11935 0.58996 0.1393 0.94521 0.68817 0.94521 0.29005 0 0.52737-0.0869 0.52737-0.19321zm-1.5936-0.32159c0.0647-0.16856-0.0324-0.45651-0.21581-0.63988-0.30566-0.30566-0.36128-0.30511-0.66823 7e-3 -0.30776 0.31262-0.30213 0.36435 0.0696 0.63989 0.51017 0.37817 0.66726 0.37687 0.81445-7e-3zm51.504 2.0624c-0.48018-0.48018-0.42739-2.0087 0.0904-2.6183l0.41781-0.49183-0.20135 0.56512c-0.2896 0.81281 0.0988 1.8307 0.69862 1.8307 0.69481 0 0.95879-0.40153 0.95879-1.4583 0-0.52708 0.11249-1.0708 0.24999-1.2083 0.19442-0.19442 0.31133-0.0103 0.52603 0.82867 0.3341 1.3055 0.57904 1.6296 1.2314 1.6296 0.49756 0 0.49774-8.3e-4 0.15592-0.78125-0.67162-1.5333-0.18858-2.5048 0.51883-1.0435 0.98314 2.0309 0.0743 3.636-1.5246 2.6926-0.64769-0.38215-0.67639-0.38227-1.1424-5e-3 -0.58402 0.47291-1.5375 0.50166-1.9795 0.0597zm30.509-0.74958c2e-3 -0.15246 0.0721-0.38237 0.15625-0.51091 0.23076-0.35235 8.3822-4.5208 8.3822-4.2865 0 0.52022-1.0151 1.19-4.6354 3.0585-2.3646 1.2204-3.905 1.9067-3.9031 1.7389zm-15.263-2.8642c1.3315-0.86056 1.7529-1.5303 1.2681-2.0151-0.24086-0.24086-0.3808-0.23519-0.90683 0.0367l-0.62202 0.32152 0.71645-0.74111c0.83711-0.86591 1.3723-1.0855 1.7936-0.7359 0.49202 0.40835 0.34851 1.1747-0.37458 2.0002-0.73718 0.84154-2.3478 1.9499-2.8335 1.9499-0.16721 0 0.26426-0.36729 0.95881-0.8162zm49.858-1.9525c-0.023-1.5658-1.0132-3.0799-2.6273-4.0176-0.32693-0.18992-0.35437-0.33163-0.18112-0.93568l0.20415-0.71186 1.117 1.0398c1.3392 1.2467 1.8837 2.3381 1.8701 3.7482-0.0139 1.4374-0.36285 2.237-0.3828 0.87712zm-78.765 0.45133c-1.5767-0.6287-2.1839-2.2043-2.0284-5.2628 0.10234-2.0118 0.50515-4.4291 0.70479-4.2295 0.0518 0.0518-0.0166 0.73005-0.15192 1.5072-0.2995 1.7199-0.14557 4.3836 0.30351 5.252 0.53079 1.0264 1.3024 1.5087 2.4137 1.5087 1.5554 0 1.9393-0.55748 2.8888-4.1952 0.72648-2.7833 1.866-5.1997 3.2577-6.9082 0.97021-1.191 1.5701-1.5058 1.57-0.82368-1e-5 0.20052-0.33713 1.6771-0.74915 3.2812-1.1251 4.3806-0.89749 5.8084 1.1045 6.9274 1.8275 1.0214 4.884 0.74354 6.3928-0.58121 2.0146-1.7688 2.4979-5.6863 1.1737-9.5128l-0.43584-1.2594 0.44592-1.1918c0.24526-0.65551 0.51738-1.1128 0.60471-1.0162 0.4044 0.44742 1.0894 3.1382 1.4754 5.7953 0.23344 1.6072 0.53522 3.2971 0.67062 3.7554 0.35749 1.2102 2.0857 2.9164 3.2736 3.232 1.5803 0.41982 3.781-0.15059 4.0678-1.0544 0.0587-0.18504-0.16448-0.93819-0.49603-1.6737-1.0536-2.3374-3.153-8.0758-3.153-8.6186 0-0.59941 0.5961-2.1978 0.81964-2.1978 0.229 0 0.91893 0.81739 1.7561 2.0806 0.86719 1.3084 0.99363 1.8204 0.35039 1.4187-0.22396-0.13987-0.46805-0.19345-0.54242-0.11907-0.0744 0.0744 0.36667 1.3833 0.98011 2.9088 1.0602 2.6364 1.1153 2.8663 1.1153 4.6486 0 2.2017-0.50198 3.5008-1.7084 4.4209-0.86698 0.66128-2.6928 0.87881-3.9351 0.46883-1.239-0.4089-2.6343-1.8644-3.4187-3.5662l-0.68683-1.4901-0.4535 1.2524c-0.941 2.5988-2.2081 4.1713-4.041 5.0149-2.0342 0.93631-4.6982 0.36688-5.8734-1.2555-1.1471-1.5835-1.2922-4.0513-0.41211-7.0061 0.55528-1.8642 0.35165-2.3137-0.59103-1.3045-0.9192 0.984-1.4336 2.205-2.1322 5.0612-0.34581 1.4139-0.86077 2.9686-1.1444 3.4549-0.78578 1.3476-2.0524 1.8213-3.416 1.2775zm-9.1464-1.0308c0.29664-0.45627 5.7983-3.6109 5.9802-3.429 0.30998 0.30999-0.78682 1.1025-3.3331 2.4086-2.4574 1.2604-2.9186 1.4382-2.647 1.0204zm53.187-1.552c-0.39458-0.60221-0.29793-2.0566 0.16761-2.5221 0.23671-0.2367 0.27034-0.15726 0.21055 0.49742-0.0954 1.0445 0.33197 1.616 1.0698 1.4309 0.50381-0.12644 0.55325-0.22931 0.55325-1.151 0-0.64199 0.11339-1.1063 0.31003-1.2695 0.34161-0.2835 0.29191-0.36641 0.7156 1.1938 0.18225 0.67115 0.36549 0.91492 0.76266 1.0146 0.72313 0.18149 0.78727 0.0403 0.40129-0.88348-0.31472-0.75324-0.28377-1.7502 0.054-1.7383 0.27301 0.01 0.88145 1.5725 0.88145 2.2641 0 1.0294-0.33055 1.4806-1.0847 1.4806-0.35934 0-0.82022-0.15102-1.0242-0.3356-0.34259-0.31004-0.41344-0.3021-0.92992 0.10416-0.77572 0.61019-1.6552 0.57418-2.0874-0.0855zm-62.924-3.444c-0.0241-0.91955-0.83672-2.1621-1.659-2.5368-0.50887-0.23186-0.72769-1.2023-0.27111-1.2023 0.91007 0 2.2745 2.0131 2.2686 3.347-5e-3 1.0201-0.31268 1.3769-0.3385 0.39206zm29.092-1.3857c-0.87136-0.30561-1.1574-2.1152-0.46875-2.966 0.35716-0.44128 0.36312-0.42906 0.29247 0.60078-0.0797 1.1618 0.16065 1.4155 1.1142 1.1762 0.46561-0.11686 0.52036-0.23712 0.52036-1.1428 0-0.61078 0.11504-1.1077 0.29007-1.2529 0.23764-0.19722 0.33509-0.0531 0.53914 0.79751 0.27848 1.1609 0.60737 1.54 1.2486 1.4394 0.42688-0.0669 0.42793-0.0801 0.0635-0.79724-0.39762-0.78256-0.39304-1.6701 9e-3 -1.6613 0.29741 6e-3 0.97509 1.4163 0.97509 2.0285 0 1.4352-1.0357 2.1069-2.0699 1.3424-0.55921-0.41344-0.59091-0.41502-0.97284-0.0486-0.45885 0.44027-1.0952 0.64021-1.5406 0.48402zm-9.8736-0.80788c-0.23711-0.61789-0.12692-1.2948 0.39234-2.4102 0.51402-1.1042 0.6405-1.9196 0.39641-2.5557-0.19166-0.49945-0.45223-0.3984-0.82337 0.31929-0.50659 0.97964-1.9529 2.4606-2.85 2.9183-0.89689 0.45755-1.8252 0.83048-1.8252 0.73322 0-0.0354 0.51175-0.41683 1.1372-0.84761 1.2802-0.88167 2.6274-2.2654 3.1052-3.1893 0.31025-0.59994 0.30181-0.63061-0.29483-1.0717-1.0442-0.77203-0.67186-1.9 0.62725-1.9 0.45197 0 0.84187 0.69058 0.84187 1.4911 0 0.23228 0.1875 0.66069 0.41667 0.95203 0.57579 0.732 0.52279 1.4814-0.21937 3.1018-0.69116 1.509-0.68657 2.4414 8e-3 1.5905 0.21037-0.25781 0.44795-0.46875 0.52794-0.46875 0.19195 0-0.0814 1.0711-0.35865 1.4051-0.30353 0.36573-0.92998 0.32636-1.0813-0.068zm-0.12646-7.0663c0-0.17361-0.18519-0.3125-0.41667-0.3125-0.4611 0-0.5645 0.32229-0.15625 0.48702 0.45335 0.18293 0.57292 0.14651 0.57292-0.17452zm41.51 6.6329c-0.38156-0.15396-0.31756-0.99666 0.10416-1.3715 0.20052-0.17822 0.93035-0.56045 1.6218-0.84939 1.5613-0.65238 6.1803-2.2522 6.2632-2.1693 0.2393 0.2393-0.59425 0.67005-2.9402 1.5194-4.6241 1.6742-5.5297 2.1687-4.4761 2.4442 0.22917 0.0599 0.41667 0.21149 0.41667 0.3368 0 0.23227-0.5197 0.27946-0.98959 0.0899zm-48.022-1.8319c0.158-0.82648-0.34534-1.9401-1.2123-2.6822-0.73014-0.62497-1.1273-1.598-0.65223-1.598 0.23344 0 1.6122 1.4697 1.8926 2.0176 0.27328 0.53381 0.31369 2.4913 0.0547 2.6514-0.098 0.0606-0.13532-0.11437-0.0829-0.38878zm-37.239-0.73846c-0.22917-0.22917-0.41667-0.68532-0.41667-1.0137 0-0.66881 1.2799-3.3706 1.802-3.8039 0.23381-0.19405 0.17661 0.0397-0.18549 0.75808-0.74549 1.479-0.88222 2.264-0.46671 2.6795 0.46342 0.46342 0.91841 0.42423 1.5148-0.13048l0.50398-0.46875-0.33857 0.83334c-0.60194 1.4816-1.6025 1.9567-2.4134 1.1458zm21.369-0.53571c-0.39464-0.39464-0.42385-1.1277-0.0645-1.6191 0.23112-0.31606 0.26257-0.27684 0.26042 0.32477-2e-3 0.54983 0.0887 0.6972 0.46163 0.75021 0.39777 0.0565 0.48353-0.0557 0.60028-0.78587 0.18099-1.1318 0.41647-1.2287 0.57512-0.23655 0.0748 0.46787 0.27332 0.86218 0.47251 0.93862 0.50579 0.19409 0.58038 5e-3 0.28182-0.71624-0.17763-0.42885-0.19701-0.71272-0.0581-0.85161 0.28452-0.28452 0.73744 0.84268 0.64907 1.6154-0.0755 0.66045-0.79365 0.92639-1.3206 0.48906-0.22557-0.1872-0.39956-0.16712-0.76406 0.0882-0.58616 0.41057-0.68588 0.41086-1.0935 3e-3zm34.271-1.013c-0.0136-0.95301-0.0905-1.101-1.0563-2.0319-0.57291-0.55221-1.0417-1.1912-1.0417-1.42 0-0.5599 0.25652-0.52386 1.0553 0.1483 1.1561 0.97277 1.7256 2.7762 1.2363 3.9149-0.13346 0.31058-0.18277 0.15496-0.19369-0.61122zm16.563 0.59634c-0.523-0.523-0.39842-1.7861 0.3098-3.141 0.35046-0.67049 0.81115-1.3959 1.0238-1.6121 0.27125-0.27573 0.20545-0.0339-0.22051 0.81061-0.33391 0.66198-0.60711 1.4529-0.60711 1.7576 0 1.0496 0.9074 1.3966 1.6667 0.63731 0.52844-0.52844 0.53191-0.2093 9e-3 0.81594-0.55713 1.0921-1.5036 1.4095-2.1815 0.73168zm16.053-0.75294c-0.17367-0.92573-0.68112-1.628-1.1764-1.628-0.41324 0-0.82885-0.56768-0.82885-1.1321 0-0.56236 0.45569-0.36001 1.3936 0.61878 0.75463 0.78758 0.92389 0.88301 1.0161 0.57292 0.2588-0.86995 0.84347-1.8301 1.1502-1.8888 0.51011-0.0976 1.2694 0.62091 1.0382 0.98248-0.1578 0.24678-0.24825 0.25181-0.51698 0.0288-0.17915-0.14868-0.47178-0.21428-0.65029-0.14578-0.40057 0.15371-0.92964 1.3745-0.93394 2.155-5e-3 0.95536-0.33873 1.2517-0.4916 0.43679z"/>
</svg>
