<?xml version="1.0" encoding="UTF-8"?>
<svg width="200mm" height="100mm" version="1.1" viewBox="0 0 200 100" xmlns="http://www.w3.org/2000/svg">
 <path d="m0 0v100h200v-100h-100z" fill="#fffffe" stroke-linejoin="round" stroke-width=".2"/>
 <path d="m151.78 14.362-1.25-2.9166-1.4033 2.5-0.061 2.6999-2.0775 1.8432-4.375 3.5819-0.4167-5.2084h0.2083l0.62501 0.83301c0.2227-2.044-0.93121-4.4778-1.875-6.2501h-0.2083l-1.1679 2.2916 0.3346 5.625c-1.74-1.5057-4.0571-3.6476-6.2501-4.375l0.12501 2.8572 1.87 2.3512 3.8384 4.7916-6.6667 5.6251-1.0417-13.542h0.2083l0.62501 0.625c-0.043-2.0662-0.85981-4.2577-1.875-6.0418h-0.41661l-0.9604 2.0833 0.3175 4.375 0.88581 8.9585 0.3821 3.5416-0.024 1.6313-1.2258 1.2854-2.9165 2.6727-1.6667 0.94901-2.0834-1.6267-4.1667-3.8671-1.7798-1.886-0.33901-3.5336-0.5896-9.1667h0.2083l0.625 0.83301c-2.1e-4 -2.05-0.4981-5.0094-2.0834-6.4584l-1.1598 2.2916 0.3183 4.7917 0.6331 8.7501-4.375-5 1.4584 0.417c-0.2004-1.9448-1.8217-2.7309-3.3334-3.6836-0.87121-0.549-1.6873-1.1195-2.7084-1.3164l0.1256 2.9166 1.9977 2.5 3.9265 4.9992 2.9736 3.1258 0.35481 2.9167 0.2133 3.3333 0.82521 12.917c1.2967-0.97301 1.4558-3.5015 1.4584-5 6e-3 -3.9748-0.4058-7.9203-0.4167-11.875l6.4584 5.625v0.208c-2.18 1.6046-3.9621 4.7096-3.7244 7.5001 0.077 0.90401 0.72121 1.5905 0.79561 2.5 0.211 2.5805 0.2175 5.557 3.1371 6.6678 1.6621 0.63301 3.1321-0.107 3.8505-1.6677 1.0569-2.2962 1.4056-5.9367 4.2738-6.8609 1.4727-0.475 1.6923 1.8156 2.195 2.6942 0.94101 1.6439 2.5925 2.5539 4.4725 2.491 2.1186-0.07 4.7196-1.1737 5.4471-3.3244 0.424-1.2533 0.1779-2.8591 0.1779-4.1666 0-5.5164-1.0379-10.965-1.0417-16.459l4.7917 4.0467 2.2544 2.2115 0.25371 2.2835 0.2083 3.125 0.6169 10.208h0.20831l1.1821-3.3333-0.1404-10.208 4.773 5.4166 2.1021 4.1667c1.1083-3.7498-1.4892-7.4382-3.9665-9.9993-0.91231-0.94301-2.2946-1.7296-2.9036-2.9175-0.69311-1.3518-0.31871-3.1308-0.45711-4.5833-0.3794-3.986-0.79791-8.0776-0.79791-12.083h0.20831l0.625 0.83301c4.2e-4 -0.602-0.083-1.3065 0.2142-1.8562 0.39671-0.73501 1.2563-1.1447 1.8329-1.7216 1.0454-1.0459 1.7136-2.254 1.9113-3.7139l-4.5834 3.75m7.9167-3.3333c-0.35651 0.85601-1.0404 1.7744-1.1302 2.7083-0.08 0.83101 0.3802 1.676 0.469 2.5 0.1867 1.7295 0.2525 3.476 0.41751 5.2084 0.4621 4.8514 0.6488 9.7315 1.1125 14.583 0.3096 3.2404 1.2027 7.4511-0.55101 10.417-2.6179 4.4268-8.1328 6.0578-12.401 8.3334v0.208c1.8219-0.0047 3.673-0.403 5.4167-0.92501 1.6579-0.496 3.3754-1.2088 4.7917-2.2094 6.5117-4.6017 5.0686-14.023 4.4105-20.825-0.2346-2.4229-0.2552-4.8798-0.57211-7.2918-0.2452-1.8671-0.2967-3.7433-0.2967-5.6251l0.62501 0.417c0.3271-1.6998-0.64791-3.6106-1.1806-5.2083-0.28101-0.84401-0.48601-1.6455-1.111-2.2917m-112.92 0.208-1.1596 2.2917 0.2908 3.75 0.66041 8.9584c-0.79231-0.315-1.6152-0.567-2.2825-1.1229-2.9229-2.4348 0.069-7.1007 0.1992-10.127-1.4102 0.285-2.1877 1.5075-2.8517 2.7084-0.84231 1.5239-1.5192 3.107-1.9642 4.7916-0.3375 1.2777-0.5213 2.8682-1.3611 3.9357-1.0481 1.3322-2.799 0.83801-3.6873-0.398-0.69601-0.96801-0.77191-2.18-0.76001-3.3293 0.012-1.1911 0.2669-2.3635 0.4158-3.5417-0.78081 0.63101-0.76101 1.9712-0.84901 2.9167-0.2183 2.3466-0.4212 6.5799 2.9323 6.6622 0.4117 0.01 0.85831 0.0023 1.2469-0.15 1.2831-0.503 1.88-2.1617 2.1952-3.3871 0.61831-2.4044 0.76581-5.5386 3.2246-6.8751-0.24 2.7484-1.8973 5.9188-0.072 8.5415 0.4869 0.70001 1.1488 1.2761 1.9475 1.5829 0.75291 0.289 1.7179 0.22 1.9929 1.138 0.5752 1.92 0.3854 4.4431 0.5258 6.4461 0.2289 3.269 0.6062 6.508 0.6062 9.7918h0.2083c2.0892-3.5929 1.2958-8.5214 1.0229-12.5-0.093-1.3586-0.3836-2.7925-0.1588-4.1577 0.1764-1.0713 1.4936-1.5617 2.164-2.3194 1.1552-1.3052 1.7919-2.8861 2.1802-4.5646h0.2083c0.4115 1.7321 1.394 3.3996 2.9167 4.3815 2.2548 1.4539 5.1738 0.88701 6.2751-1.6732 1.59-3.6973-0.74291-6.948-1.6917-10.417l1.0417 0.417c-0.286-1.4787-1.3771-3.0444-2.7084-3.75-1.5344 2.9273 0.5565 6.3915 1.6667 9.1668 0.3289 0.82201 1.2815 2.2252 1.08 3.121-0.5511 2.4507-4.4734 1.2246-5.6251 0.144-3.0023-2.8175-1.7517-8.1145-3.58-11.598h-0.4167c-1.6069 4.1724 2.55 8.9533-1.4615 12.687-0.73541 0.68401-1.6027 1.0565-2.4969 1.4802l-0.62501-9.3751h0.2083l0.62501 0.625c-2.1e-4 -2.0234-0.5202-4.8212-2.0833-6.2501m60.834 0c-0.90481 1.2635-2.5158 3.2515-1.7494 4.9525 0.37601 0.83401 1.5115 0.71301 2.0788 0.165 0.49021-0.473 0.61581-1.1439 0.71231-1.7846h-0.2083c-0.63581 0.62401-1.7473 0.85401-1.6856-0.418 0.051-1.0441 1.0248-1.8803 0.85231-2.9156m-42.709 0.208-0.94171 2.2916 0.69881 6.6668 1.0417 8.9584 0.65961 5.4167c-1.9783-0.05-2.5213-1.091-2.5-2.9167l-5.2084 2.9167c-0.2881-0.76001-0.69541-1.4669-1.2883-2.039-0.4592-0.443-1.0396-0.77301-1.6284-1.0125-4.2734-1.7391-7.7774 6.1414-3.125 7.1924 0.62001 0.14 1.2425 0.213 1.875 0.143 1.1511-0.128 2.2327-0.39 3.3334-0.74201 0.1179 0.451 0.3498 0.97701 0.2827 1.4504-0.155 1.0952-1.7656 2.0304-2.5744 2.6381-2.7129 2.0388-5.6867 3.6769-8.7501 5.1238-1.086 0.513-2.2019 1.045-3.3332 1.4504-0.4283 0.153-0.92041 0.342-1.3233 0.03-0.73961-0.582-0.88921-2.1131-0.94981-2.9798-0.2202-3.1429 1.2302-5.6447 2.0646-8.5417h-0.2083c-1.4423 2.4714-2.5919 5.5042-3.0657 8.3334-0.1614 0.96501-0.2944 1.9367-0.2596 2.9167 0.018 0.501 0.1879 1.1297-0.1525 1.5604-0.3781 0.479-1.1827 0.618-1.7306 0.80101-1.2442 0.415-2.5011 0.78101-3.75 1.1806v0.208c1.4548 0 2.9217 0.06 4.375-0.0082 0.67191-0.03 1.4261-0.294 2.0833-0.07 0.84061 0.285 1.4956 1.0735 2.2917 1.481 1.4333 0.73401 2.9929 0.94201 4.5834 1.0207 5.6157 0.278 11.858-2.8284 16.042-6.3291 1.5327-1.2823 3.1409-2.8804 4.1305-4.6346 0.68421-1.2131 1.2225-2.7631 1.2594-4.1667 0.025-0.96801-0.3527-1.9483-0.1154-2.9166 0.2058-0.84001 0.90421-1.4665 1.184-2.2917h0.4167c0.86271 1.8331 3.2152 2.4142 4.7698 0.99401 1.5663-1.4306 2.1079-4.8611 0.85521-6.6193-0.82981 1.4219-1.1292 2.3671-0.625 3.9583-1.0419 0.202-3.0463 0.81701-3.6773-0.464-0.2535-0.515-0.083-1.2717-0.073-1.8275-1.5408 0.436-2.1123 2.2077-3.125 3.3333l-2.0834-17.083 1.0417 0.83301c-0.018-2.162-1.0252-4.3905-2.0833-6.2501h-0.4167m36.459 0c-0.2712 0.66101-0.6871 1.3558-0.7265 2.0833-0.043 0.78701 0.3677 1.5743 0.6381 2.2917 0.55121 1.4613 1.0917 2.9248 1.6717 4.375 0.3687 0.92201 1.43 2.5246 1.169 3.5327-0.62651 2.4211-4.5309 1.0863-5.6496-0.01-1.5023-1.4762-1.6933-3.4197-1.9531-5.3948-0.2769-2.1061-0.60791-4.3523-1.6079-6.2501-1.6104 1.8038-0.569 3.4059-0.1394 5.4167 0.42 1.9654 0.3888 3.9804-0.465 5.8334-1.3865 3.009-7.399 4.6827-8.9772 0.83201-1.2002-2.9285 0.97961-6.042 1.0398-8.9576-2.9592 0.83101-4.2655 5.4988-4.9223 8.1251-0.2725 1.0898-0.4587 2.4279-1.2067 3.3106-0.99981 1.18-2.6129 0.95301-3.5298-0.208-0.73401-0.92901-0.94541-2.3616-0.88811-3.5197 0.062-1.253 0.2848-2.4979 0.3385-3.75h-0.2083c-0.6446 2.2935-1.2329 5.6513-0.2146 7.9167 0.74621 1.6602 3.07 2.6413 4.5211 1.2025 2.7329-2.7102 1.2669-7.3384 4.6519-9.7442-0.1244 2.7195-1.5965 5.1727-0.3431 7.9167 1.3806 3.0227 5.7221 3.2367 8.0328 1.1815 1.5748-1.4009 2.1171-3.2936 2.9354-5.1398 0.5846 1.5067 1.1921 2.9987 2.5032 4.0241 2.4288 1.9 5.8494 1.3026 6.9344-1.7324 1.1896-3.3271-0.5979-6.9921-1.9375-10l1.0417 0.417c-0.27171-1.5053-1.3121-3.0934-2.7084-3.75m-13.958 0.62501 1.5202 2.5031 0.5631 2.2886c1.1815-1.7293-0.2329-4.272-2.0833-4.7917m35 2.5h-0.2083c-0.4429-0.94701-1.0919-1.5379-2.0834-1.875l1.4596 2.1132 0.83211 1.6368c0.41981-1.3811 0.344-3.3817 2.2917-2.9166l0.2083-0.208c-0.829-2.1669-2.2142 0.02-2.5 1.25m-87.084-2.0834c-0.92421 1.0873-2.3644 3.0276-1.7492 4.5712 0.356 0.89301 1.4308 0.99501 2.0838 0.363 0.5063-0.491 0.63831-1.1417 0.70711-1.8088h-0.2083c-0.6062 0.66001-1.5606 0.75101-1.5973-0.418-0.031-0.98801 0.85421-1.7579 0.76401-2.7072m42.084 2.0834-2.2948 3.2655-2.2886 1.9428 3.2738-1.7641 2.3513-2.8192c0.066 0.56 0.1696 1.1079 0.036 1.6666-0.2508 1.0483-0.99651 1.9777-0.83521 3.1128 0.1036 0.73001 0.77651 0.93701 1.2698 0.363 0.2929-0.341 0.3158-0.76201 0.3629-1.1838l-1.0417 0.62501c0.1342-1.3101 1.1383-2.4214 1.0869-3.75-0.027-0.71101-0.4904-1.2342-0.73101-1.875-0.2456-0.655-0.2663-1.6049-1.1944-1.6049-1.514 0-0.83961 1.5954 0.0055 2.0216m0.2083-0.83301-0.83331-0.62501 0.83331 0.62501m-8.7501 0.208 1.6358 2.5083 0.4475 2.2833c1.4025-1.7137-0.11-4.3932-2.0833-4.7916m-12.083 0.625-1.25 1.875v-1.4584c-2.3515 2.3048 3.214 3.2098 2.8734 0.63001-0.052-0.396-0.2027-0.69201-0.3733-1.0466h-0.2083l0.2083 1.6666-1.25-1.6666m63.334 5.6251-0.625-0.62501v-0.417l5-2.0116 2.7084-1.5301c-2.289 0.229-5.0255 1.4372-7.0824 2.4552-1.2417 0.614-1.7075 1.9317-7.9e-4 2.1282m-3.75-3.3334-0.2083 0.208 0.2083-0.208m-28.751 1.0417c-0.84151 0.70101-1.4402 2.8811 0.023 3.3675 0.73691 0.245 1.3427-0.395 2.0606-0.378 0.63151 0.01 1.2013 0.486 1.8275 0.127 1.3052-0.74901 0.6348-3.1411-0.57751-3.5327l0.4167 2.5c-1.2677-0.376-1.4329-1.5155-1.4583-2.7083-1.1063 0.61-0.425 1.6345-1.1673 2.4216-1.1319 1.2004-1.2298-1.2182-1.1244-1.7966m73.751 0-0.2083 0.208 0.2083-0.208m-11.875 0.417 0.8333 13.333-5.4167-4.7729-1.9944-2.3073 1.3702-2.0542 5.2076-4.1989m-93.126 0.62501 1.5306 2.3 0.5527 2.2833c1.2507-1.6508-0.2502-4.2132-2.0833-4.5833m84.167 3.125-1.875-2.2917c1.4779 0.223 1.8619 0.84701 1.875 2.2917m-18.542 1.25c-0.94291 0.62501-1.2288 2.435-0.1608 3.1462 0.8302 0.553 1.369-0.204 2.1559-0.298 0.6162-0.07 1.0956 0.503 1.7429 0.308 1.7577-0.53 0.64711-2.755 0.2204-3.7812h-0.4167l0.2083 2.7083c-1.099-0.60301-1.3602-1.5081-1.4584-2.7083-1.0986 0.60601-0.42421 1.6245-1.1665 2.3975-1.0927 1.1375-1.2188-1.2032-1.1252-1.7725m31.25-0.62501c0.02 1.69 1.0356 1.9029 1.9671 3.1281 0.8004 1.0529 0.96541 2.2746 0.7413 3.5385 2.0342-2.171-0.3833-5.9242-2.7084-6.6667m-85.209 5.4166c1.0569-0.305 1.9454-0.90301 2.9167-1.4045 1.2846-0.66301 2.8227-1.0869 3.3334-2.5538-0.90441 0.266-1.6663 0.76601-2.5 1.1962-1.389 0.71701-3.1223 1.2159-3.75 2.7621m72.917-2.0833c1.015 5.4678 1.02 11.153 1.755 16.667 0.17561 1.3162 0.27541 2.6416 0.44831 3.9583 0.081 0.615 0.2273 1.4375-0.2456 1.9371-0.41831 0.442-1.1896 0.59301-1.7494 0.76601-1.8382 0.569-3.9861 0.74801-5.2155-1.0448-0.806-1.1754-1.1654-4.125-3.1179-3.8558-2.6132 0.36-4.3794 3.7587-5.1367 5.9476-0.3321 0.96001-0.46131 2.2692-1.2006 3.014-1.1254 1.1337-2.8409 0.86101-3.789-0.31-0.9981-1.2319-1.3194-3.039-1.3321-4.5794 3.3902-0.146 7.733-1.9229 7.2532-6.0418-0.095-0.81501-0.40771-1.6035-0.84581-2.2916-0.3025-0.476-0.89121-1.0377-0.71331-1.6586 0.1569-0.547 0.78331-0.93201 1.1812-1.2933 1.0848-0.98401 2.1336-2.0398 3.3332-2.8815l0.41671 7.9168c1.2861-1.8062 1.7992-3.8342 1.6481-6.0418-0.068-0.98901-0.4498-2.1398-0.2964-3.125 0.1444-0.92901 1.1106-1.6273 1.7734-2.2033 1.2146-1.0554 2.3334-2.2096 3.5417-3.2727 0.7408-0.65201 1.3254-1.3361 2.2917-1.6073m-34.792 2.5c0.7758-0.218 1.8627-0.228 0.9985 0.82501-0.5356 0.65301-1.3088 1.075-2.0402 1.4665 1.45 0.397 4.0346-1.704 3.6746-3.3025-0.366-1.6252-2.3279 0.371-2.6329 1.0108m15.417 4.7917c2.0702-0.60901 4.1069-1.994 6.0417-2.9684 1.0944-0.551 2.08-1.0306 2.5-2.24-2.2192 0.64101-4.3861 2.1394-6.4584 3.1765-1.0067 0.504-1.8944 0.83701-2.0834 2.0319m-37.084-4.1667c-0.1319 0.89701-0.5212 1.7921-0.3346 2.7083 0.2652 1.3005 1.1652 2.564 1.7392 3.75 0.61981 1.2815 1.0361 2.6255 1.5231 3.9584 0.2985 0.81701 0.86101 1.8089 0.82501 2.7002-0.05 1.2487-2.2469 2.5616-3.1277 3.2893-2.3577 1.9482-5.2036 4.4617-8.3334 4.9842-1.1136 0.186-2.2294-8e-4 -3.3334-0.14 3.2413-2.7627 9.0551-5.4142 8.9315-10.417-0.049-1.9793-0.90021-3.6404-1.6398-5.4166l0.83331 0.417c-0.3988-1.6633-1.5502-3.4302-3.125-4.1666l-0.74351 2.9166 2.3219 5.2084 0.66711 1.8156-1.6204 2.1346-6.2501 4.3831 2.0833-4.7917c-2.2627 1.2196-1.7967 4.2288-3.5644 5.7064-1.4715 1.2302-3.4909 2.0144-5.1857 2.8892-3.2159 1.66-6.4451 3.3464-9.7918 4.7379v0.208c5.4223-0.233 11.041-1.9852 15.625-4.7917 0.86481 2.9115 3.6392 2.7152 6.0417 1.9273 2.3-0.75401 4.3548-2.2687 6.2501-3.7296 1.9708-1.5191 3.7944-2.9812 4.375-5.4893h0.2083c0.1867 4.3377 2.4069 8.6615 6.6667 10.19 1.7506 0.62801 3.5838 0.64401 5.4167 0.64401 0-0.73801 0.2702-2.1527-0.2142-2.7629-0.37961-0.478-1.32-0.508-1.8692-0.65901-1.32-0.363-2.6648-0.67701-3.5417-1.7864l13.75-4.1938 4.9557-1.33 1.2944-2.1846-20-0.208v-0.208l3.9584-2.1288 3.75-1.4129 0.625 1.6667c0.78561-0.51 0.57101-1.2486 0.41671-2.0834 0.7885-0.03 1.5223-0.205 2.2917-0.373 1.3167-0.287 3.2619-1.791 2.009-3.3146-1.0294-1.2516-3.4944-2.5673-5.134-2.545-1.5186 0.02-2.8142 1.6036-2.6554 3.1075 0.072 0.68101 0.47 1.2819 0.7804 1.875-2.4994 0.43-5.1496 1.9809-7.2917 3.294-0.93151 0.571-1.9479 1.1877-2.5567 2.1235-0.5081 0.78101-0.60271 1.8107-0.77671 2.7075h12.083v0.208c-3.1669 0.259-8.0036 1.8404-8.5417 5.4166-3.5925-1.4033-3.5959-5.5976-4.0475-8.7501-0.4117-2.8727-1.3931-5.7934-2.7986-8.3334-0.71191-1.2862-1.4427-3.3079-2.9457-3.75m-45.417 3.3333-6.2501 4.1667v0.208c2.3848-0.494 5.6253-1.5493 6.6667-3.9583l1.875 0.417c0.62961-1.3161 0.1442-2.4827-1.0604-3.3057-0.4123-0.281-1.2321-0.75101-1.73-0.419-0.3221 0.215-0.2956 0.68101-0.3369 1.0175-0.1163 0.95101-0.2727 1.6814 0.83561 1.8739m52.5-1.6666c-1.6113 0.94101-0.94001 4.0675 1.2213 3.1285 0.3096-0.135 0.4479-0.381 0.65381-0.62801h0.2083c0.79231 0.89701 2.1958 1.0489 2.4517-0.42 0.1658-0.95301-0.324-1.819-0.5767-2.7052-1.15 0.67401-0.5036 1.6727-0.2083 2.7083-1.2496-0.449-1.4323-1.485-1.4584-2.7083-1.099 0.606-0.4194 1.6316-1.1673 2.3975-1.1365 1.1637-1.2681-1.1598-1.1244-1.7725m-52.084 0.208v0.83301l-1.0417-0.208 1.0417-0.62501m0.62501 0 1.0417 1.25h-1.25l0.2083-1.25m65.626 3.5417c-0.91081 0.74901-3.8544 1.4123-3.8863-0.594-0.017-1.0954 1.9319-0.479 2.4275-0.259 0.5183 0.23 0.98711 0.542 1.4588 0.85301m-62.501-0.417c-1.8931 1.105-3.8723 2.0929-5.8334 3.0735-1.0661 0.533-2.1488 0.91301-2.5 2.1348 2.2292-0.51 4.674-2.0862 6.6667-3.2133 0.79231-0.448 2.0054-0.92501 1.6667-1.995m12.708 1.6667c-0.4848 0.09-0.96421 0.183-1.4588 0.199-0.4206 0.01-2.5486-0.04-2.0463-0.93801 0.72751-1.3033 2.9342 0.02 3.505 0.73801m6.6667-0.625c0.87171 2.0796 1.9986 2.6652 4.1667 2.5 0.1117 1.4162 0.78101 3.2464 0.1131 4.5833-0.70601 1.4133-2.2467 2.5129-3.4465 3.4873-3.7044 3.0083-8.2101 5.1248-12.917 5.9045-1.9138 0.317-4.2725 0.84201-6.0417-0.225 4.4323-2.5225 9.2528-4.1338 12.897-7.9249 0.94081-0.97901 1.66-2.2036 1.9611-3.5336 0.1825-0.80601 0.023-1.7325 0.4162-2.4812 0.5133-0.97701 1.8761-1.8642 2.8504-2.3104m45.834 4.5833v0.208c1.724-0.04 3.6069-0.88801 4.375-2.5l0.8333 0.208-0.4215-2.1627-1.1156 0.17-0.38 2.1387-3.2913 1.9375m4.5834-3.3333-0.62501-0.62501 0.62501 0.62501m24.375 2.7083h0.8333c-1.74 1.7388-3.5567 3.0104-5.8334 3.9583v0.208c2.3871-0.195 5.6346-1.5352 6.4584-3.9584 1.1486 0.63901 2.5717 0.418 1.9044-1.2498-0.30211-0.75501-2.2665-2.8229-3.1413-1.7175-0.2602 0.329-0.1513 0.91201-0.1683 1.3005-0.021 0.488-0.049 0.97001-0.053 1.4585m-63.959 0.62501-2.5-1.6667 1.5206 2.1109 0.97941 1.4308c0.1281-1.6104 0.4073-3.0942 2.2917-2.9167-0.2589-0.82001-1.2156-1.4168-1.9046-0.559-0.3585 0.447-0.3619 1.0594-0.3871 1.6002m65.209-1.0417-0.83331-0.208c0.2981-0.89701 0.97691-0.72201 0.83331 0.208m0.625-1.0416 1.25 1.25c-0.8675-0.03-1.6317-0.245-1.25-1.25m-14.168 2.9598c1.0552 0 2.5684 2.2802 1.939 3.2216-0.7277 1.0886-3.1917 1.7677-4.4371 1.7148-0.8875-0.04-1.3175-0.606-0.9196-1.4381 0.4752-0.99401 1.3904-1.9431 2.1717-2.704 0.32791-0.319 0.74501-0.79401 1.2461-0.79401m-88.333 3.9152c-0.1683 0.09-0.4554 0.283-0.65751 0.345-0.76081 0.236-1.1921-0.188-1.1425-0.97101 0.064-1.0094 0.70291-1.855 1.175-2.7073-1.245 0.63601-3.2569 3.7292-1.9288 5.0827 1.2377 1.2613 2.44-0.70201 2.5538-1.7493m50 5 1.25-0.208v0.208c-2.7309 0.434-2.0054 3.3721-1.0417 5.2083 0.4992-1.1902-0.4442-2.3942-0.064-3.514 0.3254-0.95801 1.8783-0.655 2.0258-1.7131 0.2229-1.5989-1.7346-0.75801-2.1704 0.02m26.875-0.83301c-0.5019 0.73701-0.92561 1.5665-0.7994 2.4959 0.1483 1.0927 0.9546 0.85601 1.2161 0.0039-1.2015-0.67001-0.24441-1.4717-0.41671-2.5m-8.1251 1.25 1.875-0.208v0.208c-1.1313 0.538-3.4507 2.5583-1.0386 3.211 1.4598 0.395 3.1117-0.66001 3.9552-1.7527-1.5327 0.418-2.8167 1.0727-4.375 0.417v-0.208c1.0362-0.63901 2.5425-1.2842 2.9167-2.5-1.2715-0.236-2.6423-0.484-3.3334 0.83301m25.417 0 1.6648 2.7085 0.41861 2.0832c1.2277-1.7971-0.24921-4.1677-2.0834-4.7917m8.9584 5.2083c2.3481-0.556 4.6354-1.7681 6.8751-2.6666 1.1433-0.459 2.2931-0.79501 2.9167-1.9167l-0.2083-0.208c-2.2879 0.93901-4.5782 1.8727-6.8751 2.7916-1.1592 0.464-2.2654 0.73601-2.7084 2m-109.58 14.167v-0.417l-1.0417-0.417 1.0417-0.83301 0.83331 0.83301c-0.0031-0.254 0.028-0.567-0.031-0.82001-0.4885-2.1062-2.4879 0.357-3.3409 0.443-0.67421 0.07-1.5167-0.79001-2.1154-0.121-0.3679 0.411-0.028 0.92101 0.3106 1.2125 0.68671 0.59101 1.6198 0.577 2.4681 0.477 0.63751-0.08 1.2631-0.171 1.875-0.357m7.3499-2.2977c-0.73481 0.218-0.1517 1.3015 0.5015 1.0996 0.71251-0.22 0.1404-1.2898-0.5015-1.0996m108.07 1.6727h0.83331c-0.79811 1.0075-3.0307 1.2175-3.385 2.5136-0.275 1.0046 1.2627 0.69001 1.7183 0.501 1.3025-0.54 3.745-1.6796 4.0369-3.2229 0.2285-1.2073-1.1425-1.916-2.1527-1.5119-0.76771 0.307-0.96751 0.97401-1.0508 1.7202m-26.25-1.53c-0.67001 0.192-1.244 0.63201-1.9104 0.85001-1.2206 0.4-2.6742 0.363-3.923 0.09-0.7002-0.151-2.1511-1.1268-2.7798-0.499-0.67021 0.66901 0.4271 2.135 1.1517 2.2702 0.4704 0.09 0.94981-0.08 1.4198-0.09 0.70121-0.02 1.3771 0.178 2.0834 0.118 0.95171-0.08 1.7909-0.44 2.7084-0.64801 0.74581-0.168 1.5975 0.02 2.2254-0.521 0.99001-0.84601 0.12621-1.8908-0.9754-1.5752m9.3751 1.1134 1.25 0.417v0.208l-3.5417 1.6666c0.3648 1.1538 1.3119 1.0061 2.2917 0.611 1.2973-0.523 3.22-1.4369 3.2171-3.1021-3e-3 -1.8333-2.7819-1.0112-3.2171 0.199m12.755-1.0863c-1.055 0.422-0.5235 2.0794-0.7852 2.9259-0.1671 0.541-0.51191 0.90401-0.29651 1.4966 0.18481 0.509 0.76791 1.4813 1.4321 1.2988 0.4802-0.132 0.6104-0.65901 0.5938-1.0944-0.025-0.65501-0.4321-1.2271-0.4646-1.8731-0.024-0.479 1.5956-3.5836-0.47961-2.7538m20.579 2.3363c-0.091-0.584-0.64811-2.9802-1.6656-1.9536-1.0975 1.1075 0.074 2.7169-2.0844 2.9952 0 0.69601-1.2725 0.458-1.875 0.625-1.8794 0.522-5.9155 1.4977-4.7917 4.1667 2.2134-0.65101 4.2542-2.0833 6.4584-2.8712 0.53081-0.19 1.784-0.83701 2.314-0.466 0.70651 0.495 0.55851 3.1427 0.59461 3.9621 0.054 1.2396 0.3408 3.1927-0.1175 4.3563-0.2069 0.525-0.69081 0.87001-1.0473 1.2875-0.81311 0.95301-1.625 1.8577-2.4775 2.7779-0.84401 0.91101-1.496 2.175-2.8071 2.4966-1.5604 0.383-1.4927-1.3589-1.2908-2.3766 0.4113-2.0736 1.1696-4.2432 3.5817-4.375l-1.9369 2.7164-0.56311 2.2836c1.4506-0.71501 2.8677-3.0917 3.4684-4.5834 0.2627-0.65301 0.52961-1.7875-0.2013-2.2512-0.4725-0.3-1.084-0.13-1.5973-0.07-1.495 0.175-2.6194 0.72201-3.9696 1.3323-0.72271 0.326-1.5292 0.39-2.2836 0.616-2.4092 0.72301-4.3273 1.2067-6.8751 1.2067-1.7596 0-4.1017 0.315-4.7021-1.8831-0.5108-1.87 1.2546-2.3792 1.4561-3.9421 0.1-0.77501-0.75421-1.3346-0.86981-2.0923-0.1652-1.0829 0.5314-2.0213 0.3658-3.1242-1.3492 0.383-1.7 1.62-1.8388 2.9167-0.1258 1.1735 0.026 2.3652-0.055 3.5417-0.1523 2.2235-0.86351 4.736 1.3042 6.1532 3.498 2.2871 8.0224 0.76201 11.631-0.276 0.93191-0.268 1.7377-0.73201 2.7084-0.87701-0.32231 0.538-0.78791 1.062-0.95231 1.6748-0.55961 2.0875-0.1927 6.7813 3.0356 5.6555 2.9465-1.0273 3.7746-4.3248 6.4584-5.6637 0.12231 0.96801 0.037 2.2094 0.41771 3.1063 0.7189 1.6914 2.82 1.7054 4.1815 0.86001 0.8229-0.511 1.0823-1.6611 1.9036-2.0736 1.2508-0.62801 2.4413 1.3825 3.7465 0.125 0.2117-0.204 0.3325-0.501 0.4377-0.76801 0.1017-0.258 0.1271-0.558 0.1335-0.83201 8e-3 -0.358-0.043-0.70201-0.1537-1.0417-0.1117-0.344-0.2679-0.70101-0.4383-1.0198-0.57751-1.081-1.6223-1.1706-2.5192-0.408-1.1998 1.0207-1.6865 2.6465-2.9265 3.5863-1.4319 1.085-2.8936 0.88401-3.5432-0.90901-0.31481-0.86801 0.1339-2.1508 1.2604-2.0235 0.7258 0.08 1.3269 0.66301 2.0834 0.77301 0.1104-0.595 0.289-1.2552 0.1171-1.8554-0.47291-1.6519-2.6738-1.2569-3.8671-0.85301l-0.2487-8.1251 1.2904-1.4583 0.83331 0.208c1.8325-1.6696 6.9703-0.293 7.0834-3.75l-9.1668 2.5m-62.084 3.5417c-0.72421-0.503-1.6988-0.563-1.1881 0.62601 0.3683 0.85701 0.99171 1.6625 1.8131 2.0823 0.97421-2.0244 0-4.5075 0-6.6668l1.4584 0.417c-6e-3 -0.552 0.031-1.1667-0.334-1.6275-0.50561-0.63801-1.4986-0.57401-1.8321 0.199-0.2946 0.68401-0.06 1.5589 0.023 2.2616 0.1054 0.89501 0.059 1.8086 0.059 2.7084m14.792 5c-1.3225 1.2248-2.7511 2.2523-4.1667 3.3575-0.86581 0.67601-1.5784 1.1216-1.6667 2.2675l3.2979-1.6817 3.1609-2.1631 1.4579 0.303c-0.5812 1.6117-2.2321 4.1792-1.3327 5.9513 0.60441 1.1909 2.2477 0.0085 3.0923 0.239 0.6254 0.17 0.83081 1.151 1.4046 1.4812 1.6565 0.95301 4.0159-0.86801 4.7525-2.2543h0.20831c0.056 0.336 0.078 0.72001 0.1954 1.0427 0.7998 2.1985 3.0571 0.284 4.388 0.165 0.99871-0.09 1.6958 0.85801 2.6271-0.02 0.99441-0.94201 2.094-3.3375 0.081-3.6837l-0.4167 1.875-2.0834-1.6667c-0.67751 0.81601-2.2581 2.6506-3.4273 1.565-0.41421-0.385-0.57191-1.0477-0.73941-1.565-1.7592 0.272-2.6081 2.5142-4.5825 2.4131-1.9677-0.1-0.90521-2.8387-1.2213-4.0798-0.1527-0.599-0.63371-1.2387-0.50211-1.875 0.22441-1.0837 1.4921-2.1302 2.1936-2.9354 1.3575-1.5579 2.7657-3.3239 3.6728-5.1896 0.4383-0.90101 1.5979-3.6598 0.1837-4.246-1.2498-0.518-2.5356 0.89701-3.1869 1.7469-1.4167 1.8483-2.7498 3.6704-4.2657 5.4346-0.4371 0.508-1.0673 1.7027-1.8052 1.7906-0.77691 0.09-1.6434-1.0852-2.15-1.5417-1.2863-1.1581-2.9965-2.4969-3.8544-4.0177-0.6198-1.0985-0.374-2.6908-1.9863-3.0756-2.0148-0.481-0.4006 2.7289-0.057 3.2839 1.5884 2.5661 3.9459 5.7485 6.728 7.0835m-71.459-8.7501-0.045 2.0833-0.58041 2.7083c2.7956-0.95801 5.8357-1.6198 8.5417-2.7785 1.3273-0.568 2.4569-1.21 2.9167-2.6381l-3.3334 0.80601-6.6667 2.5271c0.2623-1.1021 0.3087-2.2415-0.038-3.3323-0.1431-0.451-0.3004-1.0571-0.83331-1.1725-1.3608-0.295-0.58901 1.4336 0.038 1.7965m12.292 1.25v-0.83301h-0.83331c-0.374 1.8919-2.1742 1.9836-3.75 2.4842-1.0771 0.342-2.309 1.1175-2.8979 2.1073-0.67191 1.1289-0.096 3.8283 1.5906 2.5454 0.76981-0.585 0.87001-1.6679 0.89061-2.5535l3.3334-1.3457 7.5001-2.4089 4.375-1.2527 1.6667 0.424 0.62501-2.0833-3.75 0.59001-3.9584 0.97601-4.7917 1.3502m16.25-3.125c-0.74231 1.391-0.1727 2.5285 0.1117 3.9583 0.2192 1.1017 0.3046 2.2129 0.305 3.3333 0.0016 3.219 0.071 6.5872 0.3813 9.7918 0.1288 1.329 0.176 2.9127 1.7052 3.4242 1.1454 0.383 2.5127-0.09 3.5384-0.599 0.5167-0.255 1.1148-0.75901 1.7263-0.63501 0.81171 0.165 1.4779 0.90501 2.2404 1.2202 1.6556 0.68401 3.5961 0.06 4.9565-1.0106 2.4725-1.9527 2.9357-6.5253-0.053-8.3222-2.1817-1.3119-3.415 1.6833-2.7027 3.3996 0.4844 1.1667 1.8627 0.63501 2.7794 1.0346 0.73791 0.322 0.91651 0.87501 0.3779 1.4633-0.166 0.181-0.3852 0.329-0.5763 0.482-0.2635 0.21-0.5383 0.418-0.83171 0.58501-0.4615 0.263-0.93151 0.377-1.4584 0.407-0.66061 0.04-2.6265 0.215-2.8634-0.67601-0.3094-1.1629 2.6294-1.511 1.8119-3.0297-1.1044-2.0519-4.7413-1.3059-6.4486-0.77901-0.83541 0.258-2.1354 0.586-1.9777 1.7546 0.098 0.72801 1.0367 0.648 1.56 0.86501 0.556 0.23 0.89041 0.58101 1.2511 1.0402-0.97211 0.225-2.1669 0.89901-3.1023 0.261-1.0338-0.70501-1.0067-2.4643-1.0563-3.5945-0.1458-3.3323-0.079-6.6701-0.2246-10-0.071-1.62 0.054-3.4555-1.4502-4.375m2.2917 0 0.61581 3.125-0.4075 3.3333c1.4106-0.01 2.4563-0.64201 3.75-1.13 1.8663-0.70401 3.7684-1.3231 5.6249-2.0435 1.0346-0.402 1.5433-0.92901 1.6669-2.0348-1.5623 0.03-4.3348 0.442-5.2084 1.875l-4.5834 1.25c0.4633-1.5677 0.5927-4.1411-1.4583-4.375m60.417 0-0.2083 3.75 0.044 4.375 0.78151 3.9583-0.01 5 0.019 3.3333h0.4167c0.80541-1.6023 0.62501-3.2462 0.62501-5 0-1.5179 0.092-3.0689-0.011-4.5833-0.049-0.72301-0.37041-1.3704-0.46401-2.0833-0.1454-1.1094 0.016-2.4184 0.067-3.5417 0.08-1.7579 0.61811-4.1558-1.2581-5.2083m-94.584 0.417c0 0.81901-0.082 1.69 0.054 2.5 0.1323 0.78501 0.4917 1.4863 0.5521 2.2917 0.279 3.7244 0.072 7.5176 0.2352 11.25 0.074 1.6775 0.4602 4.0669 2.4919 4.3273 2.229 0.286 2.4477-1.7886 3.75-2.869 0.90291 2.7807 3.7432 3.6663 6.4584 2.9319 0.97691-0.264 1.9092-1.1002 2.9052-1.206 0.78171-0.08 1.0075 0.88901 1.7006 1.1004 1.7779 0.542 3.1759-0.65201 4.3525-1.7846 0.1142 0.292 0.191 0.571 0.3942 0.82001 0.1408 0.173 0.2833 0.365 0.4786 0.483 1.4119 0.85301 1.8617-0.84101 3.0681-0.78501 0.481 0.02 0.87351 0.498 1.33 0.633 1.4486 0.428 2.504-0.413 2.8982-1.776 0.71561-2.475-0.4146-5.2996-0.92191-7.7074-0.165-0.78401-1.1694-1.751-1.8244-0.76801-0.461 0.69201-0.013 1.7146 0.1435 2.4335 0.4206 1.9302 1.4952 3.8646 1.5171 5.8335-0.4715 0.02-0.97981 0.08-1.3965-0.197-0.4673-0.309-0.64581-1.1529-1.324-1.0692-0.88811 0.11-1.3411 1.2517-2.2765 1.2773-0.93171 0.03-1.1638-1.3498-2.0954-1.176-1.096 0.204-1.7471 1.4937-2.9159 1.542-1.121 0.05-1.3198-1.3941-2.2957-1.3006-0.6533 0.06-1.2611 0.574-1.8629 0.81001-1.254 0.492-2.624 0.70701-3.9584 0.422-0.85441-0.182-1.7819-0.537-2.4813-1.0664-0.4898-0.371-0.86871-0.99801-1.4771-1.188-1.6542-0.516-2.865 3.5923-4.6565 1.6711-0.75921-0.81401-0.85061-2.2227-1.0198-3.2671-0.1771-1.0927-0.0046-2.0373 0.043-3.125 0.093-2.1158 0.1342-4.3456-0.011-6.4584-0.1081-1.5807-0.035-4.0442-1.8563-4.5834m53.959 0v1.875l-0.62501-1.25c-1.5492 0.269-0.99041 2.4313 0.4165 2.3944 1.5829-0.04 1.7479-2.7625 0.2085-3.0194m79.584 0-0.2083 5.2084 0.83331 14.583c1.2115-0.426 1.2138-2.8327 1.1429-3.9583-0.1833-2.9175-6e-3 -5.8591-0.3717-8.7501-0.15371-1.2182-0.88061-2.5838 0.4788-3.3334-0.114-1.3941-0.56061-3.0671-1.875-3.75m-82.501 19.167c1.4315-0.419 0.83331-3.7794 0.83331-5 0-2.0879 0.0024-4.3842-0.2373-6.4584-0.091-0.78401-0.3929-1.4886-0.3858-2.2917 0.0096-1.0771 0.99541-1.6448 0.82561-2.7083-0.1187-0.74401-0.5325-1.4807-1.0369-2.0371-0.2904-0.321-0.71291-0.492-0.94131 0-0.2348 0.506-0.1 1.2854-0.099 1.8287 6.3e-4 1.5034 0.098 3.0838 0.2219 4.5834 0.1404 1.6923 0.4031 3.265 0.4031 5 0 2.37 0.4167 4.6948 0.4167 7.0834m67.288-18.582c-1.4819-0.04-2.6954 1.0067-3.9544 1.5915-2.0788 0.96501-4.5957 1.2917-6.4221 2.75-1.149 0.91701-1.7629 3.7425 0.36901 3.9187 1.4958 0.124-0.05-2.1208 0.879-2.7466 2.0721-1.3956 4.7248-2.299 7.0492-3.2086 0.7625-0.298 1.775-0.45 2.469-0.85401 0.83811-0.487 0.5415-1.4269-0.3896-1.4513m-122.08 1.2898 1.6667 1.875 0.2083-2.7083-1.875 0.83301m81.251 9.5835c-0.2885-0.479-0.74961-1.0696-0.65121-1.6667 0.1408-0.85401 1.1302-1.6619 1.665-2.2917 1.2183-1.435 2.29-2.9983 3.5777-4.375 0.5389-0.576 1.6683-2.2408 2.634-1.9298 0.58671 0.189 0.37351 0.90501 0.19481 1.305-0.49271 1.1023-1.1056 2.1334-1.7902 3.1248-0.62351 0.90301-1.334 1.6696-2.045 2.5-1.08 1.2615-1.9329 2.7717-3.585 3.3334m-71.042-10 0.83331 0.83301v-0.83301h-0.83331m41.459 0.208-0.2083 2.5c-1.2181-0.69201-0.5285-1.5656-0.83331-2.7083-1.6781 1.0631-1.6696 5.0529 1.0406 4.2073 1.8356-0.573 2.0392-3.6742 7.9e-4 -3.999m-32.292 1.0417-0.2083 0.208 0.2083-0.208m10.833 0.208c0 1.0044-0.2392 2.0687 0.83331 2.5 0.3956-0.96701 0.034-1.915-0.83331-2.5m37.709 0v0.83301h0.4167v-0.83301h-0.4167m-72.709 1.6667h1.4583c-0.5852 1.9768-3.424 1.3406-4.1667 3.3333 1.6125-0.04 3.553-0.64 4.7878-1.7135 0.5923-0.515 1.2794-1.3555 0.91901-2.1973-0.5873-1.3719-2.7484-0.578-2.9984 0.577m83.334-0.625c0.023 0.283 0.034 0.561 0.092 0.83901 0.039 0.183 0.062 0.401 0.14671 0.571 0.6446 1.2871 1.7721-0.439 0.7173-1.196-0.285-0.205-0.626-0.189-0.95651-0.214m53.542 2.0834c-0.43851-0.275-0.98021-0.81401-1.5056-0.88701-0.89831-0.126-0.86581 1.1627-0.5719 1.6821 0.4944 0.87301 1.5106 1.4456 2.0775 2.33h0.4167l0.92021-2.2648 0.95481-2.1102c-1.1765 0.0039-1.7798 0.124-2.2917 1.25m-106.67 1.0416 0.4167-2.0833-2.5 0.61701-1.4217 0.126 0.60061 0.88201 2.9044 0.458m34.167-1.875c-0.5177 0.98401-1.2436 2.0069-1.414 3.125-0.1498 0.98201 0.2038 1.955 0.088 2.9167-0.1025 0.85301-0.60851 1.6425-0.76541 2.5-0.5139 2.8081-0.034 7.0472 3.3411 7.6399 2.675 0.47 5.1496-0.97201 7.2836-2.3671 2.2159-1.4487 3.9617-3.4635 2.5082-6.1061l-2.0834-0.417c1.404-1.9004 4.5219-1.4117 5.5876-3.5425 0.93671-1.8729-2.3277-4.0908-3.9086-2.9985-1.2944 0.89401-0.3256 2.0593-0.90171 3.1527-0.3819 0.72501-1.5254 1.0256-2.2356 1.305l0.2083 0.417c-1.2813 0.346-3.02 2.0159-1.4275 3.2077 0.57601 0.431 1.3831 0.321 2.0525 0.476 0.90041 0.208 1.4946 0.623 2.0834 1.3164-0.76731 0.18-1.3967 0.562-2.0834 0.94601-2.6413 1.4769-7.5426 4.321-8.9897-0.113-0.2077-0.63701-0.2398-1.4057-0.1231-2.0646 0.31-1.7513 1.7259-3.0488 1.8211-4.8104-2.5592-0.77701 0.79401-3.5577-1.0417-4.5834m-26.042 0.417 0.2083 2.2917c1.2631-0.623 1.6611-2.6446-0.2083-2.2917m61.876-0.208c-0.23401 0.88601-0.072 1.3918 0.8333 1.6666-0.026-0.80801-0.1046-1.265-0.8333-1.6666m-46.629 0.85901c-1.4488 0.68601-0.75691 3.2267 0.79081 2.6471 1.6708-0.625 0.79191-3.3967-0.79081-2.6471m57.462 0.391c0.14 1.0993 0.33191 1.8129 0.1083 2.9164-0.2346 1.1582 1.1588 2.9263 2.2023 1.6007 0.54461-0.69201 0.014-1.4636 0.046-2.2255 0.053-1.2683 0.61581-3.3679-1.514-2.7168-0.3035 0.09-0.5694 0.272-0.84271 0.425m-92.293-0.417c-0.1421 1.049-0.3083 1.8956-1.4584 2.0833 0.028-1.1391 0.2702-1.8377 1.4584-2.0833m31.042 0.208v1.0417h1.0417l-1.0417-1.0417m77.292 0.62501c-0.064 0.273-0.159 0.557-0.1621 0.84201-8e-3 0.72001 0.9415 1.7408 1.1102 0.58601 0.077-0.529-0.27541-1.0058-0.53151-1.4277h-0.4167m-93.103 0.453c-1.3011 0.51-0.5115 2.4266 0.76331 1.9168 1.1283-0.451 0.3204-2.3414-0.76331-1.9168m41.02 1.4216v-1.6666c1.7396 0.316 1.9036 1.6439 0 1.6666m21.667-0.208-1.875-1.0417-0.08 1.8307 1.2588 1.1668 0.90421 1.3775h0.4167c0.2163-0.77001 0.2435-1.7793 0.62901-2.4731 0.2931-0.528 0.9763-0.81101 0.976-1.4842-7.9e-4 -1.7106-1.9146 0.03-2.23 0.62401m-102.92-0.62501c-0.2444 0.94201-0.70771 1.9467-0.79561 2.9085-0.09 0.98301 0.1762 1.9321 0.051 2.9248-0.1129 0.89101-0.1558 1.8275 0.054 2.7084 0.191 0.80301 0.6177 1.4335 1.1077 2.0833 0.446 0.592 0.86061 1.2748 1.4775 1.7044 2.3348 1.6264 5.4244 0.41 7.689-0.607 1.8784-0.84301 3.5457-1.7433 4.5461-3.5977 1.0204-1.8912 0.4829-3.4783-0.099-5.4167-0.4006-1.3341-0.4138-2.3081-1.9469-2.7083 0 0.88401-0.1144 1.8581 0.1673 2.7083 0.3908 1.1796 1.5396 2.6421 1.1177 3.9552-0.274 0.85301-1.2369 1.3109-1.91 1.8075-1.9525 1.4409-3.8907 1.9684-6.2501 2.1894-1.2579 0.118-2.3804 0.191-3.2536-0.88801-0.78291-0.96801-1.5573-1.9938-1.2425-3.3138 0.2212-0.92801 1.0198-1.6775 0.91461-2.6889-0.068-0.65301-0.6604-0.93901-0.87421-1.5161-0.3517-0.95101 0.3131-1.6598-0.75271-2.2533m19.584 5.8334c0.65981-0.211 1.7083-0.60201 1.6629-1.4666-0.027-0.521-0.4858-0.90801-0.4344-1.45 0.079-0.82701 0.90171-1.3671 0.3708-2.2442-0.5227-0.86401-1.9433-0.73901-2.2979 0.224-0.2712 0.73701 0.385 1.4481 0.1473 2.2281-0.3871 1.2704-0.1894 1.605 0.5513 2.7083m106.04-5.6251-0.2083 1.4584h-0.20831l-0.4167-0.83301h-0.4167c-0.082 0.288-0.1906 0.535-0.1662 0.84201 0.2575 3.2417 4.5167-0.96101 1.4163-1.4669m-72.879 0.426c-1.4483 0.77901-0.4835 3.3554 0.99921 2.5502 1.6011-0.87001 0.4479-3.3281-0.99921-2.5502m-24.414 1.2402c-0.3438-0.167-0.68831-0.395-1.0436-0.535-0.91501-0.359-1.3844 0.518-1.0588 1.3294 0.2304 0.574 0.79461 0.81101 1.2225 1.2071 0.68811 0.63601 0.70331 1.3719 1.7131 1.5398 0-1.6675-0.125-2.7746 1.6667-3.3334-0.3235-1.551-1.8588-1.556-2.5-0.208m-20.209 0.208-0.83331 1.875 1.875 1.0417c0.525-1.3792 0.76521-2.5487-1.0417-2.9167m26.25 1.25h1.4583c-1.2317 1.3486-3.7944 1.1773-3.9584 3.3334 1.4867-0.185 3.4094-1.0442 4.5794-1.9852 0.5831-0.469 1.1756-1.1442 0.85541-1.9423-0.5608-1.398-2.739-0.63401-2.9348 0.594m71.992-0.172c-0.51921 0.317-0.21961 1.5408 0.451 1.1766 0.6183-0.336 0.1752-1.5585-0.451-1.1766m-44.492 2.255c-1.1013 0.316-1.8898 0.08-2.2917-1.0417 1.1375-0.52 1.8846-0.127 2.2917 1.0417m35.209-1.0417-0.2083 0.83301 1.0417 0.208-0.83331-1.0417m-25.625 3.75c1.1646-0.01 2.6802-0.217 3.1786-1.4673 0.31021-0.77901-0.1433-2.1923-1.2031-1.5581-0.4933 0.295-0.4913 1.1681-0.95311 1.596-0.5175 0.48-0.82521 0.74401-1.0223 1.4294m-66.876-2.9167v1.4584l-0.62501-1.6667c-1.6033 0.265-1.7848 3.2204 0.0083 3.2806 1.8892 0.06 2.9146-2.8906 0.6167-3.0723m86.459 3.5417c0-0.546-0.049-1.1267 0.047-1.6667 0.051-0.288 0.139-0.58 0.2969-0.82901 0.2506-0.396 0.60351-0.91301 1.1325-0.91301 0.97421 0 1.7765 1.4507 1.3669 2.299-0.244 0.505-0.87461 0.81901-1.3852 0.97501-0.474 0.145-0.96921 0.131-1.4586 0.135m-66.251-2.9167v1.875h1.0417l-0.4167-1.875h-0.62501m31.25 1.25v0.417c-1.15 0.71901-2.0081 0.80101-2.5-0.62501l2.5 0.208m89.376 1.0417c-0.20351-0.06-0.45441-0.102-0.64601-0.212-1.4808-0.84801 0.3944-1.6683 0.75481-0.419 0.057 0.196-0.071 0.464-0.1088 0.631m-41.25 0-0.20831 0.208 0.20831-0.208m-18.125 0.62001c-0.80001 0.299-2.7132 1.1309-3.1184 1.8919-0.4317 0.81001 0.094 2.4573 1.2352 2.131 0.6752-0.193 0.8033-0.95301 1.3444-1.3041 0.771-0.501 1.5942-0.131 2.1706-1.0598 0.6971-1.1236-0.54041-2.0673-1.6319-1.659m37.627 1.6892c-0.76901 0.52 0.1937 2.0433 0.99771 1.4306 0.71211-0.543-0.2552-1.9323-0.99771-1.4306m10.29 0.60701c-0.1327 0.69401-0.061 1.0087 0.62501 1.25l-0.2083-1.25h-0.41661m-120.42 0.83301c0.05 0.185 0.084 0.457 0.1873 0.63501 0.80461 1.3935 2.02-0.351 0.4671-0.74401-0.2171-0.05-0.4594 0.07-0.65441 0.109m75.209-0.208 0.2083 1.4583h0.4167c0.37691-0.83001 0.33671-1.2973-0.625-1.4583m-8.3334 0.417 0.2083 1.0417h0.20831z" fill="#0d0d0d"/>
</svg>
