<?xml version="1.0" encoding="UTF-8"?>
<svg width="200mm" height="100mm" version="1.1" viewBox="0 0 200 100" xmlns="http://www.w3.org/2000/svg">
 <path d="m0 0v100h200v-100z" fill="#fff" stroke-width=".26458"/>
 <path d="m128.17 74.473c-1.9823-1.0026-2.9289-2.8687-3.1135-6.1382-0.0657-1.1636-0.22274-2.108-0.38102-2.2917-0.45776-0.53126-0.5417-1.3095-0.30412-2.8193 0.30258-1.9228 1.1468-3.6801 2.5792-5.3686 0.64526-0.76063 1.1732-1.4226 1.1732-1.4709 0-0.04834-1.5615-1.5222-3.47-3.2754l-3.47-3.1876 0.13805 2.1754c0.0759 1.1964 0.19576 4.3317 0.26629 6.9672 0.13667 5.1078 0.0332 6.2014-0.78711 8.3335l-0.48104 1.25-0.14345-2.1876c-0.0789-1.2031-0.40328-5.9128-0.72085-10.465l-0.5774-8.2783-2.2386-2.3829c-1.2312-1.3106-2.914-3.3042-3.7395-4.4303-0.82549-1.1261-2.0504-2.6723-2.722-3.4359l-1.221-1.3886v-1.5802c0-0.86915 0.0835-1.5802 0.18554-1.5802 0.10203 0 1.0519 0.56891 2.1108 1.2643 2.2353 1.4678 4.162 3.2112 4.162 3.7661 0 0.4654 0.0265 0.46332-0.91207 0.07121-0.41503-0.1734-0.7546-0.22384-0.7546-0.11212 0 0.20506 2.3376 3.0696 3.919 4.8025 0.80385 0.88084 0.85591 0.90603 0.86085 0.41668 3e-3 -0.28645-0.22426-3.6558-0.50479-7.4874l-0.51008-6.9665 0.6656-1.2108c0.36609-0.6659 0.72533-1.2107 0.79832-1.2107 0.19839 0 1.5624 3.6834 1.855 5.0093 0.14019 0.63526 0.21999 1.3361 0.17738 1.5575-0.0654 0.3398-0.15278 0.28973-0.5612-0.32167l-0.48369-0.72408 0.11234 1.5626c0.0618 0.8594 0.26286 3.9533 0.44683 6.8752 0.18396 2.9219 0.37598 5.5189 0.42671 5.7712 0.10153 0.50476 8.734 8.675 9.0513 8.5666 0.43776-0.14969 6.2465-5.6595 6.2465-5.925 0-0.45769-1.8555-18.226-1.9919-19.076-0.0996-0.62006 0.01-1.0092 0.56974-2.0289 0.38115-0.69387 0.75515-1.2627 0.83103-1.2641 0.36354-6e-3 2.0495 5.1117 2.0495 6.2218v0.73185l-0.53402-0.71759-0.53404-0.71756 0.13106 1.25c0.0721 0.68752 0.39371 4.0893 0.71475 7.5594 0.32106 3.4701 0.62238 6.348 0.66961 6.3952 0.0743 0.0743 5.21-4.4499 6.6144-5.827l0.49923-0.48954-0.93648-1.1107c-0.51507-0.61084-1.6193-2.0013-2.4538-3.0898-0.8345-1.0886-1.8263-2.3074-2.204-2.7084-0.63695-0.67629-0.6916-0.84629-0.75382-2.3443-0.0369-0.88832-0.0445-1.6149-0.0167-1.6146 0.10558 9.99e-4 4.9956 3.6471 5.9392 4.4284 1.1754 0.97328 1.1299 1.1643 0.67917-2.8477l-0.3023-2.6907 0.64788-1.2156c0.35634-0.66857 0.71534-1.2156 0.79776-1.2156 0.40171 0 2.3555 5.7188 2.1624 6.3293-0.11212 0.35439-0.17084 0.33453-0.61646-0.20834l-0.49256-0.60003 0.11174 0.93751c0.0614 0.51564 0.22299 1.8895 0.35896 3.0532l0.2472 2.1157 2.837-2.4281c1.5603-1.3355 3.1856-2.7095 3.6117-3.0532l0.77476-0.62502-0.20193-1.4584c-0.19994-1.444-0.19465-1.4715 0.5368-2.7891 0.66725-1.202 0.76501-1.2948 1.0104-0.95916 0.14944 0.20438 0.47282 0.976 0.71866 1.7148l0.44696 1.3432 0.86198-0.79794c0.47408-0.43888 1.5389-1.4503 2.3663-2.2478 0.82737-0.79738 1.5604-1.3937 1.629-1.3251 0.23296 0.23297-0.35893 1.7443-1.0632 2.7148-0.38582 0.53167-1.2657 1.4178-1.9553 1.969-1.2338 0.98642-1.252 1.0162-1.1431 1.8694 0.13783 1.0796-0.15128 1.2907-0.73995 0.54038-0.41682-0.53134-0.44279-0.539-0.34961-0.10308 0.0554 0.25898 0.35939 4.4309 0.67559 9.2711l0.57489 8.8002 2.4163 2.5001c3.3918 3.5094 4.8651 5.8197 5.4221 8.503 0.23674 1.1403 0.11703 3.0598-0.19093 3.0598-0.0835 0-0.271-0.39844-0.4168-0.88543-0.40286-1.3455-1.5224-3.4508-2.5758-4.8438-1.1549-1.5272-4.2286-4.8312-4.3608-4.6876-0.0528 0.05733-0.0125 1.3698 0.0906 2.9167 0.29017 4.3747 0.0624 8.0787-0.62144 10.105l-0.56262 1.6667-0.14662-1.25c-0.0806-0.68752-0.35452-4.5178-0.6086-8.5119l-0.46199-7.2619-2.2039-1.9903c-2.3682-2.1387-5.5346-4.8406-5.6728-4.8406-0.0466 0 0.17986 2.836 0.50311 6.3022 0.59834 6.416 0.8516 14.423 0.50755 16.046-0.32845 1.5497-2.1345 3.0476-4.3625 3.6185-2.2062 0.56523-4.2437 0.03466-5.4771-1.4262-0.68661-0.81324-1.5515-2.5929-1.5544-3.1985-6e-3 -1.4401-1.2875-1.4148-2.9256 0.05792-1.2278 1.104-2.0009 2.5247-2.7931 5.1332-1.0064 3.314-2.5528 4.3147-4.862 3.1467zm2.0165-2.0649c0.81406-0.42097 1.0966-0.9314 1.9684-3.5556 0.44053-1.3261 1.1203-2.8427 1.6103-3.5925 1.7111-2.6188 4.4596-4.1214 5.4787-2.9953 0.19325 0.21354 0.67584 1.1694 1.0725 2.124 1.2786 3.0777 2.7068 3.9076 5.5723 3.2381 2.0085-0.46928 3.0685-1.0489 3.0685-1.678 0-0.27644-0.51562-5.561-1.1458-11.744-0.63021-6.1824-1.1473-11.368-1.149-11.525-1e-3 -0.15618-0.0888-0.41918-0.19329-0.58443-0.14841-0.2346-0.86058 0.33631-3.2485 2.6042-1.6821 1.5975-3.4775 3.2797-3.9898 3.738l-0.93138 0.83334 0.26423 2.6375c0.21039 2.1001 0.212 2.9278 8e-3 4.0626-0.27172 1.5106-1.0643 3.3823-1.6311 3.8516-0.31266 0.25886-0.33073 0.10309-0.22058-1.9015 0.13788-2.5091-0.0377-6.6708-0.28149-6.6708-0.0906 0-0.85408 0.63284-1.6966 1.4063-0.84251 0.77346-1.9762 1.8096-2.5194 2.3025l-0.98755 0.89619 0.72488 0.8469c0.8765 1.024 1.3725 2.3901 1.3725 3.7801 0 1.6647-0.39989 2.6401-1.5619 3.8093-1.2706 1.2785-2.9174 1.984-4.9485 2.1202-1.6074 0.10774-1.5904 0.076-1.0874 2.0348 0.89967 3.5037 2.5306 4.9546 4.4522 3.9608zm8.0414-12.043c0.45833-0.27368 1.4908-0.88027 2.2944-1.348 0.80359-0.46767 1.8817-1.2261 2.3958-1.6855l0.93474-0.83513-0.59601-0.23019c-0.53503-0.20662-0.58174-0.29915-0.45643-0.90366 0.0768-0.37041 0.13257-1.0145 0.12392-1.4311-0.0268-1.3015 1.09-1.2244 2.53 0.17465 0.99426 0.96594 1.2965 1.685 1.0172 2.4198-0.23214 0.61056-0.55003 0.68593-1.352 0.32052-0.48495-0.22095-0.59501-0.15925-1.4883 0.8343-0.72007 0.80091-1.448 1.3076-2.8715 1.9989-1.0488 0.50929-2.2351 0.98382-2.6361 1.0545l-0.72916 0.12853zm7.7664-4.5642c-0.0444-0.13338-0.3804-0.47352-0.74652-0.75588l-0.6657-0.51338v0.617c0 0.33935 0.0626 0.6795 0.13889 0.75588 0.24579 0.24582 1.3596 0.1552 1.2733-0.10359zm-1.6897-0.29449c0.0694-0.18076-0.0273-0.48212-0.21486-0.66966-0.31576-0.31576-0.36797-0.31363-0.70559 0.02886-0.34733 0.35239-0.34545 0.38406 0.0397 0.66965 0.51935 0.38498 0.7244 0.37825 0.88063-0.02886zm-14.883 7.1861c2.4154-0.94977 2.8748-1.5451 2.0864-2.7033-0.76799-1.128-1.7979-2.279-2.0393-2.279-0.27383 0-2.1271 2.0482-3.1858 3.5209-0.68319 0.95035-0.8495 1.7757-0.39857 1.9779 0.46712 0.20944 2.4142-0.0748 3.5372-0.51646zm26.806-21.853c-0.35236-5.172-0.55101-7.0859-0.73108-7.0431-0.13598 0.03246-1.627 1.2776-3.3132 2.7672-1.6863 1.4897-3.1958 2.8124-3.3545 2.9397-0.61417 0.49235-0.26296 1.0764 1.951 3.2443 3.279 3.2108 5.7067 5.4186 5.8265 5.2987 0.0578-0.05783-0.11261-3.3009-0.37877-7.2069zm-10.187-4.1386c0-1.0003-8e-3 -1.0109-0.85362-1.2645-0.46949-0.14067-0.90132-0.20807-0.95959-0.14978-0.0903 0.09018 1.6026 2.423 1.7584 2.423 0.0301 0 0.0549-0.45393 0.0549-1.0087zm-84.167 34.901c5.6312-2.824 9.821-5.1061 10.34-5.6317 0.12964-0.13131 0.43807-0.8599 0.68543-1.6191 0.44788-1.3746 1.6233-3.546 2.2415-4.1406 0.40499-0.38961 0.37083-0.29914-0.70795 1.8751-0.48327 0.97398-0.94104 2.1332-1.0173 2.5762l-0.1386 0.80526 1.9548-1.3085c3.6812-2.464 6.8506-5.1312 6.8506-5.765 0-0.1624-0.79688-2.0357-1.7708-4.1628-0.97396-2.1271-1.7708-3.9622-1.7708-4.0777 0-0.11564 0.1921-0.85525 0.42688-1.6436 0.50125-1.6831 0.56677-1.6785 1.9801 0.14104 1.0211 1.3145 1.3981 1.9546 1.655 2.81l0.15644 0.52084-0.54671-0.50507c-0.65143-0.60183-0.68312-0.47489-0.14486 0.5802 1.2631 2.4759 1.7319 5.8954 1.0726 7.8227-0.40971 1.1975-3.2071 3.9947-6.4464 6.4459l-2.7844 2.1071 0.59691 0.25495c1.5203 0.64937 4.415 0.02227 6.9455-1.5046 1.9719-1.1899 5.3934-3.8538 7.4014-5.7627l1.3814-1.3132-1.1691-3.4375c-0.64301-1.8906-1.7273-4.5399-2.4095-5.8873-0.6822-1.3474-1.2346-2.6598-1.2276-2.9167 7e-3 -0.25686 0.17367-0.98027 0.37038-1.6076l0.35765-1.1405 0.58758 0.77035c0.8273 1.0847 2.7205 4.5559 3.4858 6.3913 0.93772 2.2489 1.6198 5.1626 1.8531 7.9158 0.11369 1.3417 0.40835 3.0595 0.66393 3.8706 0.3932 1.2479 0.66118 1.6649 1.8566 2.8894 0.76841 0.78702 1.4892 1.374 1.6018 1.3044s0.26754-0.46129 0.34429-0.87045c0.3301-1.7597 2.4208-3.1376 6.7827-4.4704 1.2031-0.3676 2.4219-0.75253 2.7083-0.85537 0.3178-0.11413-2.1888-0.15275-6.4301-0.09927l-6.9509 0.08789 0.12771-0.79869c0.29745-1.8602 0.59549-2.3539 2.1047-3.4867 1.4661-1.1004 5.6528-3.3437 7.8674-4.2155 1.2177-0.47936 1.442-0.79456 0.89092-1.252-1.3385-1.1109 0.41074-4.588 2.3081-4.588 0.79591 0 2.6944 0.88851 4.4656 2.09 1.6887 1.1454 1.6905 1.1496 1.1494 2.5976l-0.46715 1.25-1.3349 0.26714c-0.7342 0.14692-1.6727 0.35779-2.0856 0.46856l-0.75068 0.20141 0.0975 1.0148c0.11777 1.2257-0.23558 1.5776-0.56916 0.56672-0.39809-1.2062-0.58225-1.2429-2.6359-0.52435-2.2133 0.77444-5.3574 2.2945-6.2244 3.0093l-0.625 0.51527 10.99 9.99e-4c6.0443 6.29e-4 10.99 0.03795 10.99 0.08299s-0.30752 0.63103-0.68338 1.3021l-0.68336 1.2201-1.5562 0.36634c-8.352 1.966-10.947 2.6351-13.64 3.5166-3.3058 1.0823-4.7492 1.7598-4.8486 2.2759-0.0762 0.39557 1.3412 1.1019 3.1167 1.5531 0.72342 0.18383 1.6669 0.42593 2.0966 0.53801l0.78124 0.20376v3.109l-0.78124-9.98e-4c-1.7581-4e-3 -4.6533-0.59263-5.994-1.22-1.6841-0.7881-3.4898-2.5497-4.4146-4.3067-0.73361-1.3938-1.439-3.7505-1.6868-5.6355l-0.162-1.2324-0.47389 1.4584c-0.4143 1.275-0.64889 1.6242-1.866 2.7778-4.5277 4.2911-9.6455 7.063-12.683 6.8696-1.4747-0.09388-2.16-0.55756-2.7554-1.8643l-0.34571-0.75873-1.3456 0.82199c-2.2556 1.3779-3.1578 1.7829-5.209 2.3383-1.9901 0.53887-8.9967 2.0014-9.5741 1.9984-0.17188-8.39e-4 2.3594-1.3416 5.625-2.9792zm45.586-19.681c1.2474-0.35258 1.2955-0.38951 0.93374-0.7169-0.57118-0.51693-2.1697-1.1917-2.8355-1.1968-0.32264-2e-3 -0.77863 0.09827-1.0133 0.22378-0.40818 0.21846-0.38761 0.26818 0.47375 1.1459 0.49523 0.50462 0.95121 0.91712 1.0133 0.91668 0.0621-4.29e-4 0.7047-0.16811 1.428-0.37258zm38.177 21.367c0.19117-0.41958 1.1452-0.88989 5.1379-2.5329 2.6967-1.1097 4.9444-1.9763 4.9949-1.9259 0.0505 0.05044-0.028 0.28362-0.17447 0.5181-0.21363 0.3421-5.9943 2.8828-9.8216 4.3167-0.32865 0.12318-0.34442 0.0797-0.13672-0.37609zm8.0196 0.30322c-0.0554-0.05533 0.95862-0.58818 2.2533-1.184 4.5953-2.1147 8.68-4.7632 10.192-6.6087 0.41849-0.51069 1.0206-1.4845 1.338-2.164 0.84795-1.8151 0.84345-3.6776-0.0356-14.684-0.41585-5.2076-0.92841-11.633-1.139-14.279-0.21064-2.646-0.49539-5.0209-0.63282-5.2776-0.21262-0.39731-0.14869-0.697 0.42931-2.0123 0.37353-0.84998 0.73712-1.5454 0.80799-1.5454 0.24474 0 2.2959 6.649 2.2945 7.4379l-1e-3 0.7914-0.8586-1.25 0.13439 2.1876c0.074 1.2031 0.363 5.0939 0.6424 8.646 1.0096 12.836 1.0199 13.05 0.75535 15.696-0.65962 6.5976-3.1648 10.295-8.394 12.386-2.302 0.92098-7.4868 2.1598-7.7862 1.8604zm-109.11-0.26976c-1.9531-0.26382-3.6344-0.94581-4.6582-1.8895l-0.87532-0.80686-7.4498 0.23027 6.4088-2.2062-0.03596-2.1876c-0.02828-1.7199 0.07212-2.6107 0.46952-4.1668 0.49787-1.9495 1.7731-5.5165 1.9198-5.3699 0.04134 0.04135-0.10589 0.65688-0.32718 1.3679-0.94138 3.0247-0.94178 6.395-9.99e-4 8.5218l0.38961 0.8808 1.6299-0.65675c2.6942-1.0857 8.1551-3.9336 10.458-5.4537 2.2721-1.5002 4.9759-3.7077 5.1742-4.2245 0.13615-0.35475-0.34404-1.9408-0.58757-1.9408-0.09065 0-0.70472 0.14063-1.3646 0.31252-1.4957 0.38959-3.8265 0.40383-4.7127 0.02876-1.3793-0.58384-1.878-1.729-1.5502-3.5601 0.2275-1.2708 0.75958-2.3338 1.5378-3.0724 0.63163-0.5995 1.901-1.2097 2.5124-1.2078 1.4124 5e-3 3.3715 1.3515 4.2571 2.9274 0.25394 0.45184 0.51644 0.82153 0.58333 0.82153 0.21071 0 1.7542-1.0744 2.4058-1.6746 0.95677-0.88133 2.2002-1.6588 2.6528-1.6588 0.3672 0 0.39349 0.09937 0.26795 1.0121-0.12036 0.87508-0.07365 1.0878 0.34503 1.5716 0.3753 0.43358 0.69512 0.56912 1.4217 0.60254 0.92207 0.04245 0.93669 0.03276 0.88849-0.58191-0.02696-0.34374-0.61331-5.5331-1.303-11.532l-1.254-10.907 1.3304-2.4961 0.56209 1.113c0.77284 1.5302 1.861 4.6729 1.8519 5.3484l-0.0075 0.55633-1.068-1.25 0.1192 1.25c0.06558 0.68751 0.35552 3.2188 0.64434 5.6251 0.28883 2.4063 0.69373 6.0626 0.89979 8.1252 0.29185 2.9212 0.43993 3.75 0.66996 3.75 0.16241 0 0.72097-0.69402 1.2413-1.5423 1.017-1.6581 1.5207-2.1331 1.8804-1.7733 0.15018 0.15018 0.14727 0.41629-0.01001 0.86599-0.47133 1.352 0.34517 1.858 2.825 1.7502 1.3138-0.05713 1.4927-0.25479 1.1106-1.2275-0.31185-0.79393-0.3035-0.84552 0.34481-2.1298 0.7604-1.5063 0.85058-1.4309 1.0607 0.88774 0.1845 2.0361-0.26176 3.6193-1.3486 4.7845-0.69929 0.7497-0.91739 0.85547-1.9386 0.94015-1.3872 0.11501-2.5011-0.33634-3.027-1.2266-0.33795-0.57213-0.68112-0.79004-0.68112-0.4325 0 0.09198-0.30469 0.58192-0.67709 1.0887l-0.67708 0.92139-2e-3 2.6093c-1e-3 2.3992-0.05011 2.7268-0.60322 4.0677-1.4115 3.4216-6.2648 7.9486-11.169 10.418-2.8297 1.4251-7.0383 2.6409-9.9968 2.888-0.63021 0.05253-1.7721 0.01129-2.5375-0.09228zm6.7501-3.8039c5.1667-1.3494 9.7752-3.9696 13.776-7.8324 2.2279-2.1512 2.2455-2.1938 1.9663-4.7622l-0.22897-2.1068-1.2121 0.03366c-1.5148 0.04195-2.1578-0.37675-2.9023-1.8899l-0.53451-1.0864-0.50716 0.54203c-0.27894 0.29809-0.9387 0.85946-1.4661 1.2475-0.94224 0.69321-0.96112 0.73014-1.0819 2.1166-0.15217 1.7466-0.768 3.5614-1.5399 4.5377-1.7424 2.2041-5.9088 5.0933-10.958 7.5989-3.5373 1.7553-3.6792 1.8491-3.125 2.0642 1.0343 0.40146 5.5228 0.1356 7.8141-0.46285zm3.4403-17.327c-1.1402-1.0035-3.2131-1.117-3.5668-0.19532-0.18815 0.49032 0.52967 0.70295 2.3722 0.70269l1.7708-2e-4 -0.57624-0.50713zm33.452 19.791c-0.75548-2.4624-0.76532-2.9759-0.0703-3.6709 0.32998-0.32996 0.8134-0.59995 1.0743-0.59995 0.34305 0 0.41134-0.06312 0.24672-0.22764-0.16462-0.16463-0.34778-0.16334-0.66168 5e-3 -0.39569 0.21176-0.41866 0.19047-0.25998-0.24113 0.31226-0.84933 1.7356-1.0382 2.0307-0.26934 0.16648 0.43387-0.0863 1.3584-0.39799 1.4553-0.13981 0.04344-0.59672 0.13574-1.0154 0.20508-0.41862 0.06931-0.81741 0.27272-0.88618 0.45195-0.0688 0.17924 0.021 0.88952 0.19951 1.5785 0.1785 0.6889 0.29376 1.5944 0.25611 2.0123-0.065 0.72151-0.0909 0.68639-0.51588-0.69864zm49.951 0.56624c-0.0228-1.0679-0.51904-2.0122-1.4508-2.761-0.56081-0.45068-0.85552-0.85493-0.85552-1.1735 0-0.70319 0.30958-0.60405 1.344 0.43043 1.1776 1.1777 1.6326 2.6619 1.156 3.7712-0.14957 0.34809-0.18145 0.30413-0.19368-0.26711zm-29.53-1.3779c-0.5094-0.43817-0.55515-0.57178-0.37458-1.0938 0.12655-0.36583 0.63325-0.87517 1.3169-1.3238l1.1112-0.72917-0.76278-0.06551c-0.41954-0.03605-0.89687 0.04564-1.0607 0.18175-0.2422 0.20102-0.29796 0.16592-0.29796-0.18757 0-0.58625 0.59604-0.86619 1.8443-0.86619 2.1799 0 2.2105 0.40069 0.13029 1.709-0.85684 0.5389-1.5579 1.123-1.5579 1.2981 0 0.7379 2.4532 0.67374 3.9962-0.10445l0.89966-0.45378-0.5041 0.54543c-0.71023 0.76843-2.4555 1.5891-3.3793 1.5891-0.52346 0-0.97207-0.16452-1.3611-0.49917zm7.8904-1.0009c-0.13751-0.13749-0.24793-0.48908-0.24543-0.78126 5e-3 -0.54477 0.71316-2.3021 0.9281-2.3021 0.0658 0-0.0233 0.2766-0.19816 0.61466-0.17482 0.33806-0.31784 0.79535-0.31784 1.0162 0 0.47768 0.51665 0.96077 0.8242 0.77069 0.30102-0.18605 0.27424 0.37507-0.0325 0.68186-0.1375 0.13752-0.35313 0.25-0.47917 0.25s-0.34166-0.11248-0.47916-0.25zm-84.579-5.9077c-0.69971-0.49011-0.61011-1.6216 0.26494-3.3457 1.0412-2.0515 1.7582-2.8886 0.92768-1.0831-0.83651 1.8185-0.80631 2.9483 0.08153 3.0499 0.34979 0.04005 0.75401-0.0795 0.98958-0.29271 0.76838-0.69539 0.34611 0.60096-0.49744 1.5271-0.49941 0.54833-1.1175 0.59886-1.7663 0.14444zm14.877-1.3945c-0.06909-0.25782-0.1269-1.0308-0.12847-1.7178-0.0029-1.2502-0.94261-13.593-1.162-15.262-0.09812-0.74623-0.19046-0.88544-0.58738-0.88544-0.98261 0-2.4098-0.66714-3.1281-1.4623-1.4421-1.5963-1.747-4.3209-0.86311-7.7137 0.63007-2.4185 0.44701-2.7996-0.71881-1.4963-0.91624 1.0243-1.6691 2.949-2.2842 5.8399-0.67773 3.1852-1.881 4.8323-3.5301 4.8323-2.7801 0-3.9922-2.8203-3.2932-7.6628 0.18602-1.2886 0.44236-2.5058 0.56966-2.7049 0.19442-0.3039 0.21031-0.27847 0.09931 0.15905-0.28642 1.1289-0.36063 5.3171-0.11053 6.2375 0.67335 2.4781 3.587 3.3281 4.7794 1.3944 0.22131-0.35892 0.64585-1.6143 0.94342-2.7898 0.70426-2.782 1.3174-4.4463 2.2568-6.1262 0.78252-1.3993 2.5249-3.5075 2.8988-3.5075 0.33535 0 0.08462 1.7565-0.65302 4.5751-1.0473 4.0015-0.81135 5.5795 1.0206 6.8264 0.6465 0.44007 2.0082 0.83643 2.2032 0.64135 0.10619-0.10622-0.90372-12.609-1.0591-13.111-0.05776-0.18672 0.243-0.92364 0.6683-1.6377 0.70804-1.1886 0.79674-1.2661 1.0512-0.91802 0.48734 0.6665 1.964 5.5045 1.8193 5.9605-0.12894 0.40625-0.15957 0.39804-0.64737-0.17362l-0.51202-0.60002 0.10149 0.52083c0.05582 0.28647 0.26551 2.6538 0.46599 5.2606 0.40513 5.268 0.31328 5.0528 1.8578 4.3512 1.0087-0.45824 2.0935-1.6487 2.6739-2.9343 0.67069-1.4855 0.73186-4.6569 0.13322-6.9074-0.25588-0.96204-0.51122-2.0588-0.56742-2.4373-0.10022-0.67488 0.41869-2.4224 0.78687-2.65 0.33403-0.20644 1.2447 3.2904 1.7407 6.6841 0.26972 1.8455 0.67297 3.7619 0.89918 4.2733 0.83438 1.8864 2.6277 3.0973 4.5989 3.1055 1.2416 5e-3 2.2545-0.35333 2.833-1.0027 0.38583-0.43313 0.38024-0.46653-0.37079-2.2148-0.41939-0.97625-1.3783-3.4398-2.1309-5.4745l-1.3684-3.6995 0.37048-1.1047c0.20376-0.60758 0.45428-1.1565 0.55669-1.2198 0.27864-0.17223 1.0905 0.6735 2.0283 2.1129 0.80802 1.2402 1.1459 2.1679 0.58542 1.6074-0.33429-0.33431-1.0757-0.32607-0.93811 0.01 1.0513 2.5717 2.0776 5.3518 2.3221 6.2903 0.26718 1.0258 0.27092 1.4107 0.02726 2.8064-0.34135 1.9554-0.66964 2.6305-1.7565 3.6124-1.4227 1.2853-3.6772 1.2825-5.5321-7e-3 -0.98095-0.6819-2.0716-2.2157-2.5667-3.6096-0.19951-0.56174-0.44886-0.99264-0.5541-0.95757-0.10525 0.03505-0.30212 0.43891-0.43749 0.8974-0.66075 2.2379-2.6273 4.9039-4.0529 5.4945-0.61611 0.25521-0.63885 0.30788-0.53074 1.2295 0.29983 2.5557 0.68046 10.792 0.5885 12.733-0.07886 1.6654-0.23163 2.5231-0.64014 3.5938-0.29511 0.77346-0.55769 1.4063-0.58351 1.4063s-0.10348-0.21095-0.17258-0.46875zm26.744-4.1229c0-0.7873-0.61757-1.7879-1.2917-2.0928-0.78709-0.35599-1.171-1.1798-0.64413-1.382 0.24866-0.09548 0.63505 0.18646 1.3504 0.98517 0.75216 0.83979 1.0032 1.018 1.0067 0.71458 2e-3 -0.22235 0.18543-0.80272 0.40648-1.2897 0.28861-0.63582 0.52609-0.88542 0.84245-0.88542 0.60705 0 1.2465 0.37151 1.2465 0.72421 0 0.46369-0.38982 0.58242-0.74523 0.227-0.51209-0.5121-1.0702-0.05583-1.4353 1.1736-0.17573 0.59175-0.31951 1.2877-0.31951 1.5467 0 0.2589-0.0937 0.52868-0.20833 0.59949-0.11458 0.07081-0.20834-0.0736-0.20834-0.3208zm39.505-2.2605c0.96166-0.48042 1.9792-1.1721 2.3564-1.6017 0.60846-0.69302 0.63678-0.78629 0.33879-1.1156-0.5251-0.58025-0.4198-1.4407 0.1952-1.595 0.85774-0.21528 1.186 0.03176 1.1164 0.84028-0.0341 0.39511 6e-3 0.78594 0.0881 0.86846 0.21871 0.21872 0.18373 0.91398-0.046 0.91398-0.10783 0-0.25509-0.09558-0.32724-0.2123-0.0733-0.11866-0.5166 0.18427-1.0052 0.68698-0.97954 1.0079-2.4138 1.7821-3.6107 1.9491-0.6933 0.09677-0.57568 1.49e-4 0.89414-0.73414zm3.4117-3.4605c0-0.17188-0.1521-0.31251-0.33801-0.31251-0.27683 0-0.29107 0.05653-0.0787 0.31251 0.14265 0.17188 0.29475 0.3125 0.33801 0.3125 0.0433 0 0.0787-0.14063 0.0787-0.3125zm-83.814 3.242c0.0598-0.22867 0.25216-0.5348 0.42747-0.6803 0.40262-0.33416 8.6777-4.7293 8.7586-4.652 0.03293 0.03156-0.04208 0.28102-0.16671 0.55456-0.23323 0.51188-0.71712 0.7985-6.0731 3.5971-2.4765 1.294-3.0344 1.5176-2.9462 1.1806zm7.7784 0.29978c0-0.11463 0.09088-0.34897 0.20195-0.52085 0.11108-0.17187 0.20195-0.21876 0.20195-0.1042 0 0.11463-0.09088 0.34896-0.20195 0.52083-0.11108 0.17188-0.20195 0.21876-0.20195 0.10422zm-8.8605-3.491c0.45833-0.27371 1.4908-0.88028 2.2944-1.348 0.80359-0.46768 1.8817-1.2261 2.3958-1.6855l0.93476-0.83513-0.57292-0.22141c-0.6124-0.23666-0.74156-0.77734-0.35725-1.4955 0.14846-0.27742 0.14859-0.52832 4.17e-4 -0.8052-0.16248-0.3036-0.13509-0.48236 0.11172-0.72917 0.39569-0.39572 0.35759-0.3944 1.202-0.04155 0.37567 0.15697 1.0289 0.68948 1.4516 1.1834 0.59744 0.69799 0.7686 1.0766 0.7686 1.7004 0 0.9437-0.37635 1.1829-1.308 0.83119-0.59303-0.22384-0.66424-0.18713-1.5519 0.8002-0.68284 0.7595-1.4377 1.2812-2.8373 1.9609-1.0488 0.5093-2.2351 0.98383-2.6361 1.0545l-0.72917 0.12852 0.83333-0.4976zm7.8125-4.5158c0-0.19124-1.0926-1.0558-1.3342-1.0558-0.06825 0-0.12409 0.28124-0.12409 0.62501 0 0.57541 0.05788 0.62502 0.72917 0.62502 0.40104 0 0.72917-0.08739 0.72917-0.19416zm-1.729-0.34814c0.03735-0.112-0.06825-0.38746-0.23466-0.612-0.29206-0.39405-0.31569-0.39513-0.67989-0.03096-0.3642 0.36421-0.36312 0.38786 0.03092 0.67991 0.42961 0.31843 0.76991 0.30418 0.88363-0.03705zm55.753 2.6242c-0.25032-0.10082-0.56566-0.38989-0.70073-0.64231-0.30059-0.56166-0.14395-2.2082 0.24727-2.5995 0.23923-0.23924 0.2836-0.12343 0.2836 0.74023 0 1.2564 0.29644 1.6204 1.0927 1.3416 0.51563-0.18055 0.58479-0.32182 0.6802-1.3894 0.0657-0.73486 0.24458-1.3268 0.46875-1.551 0.3445-0.3445 0.36254-0.33302 0.36254 0.23085 0 1.0605 0.46771 2.2365 0.98289 2.4712 0.72929 0.3323 0.92275-0.03725 0.48583-0.9281-0.38778-0.79064-0.35013-1.8395 0.06601-1.8381 0.34355 9.98e-4 0.9653 1.6459 0.9653 2.5536 0 0.85898-0.57098 1.6124-1.2219 1.6124-0.21371 0-0.62901-0.18912-0.92289-0.4203l-0.53432-0.4203-0.77285 0.52448c-0.85216 0.5783-0.83638 0.57494-1.4823 0.31468zm32.226-0.91428c0-0.69023 0.79913-1.2507 4.7249-3.3135 2.3551-1.2376 4.3381-2.1941 4.4066-2.1254 0.2287 0.2287-0.31055 0.82417-1.2363 1.3651-1.6124 0.94225-7.8952 4.1842-7.8952 4.0738zm-16.504-3.2378c0.69784-0.45104 1.43-1.066 1.6269-1.3667 0.33613-0.51299 0.33652-0.56823 6e-3 -0.89839-0.33016-0.33018-0.38976-0.33002-0.96964 2e-3 -0.83339 0.4783-0.78142 0.14407 0.0976-0.62774 0.88026-0.7729 1.5003-0.98734 1.8987-0.65669 0.81448 0.67597-0.30314 2.5531-2.1968 3.6897-1.6018 0.96144-1.9876 0.84234-0.46315-0.14298zm53.81-2.1554c-0.0252-1.7206-1.0762-3.4545-2.5667-4.2353-0.58143-0.30454-0.70593-0.81467-0.39286-1.6098 0.13272-0.3371 0.28439-0.26279 1.2671 0.62078 1.4077 1.2658 2.0951 2.6688 2.0778 4.2414-0.0165 1.5109-0.36454 2.3984-0.38535 0.98292zm-84.598 0.45031c-0.8712-0.34639-1.6374-1.2376-1.9984-2.3245-0.39368-1.1853-0.32867-5.0469 0.11762-6.9878 0.36996-1.6089 0.50089-1.1696 0.20257 0.67977-0.34212 2.1208-0.16161 4.5848 0.41931 5.7236 0.3444 0.6751 0.68276 0.98802 1.4219 1.315 0.88417 0.39112 1.0439 0.40339 1.8065 0.13871 1.0862-0.377 1.5576-1.2508 2.2925-4.2488 0.72534-2.959 2.385-6.4274 3.8636-8.0744 1.7314-1.9286 1.7717-1.6318 0.48369 3.5657-1.1046 4.4574-0.7947 5.8977 1.5119 7.0263 1.49 0.729 3.8564 0.79855 5.2954 0.15562 1.7249-0.77066 2.9262-2.5018 3.3657-4.8501 0.2696-1.4405-0.0616-4.442-0.70173-6.3591l-0.46095-1.3806 0.40893-1.1582c0.22491-0.63701 0.49937-1.1548 0.60991-1.1507 0.47834 0.01778 1.192 2.802 1.7699 6.905 0.43813 3.1108 0.81533 4.2493 1.7898 5.4024 0.80089 0.94772 2.4279 1.6844 3.7257 1.687 1.1884 2e-3 2.7442-0.66139 2.9312-1.2506 0.0747-0.23528-0.41592-1.7462-1.23-3.7883-1.8856-4.73-2.7857-7.3011-2.6844-7.6677 0.32703-1.1837 0.76204-2.0834 1.0074-2.0834 0.47873 0 2.8306 3.3742 2.5485 3.6564-0.0701 0.07011-0.32298 0.02287-0.56196-0.10509-0.65657-0.3514-0.57702 0.01438 0.71896 3.3064 1.433 3.6399 1.6051 4.9249 0.94906 7.0848-1.5315 5.0423-7.2015 4.6137-9.525-0.71994-0.32281-0.74101-0.64269-1.3473-0.71085-1.3473-0.0682 0-0.27987 0.49471-0.47048 1.0994-0.38907 1.2343-1.5732 3.3072-2.3629 4.1363-0.2871 0.30145-1.0074 0.81707-1.6006 1.1459-0.94049 0.52125-1.2946 0.59743-2.7661 0.59497-1.5114-2e-3 -1.7938-0.06861-2.7051-0.63196-1.3843-0.85586-2.1521-2.3448-2.3117-4.4828-0.095-1.2735-0.0149-1.9302 0.45038-3.6892 0.68058-2.573 0.60061-3.1036-0.33403-2.2161-1.1121 1.0559-1.9055 2.9759-2.5908 6.2701-0.79446 3.8186-2.4878 5.4933-4.6753 4.6236zm-10.204-0.77976c0.01604-0.45932 1.0803-1.2198 3.6412-2.6021 2.6716-1.442 3.6707-1.7221 2.6808-0.75132-0.44282 0.43425-6.3291 3.5566-6.322 3.3534zm57.66-1.8514c-0.67519-0.77702-0.58623-2.5677 0.15826-3.1856 0.27526-0.22844 0.28878-0.19141 0.10585 0.28986-0.26762 0.70392-0.06 1.7615 0.39347 2.0042 0.22238 0.11903 0.53561 0.09548 0.85789-0.06472 0.43454-0.21579 0.51657-0.42138 0.56962-1.4275 0.0778-1.4759 0.55905-2.0239 0.72049-0.8204 0.17627 1.3142 0.59704 1.9968 1.279 2.0749 0.43082 0.04934 0.57088-0.01 0.49664-0.20832-0.60034-1.6087-0.6436-1.8369-0.43517-2.2959 0.20688-0.45561 0.24913-0.4191 0.79552 0.68738 0.54994 1.1138 0.56343 1.2114 0.2876 2.0834-0.25825 0.81641-0.36468 0.92206-0.98925 0.98184-0.49397 0.04714-0.83948-0.06422-1.1743-0.37873l-0.47442-0.44572-0.53497 0.53498c-0.62787 0.62788-1.5894 0.70756-2.0562 0.17038zm-67.859-3.8022c-0.01826-1.1113-0.52397-2.024-1.5586-2.8131-0.71715-0.54701-0.96346-1.1951-0.55104-1.45 0.3164-0.19555 1.7121 1.1672 2.1239 2.0739 0.40174 0.88433 0.47719 2.0191 0.1802 2.7102-0.13667 0.31805-0.1827 0.19477-0.19447-0.52083zm30.727-2.1297c-0.46778-0.66788-0.42166-2.2898 0.0824-2.8993l0.40676-0.49185-0.11968 0.76995c-0.24354 1.5669 0.35722 2.3573 1.3147 1.7301 0.40309-0.26413 0.49147-0.50135 0.49147-1.3191 0-0.54838 0.12728-1.1712 0.28285-1.3839 0.25994-0.35551 0.29523-0.32077 0.43576 0.42892 0.28195 1.5041 0.66549 2.17 1.2499 2.17 0.61762 0 0.65495-0.19858 0.20201-1.0745-0.35366-0.68391-0.25053-1.6345 0.17717-1.6332 0.14105 4.3e-4 0.43194 0.4275 0.64643 0.94904 0.4087 0.99378 0.36885 2.1583-0.0929 2.7147-0.36152 0.43563-1.5215 0.36586-1.9593-0.1179-0.37-0.40886-0.37697-0.40812-0.98577 0.10422-0.7759 0.65288-1.6956 0.67571-2.1319 0.05283zm-10.121-0.6964c-0.26457-0.69589-0.29441-0.54207 0.42182-2.174 0.60495-1.3783 0.76115-2.3195 0.49855-3.0039-0.19274-0.50229-0.45275-0.39741-0.83173 0.33547-0.65231 1.2615-2.4156 2.9111-3.7768 3.5335-1.619 0.74022-1.8501 0.75214-0.7821 0.04035 1.5342-1.0225 3.0774-2.4445 3.6744-3.3858 0.72814-1.1482 0.73868-1.4205 0.0669-1.7266-1.1143-0.50772-0.72001-2.0431 0.52468-2.0431 0.58767 0 1.0428 0.64447 1.0428 1.4766 0 0.22842 0.20626 0.69429 0.45834 1.0353 0.63239 0.85537 0.57421 1.7137-0.2351 3.4677-0.43612 0.94519-0.63829 1.639-0.54643 1.8751 0.13487 0.3466 0.17452 0.33955 0.52831-0.09408 0.21038-0.25782 0.43779-0.46876 0.50536-0.46876 0.24214 0 0.1167 0.74942-0.20146 1.2036-0.44085 0.62941-1.0942 0.5948-1.3475-0.07141zm-0.16573-7.6367c-0.11977-0.11978-0.38813-0.15166-0.59636-0.07081-0.34094 0.1323-0.3268 0.17498 0.14225 0.42939 0.54508 0.29563 0.85978 0.04714 0.45411-0.35852zm44.79 7.364c-0.15738-0.09987-0.24738-0.4359-0.20833-0.77806 0.0581-0.50903 0.27871-0.70765 1.4229-1.2812 1.6615-0.83293 7.2917-2.8188 7.2917-2.5721 0 0.35179-0.56525 0.63058-3.2327 1.5943-1.4876 0.53752-3.3142 1.2539-4.059 1.5919l-1.3542 0.61466 0.57293 0.30452c0.31509 0.16747 0.57291 0.39527 0.57291 0.5062 0 0.24713-0.62807 0.25938-1.0063 0.01958zm-51.687-2.3389c-0.0166-1.0861-0.79915-2.3733-1.7503-2.8791-0.40193-0.21369-0.55602-0.4591-0.55602-0.88545 0-0.74318 0.1412-0.73862 1.0797 0.03496 1.3095 1.0794 1.9562 3.0242 1.4203 4.2712-0.13581 0.31607-0.18258 0.18528-0.19368-0.54168zm-39.968-0.30349c-0.68902-0.48262-0.60514-1.5866 0.25282-3.3275 0.39371-0.79887 0.91443-1.6869 1.1571-1.9733 0.40338-0.47608 0.39759-0.43132-0.06726 0.52084-1.0803 2.2128-1.0824 3.4375-0.0059 3.4375 0.30977 0 0.73467-0.15516 0.94421-0.3448 0.75527-0.68351 0.31729 0.62927-0.5147 1.5428-0.49941 0.5483-1.1175 0.59885-1.7663 0.14443zm23.027-0.52572c-0.40474-0.23575-0.50265-1.5307-0.15625-2.0667 0.15006-0.23219 0.20277-0.11011 0.20514 0.4753 0.0021 0.50879 0.11481 0.83064 0.31834 0.90876 0.49195 0.18878 0.93485-0.32515 0.93485-1.0848 0-0.38025 0.09375-0.74931 0.20833-0.82012 0.11458-0.07081 0.20833 0.05992 0.20833 0.29041 0 0.69256 0.45854 1.4805 0.86162 1.4805 0.31975 0 0.34673-0.08249 0.17489-0.53442-0.24946-0.65614-0.26385-1.3407-0.02819-1.3407 0.23948 0 0.7196 1.509 0.6282 1.9743-0.12149 0.61855-0.69775 0.86085-1.2915 0.54306-0.44027-0.23563-0.58577-0.22664-0.99742 0.06182-0.55873 0.39135-0.58322 0.39394-1.0663 0.1125zm54.894-0.40712c-0.84211-0.3384-1.0011-1.0733-0.53038-2.4519 0.37648-1.1027 1.7208-3.4531 1.8825-3.2913 0.0363 0.03645-0.21737 0.66538-0.56386 1.3978-0.66952 1.4153-0.78769 2.2368-0.3803 2.6442 0.37908 0.37909 1.0988 0.29968 1.522-0.16795 0.56883-0.62856 0.62091-0.33936 0.12378 0.68756-0.24396 0.50399-0.68099 1.0245-0.97114 1.1567-0.29016 0.13222-0.54658 0.23445-0.56984 0.22718-0.0232-7e-3 -0.25398-0.09837-0.51273-0.20226zm-18.172-0.80163c-4e-3 -1.1128-0.58866-2.1291-1.5762-2.7394-0.70762-0.43734-0.8774-0.87908-0.54143-1.4087 0.22846-0.36011 1.8305 1.1835 2.2363 2.1546 0.33837 0.80986 0.38256 2.1357 0.0864 2.5939-0.14738 0.22806-0.20282 0.06581-0.20515-0.60041zm35.096-0.12876c-0.24944-0.99129-0.708-1.7709-1.0416-1.7709-0.44406 0-1.1405-0.76332-1.1405-1.25 0-0.66569 0.42184-0.4908 1.4905 0.61797l0.99725 1.0347 0.2093-0.77422c0.41833-1.5475 1.1259-2.0571 1.9845-1.4293 0.54363 0.39752 0.28705 1.0817-0.27418 0.73115-0.2166-0.13525-0.55108-0.18557-0.74331-0.11186-0.41579 0.15955-0.94979 1.3507-0.97033 2.1646-8e-3 0.31879-0.091 0.76711-0.18447 0.9963-0.15287 0.37506-0.18552 0.35426-0.3271-0.20834z"/>
</svg>
