<?xml version="1.0" encoding="UTF-8"?>
<svg width="200mm" height="142.86mm" version="1.1" viewBox="0 0 200 142.86" xmlns="http://www.w3.org/2000/svg">
 <path d="m0 0v142.86h200v-142.86h-171.42z" fill="#e5181a" stroke-linejoin="round" stroke-opacity=".4498" stroke-width=".265"/>
 <path d="m78.122 31.531c1.6412-0.9592 2.8513-0.49293 3.9582 1.0412-1.4346 0-3.0803 0.09411-4.3749-0.64328-0.76749-0.43733-1.858-2.1383-2.8503-1.8907-1.4887 0.37131 0.68833 2.3149 1.1837 2.5507 2.1264 1.0117 4.4308 0.62663 6.6665 0.60809-1.3971 1.3992-2.9364 0.74367-4.5833 0.20825 0.71248 1.448 2.3057 1.6421 3.75 1.9626 3.7572 0.83425 7.3165 1.9121 9.5607 5.3263 1.1354 1.7272 1.584 4.3902-0.02207 5.9947-1.3087 1.3076-3.3191 1.0279-4.4225-0.38089-0.7379-0.94213-0.85998-2.1706-0.67352-3.323 0.13683-0.84654 0.63686-1.852 0.01576-2.6261-0.53958-0.67098-1.6237-1.0071-2.3744-1.3822-1.5772-0.78824-3.1624-1.5598-4.7917-2.2369-0.70728-0.29404-1.5154-0.7347-2.2915-0.77969-0.88374-0.05108-1.2956 0.77053-2.1023 0.85696-1.4077 0.15055-3.3764-0.95025-4.5645-1.6025-1.5308-0.8405-2.9659-1.9397-4.104-3.2671-0.6452-0.75242-1.1083-1.7393-1.837-2.4087-0.58104-0.53375-1.335-0.55624-1.9286-0.02396-1.4087 1.2626-0.77561 3.3714 0.11161 4.7233 1.8925 2.8838 5.7079 4.6571 9.008 5.3211 0.92186 0.18535 3.944 0.11414 3.4326 1.7563-0.4425 1.4209-2.1133 1.1854-3.2244 1.0798-1.7732-0.16868-3.3865-0.27822-4.9999-1.1441-0.83958-0.45065-1.4992-1.1164-2.2916-1.6298-0.88498-0.57289-2.0273-0.72721-2.4608 0.45691-0.45894 1.2541 0.51896 2.8755 1.4281 3.6708 2.1797 1.9069 5.5805 2.1494 8.3243 1.7932 0.72165-0.09364 3.33-0.90277 3.476 0.28156 0.12706 1.0296-1.7066 1.8768-2.4343 2.2403-1.9287 0.964-4.2152 1.3497-6.2499 0.47274-0.98936-0.4265-1.7629-1.1573-2.7083-1.6438-0.71896-0.37006-1.5854-0.39401-1.9256 0.4769-0.50896 1.303 0.75041 3.0894 1.7203 3.8283 2.4854 1.8927 6.3333 0.99211 8.955-0.09458 0.60228-0.24948 2.7073-1.5725 2.88-0.18222 0.13336 1.0723-1.5083 1.9044-2.2549 2.3497-1.7454 1.0406-3.9276 2.2856-6.0416 2.0981-1.3518-0.1195-3.4675-1.7545-4.7012-0.7522-1.2266 0.99627-0.18208 2.8689 0.95208 3.3625 1.9735 0.85904 4.4947 0.23157 6.4573-0.35944 1.7605-0.53022 3.4263-1.9036 5.2082-2.1407-0.0979 1.2972-0.91935 1.9293-1.875 2.7237-1.8334 1.5246-3.9935 3.1161-6.4583 3.2969-1.3739 0.10074-4.2262-0.77343-4.6982 1.064-0.465 1.8095 1.4598 3.0432 3.0316 3.0491 2.9733 0.01104 5.8331-1.9826 8.1249-3.6533 0.54855-0.39984 1.9286-1.5754 2.3653-0.40922 0.40166 1.0723-0.90791 2.3984-1.5506 3.0921-2.1031 2.2693-4.7037 4.2614-7.8978 4.5136-1.0677 0.08434-3.241-1.0271-4.0088-0.0733-1.1929 1.4817 0.84081 3.1473 2.134 3.3763 2.4278 0.43005 5.1892-0.94483 7.0832-2.3272 1.6984-1.2399 2.9572-3.2808 4.7915-4.2399 0.2423 1.5494-0.61248 2.7486-1.49 3.9568-1.8238 2.5113-4.1537 5.0889-7.2599 5.9372-1.435 0.39194-2.9733-0.0047-4.3626 0.37652-0.8102 0.22241-0.96228 1.0942-0.69083 1.8073 0.66854 1.7565 3.0069 2.1538 4.6369 2.075 2.1502-0.10389 3.5581-1.4665 4.9999-2.9072 1.5662-1.565 3.0398-3.2034 4.5803-4.7898 0.82166-0.84612 1.5246-1.938 2.5029-2.6128 0.50124-0.34569 1.0633-0.43878 1.4208 0.14803 0.36937 0.60622 0.17834 1.4126 0.0047 2.0483-0.57333 2.0942-2.1455 3.0647-3.9239 4.0646-0.82144 0.46191-1.63 1.4103-0.74394 2.2551 0.94914 0.90505 2.2839 0.42046 3.2428-0.16972 2.1201-1.3051 3.2585-3.4126 3.9289-5.7335 0.22521-0.78012 0.49416-2.1394 1.4906-2.2783 1.4635-0.20407 1.2431 1.6908 0.94706 2.4874-0.47354 1.2739-1.2464 2.0606-2.1524 3.0346-1.2575 1.3518 0.4102 2.0166 1.6191 1.3859 2.0832-1.0871 2.6452-3.2158 3.8233-5.0389 0.30625-0.47419 0.92812-1.046 1.3785-0.36402 0.55124 0.83425-0.2052 2.2925-0.57374 3.064-1.3037 2.73-3.4788 4.78-6.2946 5.8703-0.77331 0.29947-3.1055 0.51959-3.4735 1.3003-0.40895 0.8682 1.3541 2.1831 1.8069 2.8254l-6.2499 1.4842-2.62 0.53416-4.1518-2.7509-1.2133-1.52-1.8064-0.06306-3.1249 0.23326 1.6283 0.92254 1.7132 1.6302 2.4032 0.24864 2.3799 1.7802v0.20825c-1.3202 0-2.8766 0.22802-4.1666-0.06306-0.93581-0.21117-1.5716-1.0329-2.4999-1.2753-1.3802-0.36068-3.7672 0.96316-4.3749 2.1714l4.1666 0.75824 2.0832-0.61974 4.5833 0.48626c-0.6752 0.31509-1.3408 0.81676-2.0832 0.95109-1.0204 0.18472-1.9264-0.22575-2.9135 0.32758-1.5725 0.88152-1.8737 3.1369-1.8781 4.7606h0.20832c0.33187-0.63704 0.73207-1.2897 1.4591-1.5323 0.76499-0.25531 1.5252 0.10294 2.2681-0.36131 0.7302-0.45628 0.8477-1.3645 1.511-1.8861 1.8342-1.4419 4.3564-2.0923 6.4066-0.78385 0.66165 0.42213 0.99164 1.1802 1.6973 1.5529 1.4102 0.74532 3.3671-0.45379 3.9492 1.5529h0.20832c0.41542-1.4219-0.62311-3.4156-2.0916-3.9071-0.68374-0.22887-1.3839 0.08844-2.0749-0.07866-0.79478-0.1922-1.5379-0.69847-2.2916-1.0121v-0.20825c1.9314-0.16826 3.9483-0.85612 5.8332-1.3272 0.75102-0.18784 1.721-0.62433 2.4999-0.53061 1.201 0.14425 2.3427 2.4142 3.642 1.6406 0.83873-0.49938 1.3752-1.8858 1.8573-2.6983 1.1069-1.8661 2.1244-3.6525 3.668-5.206 0.72665-0.73137 1.7325-1.9482 2.9126-1.5373 1.7727 0.61705 1.3235 3.1284 0.82268 4.4526-1.2116 3.2042-4.2697 6.8165-7.6945 7.7487-0.98414 0.26781-3.9847-0.67244-4.1589 1.0092-0.08954 0.86591 0.99103 1.4588 1.6589 1.7141 2.4259 0.92796 3.7047-0.22532 5.6247-1.4957 0.42104-0.27864 1.0919-0.58184 1.3935 0.03515 0.35874 0.73449-0.53519 1.5608-0.98498 2.0228-0.93124 0.95649-2.0342 1.8437-3.325 2.2479-0.77771 0.24366-2.2494 0.10436-2.6903 0.9363-0.43084 0.81322 0.61956 1.3718 1.2323 1.5861 1.521 0.5325 3.0832 0.02585 4.3747-0.83217 1.0923-0.72554 1.8348-1.9069 3.1249-2.2689 0.0733 1.8736-0.83728 3.8849-2.503 4.8651-0.78477 0.46169-3.1648 0.30218-3.0006 1.5914 0.17853 1.4028 2.3202 1.8984 3.4204 1.4551 1.8919-0.76263 2.3446-2.7033 3.5026-4.1283 0.37771-0.46482 0.9052-0.55687 1.2517 0 0.97977 1.5758-0.41083 3.8337-1.4404 4.9632-0.46396 0.50918-1.2952 1.1056-1.2664 1.8743 0.03374 0.9088 1.0789 1.9805 1.5635 2.7073 1.3235 1.9842 2.7668 3.9322 3.8889 6.0393h0.41665c1.1221-2.1071 2.5655-4.055 3.8889-6.0393 0.48458-0.72678 1.5298-1.7984 1.5635-2.7073 0.0287-0.76866-0.80249-1.3651-1.2664-1.8743-1.0323-1.1327-2.4165-3.3836-1.4406-4.9632 0.34417-0.55708 0.84644-0.46003 1.2202 0 1.181 1.4532 1.729 3.5817 3.7427 4.2022 1.0721 0.3305 3.0456-0.22178 3.2121-1.529 0.16417-1.2893-2.2158-1.1298-3.0006-1.5914-1.6658-0.98023-2.5765-2.9915-2.503-4.8652 1.2902 0.36194 2.0326 1.5434 3.1249 2.2689 1.2916 0.858 2.8536 1.3647 4.3747 0.83217 0.61271-0.21429 1.6631-0.77282 1.2323-1.5861-0.44103-0.83195-1.9127-0.69264-2.6903-0.9363-1.2908-0.40421-2.3936-1.2914-3.325-2.2479-0.44978-0.46191-1.3437-1.2882-0.98498-2.0228 0.30167-0.61705 0.97248-0.31384 1.3935-0.03515 1.9199 1.2703 3.1987 2.4238 5.6247 1.4957 0.66789-0.25532 1.7486-0.8482 1.6589-1.7141-0.17416-1.6816-3.1747-0.74137-4.1589-1.0092-3.4377-0.93567-6.4783-4.5322-7.6945-7.7487-0.50083-1.3243-0.95-3.8356 0.82268-4.4526 1.1802-0.41088 2.186 0.80594 2.9126 1.5373 1.5437 1.5536 2.5612 3.3399 3.668 5.206 0.48207 0.81259 1.0185 2.1989 1.8573 2.6983 1.2994 0.77365 2.4411-1.4963 3.642-1.6406 0.77895-0.09364 1.7489 0.34277 2.4999 0.53061 1.8849 0.47107 3.9018 1.1589 5.8332 1.3272v0.20825c-0.75374 0.31362-1.4968 0.81989-2.2916 1.0121-0.69103 0.16723-1.3912-0.15008-2.0749 0.07866-1.4685 0.49167-2.5071 2.4853-2.0916 3.9071h0.20832c0.58228-2.0067 2.5391-0.8076 3.9492-1.5529 0.70562-0.37277 1.0356-1.1308 1.6973-1.5529 2.0501-1.3084 4.5724-0.65807 6.4066 0.78385 0.66332 0.52167 0.78083 1.4299 1.511 1.8861 0.74291 0.46419 1.5031 0.10594 2.2682 0.36131 0.72708 0.2426 1.1273 0.89526 1.4592 1.5323h0.20832c-5e-3 -1.6238-0.30562-3.8791-1.8781-4.7606-0.98706-0.55333-1.8931-0.14283-2.9135-0.32758-0.7425-0.13432-1.4081-0.636-2.0832-0.95109l4.5833-0.48626 2.0832 0.61974 4.1666-0.75824c-0.6077-1.2083-2.9947-2.5321-4.3749-2.1714-0.92831 0.24241-1.5644 1.0642-2.4999 1.2753-1.29 0.29113-2.8464 0.06306-4.1666 0.06306v-0.20826l2.4116-1.7802 2.3716-0.24864 1.7132-1.6302 1.6283-0.92254-3.1249-0.23326-1.8064 0.06306-1.2133 1.52-4.1835 2.7509-2.5883-0.53416-6.2499-1.4842c0.4527-0.64226 2.2158-1.9573 1.8069-2.8254-0.37061-0.78657-2.6966-0.99315-3.4735-1.2762-2.8071-1.0231-5.0163-3.2177-6.2946-5.8946-0.36853-0.77157-1.125-2.2298-0.57373-3.064 0.45039-0.68181 1.0723-0.1102 1.3785 0.36402 1.1781 1.823 1.74 3.9517 3.8233 5.0389 1.2089 0.63079 2.8766-0.03421 1.6191-1.3859-0.90541-0.97316-1.682-1.7606-2.1524-3.0352-0.29499-0.79907-0.52583-2.6939 0.94707-2.4867 0.99665 0.14031 1.265 1.4971 1.4906 2.2783 0.67042 2.3209 1.8088 4.4285 3.9289 5.7336 0.98581 0.60685 2.2781 1.0581 3.2428 0.13826 0.87854-0.8378 0.0727-1.7645-0.74394-2.2238-1.7784-1-3.3505-1.9704-3.9239-4.0646-0.17418-0.63579-0.36521-1.4421 5e-3 -2.0483 0.35748-0.58684 0.91956-0.49375 1.4208-0.14803 0.97831 0.67494 1.6812 1.7668 2.5029 2.6128 1.5406 1.5864 3.0141 3.2248 4.5803 4.7898 1.4419 1.4407 2.8497 2.8033 4.9999 2.9072 1.63 0.07866 3.9683-0.31842 4.6369-2.075 0.27144-0.71305 0.11933-1.5848-0.69083-1.8073-1.3894-0.38152-2.9277 0.01576-4.3626-0.37653-3.1062-0.84841-5.4361-3.426-7.2599-5.9372-0.87164-1.2002-1.7862-2.4161-1.49-3.9568 1.8343 0.9592 3.0931 3 4.7915 4.2399 1.8635 1.3603 4.4797 2.6783 6.8749 2.3608 1.3908-0.18451 3.5264-1.7876 2.3131-3.4099-0.71165-0.9515-2.9498 0.15481-3.9797 0.0733-3.1943-0.2522-5.7948-2.2443-7.8978-4.5136-0.64269-0.69368-1.9522-2.0198-1.5506-3.0921 0.46665-1.246 2.0137 0.15623 2.5735 0.56145 2.2339 1.6173 5.0316 3.5116 7.9166 3.501 1.535-0.0063 3.3023-1.1021 3.0691-2.8436-0.11351-0.84737-0.7827-1.343-1.611-1.3599-1.1835-0.02444-2.3501 0.21845-3.5414 0.04682-2.1509-0.30987-3.9715-1.6159-5.625-2.9363-0.63122-0.50397-2.3618-1.5265-2.2259-2.5015 0.0538-0.38609 0.48976-0.38006 0.77768-0.30426 0.79603 0.20992 1.5233 0.80698 2.2817 1.1339 2.1543 0.92859 4.9195 1.8363 7.2916 1.4553 1.3429-0.21574 2.69-0.85673 2.69-2.4071 0-0.89548-0.49791-1.5754-1.4408-1.5883-1.2058-0.01639-2.3356 0.87091-3.5408 1.0352-2.1025 0.28676-4.2951-0.92651-6.0416-1.9485-0.78728-0.46064-2.6041-1.3397-2.4633-2.473 0.18459-1.4852 2.8475 0.18202 3.505 0.43172 2.9758 1.1302 7.6079 1.7589 9.5075-1.4967 0.34624-0.59372 0.70562-1.3757 0.63353-2.0813-0.0876-0.8582-0.78061-1.3218-1.5998-1.0635-1.0592 0.33404-1.9059 1.2585-2.9164 1.7297-2.0935 0.97628-4.4446 0.62912-6.4583-0.37736-0.77268-0.38609-2.3812-1.1229-2.3965-2.1525-0.0195-1.3224 3.1112-0.40714 3.8547-0.30822 2.5141 0.33404 5.672-0.07409 7.705-1.6879 0.99185-0.7874 1.9592-2.298 1.6743-3.6352-0.28708-1.3493-1.5546-1.2743-2.5046-0.65911-0.79248 0.51333-1.452 1.1791-2.2916 1.6298-1.6135 0.86591-3.2268 0.97544-4.9999 1.1441-1.11 0.10562-2.5024 0.34112-3.1393-0.87966-0.9208-1.7653 2.4233-1.7705 3.3477-1.9566 3.2201-0.64787 6.9462-2.3584 8.8659-5.113 0.93395-1.3399 1.6699-3.3582 0.42166-4.7587-0.51623-0.57915-1.2735-0.77241-1.9281-0.29259-0.83582 0.61266-1.3344 1.7699-2.0054 2.5525-1.0889 1.2697-2.4458 2.3212-3.8958 3.1503-1.2271 0.70159-3.3016 1.8768-4.7731 1.7193-0.80663-0.08639-1.2183-0.90797-2.102-0.85696-0.77604 0.04493-1.5841 0.48565-2.2915 0.77969-1.6291 0.67703-3.2143 1.4486-4.7915 2.2369-0.7504 0.37506-1.835 0.71118-2.3744 1.3822-0.62186 0.77406-0.12186 1.7795 0.0158 2.6261 0.17124 1.0585 0.0906 2.2154-0.52687 3.1206-0.99811 1.4625-2.9722 1.9611-4.3836 0.75407-1.8148-1.5523-1.385-4.3746-0.2077-6.1654 2.2443-3.414 5.8034-4.492 9.5606-5.3263 1.4444-0.3205 3.0374-0.51458 3.75-1.9626-1.6469 0.53542-3.1863 1.191-4.5833-0.20825 2.2358 0.0186 4.5401 0.40359 6.6665-0.60809 0.49541-0.23573 2.6725-2.1793 1.1837-2.5506-0.99248-0.2476-2.0829 1.4534-2.8503 1.8907-1.2946 0.73741-2.9403 0.64328-4.3749 0.64328 1.1071-1.5342 2.317-2.0004 3.9582-1.0412 0.40291-2.5583-1.9986-1.8924-3.5416-2.4133-1.4048-0.47419-2.3591-1.3309-3.9582-1.2812-1.5296 0.04745-2.9452 0.737-4.3749 1.1893-1.5922 0.50397-3.3297 0.8253-4.9999 0.83905l2.4999 2.0825c-1.4862 0.64099-3.0486 1.6219-3.75 3.1238h2.4999v0.20825c-1.64 0.24219-3.369 0.93713-4.3749 2.2908l1.4583 0.20825-2.1187 2.2889-1.2146 0.82322-1.2146-0.82322-2.1187-2.2889 1.4583-0.20825c-1.0063-1.3536-2.7352-2.0486-4.3751-2.2908v-0.20825h2.4999c-0.70124-1.5019-2.2637-2.4828-3.75-3.1238l2.4999-2.0825c-1.6702-0.01419-3.4076-0.33508-4.9999-0.83905-1.4881-0.47086-2.9857-1.2062-4.5833-1.2062-1.5254 0-2.4334 0.8582-3.7687 1.3039-1.5414 0.51439-3.9245-0.14283-3.5228 2.4074m7.2927-1.177c0.56666-0.11114 1.3379-0.06952 1.8037 0.31364 0.66979 0.55102 0.05817 1.1089-0.55874 1.2595-0.59456 0.14519-1.4902 0.15497-2.0091-0.222-0.80353-0.58392 0.16521-1.2335 0.76415-1.3511m28.125 0c0.56666-0.11114 1.3379-0.06952 1.8037 0.31364 0.66979 0.55102 0.0582 1.1089-0.55873 1.2595-0.59457 0.14519-1.4902 0.15497-2.0091-0.222-0.80353-0.58392 0.16521-1.2335 0.76415-1.3511z" fill="#030101"/>
</svg>
