<?xml version="1.0" encoding="UTF-8"?>
<svg width="200.01mm" height="142.86mm" version="1.1" viewBox="0 0 200.01 142.86" xmlns="http://www.w3.org/2000/svg">
 <path d="m0 0v142.86h200.01v-142.86h-171.43z" fill="#f00" stroke-linejoin="round" stroke-opacity=".4498" stroke-width=".265"/>
 <path d="m78.125 31.531c1.6413-0.9592 2.8514-0.49293 3.9584 1.0412-1.4346 0-3.0804 0.09411-4.375-0.64328-0.76752-0.43733-1.858-2.1383-2.8504-1.8907-1.4888 0.37131 0.68835 2.3149 1.1838 2.5507 2.1265 1.0117 4.431 0.62663 6.6667 0.60809-1.3971 1.3992-2.9365 0.74367-4.5834 0.20825 0.7125 1.448 2.3058 1.6421 3.7501 1.9626 3.7574 0.83425 7.3167 1.9121 9.561 5.3263 1.1354 1.7272 1.584 4.3902-0.02207 5.9947-1.3088 1.3076-3.3193 1.0279-4.4226-0.38089-0.73793-0.94213-0.86001-2.1706-0.67355-3.323 0.13684-0.84654 0.63688-1.852 0.01576-2.6261-0.5396-0.67098-1.6238-1.0071-2.3745-1.3822-1.5773-0.78824-3.1626-1.5598-4.7918-2.2369-0.7073-0.29404-1.5154-0.7347-2.2916-0.77969-0.88377-0.05108-1.2957 0.77053-2.1024 0.85696-1.4077 0.15055-3.3765-0.95025-4.5647-1.6025-1.5309-0.8405-2.966-1.9397-4.1042-3.2671-0.64522-0.75242-1.1084-1.7393-1.8371-2.4087-0.58106-0.53375-1.335-0.55624-1.9287-0.02396-1.4088 1.2626-0.77564 3.3714 0.11162 4.7233 1.8926 2.8838 5.7081 4.6571 9.0083 5.3211 0.92189 0.18535 3.9442 0.11414 3.4328 1.7563-0.44252 1.4209-2.1134 1.1854-3.2245 1.0798-1.7732-0.16868-3.3866-0.27822-5.0001-1.1441-0.83961-0.45065-1.4992-1.1164-2.2917-1.6298-0.88502-0.57289-2.0273-0.72721-2.4609 0.45691-0.45896 1.2541 0.51898 2.8755 1.4282 3.6708 2.1798 1.9069 5.5807 2.1494 8.3246 1.7932 0.72168-0.09364 3.3301-0.90277 3.4761 0.28156 0.12706 1.0296-1.7067 1.8768-2.4344 2.2403-1.9288 0.964-4.2153 1.3497-6.2501 0.47274-0.98939-0.4265-1.763-1.1573-2.7084-1.6438-0.71898-0.37006-1.5855-0.39401-1.9257 0.4769-0.50898 1.303 0.75043 3.0894 1.7204 3.8283 2.4855 1.8927 6.3335 0.99211 8.9553-0.09458 0.60231-0.24948 2.7074-1.5725 2.8801-0.18222 0.13337 1.0723-1.5084 1.9044-2.255 2.3497-1.7455 1.0406-3.9278 2.2856-6.0418 2.0981-1.3519-0.1195-3.4676-1.7545-4.7014-0.7522-1.2267 0.99627-0.18208 2.8689 0.95211 3.3625 1.9736 0.85904 4.4948 0.23157 6.4576-0.35944 1.7606-0.53022 3.4265-1.9036 5.2084-2.1407-0.0979 1.2972-0.91938 1.9293-1.8751 2.7237-1.8334 1.5246-3.9937 3.1161-6.4585 3.2969-1.374 0.10074-4.2264-0.77343-4.6984 1.064-0.46501 1.8095 1.4598 3.0432 3.0317 3.0491 2.9734 0.01104 5.8333-1.9826 8.1251-3.6533 0.54856-0.39984 1.9287-1.5754 2.3653-0.40922 0.40167 1.0723-0.90794 2.3984-1.5506 3.0921-2.1032 2.2693-4.7039 4.2614-7.8981 4.5136-1.0677 0.08434-3.2411-1.0271-4.009-0.0733-1.1929 1.4817 0.84084 3.1473 2.1341 3.3763 2.4279 0.43005 5.1894-0.94483 7.0834-2.3272 1.6985-1.2399 2.9573-3.2808 4.7917-4.2399 0.2423 1.5494-0.61251 2.7486-1.49 3.9568-1.8238 2.5113-4.1538 5.0889-7.2601 5.9372-1.435 0.39194-2.9734-0.0047-4.3627 0.37652-0.81023 0.22241-0.96231 1.0942-0.69086 1.8073 0.66857 1.7565 3.007 2.1538 4.637 2.075 2.1503-0.10389 3.5583-1.4665 5.0001-2.9072 1.5663-1.565 3.0399-3.2034 4.5804-4.7898 0.82169-0.84612 1.5246-1.938 2.503-2.6128 0.50126-0.34569 1.0634-0.43878 1.4209 0.14803 0.36938 0.60622 0.17835 1.4126 0.0047 2.0483-0.57335 2.0942-2.1456 3.0647-3.924 4.0646-0.82147 0.46191-1.6301 1.4103-0.74397 2.2551 0.94918 0.90505 2.284 0.42046 3.243-0.16972 2.1202-1.3051 3.2586-3.4126 3.929-5.7335 0.22522-0.78012 0.49418-2.1394 1.4907-2.2783 1.4636-0.20407 1.2431 1.6908 0.9471 2.4874-0.47356 1.2739-1.2465 2.0606-2.1525 3.0346-1.2575 1.3518 0.41021 2.0166 1.6192 1.3859 2.0833-1.0871 2.6453-3.2158 3.8234-5.0389 0.30626-0.47419 0.92815-1.046 1.3786-0.36402 0.55126 0.83425-0.20521 2.2925-0.57376 3.064-1.3038 2.73-3.479 4.78-6.2949 5.8703-0.77334 0.29947-3.1057 0.51959-3.4736 1.3003-0.40897 0.8682 1.3542 2.1831 1.807 2.8254l-6.2501 1.4842-2.6201 0.53416-4.152-2.7509-1.2133-1.52-1.8065-0.06306-3.125 0.23326 1.6283 0.92254 1.7133 1.6302 2.4033 0.24864 2.38 1.7802v0.20825c-1.3202 0-2.8767 0.22802-4.1668-0.06306-0.93584-0.21117-1.5717-1.0329-2.5-1.2753-1.3802-0.36068-3.7673 0.96316-4.375 2.1714l4.1668 0.75824 2.0833-0.61974 4.5834 0.48626c-0.67522 0.31509-1.3409 0.81676-2.0833 0.95109-1.0204 0.18472-1.9264-0.22575-2.9136 0.32758-1.5725 0.88152-1.8738 3.1369-1.8782 4.7606h0.20833c0.33188-0.63704 0.7321-1.2897 1.4592-1.5323 0.76502-0.25531 1.5252 0.10294 2.2682-0.36131 0.73022-0.45628 0.84773-1.3645 1.5111-1.8861 1.8342-1.4419 4.3566-2.0923 6.4068-0.78385 0.66168 0.42213 0.99168 1.1802 1.6974 1.5529 1.4102 0.74532 3.3672-0.45379 3.9494 1.5529h0.20833c0.41543-1.4219-0.62313-3.4156-2.0917-3.9071-0.68376-0.22887-1.384 0.08844-2.075-0.07866-0.79481-0.1922-1.538-0.69847-2.2917-1.0121v-0.20825c1.9315-0.16826 3.9484-0.85612 5.8334-1.3272 0.75105-0.18784 1.721-0.62433 2.5-0.53061 1.2011 0.14425 2.3428 2.4142 3.6421 1.6406 0.83876-0.49938 1.3752-1.8858 1.8574-2.6983 1.1069-1.8661 2.1245-3.6525 3.6681-5.206 0.72668-0.73137 1.7325-1.9482 2.9127-1.5373 1.7727 0.61705 1.3236 3.1284 0.82271 4.4526-1.2117 3.2042-4.2699 6.8165-7.6948 7.7487-0.98418 0.26781-3.9849-0.67244-4.1591 1.0092-0.08954 0.86591 0.99106 1.4588 1.6589 1.7141 2.426 0.92796 3.7049-0.22532 5.6249-1.4957 0.42106-0.27864 1.0919-0.58184 1.3936 0.03515 0.35876 0.73449-0.53521 1.5608-0.98501 2.0228-0.93127 0.95649-2.0343 1.8437-3.3251 2.2479-0.77774 0.24366-2.2495 0.10436-2.6904 0.9363-0.43085 0.81322 0.61959 1.3718 1.2323 1.5861 1.5211 0.5325 3.0833 0.02585 4.3749-0.83217 1.0923-0.72554 1.8349-1.9069 3.125-2.2689 0.0733 1.8736-0.83731 3.8849-2.5031 4.8651-0.7848 0.46169-3.1649 0.30218-3.0007 1.5914 0.17854 1.4028 2.3203 1.8984 3.4205 1.4551 1.8919-0.76263 2.3447-2.7033 3.5028-4.1283 0.37772-0.46482 0.90523-0.55687 1.2517 0 0.97981 1.5758-0.41084 3.8337-1.4405 4.9632-0.46397 0.50918-1.2952 1.1056-1.2665 1.8743 0.03374 0.9088 1.079 1.9805 1.5636 2.7073 1.3236 1.9842 2.7669 3.9322 3.889 6.0393h0.41667c1.1221-2.1071 2.5656-4.055 3.889-6.0393 0.48459-0.72678 1.5298-1.7984 1.5636-2.7073 0.0287-0.76866-0.80252-1.3651-1.2665-1.8743-1.0323-1.1327-2.4166-3.3836-1.4407-4.9632 0.34418-0.55708 0.84647-0.46003 1.2202 0 1.1811 1.4532 1.7291 3.5817 3.7428 4.2022 1.0721 0.3305 3.0458-0.22178 3.2122-1.529 0.16417-1.2893-2.2159-1.1298-3.0007-1.5914-1.6659-0.98023-2.5766-2.9915-2.5031-4.8652 1.2902 0.36194 2.0327 1.5434 3.125 2.2689 1.2917 0.858 2.8537 1.3647 4.3749 0.83217 0.61273-0.21429 1.6632-0.77282 1.2323-1.5861-0.44104-0.83195-1.9127-0.69264-2.6904-0.9363-1.2908-0.40421-2.3937-1.2914-3.3251-2.2479-0.4498-0.46191-1.3438-1.2882-0.98502-2.0228 0.30168-0.61705 0.97252-0.31384 1.3936-0.03515 1.92 1.2703 3.1988 2.4238 5.6249 1.4957 0.66792-0.25532 1.7486-0.8482 1.6589-1.7141-0.17416-1.6816-3.1748-0.74137-4.159-1.0092-3.4378-0.93567-6.4785-4.5322-7.6948-7.7487-0.50085-1.3243-0.95003-3.8356 0.82271-4.4526 1.1802-0.41088 2.1861 0.80594 2.9127 1.5373 1.5438 1.5536 2.5613 3.3399 3.6681 5.206 0.48209 0.81259 1.0186 2.1989 1.8574 2.6983 1.2994 0.77365 2.4412-1.4963 3.6421-1.6406 0.77898-0.09364 1.7489 0.34277 2.5 0.53061 1.885 0.47107 3.9019 1.1589 5.8334 1.3272v0.20825c-0.75377 0.31362-1.4969 0.81989-2.2917 1.0121-0.69106 0.16723-1.3913-0.15008-2.075 0.07866-1.4686 0.49167-2.5072 2.4853-2.0917 3.9071h0.20833c0.5823-2.0067 2.5392-0.8076 3.9494-1.5529 0.70564-0.37277 1.0356-1.1308 1.6974-1.5529 2.0502-1.3084 4.5726-0.65807 6.4068 0.78385 0.66334 0.52167 0.78086 1.4299 1.5111 1.8861 0.74294 0.46419 1.5032 0.10594 2.2682 0.36131 0.72711 0.2426 1.1273 0.89526 1.4592 1.5323h0.20832c-5e-3 -1.6238-0.30563-3.8791-1.8782-4.7606-0.9871-0.55333-1.8932-0.14283-2.9136-0.32758-0.74253-0.13432-1.4081-0.636-2.0833-0.95109l4.5834-0.48626 2.0833 0.61974 4.1668-0.75824c-0.60772-1.2083-2.9948-2.5321-4.375-2.1714-0.92835 0.24241-1.5644 1.0642-2.5 1.2753-1.29 0.29113-2.8465 0.06306-4.1668 0.06306v-0.20826l2.4117-1.7802 2.3716-0.24864 1.7133-1.6302 1.6283-0.92254-3.125-0.23326-1.8065 0.06306-1.2133 1.52-4.1836 2.7509-2.5884-0.53416-6.2501-1.4842c0.45272-0.64226 2.2159-1.9573 1.807-2.8254-0.37062-0.78657-2.6967-0.99315-3.4736-1.2762-2.8072-1.0231-5.0165-3.2177-6.2949-5.8946-0.36854-0.77157-1.125-2.2298-0.57375-3.064 0.4504-0.68181 1.0723-0.1102 1.3786 0.36402 1.1781 1.823 1.7401 3.9517 3.8234 5.0389 1.209 0.63079 2.8768-0.03421 1.6192-1.3859-0.90544-0.97316-1.6821-1.7606-2.1525-3.0352-0.29501-0.79907-0.52585-2.6939 0.9471-2.4867 0.99668 0.14031 1.265 1.4971 1.4906 2.2783 0.67045 2.3209 1.8088 4.4285 3.929 5.7336 0.98585 0.60685 2.2782 1.0581 3.243 0.13826 0.87857-0.8378 0.0727-1.7645-0.74397-2.2238-1.7784-1-3.3506-1.9704-3.924-4.0646-0.17418-0.63579-0.36522-1.4421 5e-3 -2.0483 0.3575-0.58684 0.9196-0.49375 1.4209-0.14803 0.97835 0.67494 1.6813 1.7668 2.503 2.6128 1.5407 1.5864 3.0142 3.2248 4.5804 4.7898 1.4419 1.4407 2.8498 2.8033 5.0001 2.9072 1.6301 0.07866 3.9684-0.31842 4.637-2.075 0.27145-0.71305 0.11934-1.5848-0.69085-1.8073-1.3894-0.38152-2.9278 0.01576-4.3627-0.37653-3.1063-0.84841-5.4363-3.426-7.2601-5.9372-0.87167-1.2002-1.7863-2.4161-1.49-3.9568 1.8344 0.9592 3.0932 3 4.7917 4.2399 1.8636 1.3603 4.4799 2.6783 6.8752 2.3608 1.3909-0.18451 3.5266-1.7876 2.3132-3.4099-0.71168-0.9515-2.9499 0.15481-3.9798 0.0733-3.1944-0.2522-5.795-2.2443-7.8981-4.5136-0.64271-0.69368-1.9523-2.0198-1.5506-3.0921 0.46666-1.246 2.0138 0.15623 2.5736 0.56145 2.234 1.6173 5.0318 3.5116 7.9169 3.501 1.535-0.0063 3.3024-1.1021 3.0692-2.8436-0.11351-0.84737-0.78273-1.343-1.611-1.3599-1.1836-0.02444-2.3502 0.21845-3.5416 0.04682-2.1509-0.30987-3.9716-1.6159-5.6252-2.9363-0.63125-0.50397-2.3619-1.5265-2.226-2.5015 0.0538-0.38609 0.48977-0.38006 0.77771-0.30426 0.79605 0.20992 1.5234 0.80698 2.2818 1.1339 2.1544 0.92859 4.9197 1.8363 7.2918 1.4553 1.3429-0.21574 2.6901-0.85673 2.6901-2.4071 0-0.89548-0.49792-1.5754-1.4409-1.5883-1.2058-0.01639-2.3357 0.87091-3.5409 1.0352-2.1026 0.28676-4.2953-0.92651-6.0418-1.9485-0.78731-0.46064-2.6042-1.3397-2.4634-2.473 0.1846-1.4852 2.8476 0.18202 3.5051 0.43172 2.9759 1.1302 7.6082 1.7589 9.5079-1.4967 0.34625-0.59372 0.70564-1.3757 0.63355-2.0813-0.0876-0.8582-0.78064-1.3218-1.5998-1.0635-1.0592 0.33404-1.906 1.2585-2.9165 1.7297-2.0936 0.97628-4.4447 0.62912-6.4585-0.37736-0.77271-0.38609-2.3813-1.1229-2.3966-2.1525-0.0195-1.3224 3.1113-0.40714 3.8548-0.30822 2.5142 0.33404 5.6722-0.07409 7.7053-1.6879 0.99188-0.7874 1.9592-2.298 1.6744-3.6352-0.28709-1.3493-1.5546-1.2743-2.5047-0.65911-0.79251 0.51333-1.4521 1.1791-2.2917 1.6298-1.6135 0.86591-3.2269 0.97544-5.0001 1.1441-1.11 0.10562-2.5025 0.34112-3.1394-0.87966-0.92083-1.7653 2.4234-1.7705 3.3478-1.9566 3.2203-0.64787 6.9464-2.3584 8.8662-5.113 0.93398-1.3399 1.67-3.3582 0.42167-4.7587-0.51624-0.57915-1.2736-0.77241-1.9282-0.29259-0.83585 0.61266-1.3344 1.7699-2.0054 2.5525-1.089 1.2697-2.4459 2.3212-3.8959 3.1503-1.2271 0.70159-3.3018 1.8768-4.7732 1.7193-0.80666-0.08639-1.2183-0.90797-2.1021-0.85696-0.77607 0.04493-1.5842 0.48565-2.2916 0.77969-1.6291 0.67703-3.2144 1.4486-4.7917 2.2369-0.75042 0.37506-1.835 0.71118-2.3745 1.3822-0.62188 0.77406-0.12187 1.7795 0.0158 2.6261 0.17125 1.0585 0.0906 2.2154-0.52689 3.1206-0.99814 1.4625-2.9723 1.9611-4.3837 0.75407-1.8148-1.5523-1.385-4.3746-0.2077-6.1654 2.2444-3.414 5.8036-4.492 9.561-5.3263 1.4444-0.3205 3.0376-0.51458 3.7501-1.9626-1.6469 0.53542-3.1864 1.191-4.5834-0.20825 2.2359 0.0186 4.5402 0.40359 6.6668-0.60809 0.49543-0.23573 2.6726-2.1793 1.1838-2.5506-0.99252-0.2476-2.083 1.4534-2.8504 1.8907-1.2946 0.73741-2.9404 0.64328-4.375 0.64328 1.1071-1.5342 2.3171-2.0004 3.9584-1.0412 0.40293-2.5583-1.9986-1.8924-3.5417-2.4133-1.4048-0.47419-2.3592-1.3309-3.9584-1.2812-1.5296 0.04745-2.9453 0.737-4.375 1.1893-1.5922 0.50397-3.3298 0.8253-5.0001 0.83905l2.5 2.0825c-1.4863 0.64099-3.0487 1.6219-3.7501 3.1238h2.5v0.20825c-1.64 0.24219-3.3691 0.93713-4.375 2.2908l1.4584 0.20825-2.1188 2.2889-1.2146 0.82322-1.2146-0.82322-2.1188-2.2889 1.4584-0.20825c-1.0063-1.3536-2.7353-2.0486-4.3753-2.2908v-0.20825h2.5c-0.70126-1.5019-2.2638-2.4828-3.7501-3.1238l2.5-2.0825c-1.6703-0.01419-3.4077-0.33508-5.0001-0.83905-1.4882-0.47086-2.9858-1.2062-4.5834-1.2062-1.5254 0-2.4334 0.8582-3.7689 1.3039-1.5415 0.51439-3.9246-0.14283-3.5229 2.4074m7.2929-1.177c0.56668-0.11114 1.3379-0.06952 1.8038 0.31364 0.66981 0.55102 0.05817 1.1089-0.55876 1.2595-0.59458 0.14519-1.4902 0.15497-2.0092-0.222-0.80356-0.58392 0.16521-1.2335 0.76418-1.3511m28.126 0c0.56669-0.11114 1.338-0.06952 1.8038 0.31364 0.66981 0.55102 0.0582 1.1089-0.55875 1.2595-0.59459 0.14519-1.4902 0.15497-2.0092-0.222-0.80356-0.58392 0.16521-1.2335 0.76417-1.3511z" fill="#030101"/>
</svg>
