<?xml version="1.0" encoding="UTF-8"?>
<svg width="210mm" height="297mm" version="1.1" viewBox="0 0 210 297" xmlns="http://www.w3.org/2000/svg">
 <path d="m40.209 0v3.3508e-5h-40.209v134.03h100.52v-134.03h-40.209v-3.3508e-5h-13.403z" fill="#007a33"/>
 <path d="m100.52 3.3508e-5v134.03h100.52v-134.03h-93.821z" fill="#fff"/>
 <path d="m100.52 33.508a33.508 33.508 0 0 0-33.505 33.508 33.508 33.508 0 0 0 33.508 33.508 33.508 33.508 0 0 0 30.765-20.232 26.806 26.806 0 0 1-23.288 13.53 26.806 26.806 0 0 1-26.806-26.806 26.806 26.806 0 0 1 26.806-26.806 26.806 26.806 0 0 1 23.288 13.53 33.508 33.508 0 0 0-30.765-20.232 33.508 33.508 0 0 0-3e-3 0z" fill="#c8102e"/>
 <path transform="matrix(0 .17616 -.17616 0 168.82 281.32)" d="m-1216.5 206.8 23.511 67.639 71.594 1.459-57.063 43.262 20.736 68.541-58.778-40.902-58.778 40.902 20.736-68.541-57.063-43.262 71.594-1.459z" fill="#c8102e" stroke-linejoin="round" stroke-opacity=".4498" stroke-width="1.5043"/>
</svg>
