<?xml version="1.0" encoding="UTF-8"?>
<svg width="200mm" height="133.33mm" version="1.1" viewBox="0 0 200 133.33" xmlns="http://www.w3.org/2000/svg">
 <g>
  <path d="m40.001 0v3.3334e-5h-40.001v133.33h100v-133.33h-40.001v-3.3334e-5h-13.334z" fill="#007a33"/>
  <path d="m100 3.3334e-5v133.33h100v-133.33h-93.336z" fill="#fff"/>
  <path d="m100 33.334a33.335 33.334 0 0 0-33.332 33.334 33.335 33.334 0 0 0 33.335 33.334 33.335 33.334 0 0 0 30.606-20.127 26.667 26.667 0 0 1-23.168 13.46 26.667 26.667 0 0 1-26.667-26.667 26.667 26.667 0 0 1 26.667-26.667 26.667 26.667 0 0 1 23.168 13.46 33.335 33.334 0 0 0-30.606-20.127 33.335 33.334 0 0 0-3e-3 0z" fill="#c8102e"/>
 </g>
 <path d="m131.71 66.673-11.854 4.1202-0.25568 12.546-7.5816-10-12.012 3.6339 7.168-10.301-7.168-10.301 12.012 3.6339 7.5816-10 0.25568 12.546z" fill="#c8102e" stroke-linejoin="round" stroke-opacity=".4498" stroke-width=".265"/>
</svg>
