<?xml version="1.0" encoding="UTF-8"?>
<svg width="210mm" height="297mm" version="1.1" viewBox="0 0 210 297" xmlns="http://www.w3.org/2000/svg">
 <path transform="scale(.26458)" d="m0 0.51758v176.46h676.44v-176.47h-676.45z" stroke-width="3.7795"/>
 <path d="m89.488 7.9184 3.7953 19.828 11.094-16.866-4.0814 19.771 16.704-11.337-11.337 16.704 19.771-4.0814-16.866 11.094 19.828 3.7953-19.828 3.7953 16.866 11.094-19.771-4.0814 11.337 16.704-16.704-11.337 4.0814 19.771-11.094-16.866-3.7953 19.828-3.7953-19.828-11.094 16.866 4.0814-19.771-16.704 11.337 11.337-16.704-19.771 4.0814 16.866-11.094-19.828-3.7953 19.828-3.7953-16.866-11.094 19.771 4.0814-11.337-16.704 16.704 11.337-4.0814-19.771 11.094 16.866z" fill="#ffd100" stroke="#000" stroke-width=".26458px"/>
 <path transform="scale(.26458)" d="m0 176.98v98.037h676.44v-98.037h-676.44z" fill="#005eb8" stroke-width="3.7795"/>
 <path transform="scale(.26458)" d="m0 275.02v176.46h676.44v-176.47h-676.45z" fill="#fff" stroke-width="3.7795"/>
 <path d="m178.98 0-89.523 119.42c29.864 0 59.659 0.0341 89.523 0.0341z" color="#000000" color-rendering="auto" dominant-baseline="auto" fill="#e60025" image-rendering="auto" shape-rendering="auto" solid-color="#000000" stop-color="#000000" style="font-feature-settings:normal;font-variant-alternates:normal;font-variant-caps:normal;font-variant-east-asian:normal;font-variant-ligatures:normal;font-variant-numeric:normal;font-variant-position:normal;font-variation-settings:normal;inline-size:0;isolation:auto;mix-blend-mode:normal;shape-margin:0;shape-padding:0;text-decoration-color:#000000;text-decoration-line:none;text-decoration-style:solid;text-indent:0;text-orientation:mixed;text-transform:none;white-space:normal"/>
 <path d="m0 0.13686 89.523 119.42c-29.864 0-59.659 0.0341-89.523 0.0341z" color="#000000" color-rendering="auto" dominant-baseline="auto" fill="#e60025" image-rendering="auto" shape-rendering="auto" solid-color="#000000" stop-color="#000000" style="font-feature-settings:normal;font-variant-alternates:normal;font-variant-caps:normal;font-variant-east-asian:normal;font-variant-ligatures:normal;font-variant-numeric:normal;font-variant-position:normal;font-variation-settings:normal;inline-size:0;isolation:auto;mix-blend-mode:normal;shape-margin:0;shape-padding:0;text-decoration-color:#000000;text-decoration-line:none;text-decoration-style:solid;text-indent:0;text-orientation:mixed;text-transform:none;white-space:normal"/>
</svg>
