<?xml version="1.0" encoding="UTF-8"?>
<svg width="200mm" height="133.33mm" version="1.1" viewBox="0 0 200 133.33" xmlns="http://www.w3.org/2000/svg">
 <path d="m0.0029565 0.15267v52.051h199.99v-52.054h-199.99z" stroke-width=".99998"/>
 <path d="m99.999 8.8281 4.241 22.106 12.397-18.804-4.5607 22.042 18.665-12.639-12.668 18.623 22.093-4.5503-18.847 12.369 22.156 4.2313-22.156 4.2313 18.847 12.369-22.093-4.5503 12.668 18.623-18.665-12.639 4.5607 22.042-12.397-18.804-4.241 22.106-4.241-22.106-12.397 18.804 4.5607-22.042-18.665 12.639 12.668-18.623-22.093 4.5503 18.847-12.369-22.156-4.2313 22.156-4.2313-18.847-12.369 22.093 4.5503-12.668-18.623 18.665 12.639-4.5607-22.042 12.397 18.804z" fill="#ffd100" stroke="#000" stroke-width=".26458px"/>
 <path d="m0.0029565 52.205v28.919h199.99v-28.919z" fill="#005eb8" stroke-width=".99998"/>
 <path d="m0.0029565 81.124v52.051h199.99v-52.054h-199.99z" fill="#fff" stroke-width=".99998"/>
 <path d="m200 0-100.04 133.14c33.371 0 66.665 0.038 100.04 0.038z" color="#000000" color-rendering="auto" dominant-baseline="auto" fill="#e60025" image-rendering="auto" shape-rendering="auto" solid-color="#000000" stop-color="#000000" style="font-feature-settings:normal;font-variant-alternates:normal;font-variant-caps:normal;font-variant-east-asian:normal;font-variant-ligatures:normal;font-variant-numeric:normal;font-variant-position:normal;font-variation-settings:normal;inline-size:0;isolation:auto;mix-blend-mode:normal;shape-margin:0;shape-padding:0;text-decoration-color:#000000;text-decoration-line:none;text-decoration-style:solid;text-indent:0;text-orientation:mixed;text-transform:none;white-space:normal"/>
 <path d="m0.0029565 0.15258 100.04 133.14c-33.371 0-66.665 0.038-100.04 0.038z" color="#000000" color-rendering="auto" dominant-baseline="auto" fill="#e60025" image-rendering="auto" shape-rendering="auto" solid-color="#000000" stop-color="#000000" style="font-feature-settings:normal;font-variant-alternates:normal;font-variant-caps:normal;font-variant-east-asian:normal;font-variant-ligatures:normal;font-variant-numeric:normal;font-variant-position:normal;font-variation-settings:normal;inline-size:0;isolation:auto;mix-blend-mode:normal;shape-margin:0;shape-padding:0;text-decoration-color:#000000;text-decoration-line:none;text-decoration-style:solid;text-indent:0;text-orientation:mixed;text-transform:none;white-space:normal"/>
</svg>
