<?xml version="1.0" encoding="UTF-8"?>
<svg width="200mm" height="133.33mm" version="1.1" viewBox="0 0 200 133.33" xmlns="http://www.w3.org/2000/svg">
 <path d="m0 0v44.444h200v-44.444h-177.78z" fill="#ce1126" stroke-width=".26458"/>
 <path d="m0 44.445v44.445h200v-44.445h-177.78z" fill="#fff" fill-opacity=".50602" stroke-width=".26458"/>
 <g transform="scale(1.2028)">
  <path transform="scale(.26458)" d="m0 279.31v139.66h628.46v-139.66h-558.63z" stroke-width=".83138"/>
  <path transform="matrix(.52573 0 0 .55279 38.004 21.144)" d="m138.57 36.951 6.5157 18.745 19.841 0.40433-15.814 11.989 5.7466 18.995-16.289-11.335-16.289 11.335 5.7466-18.995-15.814-11.989 19.841-0.40433z" fill="#007a3d" stroke-width=".6912"/>
  <path transform="matrix(.52573 0 0 .55279 -17.422 21.144)" d="m138.57 36.951 6.5157 18.745 19.841 0.40433-15.814 11.989 5.7466 18.995-16.289-11.335-16.289 11.335 5.7466-18.995-15.814-11.989 19.841-0.40433z" fill="#007a3d" stroke-width=".6912"/>
 </g>
</svg>
