<?xml version="1.0" encoding="UTF-8"?>
<svg width="210mm" height="297mm" version="1.1" viewBox="0 0 210 297" xmlns="http://www.w3.org/2000/svg">
 <path transform="scale(.26458)" d="m0 0v69.828 69.828h69.828 69.828 69.83 69.828 69.828 69.828 69.828 69.83 69.828v-69.828-69.828h-69.828-69.83-69.828-69.828-69.828-69.828-69.83-69.828-69.828z" fill="#ce1126"/>
 <path transform="scale(.26458)" d="m0 139.66v69.83 69.828h69.828 69.828 69.83 69.828 69.828 69.828 69.828 69.83 69.828v-69.828-69.83h-69.828-69.83-69.828-69.828-69.828-69.828-69.83-69.828-69.828z" fill="#fff" fill-opacity=".50602"/>
 <g>
  <path transform="scale(.26458)" d="m0 279.31v69.828 69.828h69.828 69.828 69.83 69.828 69.828 69.828 69.828 69.83 69.828v-69.828-69.828h-69.828-69.83-69.828-69.828-69.828-69.828-69.83-69.828-69.828z"/>
  <path transform="matrix(.52573 0 0 .55279 38.004 21.144)" d="m138.57 36.951 6.5157 18.745 19.841 0.40433-15.814 11.989 5.7466 18.995-16.289-11.335-16.289 11.335 5.7466-18.995-15.814-11.989 19.841-0.40433z" fill="#007a3d"/>
  <path transform="matrix(.52573 0 0 .55279 -17.422 21.144)" d="m138.57 36.951 6.5157 18.745 19.841 0.40433-15.814 11.989 5.7466 18.995-16.289-11.335-16.289 11.335 5.7466-18.995-15.814-11.989 19.841-0.40433z" fill="#007a3d"/>
 </g>
</svg>
