<?xml version="1.0" encoding="UTF-8"?>
<svg width="210mm" height="297mm" version="1.1" viewBox="0 0 210 297" xmlns="http://www.w3.org/2000/svg">
 <g fill-opacity=".98795">
  <path transform="scale(.26458)" d="m0 161.81v80.906 80.906h83.186 83.184 83.186 83.184 83.186 83.186 83.184 83.186 83.184v-80.906-80.906h-83.184-83.186-83.184-83.186-83.186-83.184-83.186-83.184-83.186z" fill="#fff"/>
  <path transform="scale(.26458)" d="m0 0v80.906 80.904h83.186 83.184 83.186 83.184 83.186 83.186 83.184 83.186 83.184v-80.904-80.906h-83.184-83.186-83.184-83.186-83.186-83.184-83.186-83.184-83.186z" fill="#007a3d"/>
  <path transform="scale(.26458)" d="m0 323.62v80.906 80.904h83.186 83.184 83.186 83.184 83.186 83.186 83.184 83.186 83.184v-80.904-80.906h-83.184-83.186-83.184-83.186-83.186-83.184-83.186-83.184-83.186z" fill="#00000a"/>
  <g fill="#ce1126">
   <path transform="matrix(.16881 0 0 .17749 82.161 42.187)" d="m100 33.676 23.511 67.639 71.594 1.459-57.063 43.262 20.736 68.541-58.779-40.902-58.779 40.902 20.736-68.541-57.063-43.262 71.594-1.459z"/>
   <path transform="matrix(.16881 0 0 .17749 32.508 42.187)" d="m100 33.676 23.511 67.639 71.594 1.459-57.063 43.262 20.736 68.541-58.779-40.902-58.779 40.902 20.736-68.541-57.063-43.262 71.594-1.459z"/>
   <path transform="matrix(.16881 0 0 .17749 131.55 42.187)" d="m100 33.676 23.511 67.639 71.594 1.459-57.063 43.262 20.736 68.541-58.779-40.902-58.779 40.902 20.736-68.541-57.063-43.262 71.594-1.459z"/>
  </g>
 </g>
</svg>
