<?xml version="1.0" encoding="UTF-8"?>
<svg width="210mm" height="297mm" version="1.1" viewBox="0 0 210 297" xmlns="http://www.w3.org/2000/svg">
 <g transform="scale(1.0097 1.0381)" fill-opacity=".98795">
  <path transform="scale(.26458)" d="m0 161.81v161.81h748.67v-161.81h-665.48z" fill="#fff" stroke-width=".96739"/>
  <path transform="scale(.26458)" d="m0 0v161.81h748.67v-161.81h-665.48z" fill="#007a3d" stroke-width=".96739"/>
  <path transform="scale(.26458)" d="m0 323.62v161.81h748.67v-161.81h-665.48z" fill="#00000a" stroke-width=".96739"/>
  <g fill="#ce1126" stroke-width=".97675">
   <path transform="matrix(.16881 0 0 .17749 82.161 42.187)" d="m100 33.676 23.511 67.639 71.594 1.459-57.063 43.262 20.736 68.541-58.779-40.902-58.779 40.902 20.736-68.541-57.063-43.262 71.594-1.459z"/>
   <path transform="matrix(.16881 0 0 .17749 32.508 42.187)" d="m100 33.676 23.511 67.639 71.594 1.459-57.063 43.262 20.736 68.541-58.779-40.902-58.779 40.902 20.736-68.541-57.063-43.262 71.594-1.459z"/>
   <path transform="matrix(.16881 0 0 .17749 131.55 42.187)" d="m100 33.676 23.511 67.639 71.594 1.459-57.063 43.262 20.736 68.541-58.779-40.902-58.779 40.902 20.736-68.541-57.063-43.262 71.594-1.459z"/>
  </g>
 </g>
</svg>
